<?xml version="1.0" encoding="utf-8"?>
<!-- Generator: Adobe Illustrator 26.0.3, SVG Export Plug-In . SVG Version: 6.00 Build 0)  -->
<svg version="1.1" id="Layer_1" xmlns="http://www.w3.org/2000/svg" xmlns:xlink="http://www.w3.org/1999/xlink" x="0px" y="0px"
	 viewBox="0 0 1080 247.33" style="enable-background:new 0 0 1080 247.33;" xml:space="preserve">
<style type="text/css">
	.st0{fill-rule:evenodd;clip-rule:evenodd;fill:#0078A9;}
	.st1{fill:#52237F;}
	.st2{fill-rule:evenodd;clip-rule:evenodd;fill:#F5A800;}
	.st3{fill-rule:evenodd;clip-rule:evenodd;fill:#0033A1;}
	.st4{fill-rule:evenodd;clip-rule:evenodd;fill:#E1251B;}
	.st5{fill-rule:evenodd;clip-rule:evenodd;fill:#FFFFFF;}
	.st6{fill-rule:evenodd;clip-rule:evenodd;fill:#FF0000;}
	.st7{fill:#F89F21;}
	.st8{fill:#28387D;}
	.st9{fill:#088C45;}
	.st10{fill:#F37A21;}
	.st11{fill-rule:evenodd;clip-rule:evenodd;fill:#E60005;}
	.st12{fill:#F1890B;}
	.st13{fill:url(#SVGID_1_);}
	.st14{fill:#000105;}
	.st15{fill:#231F20;}
	.st16{fill:#EF3E42;}
	.st17{fill:none;}
	.st18{fill:#DE4447;}
	.st19{fill:#EC1C24;}
	.st20{fill:#2A557C;}
	.st21{fill:#0071BB;}
	.st22{fill:#009DA4;}
	.st23{fill:#FFFFFF;}
	.st24{fill:#F05C61;}
	.st25{fill-rule:evenodd;clip-rule:evenodd;fill:#0054A5;}
	.st26{fill-rule:evenodd;clip-rule:evenodd;fill:#231F20;}
	.st27{fill:#00A7E0;}
	.st28{fill:#F25022;}
	.st29{fill:#80BA01;}
	.st30{fill:#777777;}
	.st31{fill:#02A4EF;}
	.st32{fill:#FFB902;}
	.st33{fill:#FF0000;}
	.st34{fill-rule:evenodd;clip-rule:evenodd;}
	.st35{fill:#ED2423;stroke:#ED2423;stroke-width:0.2728;stroke-miterlimit:1.0913;}
	.st36{fill:url(#path3858_00000111166853778234927320000018370667678292935831_);}
	.st37{fill:url(#path3852_00000010294201723225914250000003245064334049183664_);}
	
		.st38{fill:url(#path3824_00000103959851114227274690000010532392114293665187_);stroke:url(#path3824_00000129909577030443743520000017932619528867308425_);stroke-width:0.238;stroke-miterlimit:1.0913;}
	
		.st39{fill:url(#path3826_00000020358386985135494990000001870390144170305969_);stroke:url(#path3826_00000072270157963869040240000010673358475403137215_);stroke-width:0.1995;stroke-miterlimit:1.0913;}
	.st40{fill:url(#path3856_00000047747811196496062880000013002555993991618732_);}
	.st41{fill:url(#path3828_00000067208621371160133930000010035403109024742078_);}
	
		.st42{fill:url(#path3830_00000156557594033766681840000006438631099930710411_);stroke:#FEC20F;stroke-width:0.4678;stroke-miterlimit:1.0913;}
	
		.st43{fill:url(#path3842_00000095305685707998423000000015675405424347612085_);stroke:#FEC20F;stroke-width:0.5207;stroke-miterlimit:1.0913;}
	
		.st44{fill:url(#path3844_00000077297650375874955010000003491916790883093432_);stroke:#FEC20F;stroke-width:0.3517;stroke-miterlimit:1.0913;}
	
		.st45{fill:url(#path3832_00000021800902254886153410000015060712362997136544_);stroke:#FEC20F;stroke-width:0.8185;stroke-miterlimit:1.0913;}
	.st46{fill:url(#path3854_00000000193223896754059640000001017949836204795303_);}
	
		.st47{fill:url(#path3834_00000009566691522531037350000015664194720233701011_);stroke:#FEC20F;stroke-width:0.3213;stroke-miterlimit:1.0913;}
	
		.st48{fill:url(#path3836_00000004533376249271422910000012946481277353522872_);stroke:#FEC20F;stroke-width:0.3201;stroke-miterlimit:1.0913;}
	
		.st49{fill:url(#path3838_00000145759394180124999230000011666248000080106659_);stroke:#FEC20F;stroke-width:0.2504;stroke-miterlimit:1.0913;}
	
		.st50{fill:url(#path3840_00000179629395732138415510000011396231181642952349_);stroke:#FEC20F;stroke-width:0.159;stroke-miterlimit:1.0913;}
	
		.st51{fill:url(#path3846_00000086656481052843354230000011268082619479785877_);stroke:#FEC20F;stroke-width:0.2541;stroke-miterlimit:1.0913;}
	.st52{fill:#FB000C;stroke:#FEC20F;stroke-width:0.2207;stroke-miterlimit:1.0913;}
	.st53{fill:url(#path3850_00000173881281255288509000000007446910344885333412_);}
	.st54{fill:url(#path3860_00000141416281081871454230000004087136530617425046_);}
	.st55{fill:none;stroke:#FFFFFB;stroke-width:0.5;stroke-miterlimit:1.0913;}
	.st56{fill:#191919;}
	.st57{fill:#D1AA67;stroke:#D1AA67;stroke-width:2.0247;stroke-linecap:round;stroke-linejoin:round;stroke-miterlimit:22.9256;}
	
		.st58{fill-rule:evenodd;clip-rule:evenodd;fill:#FFFFFF;stroke:#FFFFFF;stroke-width:1.3498;stroke-linecap:round;stroke-linejoin:round;stroke-miterlimit:22.9256;}
	.st59{fill-rule:evenodd;clip-rule:evenodd;fill:#EC1C24;}
	.st60{fill:url(#SVGID_00000129888516854756344200000003664120150723262601_);}
	.st61{fill-rule:evenodd;clip-rule:evenodd;fill:#1D1D1B;}
	.st62{fill-rule:evenodd;clip-rule:evenodd;fill:#E20613;}
</style>
<g>
	<polygon class="st11" points="0,249.67 271.56,249.67 334.04,-3.46 200.66,-3.46 	"/>
	<polygon class="st5" points="232.38,100.48 232.38,46.82 186.43,46.82 186.43,100.48 132.86,100.48 132.86,146.2 186.43,146.2 
		186.43,199.84 232.38,199.84 232.38,146.2 286.01,146.2 286.01,100.48 232.38,100.48 232.38,100.48 	"/>
	<path class="st11" d="M745.65,203.01h41.34V43.73h-41.34V203.01z M1079.94,155.16c-1.12-27.15-18.47-37.99-41.45-46.01
		c-4.79-1.68-9.83-3.22-15.03-4.77c-14.88-4.4-28.23-8.33-28.23-21.32c0-11.4,11.57-15.15,20.23-15.15
		c7.34,0,21.11,1.54,22.22,18.45h39.2c-0.65-32.29-26.98-46.35-60.75-46.35c-20.9,0-38.22,5.94-49.12,16.69
		c-7.54,7.48-12.22,18.47-12.22,29.87c0,9.05,1.85,16.43,5.02,22.52c7.29,13.92,21.6,21.09,37.22,25.83
		c21.18,6.49,36.36,10.81,40.58,20.27c0.79,1.75,1.19,3.69,1.19,5.85c0,9.22-7.34,18.45-21.78,18.45
		c-18.45,0-25.11-10.98-25.55-21.75h-39.56c0,22.39,11.49,36.11,28.23,43.41h0.01c10.69,4.67,23.53,6.71,36.87,6.71
		c13.81,0,25.19-2.48,34.29-6.68h0.03c19.64-9.06,28.67-26.09,28.67-43.19C1080,157.02,1079.98,156.07,1079.94,155.16z
		 M894.03,109.14c-4.79-1.68-9.83-3.22-15.01-4.77c-14.9-4.4-28.23-8.33-28.23-21.32c0-11.4,11.54-15.15,20.23-15.15
		c7.32,0,21.09,1.54,22.22,18.45h39.11c-0.65-32.29-26.89-46.35-60.69-46.35c-20.87,0-38.21,5.94-49.1,16.69
		c-7.56,7.48-12.22,18.47-12.22,29.87c0,9.05,1.82,16.43,5.02,22.52c7.28,13.92,21.59,21.09,37.19,25.83
		c21.2,6.49,36.37,10.77,40.6,20.25c0.78,1.77,1.18,3.71,1.18,5.87c0,9.22-7.32,18.45-21.76,18.45c-18.46,0-25.12-10.98-25.55-21.75
		h-39.57c0,22.39,11.5,36.11,28.23,43.41h0.02c10.69,4.67,23.53,6.71,36.87,6.71c13.79,0,25.13-2.48,34.23-6.68h0.03
		c19.61-9.06,28.64-26.09,28.64-43.19c0-0.95-0.02-1.89-0.06-2.83C934.29,128.01,916.99,117.17,894.03,109.14z M673.23,109.14
		l-10.33,41.35l-12.05-41.35l-19.06-65.41h-40l-19.05,65.41l-12.05,41.35l-10.34-41.35l-16.36-65.41h-40.46l18.07,65.41l12.72,46.01
		l12.71,46.02l0.52,1.83h42.68l0.54-1.83l13.3-46.02l13.29-46.01l4.43-15.33l4.43,15.33l13.3,46.01l13.29,46.02l0.54,1.83H686
		l0.52-1.83l12.74-46.02l12.73-46.01l18.11-65.41h-40.54L673.23,109.14z M448.44,109.14c-3.13-1.19-6.47-2.31-9.98-3.46
		c-16.68-5.49-32.28-9.64-32.28-22.62c0-11.4,11.58-15.15,20.25-15.15c7.32,0,21.11,1.54,22.22,18.45h39.12
		c-0.69-32.29-26.9-46.35-60.68-46.35c-20.91,0-38.24,5.94-49.12,16.69c-7.57,7.48-12.23,18.47-12.23,29.87
		c0,9.05,1.84,16.43,5.03,22.55c7.28,13.89,21.6,21.06,37.2,25.8c21.16,6.49,36.31,10.77,40.56,20.23h0.02
		c0.79,1.78,1.19,3.73,1.19,5.89c0,9.22-7.33,18.45-21.78,18.45c-18.44,0-25.11-10.98-25.55-21.75h-39.54
		c0,22.39,11.5,36.11,28.24,43.41c10.69,4.67,23.53,6.71,36.86,6.71c13.79,0,25.07-2.48,34.06-6.68h0.03
		c19.37-9.06,28.04-26.09,28.04-43.19c0-0.95-0.02-1.86-0.04-2.8C489.16,129.73,475.96,119.11,448.44,109.14z"/>
</g>
</svg>
