<?xml version="1.0" encoding="utf-8"?>
<!-- Generator: Adobe Illustrator 26.0.3, SVG Export Plug-In . SVG Version: 6.00 Build 0)  -->
<svg version="1.1" id="Layer_1" xmlns="http://www.w3.org/2000/svg" xmlns:xlink="http://www.w3.org/1999/xlink" x="0px" y="0px"
	 viewBox="0 0 1080 416.49" style="enable-background:new 0 0 1080 416.49;" xml:space="preserve">
<style type="text/css">
	.st0{fill-rule:evenodd;clip-rule:evenodd;fill:#0078A9;}
	.st1{fill:#52237F;}
	.st2{fill-rule:evenodd;clip-rule:evenodd;fill:#F5A800;}
	.st3{fill-rule:evenodd;clip-rule:evenodd;fill:#0033A1;}
	.st4{fill-rule:evenodd;clip-rule:evenodd;fill:#E1251B;}
	.st5{fill-rule:evenodd;clip-rule:evenodd;fill:#FFFFFF;}
	.st6{fill-rule:evenodd;clip-rule:evenodd;fill:#FF0000;}
	.st7{fill:#F89F21;}
	.st8{fill:#28387D;}
	.st9{fill:#088C45;}
	.st10{fill:#F37A21;}
	.st11{fill-rule:evenodd;clip-rule:evenodd;fill:#E60005;}
	.st12{fill:#F1890B;}
	.st13{fill:url(#SVGID_1_);}
	.st14{fill:#000105;}
	.st15{fill:#231F20;}
	.st16{fill:#EF3E42;}
	.st17{fill:none;}
	.st18{fill:#DE4447;}
	.st19{fill:#EC1C24;}
	.st20{fill:#2A557C;}
	.st21{fill:#0071BB;}
	.st22{fill:#009DA4;}
	.st23{fill:#FFFFFF;}
	.st24{fill:#F05C61;}
	.st25{fill-rule:evenodd;clip-rule:evenodd;fill:#0054A5;}
	.st26{fill-rule:evenodd;clip-rule:evenodd;fill:#231F20;}
	.st27{fill:#00A7E0;}
	.st28{fill:#F25022;}
	.st29{fill:#80BA01;}
	.st30{fill:#777777;}
	.st31{fill:#02A4EF;}
	.st32{fill:#FFB902;}
	.st33{fill:#FF0000;}
	.st34{fill-rule:evenodd;clip-rule:evenodd;}
	.st35{fill:#ED2423;stroke:#ED2423;stroke-width:0.2728;stroke-miterlimit:1.0913;}
	.st36{fill:url(#path3858_00000065041672794916874100000013093371038527500942_);}
	.st37{fill:url(#path3852_00000008151094234335204740000014152393956910206885_);}
	
		.st38{fill:url(#path3824_00000142155800812042735130000002325757670289016217_);stroke:url(#path3824_00000148657538215850332740000011519695510002866061_);stroke-width:0.238;stroke-miterlimit:1.0913;}
	
		.st39{fill:url(#path3826_00000108304501908665875730000005376678659427224960_);stroke:url(#path3826_00000007406143951315113160000000826958783771853999_);stroke-width:0.1995;stroke-miterlimit:1.0913;}
	.st40{fill:url(#path3856_00000078766442438499952030000014356646128086131338_);}
	.st41{fill:url(#path3828_00000177474724998816527710000010044644547001713297_);}
	
		.st42{fill:url(#path3830_00000071559283647591186770000014183641587028823178_);stroke:#FEC20F;stroke-width:0.4678;stroke-miterlimit:1.0913;}
	
		.st43{fill:url(#path3842_00000075853773816458318440000005255283008844405401_);stroke:#FEC20F;stroke-width:0.5207;stroke-miterlimit:1.0913;}
	
		.st44{fill:url(#path3844_00000183928934012838668790000007614650970107416219_);stroke:#FEC20F;stroke-width:0.3517;stroke-miterlimit:1.0913;}
	
		.st45{fill:url(#path3832_00000072244666766102615310000013505602518927451557_);stroke:#FEC20F;stroke-width:0.8185;stroke-miterlimit:1.0913;}
	.st46{fill:url(#path3854_00000116932514398591859930000003912286795866135937_);}
	
		.st47{fill:url(#path3834_00000000923390894088252290000004536044569364896422_);stroke:#FEC20F;stroke-width:0.3213;stroke-miterlimit:1.0913;}
	
		.st48{fill:url(#path3836_00000068638496459821218170000011347150584482899609_);stroke:#FEC20F;stroke-width:0.3201;stroke-miterlimit:1.0913;}
	
		.st49{fill:url(#path3838_00000164504769338238371120000008977517383313261193_);stroke:#FEC20F;stroke-width:0.2504;stroke-miterlimit:1.0913;}
	
		.st50{fill:url(#path3840_00000044144390265679807020000006943537213838200746_);stroke:#FEC20F;stroke-width:0.159;stroke-miterlimit:1.0913;}
	
		.st51{fill:url(#path3846_00000110462391445473062800000001250001551458657205_);stroke:#FEC20F;stroke-width:0.2541;stroke-miterlimit:1.0913;}
	.st52{fill:#FB000C;stroke:#FEC20F;stroke-width:0.2207;stroke-miterlimit:1.0913;}
	.st53{fill:url(#path3850_00000048496606427387235270000001131859124282733195_);}
	.st54{fill:url(#path3860_00000028312533196103361670000006691401057833503114_);}
	.st55{fill:none;stroke:#FFFFFB;stroke-width:0.5;stroke-miterlimit:1.0913;}
	.st56{fill:#191919;}
	.st57{fill:#D1AA67;stroke:#D1AA67;stroke-width:2.0247;stroke-linecap:round;stroke-linejoin:round;stroke-miterlimit:22.9256;}
	
		.st58{fill-rule:evenodd;clip-rule:evenodd;fill:#FFFFFF;stroke:#FFFFFF;stroke-width:1.3498;stroke-linecap:round;stroke-linejoin:round;stroke-miterlimit:22.9256;}
	.st59{fill-rule:evenodd;clip-rule:evenodd;fill:#EC1C24;}
	.st60{fill:url(#SVGID_00000096777013809781518810000000388331783705117105_);}
	.st61{fill-rule:evenodd;clip-rule:evenodd;fill:#1D1D1B;}
	.st62{fill-rule:evenodd;clip-rule:evenodd;fill:#E20613;}
</style>
<g>
	<rect class="st61" width="1080" height="416.49"/>
	<rect x="10.42" y="10.19" class="st5" width="1059.17" height="396.12"/>
	<rect x="10.42" y="10.12" class="st62" width="1059.17" height="279.9"/>
	<path class="st61" d="M1031.28,348.67c-0.32-2.32-1.73-4.12-4.27-5.39c-2.54-1.28-5.97-1.93-10.25-1.93c-4.42,0-7.8,0.5-10.1,1.51
		c-2.3,1.01-3.45,2.5-3.46,4.45c0,1.49,0.8,2.62,2.42,3.36c1.61,0.76,4.82,1.53,9.63,2.28l11,1.73c6.14,1.01,10.53,2.37,13.18,4.12
		c2.6,1.72,3.91,4.14,3.91,7.23c0,4.15-2.27,7.43-6.77,9.84c-4.52,2.42-10.62,3.63-18.31,3.62c-8.92-0.01-15.56-1.18-19.94-3.52
		c-4.36-2.34-6.79-6.01-7.25-11.01l10.23,0.01c0.5,2.98,2.09,5.12,4.76,6.46c2.66,1.32,6.72,2,12.21,2c4.76,0,8.38-0.59,10.84-1.79
		c2.49-1.2,3.72-2.94,3.72-5.23c0-1.46-0.81-2.56-2.42-3.33c-1.64-0.75-4.88-1.51-9.77-2.28l-10.98-1.73
		c-5.95-0.94-10.19-2.27-12.71-3.95c-2.52-1.68-3.79-4.02-3.79-7.04c0-3.94,2.13-7.05,6.37-9.36c4.24-2.3,9.98-3.44,17.25-3.43
		c7.37,0.01,13.22,1.2,17.58,3.58c4.36,2.37,6.65,5.64,6.93,9.81L1031.28,348.67z M919.3,354.13c-0.32-3.88-1.77-6.9-4.37-9.07
		c-2.86-2.39-7.08-3.6-12.63-3.6c-5.59-0.01-10.08,1.36-13.43,4.12c-2.64,2.17-4.24,5-4.79,8.52L919.3,354.13z M901.53,379.36
		c-8.94-0.01-15.97-1.9-21.09-5.65c-5.12-3.75-7.68-8.95-7.67-15.56c0.01-7.04,2.72-12.63,8.15-16.78c5.42-4.14,12.7-6.21,21.85-6.2
		c8.28,0.01,14.96,2.04,20.04,6.12c5.08,4.07,7.62,9.41,7.61,16.03l-0.12,2.51l-46.23-0.05c0.42,4.18,1.87,7.35,4.31,9.54
		c2.98,2.66,7.71,4,14.18,4c4.06,0,7.59-0.75,10.64-2.26c3.03-1.5,4.89-3.43,5.56-5.78l10.52,0.01c-1.58,4.59-4.73,8.08-9.48,10.49
		C915.07,378.18,908.98,379.37,901.53,379.36z M785.08,336.29l5.03,0.01l5.09,0.01l-0.01,7.15c0.91-1.12,1.86-2.13,2.89-3.04
		c4.02-3.57,8.99-5.35,14.86-5.35c0.97,0,1.98,0.12,3.01,0.35l-0.01,7.2l-2.18-0.04c-5.77-0.01-10.21,1.12-13.35,3.4
		c-3.13,2.28-4.71,5.53-4.71,9.75l-0.02,22.39l-5.31-0.01l-5.33-0.01L785.08,336.29z M675.31,363.14c0,3.51,1.03,6.04,3.06,7.61
		c2.06,1.55,5.39,2.33,10.01,2.33c5.13,0.01,9.19-1.3,12.17-3.91c3.01-2.63,4.51-6.17,4.51-10.65l0.02-22.31l5.33,0.01l5.31,0.01
		l-0.04,41.81l-5.03-0.01l-5.09-0.01l0.01-6.37c-0.71,0.76-1.49,1.48-2.36,2.16c-4.53,3.55-10.22,5.34-17.04,5.33
		c-7.16-0.01-12.55-1.2-16.12-3.58c-3.59-2.37-5.39-5.93-5.38-10.68l0.03-28.72l5.33,0.01l5.31,0.01L675.31,363.14z M602.02,377.86
		c-3.64,0.36-6.26,0.54-7.92,0.54c-4.66-0.01-7.93-0.69-9.85-2.04c-1.92-1.36-2.87-3.7-2.86-7l0.03-27.54l-8.76-0.01l0.01-5.75
		l8.76,0.01l0.01-11.72l10.64,0.01l-0.01,11.72l9.99,0.01l-0.01,5.75l-9.99-0.01l-0.03,27.54c0,0.95,0.56,1.68,1.67,2.23
		c1.13,0.55,2.65,0.83,4.54,0.83l3.77,0L602.02,377.86z M500.27,320.35l10.88,0.01l-0.01,7.97l-10.88-0.01L500.27,320.35z
		 M500.38,335.98l5.33,0.01l5.31,0.01l-0.05,41.81l-5.31-0.01l-5.33-0.01L500.38,335.98z M380.79,335.85l5.03,0.01l5.09,0.01
		l-0.01,6.18l2.36-2.08c4.61-3.56,10.4-5.34,17.35-5.33c6.96,0.01,12.35,1.27,16.14,3.77c3.77,2.51,5.66,6.06,5.66,10.68
		l-0.03,28.65l-5.31-0.01l-5.33-0.01l0.03-26.26c0-3.68-1.06-6.34-3.22-7.97c-2.14-1.63-5.63-2.45-10.43-2.45
		c-5.13-0.01-9.21,1.27-12.2,3.84c-3.01,2.56-4.51,6.02-4.51,10.41l-0.02,22.39l-5.31-0.01l-5.33-0.01L380.79,335.85z
		 M290.05,335.75l5.03,0.01l5.09,0.01l-0.01,7.15c0.91-1.12,1.86-2.13,2.89-3.04c4.02-3.57,8.99-5.35,14.86-5.35
		c0.97,0,1.98,0.12,3.01,0.35l-0.01,7.2l-2.18-0.04c-5.77-0.01-10.21,1.12-13.35,3.4c-3.13,2.28-4.71,5.53-4.71,9.75l-0.02,22.39
		l-5.31-0.01l-5.33-0.01L290.05,335.75z M180.28,362.6c0,3.51,1.03,6.04,3.06,7.61c2.06,1.55,5.39,2.33,10.01,2.33
		c5.13,0.01,9.19-1.3,12.17-3.91c3.01-2.63,4.51-6.17,4.51-10.65l0.02-22.31l5.33,0.01l5.31,0.01l-0.04,41.81l-5.03-0.01l-5.09-0.01
		l0.01-6.37c-0.71,0.76-1.49,1.48-2.36,2.16c-4.53,3.55-10.22,5.34-17.04,5.33c-7.16-0.01-12.55-1.2-16.12-3.58
		c-3.59-2.37-5.39-5.93-5.38-10.68l0.03-28.72l5.33,0.01l5.31,0.01L180.28,362.6z M45.97,377.3l0.06-57.44l60.19,0.07l0,3.44l0,3.44
		l-48.43-0.05l-0.02,17.54l42.39,0.05l0,3.44l0,3.44l-42.39-0.05l-0.03,26.14l-5.85-0.01L45.97,377.3z"/>
	<path class="st5" d="M934.41,170.12l-18.43-59.48l-18.44,59.44L934.41,170.12z M945.19,205.91l-58.86-0.06l-8.13,27.3l-52.79-0.06
		l63.01-165.34l56.33,0.06l62.69,165.48l-54.07-0.06L945.19,205.91z"/>
	
		<rect x="701.63" y="124.45" transform="matrix(1.087874e-03 -1 1 1.087874e-03 633.1516 934.5065)" class="st5" width="165.41" height="51.77"/>
	<polygon class="st5" points="608.82,67.44 720.59,67.56 720.55,108.42 693.16,108.39 693.03,232.94 641.37,232.88 641.5,108.33 
		608.78,108.3 	"/>
	<polygon class="st5" points="418.47,67.23 466.74,67.28 529.59,158.86 529.69,67.35 578.38,67.4 578.21,232.81 529.51,232.76 
		466.97,141.88 466.88,232.69 418.3,232.64 	"/>
	<path class="st5" d="M114.99,196.77l21.43,0.02c7.25,0.01,12.35-1.53,15.29-4.64c2.98-3.12,4.47-7.31,4.48-12.59
		c0.01-4.89-1.45-8.82-4.39-11.79c-2.94-2.97-8.07-4.48-15.45-4.49l-21.34-0.02L114.99,196.77z M115.06,131.79l18.27,0.02
		c6.56,0.01,11.11-1.37,13.71-4.1c2.57-2.77,3.84-6.74,3.84-11.9c0.01-4.81-1.26-8.59-3.82-11.29c-2.59-2.74-7.06-4.09-13.42-4.1
		l-18.55-0.02L115.06,131.79z M72.73,66.86l78.67,0.08c13.11,0.01,23.17,3.99,30.16,11.89c7.02,7.9,10.53,17.69,10.51,29.32
		c-0.01,9.78-2.52,18.18-7.53,25.18c-3.36,4.66-8.24,8.35-14.67,11.04c9.75,2.86,16.93,7.79,21.54,14.73
		c4.58,6.98,6.88,15.72,6.87,26.23c-0.01,8.59-1.66,16.29-4.93,23.14c-3.3,6.85-7.77,12.24-13.47,16.24
		c-3.52,2.46-8.84,4.26-15.96,5.37c-9.47,1.49-15.74,2.26-18.84,2.25l-72.53-0.08L72.73,66.86z"/>
	<path class="st5" d="M322.88,169.45l-18.43-59.48l-18.44,59.44L322.88,169.45z M333.66,205.24l-58.86-0.06l-8.13,27.3l-52.79-0.06
		l63.01-165.34l56.33,0.06l62.69,165.48l-54.07-0.06L333.66,205.24z"/>
</g>
</svg>
