<?xml version="1.0" encoding="utf-8"?>
<!-- Generator: Adobe Illustrator 26.0.3, SVG Export Plug-In . SVG Version: 6.00 Build 0)  -->
<svg version="1.1" id="Layer_1" xmlns="http://www.w3.org/2000/svg" xmlns:xlink="http://www.w3.org/1999/xlink" x="0px" y="0px"
	 viewBox="0 0 1080 247.35" style="enable-background:new 0 0 1080 247.35;" xml:space="preserve">
<style type="text/css">
	.st0{fill-rule:evenodd;clip-rule:evenodd;fill:#0078A9;}
	.st1{fill:#52237F;}
	.st2{fill-rule:evenodd;clip-rule:evenodd;fill:#F5A800;}
	.st3{fill-rule:evenodd;clip-rule:evenodd;fill:#0033A1;}
	.st4{fill-rule:evenodd;clip-rule:evenodd;fill:#E1251B;}
	.st5{fill-rule:evenodd;clip-rule:evenodd;fill:#FFFFFF;}
	.st6{fill-rule:evenodd;clip-rule:evenodd;fill:#FF0000;}
	.st7{fill:#F89F21;}
	.st8{fill:#28387D;}
	.st9{fill:#088C45;}
	.st10{fill:#F37A21;}
	.st11{fill-rule:evenodd;clip-rule:evenodd;fill:#E60005;}
	.st12{fill:#F1890B;}
	.st13{fill:url(#SVGID_1_);}
	.st14{fill:#000105;}
	.st15{fill:#231F20;}
	.st16{fill:#EF3E42;}
	.st17{fill:none;}
	.st18{fill:#DE4447;}
	.st19{fill:#EC1C24;}
	.st20{fill:#2A557C;}
	.st21{fill:#0071BB;}
	.st22{fill:#009DA4;}
	.st23{fill:#FFFFFF;}
	.st24{fill:#F05C61;}
	.st25{fill-rule:evenodd;clip-rule:evenodd;fill:#0054A5;}
	.st26{fill-rule:evenodd;clip-rule:evenodd;fill:#231F20;}
	.st27{fill:#00A7E0;}
	.st28{fill:#F25022;}
	.st29{fill:#80BA01;}
	.st30{fill:#777777;}
	.st31{fill:#02A4EF;}
	.st32{fill:#FFB902;}
	.st33{fill:#FF0000;}
	.st34{fill-rule:evenodd;clip-rule:evenodd;}
	.st35{fill:#ED2423;stroke:#ED2423;stroke-width:0.2728;stroke-miterlimit:1.0913;}
	.st36{fill:url(#path3858_00000053514544535816977370000017174227761890534572_);}
	.st37{fill:url(#path3852_00000115516515464492147270000001948091812947693205_);}
	
		.st38{fill:url(#path3824_00000065790061011828575700000016727704952030425504_);stroke:url(#path3824_00000166642364944678850040000013735998989545759365_);stroke-width:0.238;stroke-miterlimit:1.0913;}
	
		.st39{fill:url(#path3826_00000114772092974724554440000018073370412509575356_);stroke:url(#path3826_00000178184789463375883830000013090375899041914038_);stroke-width:0.1995;stroke-miterlimit:1.0913;}
	.st40{fill:url(#path3856_00000054985257378818289760000007400635457535877047_);}
	.st41{fill:url(#path3828_00000118357234744870092620000018120283704411172536_);}
	
		.st42{fill:url(#path3830_00000127752254522865185370000002402048290454849924_);stroke:#FEC20F;stroke-width:0.4678;stroke-miterlimit:1.0913;}
	
		.st43{fill:url(#path3842_00000166661706381678571690000008307199672167053199_);stroke:#FEC20F;stroke-width:0.5207;stroke-miterlimit:1.0913;}
	
		.st44{fill:url(#path3844_00000116200357351622752190000004107443182477062019_);stroke:#FEC20F;stroke-width:0.3517;stroke-miterlimit:1.0913;}
	
		.st45{fill:url(#path3832_00000035506899532112978820000009944229731782026388_);stroke:#FEC20F;stroke-width:0.8185;stroke-miterlimit:1.0913;}
	.st46{fill:url(#path3854_00000123417162896799422200000000655762512022946734_);}
	
		.st47{fill:url(#path3834_00000121993613785037832070000005491775799107920827_);stroke:#FEC20F;stroke-width:0.3213;stroke-miterlimit:1.0913;}
	
		.st48{fill:url(#path3836_00000182499260139976153770000010051700329733838761_);stroke:#FEC20F;stroke-width:0.3201;stroke-miterlimit:1.0913;}
	
		.st49{fill:url(#path3838_00000075125767762463469200000011575494993618637748_);stroke:#FEC20F;stroke-width:0.2504;stroke-miterlimit:1.0913;}
	
		.st50{fill:url(#path3840_00000099649794470551670150000013951032043008850050_);stroke:#FEC20F;stroke-width:0.159;stroke-miterlimit:1.0913;}
	
		.st51{fill:url(#path3846_00000058564991284369775290000004630486325697542571_);stroke:#FEC20F;stroke-width:0.2541;stroke-miterlimit:1.0913;}
	.st52{fill:#FB000C;stroke:#FEC20F;stroke-width:0.2207;stroke-miterlimit:1.0913;}
	.st53{fill:url(#path3850_00000160161638519638597520000005917339080727385526_);}
	.st54{fill:url(#path3860_00000069366593457358992970000008010352712881528504_);}
	.st55{fill:none;stroke:#FFFFFB;stroke-width:0.5;stroke-miterlimit:1.0913;}
	.st56{fill:#191919;}
	.st57{fill:#D1AA67;stroke:#D1AA67;stroke-width:2.0247;stroke-linecap:round;stroke-linejoin:round;stroke-miterlimit:22.9256;}
	
		.st58{fill-rule:evenodd;clip-rule:evenodd;fill:#FFFFFF;stroke:#FFFFFF;stroke-width:1.3498;stroke-linecap:round;stroke-linejoin:round;stroke-miterlimit:22.9256;}
	.st59{fill-rule:evenodd;clip-rule:evenodd;fill:#EC1C24;}
	.st60{fill:url(#SVGID_00000145031679353071354060000014890671359845838751_);}
	.st61{fill-rule:evenodd;clip-rule:evenodd;fill:#1D1D1B;}
	.st62{fill-rule:evenodd;clip-rule:evenodd;fill:#E20613;}
</style>
<g>
	<g>
		<path class="st33" d="M113.68,0.41c19.15-1.56,38.68,1.31,56.5,8.52c18.41,7.38,34.95,19.35,47.77,34.48
			c18.1,21.15,28.62,48.6,29.34,76.42c0.84,24.66-5.93,49.54-19.26,70.31c-10.97,17.29-26.34,31.75-44.24,41.69
			c-17.5,9.76-37.44,15.18-57.49,15.47c-20.61,0.51-41.34-4.27-59.62-13.81c-28.06-14.43-50.13-40.06-60.16-69.99
			c-6.18-18.11-7.98-37.66-5.42-56.6c3.86-29.5,18.98-57.29,41.5-76.69C62.32,13.04,87.61,2.41,113.68,0.41z M39.25,186.17
			c2.95,0,5.9,0,8.85,0c2.04-8.81,4.6-17.5,7.68-26c2.71-7.21,5.77-14.39,10.24-20.69c3.08-4.24,7.02-7.99,11.79-10.25
			c5.34-2.51,11.77-3.05,17.27-0.76c6.94,3,11.77,9.17,16.07,15.16c4.83,7.65,8.76,15.83,12.34,24.13
			c5.21-11.21,10.05-22.97,18.67-32.07c2.92-3.09,6.27-5.92,10.29-7.44c6.07-2.28,13.07-1.25,18.61,1.95
			c6.99,3.97,11.59,10.91,15.03,17.98c5.85,12.06,9.68,24.99,12.79,38c2.95,0,5.9,0,8.85,0c-15.73-51.92-31.46-103.84-47.19-155.76
			c-11.85,39.25-23.67,78.52-35.52,117.78c-0.46,1.43-0.73,2.96-1.53,4.27c-4.97-15.85-9.62-31.81-14.46-47.7
			C101.58,79.98,94.1,55.2,86.64,30.41C70.82,82.32,55.05,134.25,39.25,186.17z"/>
	</g>
	<path d="M937.11,173.47c-0.01-44.74-0.01-89.48,0-134.22c6.82,0,13.64-0.01,20.46,0c0,44.74,0,89.48,0,134.22
		C950.75,173.47,943.93,173.47,937.11,173.47z"/>
	<path d="M577.23,42.03c6.82,0,13.64-0.01,20.46,0c0,9.09,0,18.19,0,27.29c8.79,0,17.58,0,26.36,0c0,6.81,0.01,13.64-0.01,20.45
		c-8.79-0.01-17.57,0-26.35-0.01c0.02,15.6-0.06,31.21,0.04,46.8c0.25,10.29,8.73,19.46,18.89,20.8c2.52,0.36,5.08,0.25,7.62,0.26
		c0,6.81-0.01,13.64,0,20.45c-7.77,0.33-15.73-0.68-22.75-4.19c-14.16-6.65-24.01-21.59-24.24-37.29
		C577.2,105.08,577.24,73.55,577.23,42.03z"/>
	<g>
		<path d="M679.58,66.77c11.58-1.46,23.61,0.89,33.73,6.74c14.63,8.3,25,23.68,27.01,40.4c1.47,11.47-0.83,23.39-6.53,33.46
			c-4.85,8.65-12.11,15.93-20.76,20.77c-9.85,5.58-21.48,7.91-32.72,6.63c-16.5-1.74-31.86-11.57-40.4-25.78
			c-8.24-13.36-10.15-30.36-5.21-45.24c5.18-16.11,18.37-29.35,34.45-34.61C672.53,68,676.04,67.23,679.58,66.77z M679.58,87.31
			c-11.5,2.26-21.41,10.93-25.33,21.95c-3.46,9.56-2.36,20.68,3.08,29.3c5.56,9.12,15.58,15.39,26.26,16.17
			c10.54,0.96,21.33-3.47,28.3-11.42c6.32-7.04,9.45-16.8,8.39-26.21c-0.99-9.95-6.73-19.24-15.05-24.74
			C697.81,87.32,688.35,85.51,679.58,87.31z"/>
	</g>
	<path d="M788.86,67.14c5.89-1.22,11.93-0.64,17.9-0.78c0,6.82,0,13.64,0,20.45c-5.61,0.22-11.42-0.7-16.83,1.19
		c-8.83,2.88-15.23,11.77-15.06,21.07c-0.02,21.58,0,43.17-0.01,64.75c-6.82,0-13.65,0-20.47,0c0.01-21.57,0-43.15,0.01-64.73
		c-0.06-9.14,2.97-18.26,8.47-25.55C769.13,75.14,778.55,69.12,788.86,67.14z"/>
	<g>
		<path d="M862.12,66.79c11.7-1.51,23.89,0.87,34.09,6.84c14.69,8.39,25.02,23.95,26.88,40.79c1.36,11.46-1.04,23.34-6.81,33.34
			c-4.94,8.65-12.3,15.88-21.02,20.66c-10.07,5.57-21.95,7.75-33.35,6.23c-16.54-2.08-31.76-12.33-39.99-26.82
			c-6.72-11.57-8.84-25.67-5.97-38.72c3.41-16.14,14.68-30.34,29.59-37.4C850.75,69.18,856.38,67.54,862.12,66.79z M862.16,87.34
			c-11.93,2.39-22.13,11.71-25.67,23.34c-3.03,9.67-1.46,20.69,4.3,29.05c5.75,8.59,15.54,14.39,25.89,15.02
			c10.14,0.8,20.46-3.37,27.31-10.86c6.87-7.34,10.29-17.81,8.88-27.79c-1.26-9.66-6.99-18.56-15.13-23.88
			C880.31,87.26,870.88,85.51,862.16,87.34z"/>
	</g>
	<g>
		<path d="M996.87,74.56c8.99-5.62,19.64-8.51,30.24-8.18c11.6,0.26,23.05,4.44,32.13,11.66c10.64,8.36,18,20.8,20.07,34.18
			c0.89,5.18,0.65,10.45,0.69,15.69c-0.01,15.07,0.01,30.13-0.01,45.19c-6.51-0.01-13.03,0-19.54-0.01c-0.01-3.56-0.01-7.12,0-10.69
			c-7.49,6.28-16.67,10.54-26.34,12.04c-12.3,1.98-25.25-0.45-35.98-6.78c-14.26-8.25-24.33-23.29-26.42-39.64
			c-1.48-10.94,0.43-22.32,5.5-32.14C981.68,87.18,988.56,79.72,996.87,74.56z M1018.74,87.33c-12.72,2.52-23.45,12.93-26.33,25.57
			c-2.44,10.03,0.05,21.09,6.57,29.09c5.86,7.37,14.86,12.19,24.28,12.77c10.26,0.79,20.71-3.49,27.57-11.13
			c6.49-7.04,9.74-16.91,8.68-26.43c-0.93-9.62-6.3-18.64-14.16-24.21C1037.79,87.47,1027.88,85.42,1018.74,87.33z"/>
	</g>
	<path d="M319.12,71.74c10.24-3.84,21.97-3.42,31.94,1.04c5.79,2.55,10.92,6.5,15.08,11.26c5.72-6.65,13.49-11.58,22.04-13.66
		c9.55-2.38,19.93-1.37,28.8,2.95c11.81,5.64,20.73,16.97,23.31,29.81c1.14,5.14,0.85,10.42,0.88,15.64c0,19.21,0.01,38.42,0,57.64
		c-6.82-0.01-13.64-0.01-20.46,0c-0.01-21.55,0.01-43.1-0.01-64.64c0.04-6.47-2.94-12.86-7.92-16.98
		c-5.48-4.71-13.37-6.39-20.29-4.34c-7.27,2.06-13.26,8.08-15.22,15.38c-0.93,3.15-0.82,6.47-0.81,9.71c0,20.29,0,40.58-0.01,60.87
		c-6.82-0.01-13.64-0.01-20.46-0.01c-0.01-21.55,0.01-43.09-0.01-64.64c0.03-6.11-2.61-12.16-7.12-16.29
		c-5.34-5.05-13.31-7.08-20.42-5.22c-9.4,2.28-16.65,11.29-16.67,21c-0.04,21.71-0.01,43.43-0.02,65.14
		c-6.83,0.01-13.65,0.01-20.47,0.01c0.01-21.56-0.01-43.11,0.01-64.67c-0.03-8.14,2.38-16.26,6.81-23.09
		C303.06,80.97,310.53,74.92,319.12,71.74z"/>
	<g>
		<path d="M502.99,69.49c16.02-1.98,32.75,3.68,44.23,15.03c6.89,6.72,11.98,15.27,14.48,24.56c4.2,15.37,1.31,32.55-7.93,45.58
			c-5.17,7.43-12.24,13.52-20.35,17.55c-10.72,5.38-23.26,6.98-35,4.61c-16.56-3.24-31.21-14.71-38.36-29.98
			c-5.74-11.97-6.8-26.07-3.02-38.78c4.68-16.13,17.32-29.65,33.07-35.45C494.25,71.04,498.59,70,502.99,69.49z M502.98,90
			c-13.8,2.48-25.28,14.32-27.3,28.2c-1.27,8.02,0.4,16.5,4.8,23.34c4.9,7.85,13.09,13.6,22.19,15.39
			c8.23,1.67,17.09,0.17,24.24-4.27c7.19-4.32,12.68-11.37,15.12-19.39c2.08-6.83,1.91-14.3-0.46-21.03
			c-2.99-8.53-9.5-15.74-17.67-19.6C517.45,89.58,510,88.66,502.98,90z"/>
	</g>
</g>
</svg>
