<?xml version="1.0" encoding="utf-8"?>
<!-- Generator: Adobe Illustrator 26.0.3, SVG Export Plug-In . SVG Version: 6.00 Build 0)  -->
<svg version="1.1" id="Layer_1" xmlns="http://www.w3.org/2000/svg" xmlns:xlink="http://www.w3.org/1999/xlink" x="0px" y="0px"
	 viewBox="0 0 1080 198.88" style="enable-background:new 0 0 1080 198.88;" xml:space="preserve">
<style type="text/css">
	.st0{fill-rule:evenodd;clip-rule:evenodd;fill:#0078A9;}
	.st1{fill:#52237F;}
	.st2{fill-rule:evenodd;clip-rule:evenodd;fill:#F5A800;}
	.st3{fill-rule:evenodd;clip-rule:evenodd;fill:#0033A1;}
	.st4{fill-rule:evenodd;clip-rule:evenodd;fill:#E1251B;}
	.st5{fill-rule:evenodd;clip-rule:evenodd;fill:#FFFFFF;}
	.st6{fill-rule:evenodd;clip-rule:evenodd;fill:#FF0000;}
	.st7{fill:#F89F21;}
	.st8{fill:#28387D;}
	.st9{fill:#088C45;}
	.st10{fill:#F37A21;}
	.st11{fill-rule:evenodd;clip-rule:evenodd;fill:#E60005;}
	.st12{fill:#F1890B;}
	.st13{fill:url(#SVGID_1_);}
	.st14{fill:#000105;}
	.st15{fill:#231F20;}
	.st16{fill:#EF3E42;}
	.st17{fill:none;}
	.st18{fill:#DE4447;}
	.st19{fill:#EC1C24;}
	.st20{fill:#2A557C;}
	.st21{fill:#0071BB;}
	.st22{fill:#009DA4;}
	.st23{fill:#FFFFFF;}
	.st24{fill:#F05C61;}
	.st25{fill-rule:evenodd;clip-rule:evenodd;fill:#0054A5;}
	.st26{fill-rule:evenodd;clip-rule:evenodd;fill:#231F20;}
	.st27{fill:#00A7E0;}
	.st28{fill:#F25022;}
	.st29{fill:#80BA01;}
	.st30{fill:#777777;}
	.st31{fill:#02A4EF;}
	.st32{fill:#FFB902;}
	.st33{fill:#FF0000;}
	.st34{fill-rule:evenodd;clip-rule:evenodd;}
	.st35{fill:#ED2423;stroke:#ED2423;stroke-width:0.2728;stroke-miterlimit:1.0913;}
	.st36{fill:url(#path3858_00000182496327897604173380000003018043005243035561_);}
	.st37{fill:url(#path3852_00000056400313405902960480000005737373438847303088_);}
	
		.st38{fill:url(#path3824_00000072968727042903618150000014846476213384909196_);stroke:url(#path3824_00000004544465947403154100000014613489667914694061_);stroke-width:0.238;stroke-miterlimit:1.0913;}
	
		.st39{fill:url(#path3826_00000058561447800814766570000001187619671682966716_);stroke:url(#path3826_00000115486515314215345040000010399898806609223827_);stroke-width:0.1995;stroke-miterlimit:1.0913;}
	.st40{fill:url(#path3856_00000022522773449102784860000013831589713235308940_);}
	.st41{fill:url(#path3828_00000113337816299468914430000014007910956888187527_);}
	
		.st42{fill:url(#path3830_00000011031690255237184550000003370692480688360331_);stroke:#FEC20F;stroke-width:0.4678;stroke-miterlimit:1.0913;}
	
		.st43{fill:url(#path3842_00000122700701523367035700000013937629211112417190_);stroke:#FEC20F;stroke-width:0.5207;stroke-miterlimit:1.0913;}
	
		.st44{fill:url(#path3844_00000044856561288960648600000007575786065798163074_);stroke:#FEC20F;stroke-width:0.3517;stroke-miterlimit:1.0913;}
	
		.st45{fill:url(#path3832_00000016057449069431123910000016902317331223219386_);stroke:#FEC20F;stroke-width:0.8185;stroke-miterlimit:1.0913;}
	.st46{fill:url(#path3854_00000069364489434063910370000002213724830309170082_);}
	
		.st47{fill:url(#path3834_00000049203459654257222550000003538485185043672234_);stroke:#FEC20F;stroke-width:0.3213;stroke-miterlimit:1.0913;}
	
		.st48{fill:url(#path3836_00000033369799785588503240000004747455672543118010_);stroke:#FEC20F;stroke-width:0.3201;stroke-miterlimit:1.0913;}
	
		.st49{fill:url(#path3838_00000005967297748875263070000007876846484283393188_);stroke:#FEC20F;stroke-width:0.2504;stroke-miterlimit:1.0913;}
	
		.st50{fill:url(#path3840_00000144300900165872274710000004600440425521102738_);stroke:#FEC20F;stroke-width:0.159;stroke-miterlimit:1.0913;}
	
		.st51{fill:url(#path3846_00000112627836607726571420000002257283075332918438_);stroke:#FEC20F;stroke-width:0.2541;stroke-miterlimit:1.0913;}
	.st52{fill:#FB000C;stroke:#FEC20F;stroke-width:0.2207;stroke-miterlimit:1.0913;}
	.st53{fill:url(#path3850_00000144312728467405180860000013593211595189454497_);}
	.st54{fill:url(#path3860_00000176030018500179320860000011440670163455512749_);}
	.st55{fill:none;stroke:#FFFFFB;stroke-width:0.5;stroke-miterlimit:1.0913;}
	.st56{fill:#191919;}
	.st57{fill:#D1AA67;stroke:#D1AA67;stroke-width:2.0247;stroke-linecap:round;stroke-linejoin:round;stroke-miterlimit:22.9256;}
	
		.st58{fill-rule:evenodd;clip-rule:evenodd;fill:#FFFFFF;stroke:#FFFFFF;stroke-width:1.3498;stroke-linecap:round;stroke-linejoin:round;stroke-miterlimit:22.9256;}
	.st59{fill-rule:evenodd;clip-rule:evenodd;fill:#EC1C24;}
	.st60{fill:url(#SVGID_00000163765872411052751220000000595052402977867428_);}
	.st61{fill-rule:evenodd;clip-rule:evenodd;fill:#1D1D1B;}
	.st62{fill-rule:evenodd;clip-rule:evenodd;fill:#E20613;}
</style>
<g>
	<path d="M0,0.03c17.21,0.01,34.44-0.55,51.62,0.15c25.93,1.05,50.68,23.52,55.6,49.48c7.25,38.18-17.01,72.25-55.69,76.56
		c-15.49,1.73-31.31,0.58-46.97,0.77c-1.52,0.02-3.04,0.2-4.55,0.31C0,84.88,0,42.45,0,0.03z M20.41,107.72
		c7.8,0,15.23,0.01,22.67,0c22.51-0.02,40.26-16.15,43.19-38.36c3.24-24.58-11.81-44.63-33.24-48.76
		c-9.76-1.88-20.03-1.12-30.07-1.54c-0.83-0.03-1.67,0.14-2.54,0.22C20.41,48.77,20.41,78.02,20.41,107.72z"/>
	<path d="M997.29,194.21c-0.92-0.3-4.8-1.58-6.79-5.44c-0.7-1.34-0.96-2.6-1.06-3.47c1.73-0.04,3.46-0.08,5.19-0.12
		c0.3,0.68,0.91,1.8,2.08,2.71c2.4,1.85,6.15,2.02,8.44,0.2c0.27-0.21,2.01-1.6,1.86-3.43c-0.09-1.11-0.79-2.18-2.15-2.98
		c-2.42-1.42-5.21-2.21-7.82-3.3c-4.85-2.03-7.47-6.3-6.64-10.81c1-5.43,5.28-8.45,11.64-8.23c1.35,0.05,4.11,0.25,6.56,2.35
		c3.3,2.82,3.45,6.94,3.47,7.67c-1.61,0.04-3.22,0.09-4.82,0.14c-0.62-2.57-2.62-4.49-5.01-4.85c-2.46-0.37-5.38,0.89-6.04,3.07
		c-0.86,2.86,0.89,4.32,3.16,5.27c2.11,0.89,4.36,1.46,6.48,2.32c4.03,1.64,6.89,4.26,6.91,8.99c0.01,0.86-0.07,2.87-1.22,4.97
		c-1.9,3.45-5.29,4.6-6.33,4.95C1001.57,195.44,998.44,194.6,997.29,194.21z"/>
	<path d="M688.13-0.07c5.75,0,11.22-0.13,16.67,0.11c1.08,0.05,2.35,1.36,3.1,2.4c19.96,27.53,39.86,55.1,59.77,82.65
		c0.61,0.84,1.27,1.65,2.46,3.21c0-29.91,0-58.91,0-88.14c6.72,0,13.11,0,19.73,0c0,42.13,0,84.27,0,126.79
		c-5.66,0-11.34,0.1-17-0.1c-0.89-0.03-1.93-1.27-2.59-2.18c-18.21-25.15-36.38-50.33-54.56-75.5c-2.41-3.33-4.84-6.64-7.84-10.77
		c0,30.05,0,59.14,0,88.37c-6.77,0-13.19,0-19.74,0C688.13,84.52,688.13,42.47,688.13-0.07z"/>
	<path d="M905.57-2.4c0,7.07,0,13.15,0,19.23c-33.16-0.16-49.47,28.15-47.59,50.18c2.21,25.97,23.03,42.99,45.56,43.04
		c20.87,0.05,42.41-17.89,43.68-35.93c-15.33,0-30.64,0-46.25,0c0-6.51,0-12.77,0-19.28c22.94,0,45.89,0,69.72,0
		c-0.6,6.18-0.85,12.35-1.84,18.41c-4.57,27.84-24.77,49.05-52.71,54.26c-41.03,7.65-75.07-18.76-79.78-56.42
		c-4.16-33.19,18.06-65.11,52.37-71.65C894.16-1.61,899.75-1.79,905.57-2.4z"/>
	<path d="M648.49,126.96c-7.12,0-14,0.09-20.87-0.11c-0.85-0.02-2.02-1.42-2.44-2.43c-3.41-8.39-6.74-16.81-9.93-25.3
		c-0.76-2.03-1.63-2.85-3.93-2.83c-15.45,0.12-30.9,0.11-46.36,0.01c-2.24-0.02-3.21,0.69-3.98,2.77
		c-3.16,8.49-6.58,16.88-9.78,25.34c-0.73,1.91-1.73,2.65-3.84,2.61c-6.1-0.14-12.21-0.05-18.8-0.05c0.54-1.55,0.87-2.64,1.29-3.7
		c16.35-40.12,32.72-80.22,49.01-120.36c0.91-2.25,2-3.21,4.52-3.05c3.82,0.24,7.67-0.06,11.5,0.15c1,0.06,2.49,0.93,2.84,1.81
		c16.96,41.4,33.82,82.84,50.68,124.27C648.45,126.17,648.43,126.29,648.49,126.96z M607.06,78.23
		c-6.32-16.31-12.45-32.11-18.59-47.91c-0.26,0.06-0.52,0.11-0.78,0.17c-6.1,15.79-12.21,31.58-18.46,47.75
		C582.04,78.23,594.24,78.23,607.06,78.23z"/>
	<path d="M274.11,95.12c6.93-0.69,13.65-1.35,19.46-1.93c2.87,4.33,4.85,8.61,7.98,11.75c8.38,8.41,25.63,7.85,33.87-0.63
		c6.11-6.29,6.46-15.16-0.08-20.96c-3.99-3.53-8.99-6.15-13.91-8.36c-6.96-3.13-14.44-5.14-21.4-8.28
		c-11.07-4.99-19.49-12.63-21.76-25.25c-3.14-17.49,5.21-32.78,21.61-39.81c16.44-7.06,36.55-3.88,47.77,7.63
		c6.51,6.67,9.71,14.86,11.01,24.41c-6.56,0.65-12.9,1.27-19.05,1.87c-1.2-3.14-2.01-5.99-3.34-8.58
		c-5.97-11.69-21.78-15.03-32.14-6.91c-7.11,5.57-8.02,17.13-1.34,23.14c3.09,2.78,6.99,4.89,10.85,6.55
		c5.61,2.4,11.53,4.12,17.31,6.11c7.76,2.68,14.8,6.53,20.54,12.52c14.96,15.63,12.88,46.37-13.55,56.76
		c-13.83,5.44-27.93,5.17-41.64-0.62c-11.95-5.05-18.86-14.51-21.9-26.93C274.23,96.9,274.22,96.14,274.11,95.12z"/>
	<path d="M403.9,95.15c6.95-0.7,13.67-1.37,20.51-2.05c0.25,0.51,0.47,0.86,0.6,1.24c5.18,15.28,23.27,21.57,36.96,12.84
		c9.42-6,10.8-17.24,2.53-24.61c-3.42-3.05-7.76-5.28-12.01-7.13c-8.3-3.63-17.12-6.18-25.22-10.19
		c-14.61-7.22-21.45-19.36-19.34-35.65c1.97-15.29,11.54-24.91,25.76-29.26c16.14-4.93,31.5-3.14,44.21,9.31
		c5.81,5.69,9.26,13.72,10.69,24.01c-6.36,0.65-12.7,1.31-19.02,1.95c-1.11-2.95-1.92-5.78-3.21-8.38
		c-5.67-11.41-20.69-15.16-31.24-7.93c-9.05,6.22-9.45,19.83-0.13,25.81c5.52,3.54,12.05,5.54,18.18,8.12
		c6.23,2.63,12.88,4.5,18.72,7.8c13.41,7.56,20.14,19.34,18.61,34.82c-1.56,15.73-10.9,25.8-25.67,30.35
		c-15.27,4.71-30.36,3.89-44.27-4.81C410.99,115.42,406.03,106.33,403.9,95.15z"/>
	<path d="M155.52,0.04c23.74,0,47.18,0,70.86,0c0,6.28,0,12.44,0,19.05c-16.81,0-33.6,0-50.57,0c0,11.53,0,22.62,0,33.99
		c16.39,0,32.69,0,49.24,0c0,6.2,0,12.14,0,18.41c-16.29,0-32.56,0-49.12,0c0,12.14,0,23.96,0,36.12c16.93,0,33.86,0,50.96,0
		c0,6.52,0,12.7,0,19.13c-23.78,0-47.5,0-71.37,0C155.52,84.51,155.52,42.47,155.52,0.04z"/>
	<path d="M1028.97,71.59c0,12.25,0,23.92,0,35.96c17.02,0,33.94,0,51.03,0c0,6.55,0,12.74,0,19.18c-23.71,0-47.41,0-71.27,0
		c0-42.23,0-84.27,0-126.56c23.63,0,47.13,0,70.88,0c0,6.16,0,12.34,0,18.93c-16.82,0-33.62,0-50.57,0c0,11.53,0,22.62,0,34.01
		c16.5,0,32.89,0,49.5,0c0,6.24,0,12.18,0,18.48C1062.03,71.59,1045.65,71.59,1028.97,71.59z"/>
	<path d="M906.2,181.74c0,3.8,0,7.59,0,11.66c-2.03,0-3.8,0-5.77,0c0-11.03,0-22.02,0-33.26c4.49,0,8.86-0.35,13.16,0.1
		c4.76,0.49,7.97,4.29,8.53,9.07c0.57,4.84-1.96,8.41-8.2,11.02c3.95,4.37,7.91,8.73,11.86,13.1c-2.81,0-5.61,0-8.41,0
		c-3.5-4.03-7-8.06-10.5-12.08C906.65,181.47,906.42,181.6,906.2,181.74z M906.33,175.99c3.62,0.23,7.26,0.78,9.01-2.64
		c0.85-1.66,0.65-4.66-0.34-6.28c-1.92-3.13-5.41-2.34-8.67-2.05C906.33,168.73,906.33,172.16,906.33,175.99z"/>
	<path d="M859.78,160.1h-5.77c-2.12,5.9-4.41,11.95-6.89,18.12c-2.09,5.23-4.21,10.29-6.35,15.2h6.46c1.14-2.44,2.28-4.87,3.41-7.31
		c4.05,0.01,8.09,0.01,12.15,0.01c1.19,2.44,2.36,4.87,3.55,7.3h6.69C868.62,182.32,864.2,171.2,859.78,160.1z M852.07,180.83
		c1.51-3.93,2.92-7.63,4.68-12.21c1.73,4.49,3.17,8.19,4.71,12.21H852.07z"/>
	<path d="M799.68,193.51c-2.03,0-3.65,0-5.52,0c0-11.02,0-22.06,0-33.36c4.15,0,8.3-0.37,12.36,0.09c5.3,0.6,9.37,6.15,9.07,11.56
		c-0.32,5.79-4.58,10.34-10.31,10.87c-1.71,0.16-3.45,0.02-5.59,0.02C799.68,186.49,799.68,189.92,799.68,193.51z M799.86,177.59
		c3.43,0.16,7.09,0.67,8.58-2.76c0.9-2.08,0.8-5.33-0.25-7.32c-1.62-3.08-5.11-2.62-8.33-2.23
		C799.86,169.45,799.86,173.42,799.86,177.59z"/>
	<path d="M953.41,160.18c1.88,0,3.57,0,5.44,0c0,11.15,0,22.12,0,33.28c-1.85,0-3.54,0-5.44,0
		C953.41,182.46,953.41,171.48,953.41,160.18z"/>
</g>
</svg>
