<?xml version="1.0" encoding="utf-8"?>
<!-- Generator: Adobe Illustrator 26.0.3, SVG Export Plug-In . SVG Version: 6.00 Build 0)  -->
<svg version="1.1" id="Layer_1" xmlns="http://www.w3.org/2000/svg" xmlns:xlink="http://www.w3.org/1999/xlink" x="0px" y="0px"
	 viewBox="0 0 1080 339.66" style="enable-background:new 0 0 1080 339.66;" xml:space="preserve">
<style type="text/css">
	.st0{fill-rule:evenodd;clip-rule:evenodd;fill:#0078A9;}
	.st1{fill:#52237F;}
	.st2{fill-rule:evenodd;clip-rule:evenodd;fill:#F5A800;}
	.st3{fill-rule:evenodd;clip-rule:evenodd;fill:#0033A1;}
	.st4{fill-rule:evenodd;clip-rule:evenodd;fill:#E1251B;}
	.st5{fill-rule:evenodd;clip-rule:evenodd;fill:#FFFFFF;}
	.st6{fill-rule:evenodd;clip-rule:evenodd;fill:#FF0000;}
	.st7{fill:#F89F21;}
	.st8{fill:#28387D;}
	.st9{fill:#088C45;}
	.st10{fill:#F37A21;}
	.st11{fill-rule:evenodd;clip-rule:evenodd;fill:#E60005;}
	.st12{fill:#F1890B;}
	.st13{fill:url(#SVGID_1_);}
	.st14{fill:#000105;}
	.st15{fill:#231F20;}
	.st16{fill:#EF3E42;}
	.st17{fill:none;}
	.st18{fill:#DE4447;}
	.st19{fill:#EC1C24;}
	.st20{fill:#2A557C;}
	.st21{fill:#0071BB;}
	.st22{fill:#009DA4;}
	.st23{fill:#FFFFFF;}
	.st24{fill:#F05C61;}
	.st25{fill-rule:evenodd;clip-rule:evenodd;fill:#0054A5;}
	.st26{fill-rule:evenodd;clip-rule:evenodd;fill:#231F20;}
	.st27{fill:#00A7E0;}
	.st28{fill:#F25022;}
	.st29{fill:#80BA01;}
	.st30{fill:#777777;}
	.st31{fill:#02A4EF;}
	.st32{fill:#FFB902;}
	.st33{fill:#FF0000;}
	.st34{fill-rule:evenodd;clip-rule:evenodd;}
	.st35{fill:#ED2423;stroke:#ED2423;stroke-width:0.2728;stroke-miterlimit:1.0913;}
	.st36{fill:url(#path3858_00000179627138718394807300000008732631979838683537_);}
	.st37{fill:url(#path3852_00000149351711481880159020000018430481936076340378_);}
	
		.st38{fill:url(#path3824_00000160184467046133619710000015303150469225319835_);stroke:url(#path3824_00000062878314508612547250000002746133264890215598_);stroke-width:0.238;stroke-miterlimit:1.0913;}
	
		.st39{fill:url(#path3826_00000015315600969430793530000003509785130784004031_);stroke:url(#path3826_00000026865362541177860590000000738680105033961889_);stroke-width:0.1995;stroke-miterlimit:1.0913;}
	.st40{fill:url(#path3856_00000138565910264920496960000002418087405762233784_);}
	.st41{fill:url(#path3828_00000092440143140539314870000001384577047385552024_);}
	
		.st42{fill:url(#path3830_00000037653277699462609350000010380859310222149028_);stroke:#FEC20F;stroke-width:0.4678;stroke-miterlimit:1.0913;}
	
		.st43{fill:url(#path3842_00000086662573757610769440000007963604670370393006_);stroke:#FEC20F;stroke-width:0.5207;stroke-miterlimit:1.0913;}
	
		.st44{fill:url(#path3844_00000080910109995445560410000011347674245928428201_);stroke:#FEC20F;stroke-width:0.3517;stroke-miterlimit:1.0913;}
	
		.st45{fill:url(#path3832_00000027596514005953536000000010410525711401542311_);stroke:#FEC20F;stroke-width:0.8185;stroke-miterlimit:1.0913;}
	.st46{fill:url(#path3854_00000072996474454577984050000012148799011790257590_);}
	
		.st47{fill:url(#path3834_00000077294154273814718370000001990171266404535727_);stroke:#FEC20F;stroke-width:0.3213;stroke-miterlimit:1.0913;}
	
		.st48{fill:url(#path3836_00000170972025699477239700000012695416786080236954_);stroke:#FEC20F;stroke-width:0.3201;stroke-miterlimit:1.0913;}
	
		.st49{fill:url(#path3838_00000000185760750192200110000002718607323427291014_);stroke:#FEC20F;stroke-width:0.2504;stroke-miterlimit:1.0913;}
	
		.st50{fill:url(#path3840_00000065075554488278387020000007636301465269174207_);stroke:#FEC20F;stroke-width:0.159;stroke-miterlimit:1.0913;}
	
		.st51{fill:url(#path3846_00000059299050291759714570000001243868724151460003_);stroke:#FEC20F;stroke-width:0.2541;stroke-miterlimit:1.0913;}
	.st52{fill:#FB000C;stroke:#FEC20F;stroke-width:0.2207;stroke-miterlimit:1.0913;}
	.st53{fill:url(#path3850_00000077319813715717030440000010259533975882848424_);}
	.st54{fill:url(#path3860_00000044888293496632472830000012484581378117211580_);}
	.st55{fill:none;stroke:#FFFFFB;stroke-width:0.5;stroke-miterlimit:1.0913;}
	.st56{fill:#191919;}
	.st57{fill:#D1AA67;stroke:#D1AA67;stroke-width:2.0247;stroke-linecap:round;stroke-linejoin:round;stroke-miterlimit:22.9256;}
	
		.st58{fill-rule:evenodd;clip-rule:evenodd;fill:#FFFFFF;stroke:#FFFFFF;stroke-width:1.3498;stroke-linecap:round;stroke-linejoin:round;stroke-miterlimit:22.9256;}
	.st59{fill-rule:evenodd;clip-rule:evenodd;fill:#EC1C24;}
	.st60{fill:url(#SVGID_00000017497702551665833490000012930055441754487473_);}
	.st61{fill-rule:evenodd;clip-rule:evenodd;fill:#1D1D1B;}
	.st62{fill-rule:evenodd;clip-rule:evenodd;fill:#E20613;}
</style>
<path class="st24" d="M569.2,87.3c0,12.15-9.78,21.93-21.93,21.93s-21.93-9.78-21.93-21.93s9.45-21.93,21.93-21.93
	C559.75,65.71,569.2,75.49,569.2,87.3z M478.78,131.5c0,2.02,0,5.4,0,5.4s-10.46-13.5-32.73-13.5c-36.78,0-65.45,28-65.45,66.8
	c0,38.46,28.34,66.8,65.45,66.8c22.6,0,32.73-13.83,32.73-13.83v5.74c0,2.7,2.02,4.72,4.72,4.72h27.33V126.77c0,0-24.97,0-27.33,0
	C480.8,126.77,478.78,129.14,478.78,131.5z M478.78,212.81c-5.06,7.42-15.18,13.83-27.33,13.83c-21.59,0-38.12-13.5-38.12-36.44
	s16.53-36.44,38.12-36.44c11.81,0,22.6,6.75,27.33,13.83V212.81z M531.07,126.77h32.39v126.86h-32.39V126.77z M1014.88,123.4
	c-22.27,0-32.73,13.5-32.73,13.5V65.71h-32.39v187.92c0,0,24.97,0,27.33,0c2.7,0,4.72-2.36,4.72-4.72v-5.74l0,0
	c0,0,10.46,13.83,32.73,13.83c36.78,0,65.45-28.34,65.45-66.8C1080,151.74,1051.32,123.4,1014.88,123.4z M1009.49,226.3
	c-12.48,0-22.27-6.41-27.33-13.83v-45.21c5.06-6.75,15.86-13.83,27.33-13.83c21.59,0,38.12,13.5,38.12,36.44
	S1031.08,226.3,1009.49,226.3z M932.9,178.39v75.57h-32.39V182.1c0-20.92-6.75-29.35-24.97-29.35c-9.78,0-19.91,5.06-26.32,12.48
	v88.4h-32.39V126.77h25.64c2.7,0,4.72,2.36,4.72,4.72v5.4c9.45-9.78,21.93-13.5,34.41-13.5c14.17,0,25.98,4.05,35.43,12.15
	C928.51,144.99,932.9,157.14,932.9,178.39z M738.23,123.4c-22.27,0-32.73,13.5-32.73,13.5V65.71h-32.39v187.92c0,0,24.97,0,27.33,0
	c2.7,0,4.72-2.36,4.72-4.72v-5.74l0,0c0,0,10.46,13.83,32.73,13.83c36.78,0,65.45-28.34,65.45-66.8
	C803.68,151.74,775,123.4,738.23,123.4z M732.83,226.3c-12.48,0-22.27-6.41-27.33-13.83v-45.21c5.06-6.75,15.86-13.83,27.33-13.83
	c21.59,0,38.12,13.5,38.12,36.44S754.42,226.3,732.83,226.3z M645.11,123.4c9.78,0,14.84,1.69,14.84,1.69v30.03
	c0,0-26.99-9.11-43.86,10.12v88.73h-32.39V126.77c0,0,24.97,0,27.33,0c2.7,0,4.72,2.36,4.72,4.72v5.4
	C621.83,129.81,634.99,123.4,645.11,123.4z M308.74,242.16c-1.69-4.05-3.37-8.43-5.06-12.15c-2.7-6.07-5.4-11.81-7.76-17.21
	l-0.34-0.34c-23.28-50.61-48.25-101.89-74.56-152.5L220,57.95c-2.7-5.06-5.4-10.46-8.1-15.86c-3.37-6.07-6.75-12.48-12.15-18.56
	c-10.8-13.5-26.32-20.92-42.85-20.92c-16.87,0-32.05,7.42-43.19,20.24c-5.06,6.07-8.77,12.48-12.15,18.56
	c-2.7,5.4-5.4,10.8-8.1,15.86l-1.01,2.02c-25.98,50.61-51.28,101.89-74.56,152.5l-0.34,0.67c-2.36,5.4-5.06,11.13-7.76,17.21
	c-1.69,3.71-3.37,7.76-5.06,12.15c-4.39,12.48-5.74,24.29-4.05,36.44c3.71,25.3,20.58,46.56,43.86,56.01
	c8.77,3.71,17.88,5.4,27.33,5.4c2.7,0,6.07-0.34,8.77-0.67c11.13-1.35,22.6-5.06,33.74-11.47c13.83-7.76,26.99-18.89,41.84-35.09
	c14.84,16.19,28.34,27.33,41.84,35.09c11.13,6.41,22.6,10.12,33.74,11.47c2.7,0.34,6.07,0.67,8.77,0.67c9.45,0,18.89-1.69,27.33-5.4
	c23.62-9.45,40.15-31.04,43.86-56.01C314.47,266.45,313.12,254.64,308.74,242.16z M156.58,259.7
	c-18.22-22.94-30.03-44.53-34.08-62.75c-1.69-7.76-2.02-14.51-1.01-20.58c0.67-5.4,2.7-10.12,5.4-14.17
	c6.41-9.11,17.21-14.84,29.69-14.84s23.62,5.4,29.69,14.84c2.7,4.05,4.72,8.77,5.4,14.17c1.01,6.07,0.67,13.16-1.01,20.58
	C186.6,214.83,174.79,236.42,156.58,259.7z M291.19,275.56c-2.36,17.54-14.17,32.73-30.7,39.47c-8.1,3.37-16.87,4.39-25.64,3.37
	c-8.43-1.01-16.87-3.71-25.64-8.77c-12.15-6.75-24.29-17.21-38.46-32.73c22.27-27.33,35.76-52.29,40.82-74.56
	c2.36-10.46,2.7-19.91,1.69-28.68c-1.35-8.43-4.39-16.19-9.11-22.94c-10.46-15.18-28-23.95-47.57-23.95s-37.11,9.11-47.57,23.95
	c-4.72,6.75-7.76,14.51-9.11,22.94c-1.35,8.77-1.01,18.56,1.69,28.68c5.06,22.27,18.89,47.57,40.82,74.9
	c-13.83,15.52-26.32,25.98-38.46,32.73c-8.77,5.06-17.21,7.76-25.64,8.77c-9.11,1.01-17.88-0.34-25.64-3.37
	c-16.53-6.75-28.34-21.93-30.7-39.47c-1.01-8.43-0.34-16.87,3.04-26.32c1.01-3.37,2.7-6.75,4.39-10.8
	c2.36-5.4,5.06-11.13,7.76-16.87l0.34-0.67c23.28-50.27,48.25-101.55,74.22-151.49l1.01-2.02c2.7-5.06,5.4-10.46,8.1-15.52
	c2.7-5.4,5.74-10.46,9.45-14.84c7.09-8.1,16.53-12.48,26.99-12.48s19.91,4.39,26.99,12.48c3.71,4.39,6.75,9.45,9.45,14.84
	c2.7,5.06,5.4,10.46,8.1,15.52l1.01,2.02c25.64,50.27,50.61,101.55,73.89,151.82v0.34c2.7,5.4,5.06,11.47,7.76,16.87
	c1.69,4.05,3.37,7.42,4.39,10.8C291.53,258.35,292.54,266.79,291.19,275.56z"/>
</svg>
