<?xml version="1.0" encoding="utf-8"?>
<!-- Generator: Adobe Illustrator 26.0.3, SVG Export Plug-In . SVG Version: 6.00 Build 0)  -->
<svg version="1.1" id="Layer_1" xmlns="http://www.w3.org/2000/svg" xmlns:xlink="http://www.w3.org/1999/xlink" x="0px" y="0px"
	 viewBox="0 0 1080 866.74" style="enable-background:new 0 0 1080 866.74;" xml:space="preserve">
<style type="text/css">
	.st0{fill-rule:evenodd;clip-rule:evenodd;fill:#0078A9;}
	.st1{fill:#52237F;}
	.st2{fill-rule:evenodd;clip-rule:evenodd;fill:#F5A800;}
	.st3{fill-rule:evenodd;clip-rule:evenodd;fill:#0033A1;}
	.st4{fill-rule:evenodd;clip-rule:evenodd;fill:#E1251B;}
	.st5{fill-rule:evenodd;clip-rule:evenodd;fill:#FFFFFF;}
	.st6{fill-rule:evenodd;clip-rule:evenodd;fill:#FF0000;}
	.st7{fill:#F89F21;}
	.st8{fill:#28387D;}
	.st9{fill:#088C45;}
	.st10{fill:#F37A21;}
	.st11{fill-rule:evenodd;clip-rule:evenodd;fill:#E60005;}
	.st12{fill:#F1890B;}
	.st13{fill:url(#SVGID_1_);}
	.st14{fill:#000105;}
	.st15{fill:#231F20;}
	.st16{fill:#EF3E42;}
	.st17{fill:none;}
	.st18{fill:#DE4447;}
	.st19{fill:#EC1C24;}
	.st20{fill:#2A557C;}
	.st21{fill:#0071BB;}
	.st22{fill:#009DA4;}
	.st23{fill:#FFFFFF;}
	.st24{fill:#F05C61;}
	.st25{fill-rule:evenodd;clip-rule:evenodd;fill:#0054A5;}
	.st26{fill-rule:evenodd;clip-rule:evenodd;fill:#231F20;}
	.st27{fill:#00A7E0;}
	.st28{fill:#F25022;}
	.st29{fill:#80BA01;}
	.st30{fill:#777777;}
	.st31{fill:#02A4EF;}
	.st32{fill:#FFB902;}
	.st33{fill:#FF0000;}
	.st34{fill-rule:evenodd;clip-rule:evenodd;}
	.st35{fill:#ED2423;stroke:#ED2423;stroke-width:0.2728;stroke-miterlimit:1.0913;}
	.st36{fill:url(#path3858_00000016060873386546735540000017834263231648795325_);}
	.st37{fill:url(#path3852_00000116957581375380697330000008864356231018259903_);}
	
		.st38{fill:url(#path3824_00000034779125241112319960000000335168021108482185_);stroke:url(#path3824_00000150076306421880569260000012483770326211048604_);stroke-width:0.238;stroke-miterlimit:1.0913;}
	
		.st39{fill:url(#path3826_00000049917021917188489670000006610283148405567133_);stroke:url(#path3826_00000006676976436628031530000011845043978079986329_);stroke-width:0.1995;stroke-miterlimit:1.0913;}
	.st40{fill:url(#path3856_00000168082115973262803620000013333018469158422194_);}
	.st41{fill:url(#path3828_00000089535857663111753770000012482100562801997966_);}
	
		.st42{fill:url(#path3830_00000018230586837852600480000016810174235505888441_);stroke:#FEC20F;stroke-width:0.4678;stroke-miterlimit:1.0913;}
	
		.st43{fill:url(#path3842_00000159469559043309226050000016625086443199591840_);stroke:#FEC20F;stroke-width:0.5207;stroke-miterlimit:1.0913;}
	
		.st44{fill:url(#path3844_00000095321660827969368700000010795024239350596256_);stroke:#FEC20F;stroke-width:0.3517;stroke-miterlimit:1.0913;}
	
		.st45{fill:url(#path3832_00000107550761479919030150000016296494671200147352_);stroke:#FEC20F;stroke-width:0.8185;stroke-miterlimit:1.0913;}
	.st46{fill:url(#path3854_00000081649793252864681850000016856640933577386884_);}
	
		.st47{fill:url(#path3834_00000066487391540017766300000010769686058513990075_);stroke:#FEC20F;stroke-width:0.3213;stroke-miterlimit:1.0913;}
	
		.st48{fill:url(#path3836_00000101800607185923039940000004703160548667161503_);stroke:#FEC20F;stroke-width:0.3201;stroke-miterlimit:1.0913;}
	
		.st49{fill:url(#path3838_00000015340454913801356530000009954263572726653359_);stroke:#FEC20F;stroke-width:0.2504;stroke-miterlimit:1.0913;}
	
		.st50{fill:url(#path3840_00000117662404552217108590000013599156606768500914_);stroke:#FEC20F;stroke-width:0.159;stroke-miterlimit:1.0913;}
	
		.st51{fill:url(#path3846_00000113343112101498988320000009341761635621600702_);stroke:#FEC20F;stroke-width:0.2541;stroke-miterlimit:1.0913;}
	.st52{fill:#FB000C;stroke:#FEC20F;stroke-width:0.2207;stroke-miterlimit:1.0913;}
	.st53{fill:url(#path3850_00000100373420899345118270000008581682849599984776_);}
	.st54{fill:url(#path3860_00000013194517027578261210000003219539805133310866_);}
	.st55{fill:none;stroke:#FFFFFB;stroke-width:0.5;stroke-miterlimit:1.0913;}
	.st56{fill:#191919;}
	.st57{fill:#D1AA67;stroke:#D1AA67;stroke-width:2.0247;stroke-linecap:round;stroke-linejoin:round;stroke-miterlimit:22.9256;}
	
		.st58{fill-rule:evenodd;clip-rule:evenodd;fill:#FFFFFF;stroke:#FFFFFF;stroke-width:1.3498;stroke-linecap:round;stroke-linejoin:round;stroke-miterlimit:22.9256;}
	.st59{fill-rule:evenodd;clip-rule:evenodd;fill:#EC1C24;}
	.st60{fill:url(#SVGID_00000180349097832165742870000004761247928608041619_);}
	.st61{fill-rule:evenodd;clip-rule:evenodd;fill:#1D1D1B;}
	.st62{fill-rule:evenodd;clip-rule:evenodd;fill:#E20613;}
</style>
<g>
	<path class="st6" d="M0,484.4c3.74-17.8,11.33-33.43,25.13-45.77C38.96,426.28,55.09,418,72.1,411.08
		c235.59-95.79,471.58-190.61,706.53-287.95c89.81-37.21,177.21-80.22,265.7-120.62c1.33-0.61,2.46-1.66,3.68-2.51
		c1.02,0,2.03,0,3.05,0c-0.07,2.42,0.55,5.12-0.31,7.23c-12.04,29.53-23.03,59.58-36.84,88.27c-14.17,29.43-38.13,49.99-68.9,61.2
		c-91.39,33.31-182.85,66.46-274.53,98.95c-192.69,68.3-385.55,136.1-578.28,204.28c-8.52,3.02-17.04,6.84-24.51,11.85
		c-18.58,12.43-22.63,32.24-10.53,50.99c4.47,6.93,10.4,13.12,16.46,18.8c60.56,56.74,121.28,113.31,181.98,169.9
		c1.63,1.52,3.54,2.74,6.93,5.34c-3.52,0.45-4.63,0.72-5.75,0.72c-25.89,0.03-51.77-0.08-77.66,0.12c-4.48,0.03-6.74-1.28-8.24-5.63
		c-4.62-13.44-12.83-24.58-22.87-34.58C114.57,644.12,81.63,610.3,47.8,577.38C25.91,556.07,5.59,534.21,0,502.68
		C0,496.59,0,490.49,0,484.4z"/>
	<path class="st6" d="M327.5,866.74c-14.5-2.06-29.18-3.34-43.44-6.48c-8.72-1.92-17.41-5.74-25.08-10.4
		c-36.78-22.38-36.51-74.86,0.17-97.4c13.9-8.54,29.31-12.61,45.29-14.18c28.17-2.77,56.25-2.82,83.41,6.82
		c33.93,12.04,50.26,42.36,39.86,74.46c-7.7,23.77-26.52,35.23-49.16,40.69c-14.17,3.42-28.93,4.41-43.43,6.49
		C332.58,866.74,330.04,866.74,327.5,866.74z M331.43,759.19c-3.86,0.27-8.44,0.34-12.95,0.94c-16.31,2.17-26.66,10.69-29.32,26.32
		c-3.1,18.23-4.56,36.75,12.73,49.94c2.92,2.23,6.72,4.11,10.3,4.53c9.48,1.1,19.14,2.34,28.59,1.66
		c20.78-1.5,31.31-11.84,33.6-32.32c0.78-6.95,0.48-14.24-0.66-21.15c-3-18.1-13.46-27.37-31.72-29.16
		C338.71,759.62,335.41,759.47,331.43,759.19z"/>
	<path class="st6" d="M1080,862.17c-34.73,0-69.46,0-104.87,0c0-5.58,0-10.49,0-16.06c3.72-0.48,7.68-0.92,11.61-1.51
		c4.29-0.64,10.39-1.44,9.05-6.69c-1.25-4.87-6.1-12.36-9.67-12.54c-23.04-1.14-46.19-1.15-69.23,0c-3.61,0.18-8.43,7.66-9.82,12.58
		c-1.55,5.44,4.5,6.18,8.78,6.81c3.47,0.51,6.96,0.83,10.79,1.28c0,5.26,0,10.21,0,15.51c-25.68,0-50.91,0-76.5,0
		c0-5.37,0-10.3,0-14.82c0.65-0.57,0.85-0.88,1.02-0.87c16.01,1.17,24.41-7.95,31.51-21.06c9.52-17.59,20.76-34.26,31.19-51.36
		c6.13-10.05,4-13.91-7.95-14.94c-5.02-0.43-10.02-1.13-15.38-1.75c0-5.37,0-10.3,0-16.1c6.95,0,13.48,0,20,0
		c22.34,0,44.68,0.32,67-0.16c8.65-0.19,14.21,2.86,18.81,10.04c16.71,26.04,34.62,51.36,50.45,77.92
		c8.13,13.64,18.67,18.1,33.21,16.97C1080,851,1080,856.59,1080,862.17z M927.32,802.93c16.42,0,31.4,0,47.52,0
		c-8.39-12.81-16.09-24.58-24.51-37.44C942.37,778.44,935.14,790.21,927.32,802.93z"/>
	<path class="st6" d="M294.03,486.73c-35.84,9.39-71.11,18.64-106.39,27.86c-28.43,7.43-56.9,14.74-85.29,22.32
		c-4.65,1.24-8.17,0.95-11.59-2.75c-3.95-4.28-8.64-7.87-12.63-12.12c-11.67-12.45-9.5-28.81,5.23-37.22
		c5.88-3.36,12.41-5.77,18.87-7.9c254.61-83.77,509.28-167.33,763.82-251.3c34.14-11.26,67.6-24.59,101.38-36.95
		c2.45-0.9,4.94-1.7,7.68-2.64c0.43,1.8,0.93,2.63,0.71,3.16c-13.84,32.01-30.45,62.48-52.22,89.82
		c-15.97,20.05-36.96,32.8-61.76,39.46c-139.47,37.43-278.91,74.96-418.37,112.44c-47.71,12.82-95.44,25.57-143.15,38.39
		C290.06,472.05,288.19,476.75,294.03,486.73z"/>
	<path class="st6" d="M888.34,350.26c-0.96,1.97-1.68,4.1-2.93,5.87c-15.14,21.57-29.76,43.54-45.73,64.47
		c-16.74,21.95-40.7,31.27-67.26,36.33c-124.47,23.7-248.84,47.92-373.24,71.97c-0.99,0.19-1.96,0.53-2.95,0.75
		c-10.26,2.3-12.09,7.43-5.1,17.07c-12.9,2.54-25.35,5.05-37.83,7.43c-63.72,12.17-127.46,24.24-191.16,36.53
		c-5.93,1.14-10.26,0.45-14.87-4.08c-12.63-12.43-25.89-24.21-40.14-37.39c260.78-67.19,520.28-134.05,779.79-200.9
		C887.39,348.95,887.87,349.61,888.34,350.26z"/>
	<path class="st6" d="M502.55,616.19c-21.7,2.75-43.26,5.49-64.82,8.22c-50.57,6.41-101.14,12.8-151.7,19.21
		c-20.88,2.65-41.75,5.4-62.65,7.84c-2.46,0.29-5.85-0.34-7.59-1.9c-16.4-14.78-32.55-29.85-48.73-44.87
		c-0.49-0.45-0.66-1.24-1.26-2.42c207.97-39,415.57-77.94,625.06-117.22c-2.04,3.43-2.77,5.27-4.01,6.66
		c-16.27,18.12-32.02,36.75-49.09,54.09c-19.94,20.26-45.78,27.75-73.34,31.51c-51,6.95-101.88,14.7-152.79,22.25
		C499.6,601.33,497.9,604.62,502.55,616.19z"/>
	<path class="st6" d="M667.35,717.56c-4.61,0-7.13,0-9.66,0c-120.24,0-240.48-0.04-360.72,0.11c-5.71,0.01-9.94-1.48-14.12-5.47
		c-16.67-15.89-33.68-31.43-51.88-48.33c10.73-1.36,19.86-2.6,29-3.66c54.38-6.31,108.76-12.56,163.14-18.88
		c32.47-3.77,64.93-7.71,97.41-11.36c3.03-0.34,6.79,0,9.28,1.53c44.67,27.51,89.21,55.26,133.76,82.97
		C664.36,714.96,665.02,715.65,667.35,717.56z"/>
	<path class="st6" d="M6.16,756.73c0-5.59,0-10.33,0-15.58c31.96,0,63.54,0,95.73,0c0,5.09,0,9.99,0,15.53
		c-4.56,0.6-9.01,1.36-13.49,1.72c-6.38,0.52-9.82,3.86-10.02,10.16c-0.21,6.54-0.05,13.1-0.05,20.15c25.3,0,49.99,0,75.46,0
		c0-7.04,0.25-13.83-0.08-20.59c-0.29-5.88-3.72-9.14-9.72-9.68c-4.53-0.41-9.04-1.08-13.98-1.68c0-5.19,0-10.15,0-15.62
		c31.96,0,63.78,0,96.08,0c0,5.17,0,10.1,0,15.56c-4.41,0.57-8.63,1.39-12.88,1.62c-7.44,0.4-11.06,3.95-11.03,11.52
		c0.1,21.07,0.07,42.13,0.02,63.2c-0.02,7.14,3.35,10.74,10.51,11.18c4.29,0.26,8.54,1.08,13.32,1.72c0,5,0,9.94,0,15.47
		c-31.79,0-63.61,0-95.97,0c0-4.89,0-9.82,0-15.48c4.53-0.6,9.21-1.41,13.93-1.8c6.52-0.54,9.57-4.25,9.79-10.4
		c0.22-6.33,0.05-12.67,0.05-19.71c-25.01,0-49.71,0-74.99,0c0,7.57-0.68,15.41,0.37,23.01c0.36,2.63,4.66,5.66,7.77,6.73
		c4.45,1.53,9.46,1.42,14.85,2.09c0,5.04,0,9.97,0,15.52c-31.67,0-63.44,0-95.61,0c0-5.18,0-10.11,0-15.41
		c4.86-0.65,9.33-1.45,13.83-1.8c6.07-0.48,9.65-3.69,9.71-9.59c0.23-22.07,0.24-44.15,0.05-66.22c-0.05-6.29-3.87-9.53-10.23-9.97
		C15.32,758.1,11.08,757.36,6.16,756.73z"/>
	<path class="st6" d="M513.08,845.95c0,5.42,0,10.35,0,15.65c-25.52,0-50.58,0-76.29,0c0-5.08,0-10.2,0-15.66
		c4.89-0.63,9.63-1.32,14.39-1.84c6.05-0.65,9.19-3.98,9.21-10c0.06-21.83,0.05-43.66,0.01-65.49c-0.01-6.5-3.61-9.61-9.9-10.18
		c-4.53-0.41-9.03-1.1-13.92-1.71c0-5.27,0-10.21,0-16.06c3.38,0,6.34,0,9.3,0c23.86,0,47.73,0.16,71.59-0.1
		c7.28-0.08,12.37,2.43,16.75,8.31c18.51,24.82,37.34,49.4,56.06,74.06c1.51,1.98,3.07,3.92,5.64,7.18
		c0.42-3.21,0.85-4.97,0.86-6.73c0.05-16.5,0.08-33,0.01-49.5c-0.05-12.43-1.78-14.26-14.14-15.73c-3.02-0.36-6.01-0.92-9.6-1.48
		c0-4.95,0-9.89,0-15.42c25.23,0,50.45,0,76.24,0c0,5,0,9.94,0,15.46c-4.06,0.56-8.02,1.2-12,1.63
		c-9.59,1.03-11.82,3.16-11.87,13.02c-0.14,26.91-0.06,53.82-0.06,80.73c0,3,0,6,0,9.68c-21.51,0-42.23,0.38-62.92-0.36
		c-3.62-0.13-7.87-4.36-10.48-7.73c-18.49-23.88-36.62-48.03-54.88-72.09c-1.97-2.59-3.96-5.16-7.01-9.15
		c-0.43,3.32-0.85,5.07-0.86,6.82c-0.05,15.99-0.04,31.99-0.03,47.98c0.01,14.44,0.89,15.46,14.8,17.45
		C506.75,845.05,509.51,845.44,513.08,845.95z"/>
	<path class="st6" d="M658.3,861.54c0-5.43,0-10.19,0-15.53c4.62-0.64,9.05-1.54,13.52-1.8c6.85-0.4,10.37-4.09,10.42-10.6
		c0.18-21.8,0.15-43.61,0.02-65.42c-0.03-5.88-3.08-9.39-9.3-9.86c-4.24-0.32-8.46-1.04-13-1.63c0-5.36,0-10.29,0-15.65
		c2.62-0.15,4.84-0.39,7.06-0.39c37.78-0.02,75.59-0.69,113.34,0.33c14.19,0.38,28.86,2.99,42.29,7.56
		c23.67,8.06,36.07,27.78,36.13,52.65c0.05,24.91-12.28,44.36-35.9,52.84c-11.97,4.3-25.06,7.21-37.72,7.51
		c-41.06,0.94-82.15,0.39-123.23,0.4C660.97,861.95,659.99,861.74,658.3,861.54z M729.94,838.14c17.42,0,33.89,0.61,50.29-0.21
		c11.38-0.57,19.35-7.89,20.73-18.99c1.45-11.64,1.24-23.71-0.01-35.4c-1.01-9.44-7.54-17.08-17.17-18.07
		c-17.75-1.83-35.69-1.89-53.84-2.7C729.94,789.16,729.94,813.67,729.94,838.14z"/>
</g>
</svg>
