<?xml version="1.0" encoding="utf-8"?>
<!-- Generator: Adobe Illustrator 26.0.3, SVG Export Plug-In . SVG Version: 6.00 Build 0)  -->
<svg version="1.1" id="Layer_1" xmlns="http://www.w3.org/2000/svg" xmlns:xlink="http://www.w3.org/1999/xlink" x="0px" y="0px"
	 viewBox="0 0 1080 276.76" style="enable-background:new 0 0 1080 276.76;" xml:space="preserve">
<style type="text/css">
	.st0{fill-rule:evenodd;clip-rule:evenodd;fill:#0078A9;}
	.st1{fill:#52237F;}
	.st2{fill-rule:evenodd;clip-rule:evenodd;fill:#F5A800;}
	.st3{fill-rule:evenodd;clip-rule:evenodd;fill:#0033A1;}
	.st4{fill-rule:evenodd;clip-rule:evenodd;fill:#E1251B;}
	.st5{fill-rule:evenodd;clip-rule:evenodd;fill:#FFFFFF;}
	.st6{fill-rule:evenodd;clip-rule:evenodd;fill:#FF0000;}
	.st7{fill:#F89F21;}
	.st8{fill:#28387D;}
	.st9{fill:#088C45;}
	.st10{fill:#F37A21;}
	.st11{fill-rule:evenodd;clip-rule:evenodd;fill:#E60005;}
	.st12{fill:#F1890B;}
	.st13{fill:url(#SVGID_1_);}
	.st14{fill:#000105;}
	.st15{fill:#231F20;}
	.st16{fill:#EF3E42;}
	.st17{fill:none;}
	.st18{fill:#DE4447;}
	.st19{fill:#EC1C24;}
	.st20{fill:#2A557C;}
	.st21{fill:#0071BB;}
	.st22{fill:#009DA4;}
	.st23{fill:#FFFFFF;}
	.st24{fill:#F05C61;}
	.st25{fill-rule:evenodd;clip-rule:evenodd;fill:#0054A5;}
	.st26{fill-rule:evenodd;clip-rule:evenodd;fill:#231F20;}
	.st27{fill:#00A7E0;}
	.st28{fill:#F25022;}
	.st29{fill:#80BA01;}
	.st30{fill:#777777;}
	.st31{fill:#02A4EF;}
	.st32{fill:#FFB902;}
	.st33{fill:#FF0000;}
	.st34{fill-rule:evenodd;clip-rule:evenodd;}
	.st35{fill:#ED2423;stroke:#ED2423;stroke-width:0.2728;stroke-miterlimit:1.0913;}
	.st36{fill:url(#path3858_00000065771286990492206420000012332606858344786614_);}
	.st37{fill:url(#path3852_00000093882583112076882410000006774659500305960871_);}
	
		.st38{fill:url(#path3824_00000107558252757654672610000013306961290771624598_);stroke:url(#path3824_00000063598853170937244250000014382060364635726224_);stroke-width:0.238;stroke-miterlimit:1.0913;}
	
		.st39{fill:url(#path3826_00000124879192552251782710000002497782090636048828_);stroke:url(#path3826_00000122696877614797901160000004062000972765415356_);stroke-width:0.1995;stroke-miterlimit:1.0913;}
	.st40{fill:url(#path3856_00000023972606595298187060000016310027812111518387_);}
	.st41{fill:url(#path3828_00000114056112315099397330000000854419588715461539_);}
	
		.st42{fill:url(#path3830_00000102509559534380573790000011092471032493082542_);stroke:#FEC20F;stroke-width:0.4678;stroke-miterlimit:1.0913;}
	
		.st43{fill:url(#path3842_00000026850624107151299030000000835130287161490097_);stroke:#FEC20F;stroke-width:0.5207;stroke-miterlimit:1.0913;}
	
		.st44{fill:url(#path3844_00000023248549372157764100000012691590096675080627_);stroke:#FEC20F;stroke-width:0.3517;stroke-miterlimit:1.0913;}
	
		.st45{fill:url(#path3832_00000107587233829682475010000006232466884145336740_);stroke:#FEC20F;stroke-width:0.8185;stroke-miterlimit:1.0913;}
	.st46{fill:url(#path3854_00000166661726277256081650000017571373472631168409_);}
	
		.st47{fill:url(#path3834_00000005250332461432008840000015007403240078450589_);stroke:#FEC20F;stroke-width:0.3213;stroke-miterlimit:1.0913;}
	
		.st48{fill:url(#path3836_00000103987790325805039450000001327568555734849463_);stroke:#FEC20F;stroke-width:0.3201;stroke-miterlimit:1.0913;}
	
		.st49{fill:url(#path3838_00000018194655510044671260000006737378098809569675_);stroke:#FEC20F;stroke-width:0.2504;stroke-miterlimit:1.0913;}
	
		.st50{fill:url(#path3840_00000026851376157217744600000017066004139555156150_);stroke:#FEC20F;stroke-width:0.159;stroke-miterlimit:1.0913;}
	
		.st51{fill:url(#path3846_00000139982547034394830250000017240106815998487229_);stroke:#FEC20F;stroke-width:0.2541;stroke-miterlimit:1.0913;}
	.st52{fill:#FB000C;stroke:#FEC20F;stroke-width:0.2207;stroke-miterlimit:1.0913;}
	.st53{fill:url(#path3850_00000036929705545248955470000003287215986985887386_);}
	.st54{fill:url(#path3860_00000050644006973173770050000001641577348207718842_);}
	.st55{fill:none;stroke:#FFFFFB;stroke-width:0.5;stroke-miterlimit:1.0913;}
	.st56{fill:#191919;}
	.st57{fill:#D1AA67;stroke:#D1AA67;stroke-width:2.0247;stroke-linecap:round;stroke-linejoin:round;stroke-miterlimit:22.9256;}
	
		.st58{fill-rule:evenodd;clip-rule:evenodd;fill:#FFFFFF;stroke:#FFFFFF;stroke-width:1.3498;stroke-linecap:round;stroke-linejoin:round;stroke-miterlimit:22.9256;}
	.st59{fill-rule:evenodd;clip-rule:evenodd;fill:#EC1C24;}
	.st60{fill:url(#SVGID_00000047032971625865239210000009597030157491651755_);}
	.st61{fill-rule:evenodd;clip-rule:evenodd;fill:#1D1D1B;}
	.st62{fill-rule:evenodd;clip-rule:evenodd;fill:#E20613;}
</style>
<g id="g4253" transform="matrix(0.99506399,0,0,0.99506399,-13.089212,-19.284547)">
	<g id="g4286" transform="translate(-12.427484,0)">
		<g id="g4109" transform="matrix(0.2741794,0,0,0.2741794,324.14312,-33.201179)">
			<path id="path3051" class="st35" d="M-361.18,191.78c-16.89,0.03-33.77,0.54-50.62,1.42c-30.53,1.59-61.02,4.73-91.21,9.5
				c-32.77,5.18-65.34,12.1-97.38,20.71c-34.86,9.36-69.44,20.2-102.96,33.59c-36.26,14.48-71.55,31.5-105.75,50.33
				c-22.98,12.66-45.41,26.47-66.58,41.96c-21.26,15.55-41.14,32.97-60.41,50.92c-13.71,12.76-26.89,26.15-39.17,40.29
				c-16.38,18.88-31.8,38.68-45.87,59.34c-13.33,19.56-26.18,39.59-36.38,60.95c-8.13,17.04-14.47,34.99-19.58,53.17
				c-5.2,18.49-9.67,37.35-11.16,56.5c-1.09,13.96-0.96,28.21,1.66,41.96c2.11,11.07,6.51,21.66,11.16,31.92
				c6.27,13.85,14.09,27,22.42,39.71c9.49,14.47,20.07,28.28,31.33,41.42c16.57,19.33,34.06,37.96,53.12,54.83
				c17.34,15.36,36.39,28.75,55.42,41.96c22.32,15.49,45.06,30.44,68.79,43.67c19.01,10.6,38.89,19.56,58.75,28.49
				c22.65,10.19,46.51,17.67,68.84,28.54c7.51,3.66,14.86,7.75,21.84,12.34c11.35,7.46,23.25,14.65,32.46,24.63
				c11.04,11.96,26.83,41.37,26.83,41.37l0.05-0.05c21.16,60.89,83.02,104.97,156.08,104.97c90.52,0,163.91-67.71,163.91-151.18
				c0-78.12-53.51-135.24-146.68-150.3l0.1-0.1c0,0-97.93-19.08-141.54-31.04c-35.66-9.78-70.96-21.3-105.21-35.25
				c-28.97-11.8-57.43-25.16-84.5-40.83c-24.63-14.25-51.11-27.3-70.5-48.13c-23.23-24.96-48.65-54.43-51.46-88.42
				c-3.33-40.36,20.66-79.86,43.08-113.58c31.34-47.13,77.6-83.28,123.08-116.96c37.72-27.94,79.18-51.42,122.54-69.37
				c67.23-27.83,138.3-48.19,210.37-58.16c35.84-4.96,72.55-4.34,108.54-0.59c44.79,4.67,91.32,9.42,132.09,28.54
				c12.87,6.04,29.98,12.53,33.54,26.29c3.95,15.29-9.41,30.73-18.46,43.67c-15.2,21.74-36.79,38.55-58.16,54.25
				c-26.79,19.68-56.52,35.44-86.76,49.25c-11.16,5.1-22.39,12.23-34.66,12.29c-5.72,0.03-11.3-4.22-16.25-7.4
				c-7.1-4.56-14.65-12.73-21.54-17.76c-12.55-9.17-23.11-16.7-37.75-22.38c-15.32-5.94-31.77-9.14-48.13-10.62
				c-15.24-1.38-30.83-1.12-45.87,1.66c-15.31,2.83-30.08,8.58-44.21,15.13c-13.21,6.12-26.41,12.95-37.5,22.37
				c-13.01,11.06-25.23,23.96-33,39.17c-7,13.69-10.23,29.4-11.21,44.75c-0.61,9.56-0.44,19.76,3.38,28.54
				c5.06,11.65,14.95,20.85,24.63,29.08c9.12,7.75,19.91,13.38,30.75,18.46c11.27,5.28,23.16,9.38,35.25,12.34
				c13.91,3.4,28.24,5.49,42.54,6.17c23.13,1.1,46.37-0.74,69.37-3.38c31.08-3.56,62.2-8.43,92.34-16.79
				c25.94-7.19,51-17.49,75.54-28.54c17.88-8.05,35.17-17.35,52-27.42c17.76-10.62,35.2-21.93,51.5-34.66
				c13.84-10.81,26.63-22.95,39.17-35.25c13.84-13.59,27.38-27.57,39.71-42.54c12.14-14.75,23.38-30.27,33.59-46.41
				c10.57-16.72,20.75-33.86,28.54-52.04c6.78-15.83,12.6-32.3,15.67-49.25c2-11.03,4.7-22.8,1.66-33.59
				c-2.69-9.56-9.69-17.69-16.79-24.63c-10.81-10.55-24.63-17.62-38.04-24.58c-26.59-13.8-54.78-24.65-83.38-33.59
				c-29.02-9.06-59-14.98-88.96-20.17c-27.58-4.78-55.44-8.35-83.38-10.04C-327.41,192.19-344.29,191.75-361.18,191.78
				L-361.18,191.78z"/>
			
				<radialGradient id="path3858_00000113317151807692301680000012667751281347714953_" cx="-15979.0352" cy="-39559.7695" r="139.0431" gradientTransform="matrix(0.2728 0 0 -0.1606 3765.1208 -5442.0117)" gradientUnits="userSpaceOnUse">
				<stop  offset="0" style="stop-color:#9F1621"/>
				<stop  offset="1" style="stop-color:#9F1621;stop-opacity:0"/>
			</radialGradient>
			<path id="path3858" style="fill:url(#path3858_00000113317151807692301680000012667751281347714953_);" d="M-732.24,828.4
				c-0.75,6-1.18,12.11-1.18,18.31c0,80.26,65.1,145.36,145.36,145.36c59.17,0,110.05-35.38,132.73-86.12
				c-2.3-0.43-4.6-0.84-6.95-1.22l0.1-0.1c0,0-97.93-19.08-141.54-31.04c-35.66-9.78-70.96-21.3-105.21-35.25
				C-716.75,835.16-724.52,831.83-732.24,828.4L-732.24,828.4z"/>
			
				<radialGradient id="path3852_00000086664346606663958390000005030610420576959658_" cx="-16789.7891" cy="-28901.3223" r="122.1523" gradientTransform="matrix(0.2728 0 0 -0.2097 3765.1208 -5711.6958)" gradientUnits="userSpaceOnUse">
				<stop  offset="0" style="stop-color:#C52113"/>
				<stop  offset="1" style="stop-color:#C52113;stop-opacity:0"/>
			</radialGradient>
			<path id="path3852" style="fill:url(#path3852_00000086664346606663958390000005030610420576959658_);" d="M-700.52,255.92
				c-0.94,0.37-1.9,0.7-2.84,1.08c-36.26,14.48-71.55,31.5-105.75,50.33c-22.98,12.66-45.41,26.47-66.58,41.96
				c-21.26,15.55-41.14,32.97-60.41,50.92c-0.55,0.51-1.07,1.05-1.62,1.57c25.9,25.93,61.66,41.96,101.2,41.96
				c79.03,0,143.11-64.07,143.11-143.11C-693.42,285-695.89,269.99-700.52,255.92L-700.52,255.92z"/>
			
				<linearGradient id="path3824_00000001623162718296773120000009545919486588711559_" gradientUnits="userSpaceOnUse" x1="-17063.3379" y1="-23297.8301" x2="-17256.666" y2="-23176.9766" gradientTransform="matrix(0.2728 0 0 -0.2728 3765.1208 -5868.936)">
				<stop  offset="0" style="stop-color:#FEDA0C"/>
				<stop  offset="1" style="stop-color:#FEDA0C;stop-opacity:0"/>
			</linearGradient>
			
				<linearGradient id="path3824_00000029728219093516338830000001160852837829822397_" gradientUnits="userSpaceOnUse" x1="-17205.6816" y1="-23259.8086" x2="-17323.9824" y2="-23135.7188" gradientTransform="matrix(0.2728 0 0 -0.2728 3765.1208 -5868.936)">
				<stop  offset="0" style="stop-color:#FEC20F"/>
				<stop  offset="1" style="stop-color:#FEC20F;stop-opacity:0"/>
			</linearGradient>
			
				<path id="path3824" style="fill:url(#path3824_00000001623162718296773120000009545919486588711559_);stroke:url(#path3824_00000029728219093516338830000001160852837829822397_);stroke-width:0.238;stroke-miterlimit:1.0913;" d="
				M-892.23,361.97c-15.16,12.11-29.67,25.02-43.87,38.24c-13.71,12.76-26.89,26.15-39.17,40.29
				c-16.38,18.88-31.8,38.68-45.87,59.34c-4.54,6.66-9.02,13.37-13.37,20.17c18.46,15.42,42.26,24.68,68.2,24.68
				c58.77,0,106.39-47.67,106.39-106.44C-859.92,408.29-872.31,381.31-892.23,361.97L-892.23,361.97z"/>
			
				<linearGradient id="path3826_00000076591732280978074790000018425826133991550883_" gradientUnits="userSpaceOnUse" x1="-17123.7754" y1="-22983.4414" x2="-16980.2676" y2="-23110.0449" gradientTransform="matrix(0.2728 0 0 -0.2728 3765.1208 -5868.936)">
				<stop  offset="0" style="stop-color:#FEDA0C"/>
				<stop  offset="1" style="stop-color:#FEDA0C;stop-opacity:0"/>
			</linearGradient>
			
				<linearGradient id="path3826_00000046340601127968736790000010168447164757157282_" gradientUnits="userSpaceOnUse" x1="-17123.5918" y1="-22983.6016" x2="-16980.2129" y2="-23110.0918" gradientTransform="matrix(0.2728 0 0 -0.2728 3765.1208 -5868.936)">
				<stop  offset="0" style="stop-color:#FEC20F"/>
				<stop  offset="1" style="stop-color:#FEC20F;stop-opacity:0"/>
			</linearGradient>
			
				<path id="path3826" style="fill:url(#path3826_00000076591732280978074790000018425826133991550883_);stroke:url(#path3826_00000046340601127968736790000010168447164757157282_);stroke-width:0.1995;stroke-miterlimit:1.0913;" d="
				M-831.48,378.77c-49.25,0-89.15,39.9-89.15,89.15c0,34.56,19.68,64.51,48.42,79.31c31.11-46.72,76.89-82.64,122.01-116.08
				C-764.21,400.24-795.34,378.76-831.48,378.77L-831.48,378.77z"/>
			
				<radialGradient id="path3856_00000134957018292767141830000006192107477252378251_" cx="-17124.2637" cy="-20992.2402" r="125.1418" gradientTransform="matrix(0.2728 0 0 -0.3189 3765.1208 -6019.6558)" gradientUnits="userSpaceOnUse">
				<stop  offset="0" style="stop-color:#9F1621"/>
				<stop  offset="1" style="stop-color:#9F1621;stop-opacity:0"/>
			</radialGradient>
			<path id="path3856" style="fill:url(#path3856_00000134957018292767141830000006192107477252378251_);" d="M-917.07,538.02
				c-80.26,0-145.36,65.05-145.36,145.31c0,80.26,65.1,145.36,145.36,145.36c40.28,0,76.74-16.41,103.06-42.89
				c-18.1-10.35-35.88-21.33-49.94-36.43c-23.23-24.96-48.65-54.43-51.46-88.42c-3.33-40.36,20.66-79.86,43.08-113.58
				c0.42-0.63,0.85-1.28,1.27-1.91C-885.51,540.63-900.98,538.02-917.07,538.02L-917.07,538.02z"/>
			
				<linearGradient id="path3828_00000027584494093761191090000017479991327625560722_" gradientUnits="userSpaceOnUse" x1="-17296.6523" y1="-23243.9902" x2="-17393.7871" y2="-23494.832" gradientTransform="matrix(0.2728 0 0 -0.2728 3765.1208 -5868.936)">
				<stop  offset="0" style="stop-color:#FEDA0C"/>
				<stop  offset="1" style="stop-color:#FEDA0C;stop-opacity:0"/>
			</linearGradient>
			<path id="path3828" style="fill:url(#path3828_00000027584494093761191090000017479991327625560722_);" d="M-995.95,465.51
				c-8.79,11.16-17.23,22.59-25.21,34.32c-13.33,19.56-26.18,39.59-36.38,60.95c-8.13,17.04-14.47,34.99-19.58,53.17
				c-5.2,18.49-9.67,37.35-11.16,56.5c-1.09,13.96-0.96,28.21,1.66,41.96c0.86,4.5,2.09,8.91,3.57,13.27
				c1.04,0.02,2.09,0.05,3.13,0.05c79.34,0,143.65-64.3,143.65-143.65C-936.27,534.09-959.79,491.6-995.95,465.51L-995.95,465.51z"
				/>
			
				<linearGradient id="path3830_00000072270189648119272820000016087129379919608964_" gradientUnits="userSpaceOnUse" x1="-17764.8105" y1="-25144.0977" x2="-17489.7031" y2="-24891.1875" gradientTransform="matrix(0.2728 0 0 -0.2728 3765.1208 -5868.936)">
				<stop  offset="0" style="stop-color:#FEDA0C"/>
				<stop  offset="1" style="stop-color:#FEDA0C;stop-opacity:0"/>
			</linearGradient>
			
				<path id="path3830" style="fill:url(#path3830_00000072270189648119272820000016087129379919608964_);stroke:#FEC20F;stroke-width:0.4678;stroke-miterlimit:1.0913;" d="
				M-1040.91,759.71c-8.81,0-17.47,0.56-26,1.57c4.31,7.76,8.99,15.35,13.86,22.77c9.49,14.47,20.07,28.28,31.33,41.42
				c16.57,19.33,34.06,37.96,53.12,54.83c17.34,15.36,36.39,28.75,55.42,41.96c22.32,15.49,45.06,30.44,68.79,43.67
				c5.31,2.96,10.68,5.78,16.11,8.52c0.14-3.05,0.2-6.12,0.2-9.2C-828.09,851.73-923.38,759.7-1040.91,759.71L-1040.91,759.71z"/>
			
				<linearGradient id="path3842_00000146485466250698824560000003962054706260549780_" gradientUnits="userSpaceOnUse" x1="-16838.2129" y1="-24408.5137" x2="-16711.9375" y2="-24750.9434" gradientTransform="matrix(0.2728 0 0 -0.2728 3765.1208 -5868.936)">
				<stop  offset="0" style="stop-color:#FEDA0C"/>
				<stop  offset="1" style="stop-color:#FEDA0C;stop-opacity:0"/>
			</linearGradient>
			
				<path id="path3842" style="fill:url(#path3842_00000146485466250698824560000003962054706260549780_);stroke:#FEC20F;stroke-width:0.5207;stroke-miterlimit:1.0913;" d="
				M-810.88,860.52c-48.91,0-94.3,15.02-131.8,40.69c9.68,7.23,19.61,14.17,29.52,21.05c22.32,15.49,45.06,30.44,68.79,43.67
				c19.01,10.6,38.89,19.56,58.75,28.49c22.65,10.19,46.51,17.67,68.84,28.54c7.51,3.66,14.86,7.75,21.84,12.34
				c11.35,7.46,23.25,14.65,32.46,24.63c11.04,11.96,26.83,41.37,26.83,41.37l0.05-0.05c8.86,25.49,24.87,48.01,45.83,65.6
				c7.8-23.21,12.04-48.05,12.04-73.88C-577.73,964.61-682.11,860.52-810.88,860.52L-810.88,860.52z"/>
			
				<linearGradient id="path3844_00000018228396813920934020000001719979193666552724_" gradientUnits="userSpaceOnUse" x1="-16506.4746" y1="-25494.6113" x2="-16288.3926" y2="-25474.4648" gradientTransform="matrix(0.2728 0 0 -0.2728 3765.1208 -5868.936)">
				<stop  offset="0" style="stop-color:#FEDA0C"/>
				<stop  offset="1" style="stop-color:#FEDA0C;stop-opacity:0"/>
			</linearGradient>
			
				<path id="path3844" style="fill:url(#path3844_00000018228396813920934020000001719979193666552724_);stroke:#FEC20F;stroke-width:0.3517;stroke-miterlimit:1.0913;" d="
				M-678.68,956.37c-40.14,0-76.82,14.69-104.72,38.97c22,9.7,45.02,17.08,66.63,27.61c7.51,3.66,14.86,7.75,21.84,12.34
				c11.35,7.46,23.25,14.65,32.46,24.63c11.04,11.96,26.83,41.37,26.83,41.37l0.05-0.05c14.56,41.89,48.36,75.83,91.85,92.92
				c14.81-23.76,23.4-51.73,23.4-81.66C-520.35,1026.26-591.24,956.37-678.68,956.37L-678.68,956.37z"/>
			
				<linearGradient id="path3832_00000067955905048747905770000000817388026978623916_" gradientUnits="userSpaceOnUse" x1="-17249.0938" y1="-25016.5957" x2="-17096.6562" y2="-24969.5957" gradientTransform="matrix(0.2728 0 0 -0.2728 3765.1208 -5868.936)">
				<stop  offset="0" style="stop-color:#FEDA0C"/>
				<stop  offset="1" style="stop-color:#FEDA0C;stop-opacity:0"/>
			</linearGradient>
			
				<path id="path3832" style="fill:url(#path3832_00000067955905048747905770000000817388026978623916_);stroke:#FEC20F;stroke-width:0.8185;stroke-miterlimit:1.0913;" d="
				M-992.66,857.23c7.78,7.96,15.81,15.68,24.14,23.06c17.34,15.36,36.39,28.75,55.42,41.96c22.32,15.49,45.06,30.44,68.79,43.67
				c19.01,10.6,38.89,19.56,58.75,28.49c13.3,5.98,27.01,11.05,40.59,16.4C-778.45,927.44-875.36,865.28-992.66,857.23
				L-992.66,857.23z"/>
			
				<radialGradient id="path3854_00000054984216314532928410000009578862337481000842_" cx="-15899.9795" cy="-32696.9648" r="88.7274" gradientTransform="matrix(0.2728 0 0 -0.1915 3765.1208 -5615.8716)" gradientUnits="userSpaceOnUse">
				<stop  offset="0" style="stop-color:#9F1621"/>
				<stop  offset="1" style="stop-color:#9F1621;stop-opacity:0"/>
			</radialGradient>
			<path id="path3854" style="fill:url(#path3854_00000054984216314532928410000009578862337481000842_);" d="M-603.73,553.69
				c-9.57,0-18.95,0.93-28,2.69c-2.13,8.22-3.38,16.72-3.92,25.12c-0.61,9.56-0.44,19.76,3.38,28.54
				c5.06,11.65,14.95,20.85,24.63,29.08c9.11,7.75,19.91,13.38,30.75,18.46c11.27,5.28,23.16,9.38,35.25,12.34
				c13.91,3.4,28.24,5.49,42.54,6.17c12.91,0.62,25.85,0.26,38.78-0.59C-471.57,606.42-531.47,553.69-603.73,553.69L-603.73,553.69z
				"/>
			
				<linearGradient id="path3834_00000112597743105990178830000008685391285167866807_" gradientUnits="userSpaceOnUse" x1="-15609.0859" y1="-23280.6387" x2="-15682.7197" y2="-23361.2148" gradientTransform="matrix(0.2728 0 0 -0.2728 3765.1208 -5868.936)">
				<stop  offset="0" style="stop-color:#FEDA0C"/>
				<stop  offset="1" style="stop-color:#FEDA0C;stop-opacity:0"/>
			</linearGradient>
			
				<path id="path3834" style="fill:url(#path3834_00000112597743105990178830000008685391285167866807_);stroke:#FEC20F;stroke-width:0.3213;stroke-miterlimit:1.0913;" d="
				M-481.09,457.59c-9.61-0.02-19.24,0.76-28.64,2.5c-15.31,2.83-30.08,8.58-44.21,15.13c-13.21,6.12-26.41,12.95-37.5,22.37
				c-13.01,11.06-25.23,23.96-33,39.17c-7,13.69-10.23,29.4-11.21,44.75c-0.34,5.31-0.39,10.8,0.24,16.16
				c15.92,6.08,33.2,9.45,51.26,9.45c79.34,0,143.65-64.3,143.65-143.65v-1.62c-7.73-1.61-15.54-2.72-23.35-3.43
				C-469.57,457.9-475.32,457.59-481.09,457.59L-481.09,457.59z"/>
			
				<linearGradient id="path3836_00000074411338082120085760000009072278537922826898_" gradientUnits="userSpaceOnUse" x1="-15491.9043" y1="-23620.6797" x2="-15306.8789" y2="-23495.3438" gradientTransform="matrix(0.2728 0 0 -0.2728 3765.1208 -5868.936)">
				<stop  offset="0" style="stop-color:#FEDA0C"/>
				<stop  offset="1" style="stop-color:#FEDA0C;stop-opacity:0"/>
			</linearGradient>
			
				<path id="path3836" style="fill:url(#path3836_00000074411338082120085760000009072278537922826898_);stroke:#FEC20F;stroke-width:0.3201;stroke-miterlimit:1.0913;" d="
				M-218.47,454.8c-0.1,0.08-0.19,0.17-0.29,0.24c-26.79,19.68-56.52,35.44-86.76,49.25c-11.16,5.1-22.39,12.23-34.66,12.29
				c-5.72,0.03-11.3-4.21-16.25-7.39c-7.1-4.56-14.66-12.75-21.54-17.77c-12.55-9.17-23.1-16.7-37.75-22.37
				c-15.32-5.94-31.77-9.14-48.13-10.62c-12.55-1.14-25.32-1.14-37.84,0.44c-0.79,6.08-1.18,12.26-1.18,18.56
				c0,79.03,64.07,143.11,143.11,143.11s143.11-64.07,143.11-143.11C-216.65,469.72-217.29,462.17-218.47,454.8L-218.47,454.8z"/>
			
				<linearGradient id="path3838_00000034074396960507550500000014057607697310653073_" gradientUnits="userSpaceOnUse" x1="-15137.0801" y1="-23553.5176" x2="-15056.2383" y2="-23784.0391" gradientTransform="matrix(0.2728 0 0 -0.2728 3765.1208 -5868.936)">
				<stop  offset="0" style="stop-color:#FEDA0C"/>
				<stop  offset="1" style="stop-color:#FEDA0C;stop-opacity:0"/>
			</linearGradient>
			
				<path id="path3838" style="fill:url(#path3838_00000034074396960507550500000014057607697310653073_);stroke:#FEC20F;stroke-width:0.2504;stroke-miterlimit:1.0913;" d="
				M-339.24,516.52c-0.31,0.01-0.62,0.05-0.93,0.05c-0.16,0-0.33,0.01-0.49,0C-402.03,517.13-451.6,567-451.6,628.49
				c0,16.2,3.46,31.58,9.64,45.48c4.09-0.41,8.16-0.81,12.24-1.27c31.08-3.56,62.2-8.43,92.34-16.79
				c25.94-7.19,51-17.49,75.54-28.54c11.16-5.02,22.07-10.57,32.8-16.45C-237.45,557.56-283.56,516.72-339.24,516.52L-339.24,516.52
				z"/>
			
				<linearGradient id="path3840_00000065766985473091697470000018040447530676721589_" gradientUnits="userSpaceOnUse" x1="-15522.9756" y1="-23239.7891" x2="-15568.5654" y2="-23275.6035" gradientTransform="matrix(0.2728 0 0 -0.2728 3765.1208 -5868.936)">
				<stop  offset="0" style="stop-color:#FEDA0C"/>
				<stop  offset="1" style="stop-color:#FEDA0C;stop-opacity:0"/>
			</linearGradient>
			
				<path id="path3840" style="fill:url(#path3840_00000065766985473091697470000018040447530676721589_);stroke:#FEC20F;stroke-width:0.159;stroke-miterlimit:1.0913;" d="
				M-481.09,457.59c-9.61-0.02-19.24,0.76-28.64,2.5c-15.31,2.83-30.08,8.58-44.21,15.13c-7.29,3.38-14.56,6.99-21.49,11.11
				c4.75,34.66,34.49,61.4,70.45,61.4c39.27,0,71.09-31.87,71.09-71.14c0-4.65-0.42-9.16-1.27-13.56
				c-9.43-2.27-19.08-3.73-28.69-4.6C-469.57,457.9-475.32,457.6-481.09,457.59L-481.09,457.59z"/>
			
				<linearGradient id="path3846_00000121252015442704120040000013204074868442729654_" gradientUnits="userSpaceOnUse" x1="-15296.835" y1="-25413.9238" x2="-15388.9561" y2="-25299.793" gradientTransform="matrix(0.2728 0 0 -0.2728 3765.1208 -5868.936)">
				<stop  offset="0" style="stop-color:#FEDA0C"/>
				<stop  offset="1" style="stop-color:#FEDA0C;stop-opacity:0"/>
			</linearGradient>
			
				<path id="path3846" style="fill:url(#path3846_00000121252015442704120040000013204074868442729654_);stroke:#FEC20F;stroke-width:0.2541;stroke-miterlimit:1.0913;" d="
				M-533.96,889.9c-29.79,20.37-49.3,54.32-49.3,92.78c0,62.32,51.23,112.85,114.42,112.85s114.37-50.53,114.37-112.85
				c0-10.87-1.6-21.34-4.5-31.29c-24.81-23.31-59.7-39.61-103.3-46.66l0.1-0.1C-462.19,904.63-496.8,897.86-533.96,889.9
				L-533.96,889.9z"/>
			<path id="path3848" class="st52" d="M-402.65,922.41c-3.24,9.35-4.99,19.35-4.99,29.72c0,49.81,40.33,90.72,91.9,95.32
				C-318.29,991.51-349.07,947.13-402.65,922.41L-402.65,922.41z"/>
			
				<radialGradient id="path3850_00000005228404556460210070000001218275663328872842_" cx="-6687.5898" cy="-13175.291" r="69.7126" gradientTransform="matrix(0.3332 0.0893 0.1519 -0.567 4209.4541 -6516.0454)" gradientUnits="userSpaceOnUse">
				<stop  offset="0" style="stop-color:#9F1621"/>
				<stop  offset="1" style="stop-color:#9F1621;stop-opacity:0"/>
			</radialGradient>
			<path id="path3850" style="fill:url(#path3850_00000005228404556460210070000001218275663328872842_);" d="M-71.29,248.97
				c-40.11,25.35-66.78,70.06-66.78,121.03c0,47.87,23.53,90.25,59.63,116.23c11.74-14.37,22.64-29.46,32.56-45.14
				c10.57-16.72,20.75-33.86,28.54-52.04c6.78-15.83,12.6-32.3,15.67-49.25c2-11.03,4.7-22.8,1.66-33.59
				c-2.69-9.56-9.69-17.69-16.79-24.63c-10.81-10.55-24.63-17.62-38.04-24.58C-60.26,254.18-65.75,251.54-71.29,248.97
				L-71.29,248.97z"/>
			
				<radialGradient id="path3860_00000094588654539340028970000011677783196469204897_" cx="-15197.1064" cy="-41230.7734" r="56.8204" gradientTransform="matrix(0.2728 0 0 -0.1588 3765.1208 -5365.3521)" gradientUnits="userSpaceOnUse">
				<stop  offset="0" style="stop-color:#9F1621"/>
				<stop  offset="1" style="stop-color:#9F1621;stop-opacity:0"/>
			</radialGradient>
			<path id="path3860" style="fill:url(#path3860_00000094588654539340028970000011677783196469204897_);" d="M-344.24,1140.36
				c-46.6,2.88-87.28,27.7-111.77,64.28C-409.65,1198.5-369.58,1174.46-344.24,1140.36z"/>
			<path id="path6117" class="st55" d="M-361.18,191.78c-16.89,0.03-33.77,0.54-50.62,1.42c-30.53,1.59-61.02,4.73-91.21,9.5
				c-32.77,5.18-65.34,12.1-97.38,20.71c-34.86,9.36-69.44,20.2-102.96,33.59c-36.26,14.48-71.55,31.5-105.75,50.33
				c-22.98,12.66-45.41,26.47-66.58,41.96c-21.26,15.55-41.14,32.97-60.41,50.92c-13.71,12.76-26.89,26.15-39.17,40.29
				c-16.38,18.88-31.8,38.68-45.87,59.34c-13.33,19.56-26.18,39.59-36.38,60.95c-8.13,17.04-14.47,34.99-19.58,53.17
				c-5.2,18.49-9.67,37.35-11.16,56.5c-1.09,13.96-0.96,28.21,1.66,41.96c2.11,11.07,6.51,21.66,11.16,31.92
				c6.27,13.85,14.09,27,22.42,39.71c9.49,14.47,20.07,28.28,31.33,41.42c16.57,19.33,34.06,37.96,53.12,54.83
				c17.34,15.36,36.39,28.75,55.42,41.96c22.32,15.49,45.06,30.44,68.79,43.67c19.01,10.6,38.89,19.56,58.75,28.49
				c22.65,10.19,46.51,17.67,68.84,28.54c7.51,3.66,14.86,7.75,21.84,12.34c11.35,7.46,23.25,14.65,32.46,24.63
				c11.04,11.96,26.83,41.37,26.83,41.37l0.05-0.05c21.16,60.89,83.02,104.97,156.08,104.97c90.52,0,163.91-67.71,163.91-151.18
				c0-78.12-53.51-135.24-146.68-150.3l0.1-0.1c0,0-97.93-19.08-141.54-31.04c-35.66-9.78-70.96-21.3-105.21-35.25
				c-28.97-11.8-57.43-25.16-84.5-40.83c-24.63-14.25-51.11-27.3-70.5-48.13c-23.23-24.96-48.65-54.43-51.46-88.42
				c-3.33-40.36,20.66-79.86,43.08-113.58c31.34-47.13,77.6-83.28,123.08-116.96c37.72-27.94,79.18-51.42,122.54-69.37
				c67.23-27.83,138.3-48.19,210.37-58.16c35.84-4.96,72.55-4.34,108.54-0.59c44.79,4.67,91.32,9.42,132.09,28.54
				c12.87,6.04,29.98,12.53,33.54,26.29c3.95,15.29-9.41,30.73-18.46,43.67c-15.2,21.74-36.79,38.55-58.16,54.25
				c-26.79,19.68-56.52,35.44-86.76,49.25c-11.16,5.1-22.39,12.23-34.66,12.29c-5.72,0.03-11.3-4.22-16.25-7.4
				c-7.1-4.56-14.65-12.73-21.54-17.76c-12.55-9.17-23.11-16.7-37.75-22.38c-15.32-5.94-31.77-9.14-48.13-10.62
				c-15.24-1.38-30.83-1.12-45.87,1.66c-15.31,2.83-30.08,8.58-44.21,15.13c-13.21,6.12-26.41,12.95-37.5,22.37
				c-13.01,11.06-25.23,23.96-33,39.17c-7,13.69-10.23,29.4-11.21,44.75c-0.61,9.56-0.44,19.76,3.38,28.54
				c5.06,11.65,14.95,20.85,24.63,29.08c9.12,7.75,19.91,13.38,30.75,18.46c11.27,5.28,23.16,9.38,35.25,12.34
				c13.91,3.4,28.24,5.49,42.54,6.17c23.13,1.1,46.37-0.74,69.37-3.38c31.08-3.56,62.2-8.43,92.34-16.79
				c25.94-7.19,51-17.49,75.54-28.54c17.88-8.05,35.17-17.35,52-27.42c17.76-10.62,35.2-21.93,51.5-34.66
				c13.84-10.81,26.63-22.95,39.17-35.25c13.84-13.59,27.38-27.57,39.71-42.54c12.14-14.75,23.38-30.27,33.59-46.41
				c10.57-16.72,20.75-33.86,28.54-52.04c6.78-15.83,12.6-32.3,15.67-49.25c2-11.03,4.7-22.8,1.66-33.59
				c-2.69-9.56-9.69-17.69-16.79-24.63c-10.81-10.55-24.63-17.62-38.04-24.58c-26.59-13.8-54.78-24.65-83.38-33.59
				c-29.02-9.06-59-14.98-88.96-20.17c-27.58-4.78-55.44-8.35-83.38-10.04C-327.41,192.19-344.29,191.75-361.18,191.78
				L-361.18,191.78z"/>
		</g>
		<path id="path4171" class="st56" d="M841.63,74.33c-1.69,0.02-3.38,0.1-5.05,0.3c-2.89,0.35-5.81,0.92-8.5,2.03
			c-1.98,0.81-3.78,2.03-5.48,3.32c-1.95,1.49-3.82,3.14-5.36,5.05c-1.29,1.6-2.3,3.42-3.19,5.27c-0.84,1.74-1.42,3.6-2.02,5.44
			c-0.62,1.9-1.24,3.82-1.6,5.79c-0.51,2.76-0.82,5.56-0.82,8.36c0,32.16-0.04,96.33-0.04,96.33h22.05v-75.61h17.26
			c2.16,0,4.09-1.72,5.62-3.25c1.07-1.07,2.27-2.42,2.27-3.93v-10.52h-24.9c0,0-0.77-7.82,0-11.61c0.33-1.62,0.84-3.34,1.94-4.57
			c1.51-1.68,3.74-2.71,5.92-3.28c4.69-1.21,9.64,0,14.54,0c1.73,0,3.64-0.28,5.01-1.34c1.41-1.08,2.2-2.9,2.66-4.61
			c1.02-3.79,1.66-11.62,1.66-11.62s-8.99-1.08-13.51-1.29C847.27,74.46,844.45,74.3,841.63,74.33L841.63,74.33z M765.3,87
			c0,0-11.71,3.24-17.59,4.82c-1.73,0.46-3.57,1.15-4.74,2.51c-0.96,1.11-1.46,2.69-1.46,4.15v79.87c0,3.39,2.31,11.27,4.14,14.12
			c1.93,3.01,4.2,5.94,7.08,8.05c3.59,2.63,7.9,4.28,12.21,5.37c4.83,1.22,9.82,1.01,14.8,0.88c2.71-0.07,5.49-0.17,8.14-0.76
			c1.12-0.25,3.3-1.04,3.3-1.04s-0.21-7.2-1.31-10.77c-0.26-0.85-0.66-1.7-1.23-2.38c-0.59-0.71-1.35-1.3-2.19-1.71
			c-2.21-1.07-4.8-1.29-7.23-1.59c-1.78-0.22-3.62-0.18-5.37-0.52c-1.53-0.3-3.09-0.82-4.34-1.76c-1.05-0.79-1.75-1.99-2.44-3.12
			c-0.9-1.49-1.61-3.09-2.14-4.75c-0.36-1.15-0.56-2.35-0.67-3.55c-1.37-14.62,0-44.07,0-44.07h14.89c1.71,0,3.38-0.81,4.83-1.71
			c0.89-0.55,1.68-1.31,2.25-2.19c0.88-1.33,1.71-2.86,1.71-4.45v-9.59H765.3L765.3,87z M968.89,109.8c-1.83,0-3.66,0.07-5.48,0.27
			c-2.56,0.28-5.1,0.85-7.57,1.59c-2.01,0.6-3.96,1.4-5.85,2.32c-2.49,1.2-5.01,2.47-7.21,4.15c-2.6,2-4.97,4.34-6.95,6.95
			c-2.06,2.71-3.69,5.77-5.01,8.91c-1.8,4.3-3.07,8.84-3.9,13.43c-0.78,4.34-1.11,8.79-0.98,13.19c0.14,4.6,0.66,9.23,1.84,13.67
			c1.08,4.07,2.65,8.06,4.75,11.72c1.82,3.17,4.03,6.19,6.72,8.66c3.14,2.89,6.9,5.11,10.74,6.96c2.98,1.44,6.18,2.4,9.4,3.17
			c2.68,0.65,5.42,1.09,8.17,1.22c2.89,0.13,6.19,0.33,9.07,0.11c6.89-0.52,12.63-1.28,19.37-2.79c2.32-0.52,7.57-2.2,7.57-2.2
			s-0.86-6.45-2.32-9.28c-0.98-1.9-2.24-3.45-4.15-4.39c-2.6-1.27-5.91-0.44-8.79-0.25c-3.01,0.2-5.79,0.69-8.79,0.98
			c-2.15,0.21-4.32,0.34-6.46,0.12c-3.28-0.34-6.61-0.91-9.64-2.2c-2.6-1.1-4.97-2.76-7.08-4.64c-1.75-1.55-4.07-3.53-5.13-5.62
			c-1.41-2.8-1.59-8.91-1.59-8.91s33.37,0.31,50.05,0c2.16-0.04,4.42,0.19,6.47-0.49c1.5-0.5,2.7-1.31,3.66-2.56
			c1.46-1.88,2.22-4.25,2.68-6.59c0.41-2.08,0.34-4.23,0.25-6.34c-0.13-2.95-0.42-5.92-1.1-8.79c-1.04-4.41-2.43-8.8-4.52-12.82
			c-1.75-3.37-3.89-6.62-6.59-9.28c-2.6-2.57-5.77-4.56-9.04-6.22c-2.77-1.4-5.76-2.38-8.79-3.05c-2.72-0.6-5.52-0.73-8.3-0.85
			C972.56,109.87,970.73,109.8,968.89,109.8L968.89,109.8z M524.96,110.36c-1.64,0.01-3.31,0.13-4.87,0.2
			c-4.28,0.2-8.08,0.51-12.33,1.1c-2.69,0.37-5.91,1.62-8.48,2.5c-2.53,0.87-6.9,2.69-6.9,2.69s-4.35-2.76-6.77-3.55
			c-6.02-1.96-12.47-2.53-18.8-2.81c-4.4-0.19-8.84,0.14-13.19,0.8c-3.13,0.47-6.22,1.26-9.22,2.25c-2.98,0.99-5.93,2.12-8.66,3.66
			c-2.13,1.21-4.13,2.67-5.92,4.34c-1.25,1.16-3.3,3.9-3.3,3.9l0.31,79.95h22.22v-65.55c0-5.3,5.83-8.93,14.64-8.54
			c16.42,0.72,16.23,9.28,16.23,15.87v58.22h22.71v-66.53c0-6.43,11.28-9.21,17.58-7.92c10.34,2.12,13.79,8.21,13.79,15.01
			c0,16.61-0.12,34.7-0.12,52c0,1.33,0.19,3.58,1.22,4.85c1.16,1.43,3.28,2.6,5.12,2.6h16.11v-65.48c0,0-1.87-8.58-3.72-12.52
			c-1.34-2.86-3.05-5.62-5.25-7.87c-2.55-2.61-5.66-4.76-8.97-6.29c-3.3-1.53-6.94-2.3-10.55-2.74
			C526.91,110.38,525.94,110.35,524.96,110.36L524.96,110.36z M1067.14,110.45c-3.01,0.04-5.74,0.35-9,0.84
			c-3.13,0.47-6.21,1.26-9.22,2.25c-2.98,0.99-5.93,2.12-8.66,3.66c-2.13,1.21-4.13,2.67-5.92,4.34c-1.25,1.16-3.99,3.9-3.99,3.9
			l0.31,79.95h22.22v-65.55c0-5.3,10.32-9.79,19.14-9.41c16.42,0.72,16.23,10.15,16.23,16.74v50.62c0,1.73,0.3,3.81,1.31,5.21
			c0.89,1.22,2.41,2.38,3.92,2.38h17.46v-66.53c0-8.1-2.97-15.09-11.12-21.85c-1.96-1.63-8.14-3.79-10.56-4.58
			c-6.02-1.96-12.65-1.66-18.98-1.94C1069.18,110.45,1068.14,110.44,1067.14,110.45L1067.14,110.45z M618.41,111.75
			c-0.55,0.01-1.11,0.02-1.66,0.03c-5.77,0.12-11.13,0.9-16.85,1.59c-3.59,0.44-7.51,1.08-10.98,2.07
			c-2.57,0.74-7.44,2.93-7.44,2.93s2.03,8.42,3.04,12.21c0.44,1.65,2.31,2.72,3.91,3.3c1.45,0.53,3.14,0.4,4.64,0
			c7.43-1.99,13.71-2.38,22.22-3.54c2.8-0.38,6.27-0.25,8.92,0.73c2.25,0.83,4.6,2.06,5.98,4.03c1.06,1.51,1.19,3.53,1.34,5.37
			c0.16,1.95-0.23,5.75-0.23,5.75s-12.67,0.21-18.93,0.73c-4.29,0.36-8.78,1.07-12.93,2.19c-3.82,1.03-7.94,2.69-11.23,4.89
			c-4.04,2.71-7.52,5.53-10.14,9.63c-2.15,3.37-3.31,7.4-3.91,11.35c-0.58,3.86-0.53,7.91,0.36,11.72c0.8,3.44,2.24,6.85,4.4,9.64
			c2.34,3.02,4.85,4.82,8.17,6.23c7.14,3.03,15.65,3.13,23.2,3.43c8.59,0.34,17.29-0.17,25.75-1.72c6.13-1.12,17.83-4.76,17.83-4.76
			v-64.56c0-2.4-0.87-3.67-1.84-5.86c-1-2.26-2.39-4.37-4.03-6.23c-2.25-2.56-4.85-4.89-7.81-6.59c-3.15-1.81-6.7-2.93-10.25-3.66
			c-3.23-0.67-6.55-0.87-9.87-0.89C619.51,111.74,618.96,111.74,618.41,111.75L618.41,111.75z M373.08,112.11
			c-0.41,0.01-0.81,0.03-1.19,0.04c-6.54,0.31-10.33,0.87-16.36,3.42c-5.22,2.21-10.04,4.97-13.43,9.52
			c-2.92,3.92-4.14,9.05-4.64,13.92c-0.41,4.08-0.04,8.39,1.46,12.21c1.36,3.47,3.81,6.54,6.59,9.02c2.09,1.87,4.25,3.31,6.84,4.4
			c3.2,1.35,6.66,1.98,10.01,2.93c2.35,0.67,4.45,0.67,6.84,1.22c1.77,0.41,3.57,0.74,5.37,0.98c1.94,0.26,4.27,0.53,6.11,1.22
			c2.07,0.77,4.34,1.95,5.37,3.91c1.22,2.3,1.33,5.44,0.23,7.81c-1.31,2.84-4.42,4.69-7.32,5.86c-3.18,1.29-6.82,0.96-10.25,0.97
			c-2.86,0.01-5.97,0.22-8.79-0.25c-2.65-0.44-5.1-0.89-7.69-1.58c-2.61-0.69-6.23-1.95-6.23-1.95s-2.24-0.89-2.96-0.63
			c-0.84,0.3-1.76,2.62-1.76,2.62l-6.75,13.03c0,0,7.36,3.14,11.23,4.14c4.14,1.07,8.45,1.65,12.7,2.2
			c3.89,0.5,7.79,0.92,11.72,0.97c3.26,0.05,6.53-0.26,9.76-0.73c3.87-0.55,7.83-1.02,11.47-2.45c4.14-1.62,7.73-3.81,10.74-7.08
			c2.64-2.87,4.68-6.54,5.86-10.25c0.91-2.83,1.55-5.81,1.46-8.78c-0.09-3.33-0.81-6.74-2.2-9.77c-1.48-3.22-3.69-6.19-6.34-8.54
			c-2.59-2.29-5.81-3.86-9.04-5.13c-4.28-1.68-8.92-2.26-13.43-3.17c-3.4-0.68-6.96-0.62-10.25-1.71c-2.87-0.95-6.32-1.67-8.05-4.14
			c-1.5-2.15-1.79-5.32-0.98-7.82c0.95-2.96,3.61-5.38,6.35-6.84c2.84-1.5,6.31-1.35,9.52-1.46c3.92-0.14,7.84,0.42,11.72,0.97
			c2.47,0.35,7.33,1.47,7.33,1.47s3.23,0.65,4.64,0c1.26-0.58,2.69-3.18,2.69-3.18l3.65-12.44c0,0-6.58-1.92-10.73-2.69
			C388.78,113.31,379.23,112.03,373.08,112.11L373.08,112.11z M710.81,112.35c-3.73,0.04-7.19-0.1-10.7,0.53
			c-3.57,0.65-7.3,1.71-10.37,3.3c-2.91,1.51-5.79,3.25-8.05,5.61c-1.94,2.02-3.42,4.5-4.52,7.08c-1.29,3.04-2.32,6.34-2.32,9.64
			v67.63h22.7V139c0-1.94,0.62-4.08,1.95-5.49c1.52-1.6,3.93-2.2,6.11-2.56c1.73-0.29,3.5,0.19,5.24,0.36
			c1.88,0.19,3.24,0.31,5.13,0.25c2.24-0.08,4.67-0.19,6.59-1.35c1.31-0.79,2.27-2.15,2.93-3.54c1.11-2.36,1.34-4.67,1.95-7.21
			c0.34-1.4,1.23-4.14,1.23-4.14s-6.52-2.04-9.89-2.45C716.48,112.6,713.05,112.32,710.81,112.35L710.81,112.35z M903.42,112.15
			c-3.73,0.04-6.92,0.09-10.3,0.73c-3.57,0.68-7.31,1.71-10.38,3.3c-2.91,1.51-5.79,3.25-8.05,5.61c-1.94,2.02-3.42,4.5-4.52,7.08
			c-1.29,3.04-2.32,6.34-2.32,9.64v67.63h22.71V139c0-1.94,0.62-4.08,1.95-5.49c1.52-1.6,3.92-2.2,6.1-2.56
			c1.73-0.29,3.51,0.19,5.25,0.36c1.88,0.19,3.24,0.31,5.13,0.25c2.24-0.08,4.67-0.19,6.59-1.35c1.31-0.79,2.27-2.15,2.93-3.54
			c1.11-2.36,1.34-4.67,1.95-7.21c0.34-1.4,1.22-4.14,1.22-4.14s-6.52-2.04-9.89-2.45C909.47,112.6,905.66,112.12,903.42,112.15
			L903.42,112.15z M971.41,127.08c2.14-0.03,4.3,0.1,6.29,0.81c2.51,0.9,4.71,2.63,6.59,4.52c1.53,1.53,2.81,3.38,3.66,5.37
			c1.62,3.79,2.56,12.08,2.56,12.08h-41.75c0,0,0.73-4.6,1.35-6.84c0.74-2.71,1.18-5.65,2.81-7.94c2.02-2.83,5.01-5.04,8.18-6.47
			c2.53-1.14,5.4-1.34,8.17-1.46C969.98,127.13,970.7,127.1,971.41,127.08L971.41,127.08z M627.84,162.68c2.04-0.01,3.68,0,3.68,0
			v23.56c0,0-7.25,1.94-11.34,2.32c-4.3,0.4-9.81,0.59-14.04-0.25c-2.7-0.53-5.73-1.24-7.69-3.17c-2.04-2-2.9-5.2-2.93-8.05
			c-0.02-2.5,1.04-5.02,2.45-7.08c0.84-1.24,2.14-2.16,3.42-2.94c2.4-1.46,5.07-2.4,7.81-3.04c4.05-0.96,8.41-1.01,12.57-1.23
			C623.35,162.72,625.79,162.69,627.84,162.68L627.84,162.68z"/>
	</g>
</g>
</svg>
