<?xml version="1.0" encoding="utf-8"?>
<!-- Generator: Adobe Illustrator 26.0.3, SVG Export Plug-In . SVG Version: 6.00 Build 0)  -->
<svg version="1.1" id="Layer_1" xmlns="http://www.w3.org/2000/svg" xmlns:xlink="http://www.w3.org/1999/xlink" x="0px" y="0px"
	 viewBox="0 0 1080 740.23" style="enable-background:new 0 0 1080 740.23;" xml:space="preserve">
<style type="text/css">
	.st0{fill-rule:evenodd;clip-rule:evenodd;fill:#0078A9;}
	.st1{fill:#52237F;}
	.st2{fill-rule:evenodd;clip-rule:evenodd;fill:#F5A800;}
	.st3{fill-rule:evenodd;clip-rule:evenodd;fill:#0033A1;}
	.st4{fill-rule:evenodd;clip-rule:evenodd;fill:#E1251B;}
	.st5{fill-rule:evenodd;clip-rule:evenodd;fill:#FFFFFF;}
	.st6{fill-rule:evenodd;clip-rule:evenodd;fill:#FF0000;}
	.st7{fill:#F89F21;}
	.st8{fill:#28387D;}
	.st9{fill:#088C45;}
	.st10{fill:#F37A21;}
	.st11{fill-rule:evenodd;clip-rule:evenodd;fill:#E60005;}
	.st12{fill:#F1890B;}
	.st13{fill:url(#SVGID_1_);}
	.st14{fill:#000105;}
	.st15{fill:#231F20;}
	.st16{fill:#EF3E42;}
	.st17{fill:none;}
	.st18{fill:#DE4447;}
	.st19{fill:#EC1C24;}
	.st20{fill:#2A557C;}
	.st21{fill:#0071BB;}
	.st22{fill:#009DA4;}
	.st23{fill:#FFFFFF;}
	.st24{fill:#F05C61;}
	.st25{fill-rule:evenodd;clip-rule:evenodd;fill:#0054A5;}
	.st26{fill-rule:evenodd;clip-rule:evenodd;fill:#231F20;}
	.st27{fill:#00A7E0;}
	.st28{fill:#F25022;}
	.st29{fill:#80BA01;}
	.st30{fill:#777777;}
	.st31{fill:#02A4EF;}
	.st32{fill:#FFB902;}
	.st33{fill:#FF0000;}
	.st34{fill-rule:evenodd;clip-rule:evenodd;}
	.st35{fill:#ED2423;stroke:#ED2423;stroke-width:0.2728;stroke-miterlimit:1.0913;}
	.st36{fill:url(#path3858_00000028284780471689331860000014192927193224346517_);}
	.st37{fill:url(#path3852_00000098199867029547027740000003314633711728739741_);}
	
		.st38{fill:url(#path3824_00000117669642123893687490000005994821086640193178_);stroke:url(#path3824_00000013173330609504609720000001977446480089493162_);stroke-width:0.238;stroke-miterlimit:1.0913;}
	
		.st39{fill:url(#path3826_00000090274448113612217220000007690790215487674266_);stroke:url(#path3826_00000053536216806439334030000015855780124507810209_);stroke-width:0.1995;stroke-miterlimit:1.0913;}
	.st40{fill:url(#path3856_00000167362884253885662030000003538331016711446944_);}
	.st41{fill:url(#path3828_00000047753741585276870320000011789351131830514069_);}
	
		.st42{fill:url(#path3830_00000111887817538856535550000017723890751884630426_);stroke:#FEC20F;stroke-width:0.4678;stroke-miterlimit:1.0913;}
	
		.st43{fill:url(#path3842_00000170259093801713300670000000191036091007699387_);stroke:#FEC20F;stroke-width:0.5207;stroke-miterlimit:1.0913;}
	
		.st44{fill:url(#path3844_00000152234529931924028150000012415396529277127819_);stroke:#FEC20F;stroke-width:0.3517;stroke-miterlimit:1.0913;}
	
		.st45{fill:url(#path3832_00000080200058478550147220000005739659944807837828_);stroke:#FEC20F;stroke-width:0.8185;stroke-miterlimit:1.0913;}
	.st46{fill:url(#path3854_00000148634689369293769920000011443804963932014991_);}
	
		.st47{fill:url(#path3834_00000103948836010467161730000015438762171271603846_);stroke:#FEC20F;stroke-width:0.3213;stroke-miterlimit:1.0913;}
	
		.st48{fill:url(#path3836_00000046304161853730784000000014579520000026551687_);stroke:#FEC20F;stroke-width:0.3201;stroke-miterlimit:1.0913;}
	
		.st49{fill:url(#path3838_00000131354968979274959370000001825671277305584000_);stroke:#FEC20F;stroke-width:0.2504;stroke-miterlimit:1.0913;}
	
		.st50{fill:url(#path3840_00000117669110814085519170000009516171459551314863_);stroke:#FEC20F;stroke-width:0.159;stroke-miterlimit:1.0913;}
	
		.st51{fill:url(#path3846_00000044880509585403689250000005957962566630293670_);stroke:#FEC20F;stroke-width:0.2541;stroke-miterlimit:1.0913;}
	.st52{fill:#FB000C;stroke:#FEC20F;stroke-width:0.2207;stroke-miterlimit:1.0913;}
	.st53{fill:url(#path3850_00000005230001735863902500000007995549673482302849_);}
	.st54{fill:url(#path3860_00000122702154222358032520000012587277890947908028_);}
	.st55{fill:none;stroke:#FFFFFB;stroke-width:0.5;stroke-miterlimit:1.0913;}
	.st56{fill:#191919;}
	.st57{fill:#D1AA67;stroke:#D1AA67;stroke-width:2.0247;stroke-linecap:round;stroke-linejoin:round;stroke-miterlimit:22.9256;}
	
		.st58{fill-rule:evenodd;clip-rule:evenodd;fill:#FFFFFF;stroke:#FFFFFF;stroke-width:1.3498;stroke-linecap:round;stroke-linejoin:round;stroke-miterlimit:22.9256;}
	.st59{fill-rule:evenodd;clip-rule:evenodd;fill:#EC1C24;}
	.st60{fill:url(#SVGID_00000147205321476650745560000007586149650120482738_);}
	.st61{fill-rule:evenodd;clip-rule:evenodd;fill:#1D1D1B;}
	.st62{fill-rule:evenodd;clip-rule:evenodd;fill:#E20613;}
</style>
<g>
	<g>
		<g>
			<path class="st34" d="M198.78,720.01c-0.25-3.16-0.49-5.09-0.49-8.23v-62.4c0-3.68-1.28-9.64,6.13-10.81l18.19-1.91v-14.51
				h-96.93v14.51c4.08,0,15.43,1.39,18.7,2.62c1.88,0.71,5.64,2.09,5.64,10.1c0,6.58,0,22.21,0,22.21H73.1v-23.22
				c0-3,0.65-7.68,6.04-9.56c3.37-1.2,13.86-1.66,18.82-2.15v-14.51H0v14.51c7.1,0.73,12.93,0.71,19.49,2.23
				c5.69,1.34,5.36,7.41,5.36,10.73v64.48c-0.17,6.32-0.17,4.9-0.17,4.9c0,5.63-5.69,7.43-9.83,7.57L0,727.63v14.49h97.96v-14.49
				c-3.06,0-12.72-1.3-16.96-1.9c-7.82-1.11-7.9-5.82-7.9-10.13V694.3h76.92v18.3c0,3.97,1.68,11.44-6.65,12.79
				c-7.22,1.18-15.14,2.23-17.7,2.23v14.49h97.45v-14.49c-5.78-0.59-7.87-0.59-18.98-2.23C200.8,724.91,199.03,722.32,198.78,720.01
				L198.78,720.01z"/>
			<path class="st34" d="M399.56,634.08c-19.42-12.8-45.23-15.27-72.51-15.27c-23.99,0-52.6,3.65-69.7,14.59
				c-19.11,12.14-28.56,32.7-28.56,49.83c0,15.63,10.48,36.32,26.79,47.78c17.34,12.14,44.43,15.6,69.95,15.6
				c27.04,0,51.81-1.82,71.72-14.13c18.38-11.1,29.65-30.19,29.37-49.69C426.4,663.54,417.15,646.03,399.56,634.08L399.56,634.08z
				 M284.26,695.36c-3.82-14.97-0.44-30.65,8.08-40.62c14.24-18.33,56.56-17.13,70.11,0.7c10.95,12.83,10.95,33.03,3.57,49.45
				c-8.58,16.15-25.43,19.5-46.58,18.79C301.13,721.99,289.01,713.44,284.26,695.36L284.26,695.36z"/>
			<path class="st34" d="M571.31,621.9v14.97c21.71,0.16,24.04,5.34,24.04,18.98v58.08l-71.31-92.03h-89.61v14.51
				c10.98,0,24.61,4.25,24.61,19.03l-0.16,53.15c-0.79,14.47-0.08,18.62-23.83,19.28v14.49h74.91v-14.49
				c-23.44-0.33-23.12-7.3-23.12-21.26v-53.77l69.54,90.86h66.96V662.5c0-4.82-0.17-10.56,1.14-15.27
				c2.58-9.39,10.57-9.66,23.31-10.81V621.9H571.31L571.31,621.9z"/>
			<path class="st34" d="M836.53,637.5c-7.4-5.14-17.29-8.54-27.52-11.3c-12.91-3.46-30.58-3.81-43.57-3.97l-23.72,0.17H657.6v14.48
				l16.49,1.58c4.31,0.98,7.32,4.25,7.19,10.26v69.19c0,0-0.6,6.02-5.29,7.89c-4.74,1.85-11.52,2.07-18.4,2.07v14.49l88.54,0.14
				c12.35-0.3,39.32,0.49,56.25-2.35c18.71-3.1,37.66-12.33,45.66-24.26c10.16-15.06,11.22-24.39,11.22-34.85
				C859.27,665.25,853.12,649.49,836.53,637.5L836.53,637.5z M802.64,680.61c0.87,17.73-2.1,41.9-41.2,40c-0.24,0-35.1,0-35.1,0
				v-75.09h36.73c13.18-0.09,20.56,1.66,28.4,7.73C800.38,660.13,802.15,670.37,802.64,680.61L802.64,680.61z"/>
			<path class="st34" d="M892.81,621.96v15.49c0,0,35.78-2.64,20.18,20.81l-28.56,46.86c-8.99,14.29-11.79,22.65-34.41,22.76v14.49
				h77.49v-14.49c-10.48-0.73-26.02-2.62-17.34-15.95c0,0,4.03-5.97,4.01-6.24l75.94,0.05l4.51,6.18
				c12.45,18.22-18.05,15.95-18.05,15.95v14.49H1080v-14.49c-17.07-0.33-20.55-2.96-26.68-12.44L988.6,621.9L892.81,621.96
				L892.81,621.96z M925.02,685.56l26.14-40.7l26.79,40.7H925.02L925.02,685.56z"/>
		</g>
	</g>
	<g>
		<g>
			<path d="M544.61,537.9c-51.67-2.14-98.19-3.53-144.64-6.19c-27.28-1.56-54.42-4.7-80.96-12.35
				c-44.3-12.76-72.16-40.7-83.64-85.49c-8.01-31.26-13.91-62.82-17.73-94.85c-6.9-57.76-8.82-115.74-6.86-173.77
				c0.72-21.36,3.4-42.97,8.11-63.81c10.03-44.44,39.19-71.28,83.18-80.93c24.98-5.48,50.46-8.98,75.88-11.99
				c62.38-7.39,125.09-8,187.82-7.45c49.47,0.43,98.83,2.81,148.01,8.61c25.73,3.04,51.29,6.39,76.13,14.37
				c43.45,13.96,65.91,45.42,73.45,88.5c8.24,47.06,7.36,94.64,4.76,142.14c-1.53,27.84-3.27,55.7-6.21,83.42
				c-3.84,36.15-10.63,71.73-21.43,106.64c-12.35,39.92-40.09,62.29-78.41,74.05c-23.74,7.28-48.12,10.62-72.85,11.86
				C639.33,533.16,589.44,535.66,544.61,537.9z M528.3,30.98c-33.37,1.83-78.34,4.24-123.3,6.82c-8.58,0.49-8.88,1.23-6.81,9.28
				c10.99,42.78,21.27,85.76,33.23,128.26c8.97,31.9,19.17,63.53,30.59,94.63c8.24,22.44,23.8,39.49,49.05,42.47
				c16.18,1.91,32.75,1.07,49.13,0.79c25.74-0.45,43.26-14.05,54.09-36.46c6.25-12.93,12.45-26.18,16.25-39.96
				c17.65-63.98,34.42-128.2,51.62-192.3c1.31-4.9-1.07-6.19-5-6.64c-9-1.02-17.98-2.51-27-2.86
				C613.45,33.61,576.72,32.55,528.3,30.98z M337.51,112.37c0-22.84,0.03-40.73-0.02-58.62c-0.02-7-1.74-8.34-8.43-6.47
				c-6.11,1.71-12.17,3.61-18.19,5.6c-22.84,7.54-38.19,22.51-46.67,45.23c-8.01,21.46-10.09,43.76-10.59,66.2
				c-1.23,54.91-0.83,109.84,5.81,164.45c3.8,31.27,8.42,62.52,14.57,93.41c4.46,22.42,15.97,41.5,36.81,53.33
				c15.09,8.56,30.04,17.54,48.07,18.46c8.89,0.45,11.1-1.6,10.4-10.57c-0.8-10.23-2.03-20.43-3.13-30.64
				c-3.32-30.87-6.99-61.7-9.93-92.6c-3.4-35.8-6.49-71.63-9.14-107.49C343.48,204.29,340.45,155.89,337.51,112.37z M828.51,218.47
				c-2.45-32.66-3.75-66.95-8-100.86c-3.03-24.16-13.69-45.82-36.79-57.77c-10.74-5.56-22.67-8.91-34.21-12.82
				c-4.86-1.64-7.71,0.21-7.88,6.12c-1.41,47.99-2.56,95.99-4.77,143.94c-1.3,28.1-4.34,56.13-6.71,84.18
				c-2.02,23.88-4.1,47.75-6.34,71.61c-2.07,22.14-4.35,44.27-6.59,66.39c-2.2,21.64-4.66,43.25-6.61,64.91
				c-0.78,8.66,1.33,10.3,10.12,9.8c18-1.01,32.95-9.96,48.09-18.47c16.71-9.4,27.78-23.7,32.45-41.8
				c6.08-23.58,12.15-47.43,14.86-71.54C821.42,314.99,824.41,267.57,828.51,218.47z M637.78,500.3
				c-10.7-31.17-20.07-60.9-31.25-89.93c-4.93-12.81-16.31-20.12-30.36-22.96c-20.41-4.12-40.85-3.86-61.41-2.16
				c-24.69,2.04-40.67,14.84-48.02,38.51c-7.3,23.53-14.71,47.03-21.98,70.57c-0.54,1.73-0.35,3.69-0.54,5.98
				C508.24,500.3,571.6,500.3,637.78,500.3z"/>
		</g>
	</g>
</g>
</svg>
