<?xml version="1.0" encoding="utf-8"?>
<!-- Generator: Adobe Illustrator 26.0.3, SVG Export Plug-In . SVG Version: 6.00 Build 0)  -->
<svg version="1.1" id="Layer_1" xmlns="http://www.w3.org/2000/svg" xmlns:xlink="http://www.w3.org/1999/xlink" x="0px" y="0px"
	 viewBox="0 0 1080 565.88" style="enable-background:new 0 0 1080 565.88;" xml:space="preserve">
<style type="text/css">
	.st0{fill-rule:evenodd;clip-rule:evenodd;fill:#0078A9;}
	.st1{fill:#52237F;}
	.st2{fill-rule:evenodd;clip-rule:evenodd;fill:#F5A800;}
	.st3{fill-rule:evenodd;clip-rule:evenodd;fill:#0033A1;}
	.st4{fill-rule:evenodd;clip-rule:evenodd;fill:#E1251B;}
	.st5{fill-rule:evenodd;clip-rule:evenodd;fill:#FFFFFF;}
	.st6{fill-rule:evenodd;clip-rule:evenodd;fill:#FF0000;}
	.st7{fill:#F89F21;}
	.st8{fill:#28387D;}
	.st9{fill:#088C45;}
	.st10{fill:#F37A21;}
	.st11{fill-rule:evenodd;clip-rule:evenodd;fill:#E60005;}
	.st12{fill:#F1890B;}
	.st13{fill:url(#SVGID_1_);}
	.st14{fill:#000105;}
	.st15{fill:#231F20;}
	.st16{fill:#EF3E42;}
	.st17{fill:none;}
	.st18{fill:#DE4447;}
	.st19{fill:#EC1C24;}
	.st20{fill:#2A557C;}
	.st21{fill:#0071BB;}
	.st22{fill:#009DA4;}
	.st23{fill:#FFFFFF;}
	.st24{fill:#F05C61;}
	.st25{fill-rule:evenodd;clip-rule:evenodd;fill:#0054A5;}
	.st26{fill-rule:evenodd;clip-rule:evenodd;fill:#231F20;}
	.st27{fill:#00A7E0;}
	.st28{fill:#F25022;}
	.st29{fill:#80BA01;}
	.st30{fill:#777777;}
	.st31{fill:#02A4EF;}
	.st32{fill:#FFB902;}
	.st33{fill:#FF0000;}
	.st34{fill-rule:evenodd;clip-rule:evenodd;}
	.st35{fill:#ED2423;stroke:#ED2423;stroke-width:0.2728;stroke-miterlimit:1.0913;}
	.st36{fill:url(#path3858_00000083063006612595368320000011738475737858635934_);}
	.st37{fill:url(#path3852_00000005258171317728757590000010672114324863166866_);}
	
		.st38{fill:url(#path3824_00000147181432097053342390000000439785987790643119_);stroke:url(#path3824_00000176765141559896615450000004604190568775935139_);stroke-width:0.238;stroke-miterlimit:1.0913;}
	
		.st39{fill:url(#path3826_00000008143737175946711680000012165682473423965109_);stroke:url(#path3826_00000083074460533645809630000005030464808903399087_);stroke-width:0.1995;stroke-miterlimit:1.0913;}
	.st40{fill:url(#path3856_00000003788243374620652730000015676781970020878746_);}
	.st41{fill:url(#path3828_00000148626707961015427780000013215927465297650049_);}
	
		.st42{fill:url(#path3830_00000106118548147039937000000013429946844813760928_);stroke:#FEC20F;stroke-width:0.4678;stroke-miterlimit:1.0913;}
	
		.st43{fill:url(#path3842_00000040562180981043075070000003789390560397841835_);stroke:#FEC20F;stroke-width:0.5207;stroke-miterlimit:1.0913;}
	
		.st44{fill:url(#path3844_00000111871491351980980290000003651390497265188787_);stroke:#FEC20F;stroke-width:0.3517;stroke-miterlimit:1.0913;}
	
		.st45{fill:url(#path3832_00000118397904403456949560000007480038274827045511_);stroke:#FEC20F;stroke-width:0.8185;stroke-miterlimit:1.0913;}
	.st46{fill:url(#path3854_00000023987122087023371410000014286116183645596315_);}
	
		.st47{fill:url(#path3834_00000183230761547267473550000016025836366753533833_);stroke:#FEC20F;stroke-width:0.3213;stroke-miterlimit:1.0913;}
	
		.st48{fill:url(#path3836_00000069371533110908219310000002395400825348634802_);stroke:#FEC20F;stroke-width:0.3201;stroke-miterlimit:1.0913;}
	
		.st49{fill:url(#path3838_00000125569074067094409310000009877134044957985929_);stroke:#FEC20F;stroke-width:0.2504;stroke-miterlimit:1.0913;}
	
		.st50{fill:url(#path3840_00000029016899126222658110000014537019100328321691_);stroke:#FEC20F;stroke-width:0.159;stroke-miterlimit:1.0913;}
	
		.st51{fill:url(#path3846_00000170256116309205593370000011385757409180201639_);stroke:#FEC20F;stroke-width:0.2541;stroke-miterlimit:1.0913;}
	.st52{fill:#FB000C;stroke:#FEC20F;stroke-width:0.2207;stroke-miterlimit:1.0913;}
	.st53{fill:url(#path3850_00000180327812586388166400000014155592013694416828_);}
	.st54{fill:url(#path3860_00000097471232856117160450000009962939315510164921_);}
	.st55{fill:none;stroke:#FFFFFB;stroke-width:0.5;stroke-miterlimit:1.0913;}
	.st56{fill:#191919;}
	.st57{fill:#D1AA67;stroke:#D1AA67;stroke-width:2.0247;stroke-linecap:round;stroke-linejoin:round;stroke-miterlimit:22.9256;}
	
		.st58{fill-rule:evenodd;clip-rule:evenodd;fill:#FFFFFF;stroke:#FFFFFF;stroke-width:1.3498;stroke-linecap:round;stroke-linejoin:round;stroke-miterlimit:22.9256;}
	.st59{fill-rule:evenodd;clip-rule:evenodd;fill:#EC1C24;}
	.st60{fill:url(#SVGID_00000084495934646583300110000003740249008265511080_);}
	.st61{fill-rule:evenodd;clip-rule:evenodd;fill:#1D1D1B;}
	.st62{fill-rule:evenodd;clip-rule:evenodd;fill:#E20613;}
</style>
<g>
	<rect x="305.48" y="378.22" class="st27" width="47.35" height="187.66"/>
	<path class="st27" d="M734.63,432.03c-1.9-0.95-17.2-10.08-39.78-10.08c-30.66,0-51.91,21.41-51.91,50.08
		c0,27.86,20.35,50.08,51.91,50.08c22.21,0,37.73-8.83,39.78-9.92v50.36c-5.96,1.7-22.13,6.68-43.15,6.68
		c-53.27,0-99.99-36.72-99.99-97.21c0-56.05,42.31-97.08,99.99-97.08c22.23,0,38.69,5.38,43.15,6.68V432.03z"/>
	<path class="st27" d="M240.4,432.03c-1.96-0.95-17.16-10.08-39.75-10.08c-30.72,0-51.93,21.41-51.93,50.08
		c0,27.86,20.32,50.08,51.93,50.08c22.2,0,37.65-8.83,39.75-9.92v50.36c-5.96,1.7-22.06,6.68-43.24,6.68
		c-53.16,0-99.86-36.72-99.86-97.21c0-56.05,42.27-97.08,99.86-97.08c22.31,0,38.77,5.38,43.24,6.68V432.03z"/>
	<path class="st27" d="M982.74,472.03c0,53.68-41.42,97.21-99.11,97.21c-57.73,0-99.11-43.53-99.11-97.21
		c0-53.61,41.38-97.08,99.11-97.08C941.32,374.95,982.74,418.42,982.74,472.03 M883.63,422.69c-28.12,0-49,22.13-49,49.34
		c0,27.33,20.88,49.43,49,49.43c28.08,0,49-22.09,49-49.43C932.64,444.82,911.72,422.69,883.63,422.69"/>
	<path class="st27" d="M532.43,420.9c-0.68-0.23-20.69-5.76-37.01-5.76c-19.02,0-29.29,6.39-29.29,15.43
		c0,11.37,13.93,15.37,21.68,17.84l13.07,4.17c30.72,9.73,44.72,30.81,44.72,53.64c0,47.18-41.48,63.01-77.71,63.01
		c-25.15,0-48.73-4.63-51.1-5.11v-43.22c4.17,1.05,24.02,6.97,44.71,6.97c23.6,0,34.41-6.86,34.41-17.57
		c0-9.47-9.39-14.93-21.07-18.6c-2.92-0.98-7.23-2.34-10.18-3.31c-26.29-8.3-48.37-23.82-48.37-54.87
		c0-35.08,26.29-58.69,69.98-58.69c23.06,0,44.71,5.61,46.14,5.99V420.9z"/>
	<path class="st27" d="M47.03,176.56c0-12.91-10.52-23.44-23.48-23.44C10.62,153.12,0,163.65,0,176.56v49.25
		c0,13.06,10.62,23.45,23.56,23.45c12.96,0,23.48-10.39,23.48-23.45V176.56z"/>
	<path class="st27" d="M176.21,111.88c0-12.88-10.56-23.46-23.52-23.46c-12.99,0-23.5,10.58-23.5,23.46V225.8
		c0,13.06,10.52,23.46,23.5,23.46c12.96,0,23.52-10.41,23.52-23.46V111.88z"/>
	<path class="st27" d="M305.3,23.44C305.3,10.5,294.74,0,281.82,0c-12.97,0-23.53,10.5-23.53,23.44v249.19
		c0,13,10.56,23.53,23.53,23.53c12.92,0,23.48-10.53,23.48-23.53V23.44z"/>
	<path class="st27" d="M434.45,111.88c0-12.88-10.52-23.46-23.49-23.46c-12.92,0-23.49,10.58-23.49,23.46V225.8
		c0,13.06,10.57,23.46,23.49,23.46c12.97,0,23.49-10.41,23.49-23.46V111.88z"/>
	<path class="st27" d="M563.45,176.56c0-12.91-10.52-23.44-23.35-23.44c-12.96,0-23.52,10.53-23.52,23.44v49.25
		c0,13.06,10.56,23.45,23.52,23.45c12.84,0,23.35-10.39,23.35-23.45V176.56z"/>
	<path class="st27" d="M692.7,111.88c0-12.88-10.53-23.46-23.46-23.46c-12.97,0-23.44,10.58-23.44,23.46V225.8
		c0,13.06,10.46,23.46,23.44,23.46c12.93,0,23.46-10.41,23.46-23.46V111.88z"/>
	<path class="st27" d="M821.86,23.44C821.86,10.5,811.41,0,798.42,0c-12.93,0-23.44,10.5-23.44,23.44v249.19
		c0,13,10.5,23.53,23.44,23.53c12.99,0,23.44-10.53,23.44-23.53V23.44z"/>
	<path class="st27" d="M951.04,111.88c0-12.88-10.5-23.46-23.72-23.46c-12.95,0-23.44,10.58-23.44,23.46V225.8
		c0,13.06,10.49,23.46,23.44,23.46c13.22,0,23.72-10.41,23.72-23.46V111.88z"/>
	<path class="st27" d="M1080,176.56c0-12.91-10.57-23.44-23.44-23.44c-12.97,0-23.44,10.53-23.44,23.44v49.25
		c0,13.06,10.46,23.45,23.44,23.45c12.87,0,23.44-10.39,23.44-23.45V176.56z"/>
</g>
</svg>
