<?xml version="1.0" encoding="utf-8"?>
<!-- Generator: Adobe Illustrator 26.0.3, SVG Export Plug-In . SVG Version: 6.00 Build 0)  -->
<svg version="1.1" id="Layer_1" xmlns="http://www.w3.org/2000/svg" xmlns:xlink="http://www.w3.org/1999/xlink" x="0px" y="0px"
	 viewBox="0 0 1080 230.96" style="enable-background:new 0 0 1080 230.96;" xml:space="preserve">
<style type="text/css">
	.st0{fill-rule:evenodd;clip-rule:evenodd;fill:#0078A9;}
	.st1{fill:#52237F;}
	.st2{fill-rule:evenodd;clip-rule:evenodd;fill:#F5A800;}
	.st3{fill-rule:evenodd;clip-rule:evenodd;fill:#0033A1;}
	.st4{fill-rule:evenodd;clip-rule:evenodd;fill:#E1251B;}
	.st5{fill-rule:evenodd;clip-rule:evenodd;fill:#FFFFFF;}
	.st6{fill-rule:evenodd;clip-rule:evenodd;fill:#FF0000;}
	.st7{fill:#F89F21;}
	.st8{fill:#28387D;}
	.st9{fill:#088C45;}
	.st10{fill:#F37A21;}
	.st11{fill-rule:evenodd;clip-rule:evenodd;fill:#E60005;}
	.st12{fill:#F1890B;}
	.st13{fill:url(#SVGID_1_);}
	.st14{fill:#000105;}
	.st15{fill:#231F20;}
	.st16{fill:#EF3E42;}
	.st17{fill:none;}
	.st18{fill:#DE4447;}
	.st19{fill:#EC1C24;}
	.st20{fill:#2A557C;}
	.st21{fill:#0071BB;}
	.st22{fill:#009DA4;}
	.st23{fill:#FFFFFF;}
	.st24{fill:#F05C61;}
	.st25{fill-rule:evenodd;clip-rule:evenodd;fill:#0054A5;}
	.st26{fill-rule:evenodd;clip-rule:evenodd;fill:#231F20;}
	.st27{fill:#00A7E0;}
	.st28{fill:#F25022;}
	.st29{fill:#80BA01;}
	.st30{fill:#777777;}
	.st31{fill:#02A4EF;}
	.st32{fill:#FFB902;}
	.st33{fill:#FF0000;}
	.st34{fill-rule:evenodd;clip-rule:evenodd;}
	.st35{fill:#ED2423;stroke:#ED2423;stroke-width:0.2728;stroke-miterlimit:1.0913;}
	.st36{fill:url(#path3858_00000140734334801521770680000006277817918526082491_);}
	.st37{fill:url(#path3852_00000050623755031112884190000007861729613338475165_);}
	
		.st38{fill:url(#path3824_00000024722751752482770430000018415122318117942953_);stroke:url(#path3824_00000105418825812637546190000002261266701020828094_);stroke-width:0.238;stroke-miterlimit:1.0913;}
	
		.st39{fill:url(#path3826_00000173843696849933761420000010055719818687326872_);stroke:url(#path3826_00000076587909475385762720000018076356939588952499_);stroke-width:0.1995;stroke-miterlimit:1.0913;}
	.st40{fill:url(#path3856_00000060016479930449052010000007149562990257302418_);}
	.st41{fill:url(#path3828_00000037672983756924441310000004291516600395315841_);}
	
		.st42{fill:url(#path3830_00000084513295580099299270000013859953794991295114_);stroke:#FEC20F;stroke-width:0.4678;stroke-miterlimit:1.0913;}
	
		.st43{fill:url(#path3842_00000097491844674590043730000007363369203582922650_);stroke:#FEC20F;stroke-width:0.5207;stroke-miterlimit:1.0913;}
	
		.st44{fill:url(#path3844_00000083808364707722432420000016934662687811407236_);stroke:#FEC20F;stroke-width:0.3517;stroke-miterlimit:1.0913;}
	
		.st45{fill:url(#path3832_00000165950324113553418820000000280952291001549242_);stroke:#FEC20F;stroke-width:0.8185;stroke-miterlimit:1.0913;}
	.st46{fill:url(#path3854_00000107552081877134218790000003534916692271366813_);}
	
		.st47{fill:url(#path3834_00000037672739372126815410000006155939188736105620_);stroke:#FEC20F;stroke-width:0.3213;stroke-miterlimit:1.0913;}
	
		.st48{fill:url(#path3836_00000051380522711128113730000017767318697404068510_);stroke:#FEC20F;stroke-width:0.3201;stroke-miterlimit:1.0913;}
	
		.st49{fill:url(#path3838_00000103957177560132006280000004073361751074798725_);stroke:#FEC20F;stroke-width:0.2504;stroke-miterlimit:1.0913;}
	
		.st50{fill:url(#path3840_00000128467575611565804850000008096512933454673598_);stroke:#FEC20F;stroke-width:0.159;stroke-miterlimit:1.0913;}
	
		.st51{fill:url(#path3846_00000039104147961629214100000005218874074766636937_);stroke:#FEC20F;stroke-width:0.2541;stroke-miterlimit:1.0913;}
	.st52{fill:#FB000C;stroke:#FEC20F;stroke-width:0.2207;stroke-miterlimit:1.0913;}
	.st53{fill:url(#path3850_00000092416010583248526460000000919684073380640931_);}
	.st54{fill:url(#path3860_00000053539173374040016780000011508977795911247772_);}
	.st55{fill:none;stroke:#FFFFFB;stroke-width:0.5;stroke-miterlimit:1.0913;}
	.st56{fill:#191919;}
	.st57{fill:#D1AA67;stroke:#D1AA67;stroke-width:2.0247;stroke-linecap:round;stroke-linejoin:round;stroke-miterlimit:22.9256;}
	
		.st58{fill-rule:evenodd;clip-rule:evenodd;fill:#FFFFFF;stroke:#FFFFFF;stroke-width:1.3498;stroke-linecap:round;stroke-linejoin:round;stroke-miterlimit:22.9256;}
	.st59{fill-rule:evenodd;clip-rule:evenodd;fill:#EC1C24;}
	.st60{fill:url(#SVGID_00000150101639095635563410000004041993099881044654_);}
	.st61{fill-rule:evenodd;clip-rule:evenodd;fill:#1D1D1B;}
	.st62{fill-rule:evenodd;clip-rule:evenodd;fill:#E20613;}
</style>
<g>
	<path class="st28" d="M0,1.38h109.72c-0.01,36.57,0,73.14-0.01,109.72c-36.57,0-73.14,0-109.71,0V1.38L0,1.38z"/>
	<path class="st29" d="M120.92,1.38h109.72c0,36.57,0.01,73.14-0.01,109.72c-36.57-0.01-73.14,0-109.7,0
		C120.91,74.52,120.92,37.95,120.92,1.38L120.92,1.38z"/>
	<path class="st30" d="M1056.44,105.86c0.04,11.09,0,22.14,0,33.22c0.13,6.17-0.3,12.3,0.39,18.42c0.48,3.62,1.77,7.59,5.13,9.49
		c5.65,3.15,12.86,1.77,18.04-1.73v19.46c-6.77,2.93-14.32,3.84-21.66,3.32c-6.99-0.52-14.2-3.02-18.73-8.59
		c-5.22-6.26-6.6-14.71-6.69-22.61c-0.09-17,0-34-0.04-51.04c-11.56,0-23.13,0-34.73,0.04v80.04h-23.73
		c0-26.71-0.04-53.37,0.04-80.04c-5.52-0.09-11.05,0.04-16.52-0.09c0-6.34,0.04-12.64,0-18.99c5.44-0.13,10.92-0.09,16.44-0.04
		c0.39-8.41-0.91-17.09,1.64-25.28c2.11-7.42,6.86-14.11,13.38-18.29c10.1-6.56,23.17-7.16,34.56-4.06
		c0.13,6.77,0.04,13.55,0.04,20.36c-5.39-2.42-11.78-3.97-17.47-1.64c-4.53,1.81-7.21,6.47-7.9,11.09
		c-0.86,5.87-0.3,11.87-0.47,17.78h34.73c0.09-7.51-0.09-15.02,0.09-22.52c7.85-2.24,15.66-4.75,23.47-7.12
		c0.09,9.88-0.09,19.81,0.09,29.69c7.85-0.09,15.66,0,23.47-0.04v19.29C1072.15,105.64,1064.29,105.9,1056.44,105.86z"/>
	<path class="st30" d="M481.34,44.57c4.78-0.72,9.96,0.91,13.13,4.65c3.72,4.1,4.4,10.62,1.65,15.41c-3.04,5.4-9.86,7.91-15.8,6.62
		c-6.16-1.11-11.29-6.83-11.02-13.22C469.13,51.31,474.75,45.32,481.34,44.57L481.34,44.57z"/>
	<path class="st30" d="M299.49,47.51c11.51,0,23,0,34.51,0c10.74,27.27,21.56,54.52,32.31,81.8c2.75,6.82,5.32,13.72,8.2,20.49
		c13.82-34.08,27.83-68.08,41.55-102.2c11.06-0.18,22.13-0.04,33.2-0.07c-0.03,46.12-0.01,92.24-0.01,138.36
		c-7.99-0.02-15.97,0.07-23.95-0.05c0.09-34.03-0.01-68.07,0.04-102.11c0.01-1.53-0.04-3.06-0.14-4.59
		c-0.47,0.71-0.88,1.45-1.25,2.21c-13.71,34.84-27.69,69.58-41.32,104.45c-5.68,0.2-11.37,0.01-17.05,0.11
		c-14.15-34.84-28.12-69.76-42.19-104.62c-0.37-0.72-0.76-1.43-1.19-2.11c-0.29,14.91-0.05,29.84-0.13,44.75
		c0.01,20.65-0.01,41.3,0.01,61.95c-7.53,0.02-15.06,0-22.59,0.01C299.49,139.76,299.48,93.63,299.49,47.51L299.49,47.51z"/>
	<path class="st30" d="M546.64,86.61c11.45-3.26,23.8-3.13,35.25,0.11c2.36,0.66,4.65,1.57,6.77,2.82c-0.13,7.56,0,15.12-0.07,22.69
		c-7.65-5.84-17.36-9.55-27.08-8.32c-7.72,0.7-15.09,4.7-19.71,10.95c-5.94,7.74-7.31,18.01-6.29,27.47
		c0.76,7.41,3.83,14.81,9.59,19.72c5.98,5.32,14.37,7.2,22.2,6.61c7.74-0.89,15.04-4.16,21.29-8.74c0.07,7.16-0.03,14.33,0.05,21.49
		c-9.7,5.77-21.33,7.26-32.43,6.71c-11.36-0.6-22.69-4.9-30.91-12.89c-8.94-8.61-13.79-20.9-14.36-33.2
		c-0.58-12.79,2.02-26.13,9.38-36.82C526.49,96.1,536.13,89.64,546.64,86.61L546.64,86.61z"/>
	<path class="st30" d="M762.09,109.87c-4.1-9.19-11.52-16.83-20.71-20.97c-10.57-4.79-22.57-5.44-33.96-4.01
		c-11.95,1.51-23.6,7.16-31.2,16.7c-6.95,8.5-10.31,19.46-10.96,30.29c-0.95,12.81,1.17,26.36,8.67,37.06
		c6.43,9.19,16.53,15.53,27.44,17.86c9.1,1.9,18.64,1.9,27.79,0c10.66-2.16,20.62-8.07,27.23-16.79c6.47-8.2,9.71-18.55,10.44-28.87
		C767.57,130.58,766.49,119.62,762.09,109.87z M739.18,155.39c-2.24,5.09-6.43,9.41-11.65,11.43c-6.13,2.37-13.03,2.5-19.33,0.86
		c-6.43-1.68-11.91-6.34-14.89-12.3c-3.8-7.59-4.4-16.44-3.58-24.81c0.69-7.59,3.36-15.45,9.15-20.67
		c4.19-3.93,9.92-5.87,15.62-6.17c7.12-0.48,14.71,1.55,19.85,6.73c5.48,5.39,7.59,13.2,8.2,20.67
		C742.93,139.3,742.63,147.8,739.18,155.39z"/>
	<path class="st30" d="M805.84,85.1c10.97-1.93,22.46-0.51,32.84,3.42c0.01,7.27,0,14.54,0.01,21.81
		c-7.26-4.99-16.12-7.67-24.92-7.36c-4.43,0.17-9.31,2.05-11.33,6.27c-1.61,4.17-0.49,9.64,3.44,12.14
		c6.73,4.5,14.75,6.41,21.73,10.44c5.49,3.08,10.81,7.12,13.59,12.93c5.23,10.89,3.01,25.27-6.17,33.39
		c-8.77,8.2-21.4,10.46-33.02,10.03c-8.25-0.53-16.54-2.16-24.12-5.54c0.03-7.65-0.05-15.29,0.04-22.94
		c6.38,4.63,13.74,7.95,21.53,9.29c5.42,0.88,11.32,0.92,16.38-1.5c4.84-2.41,5.71-9.28,2.83-13.48c-2.69-3.24-6.64-5.03-10.36-6.78
		c-6.99-3.14-14.34-5.77-20.48-10.48c-4.32-3.37-7.58-8.11-8.86-13.46c-1.9-7.89-1.3-16.78,3.28-23.67
		C787.47,91.58,796.57,86.76,805.84,85.1L805.84,85.1z"/>
	<path class="st30" d="M952.15,112.72c-3.67-9.84-10.96-18.34-20.41-23.08c-10.79-5.44-23.39-6.21-35.21-4.75
		c-9.54,1.21-18.94,4.83-26.23,11.22c-8.89,7.68-14.11,18.94-15.62,30.46c-1.47,11.52-0.99,23.69,3.71,34.47
		c4.49,10.57,13.42,19.16,24.12,23.39c10.53,4.14,22.31,4.62,33.4,2.8c11.39-1.86,22.13-7.85,29.17-17.04
		c7.55-9.49,10.79-21.79,10.74-33.79C955.99,128.38,955,120.27,952.15,112.72z M930.75,146.33c-0.95,5.22-2.72,10.44-6.17,14.58
		c-3.41,4.14-8.54,6.69-13.85,7.46c-5.69,0.82-11.65,0.43-16.96-1.86c-5.74-2.42-10.18-7.38-12.51-13.12
		c-2.85-6.77-3.41-14.32-2.85-21.57c0.56-7.08,2.55-14.28,7.21-19.76c4.23-5.14,10.74-7.94,17.3-8.33
		c6.73-0.48,13.89,1.08,19.03,5.61c4.75,3.97,7.38,9.84,8.59,15.79C931.87,132.14,931.87,139.34,930.75,146.33z"/>
	<path class="st30" d="M641.72,88.23c6.55-3.93,14.87-4.26,22.02-1.86c-0.03,7.91,0,15.83-0.02,23.74
		c-4.68-3.03-10.52-4.33-16.04-3.77c-6.73,0.76-12.07,5.94-14.84,11.87c-3,6.28-3.57,13.38-3.38,20.25c0,15.81,0.01,31.62,0,47.42
		c-7.8,0-15.6,0-23.39,0c-0.02-33.04,0.03-66.09-0.02-99.13c7.81-0.1,15.62-0.06,23.43-0.02c-0.03,5.67,0,11.35-0.02,17.03
		C631.99,97.59,635.77,91.6,641.72,88.23L641.72,88.23z"/>
	<path class="st30" d="M471.47,86.74c7.87-0.03,15.74-0.11,23.61,0.04c-0.09,33.03-0.01,66.07-0.04,99.11c-7.85,0-15.71,0-23.56,0
		C471.46,152.84,471.49,119.79,471.47,86.74L471.47,86.74z"/>
	<path class="st31" d="M0,122.29c36.57,0.01,73.14-0.01,109.72,0.01c0.01,36.57,0,73.14,0,109.71H0V122.29L0,122.29z"/>
	<path class="st32" d="M120.92,122.3c36.57-0.01,73.14-0.01,109.71-0.01c0,36.57,0,73.14,0,109.72H120.92
		C120.92,195.44,120.91,158.87,120.92,122.3L120.92,122.3z"/>
</g>
</svg>
