<?xml version="1.0" encoding="utf-8"?>
<!-- Generator: Adobe Illustrator 26.0.3, SVG Export Plug-In . SVG Version: 6.00 Build 0)  -->
<svg version="1.1" id="Layer_1" xmlns="http://www.w3.org/2000/svg" xmlns:xlink="http://www.w3.org/1999/xlink" x="0px" y="0px"
	 viewBox="0 0 1080 689.95" style="enable-background:new 0 0 1080 689.95;" xml:space="preserve">
<style type="text/css">
	.st0{fill-rule:evenodd;clip-rule:evenodd;fill:#0078A9;}
	.st1{fill:#52237F;}
	.st2{fill-rule:evenodd;clip-rule:evenodd;fill:#F5A800;}
	.st3{fill-rule:evenodd;clip-rule:evenodd;fill:#0033A1;}
	.st4{fill-rule:evenodd;clip-rule:evenodd;fill:#E1251B;}
	.st5{fill-rule:evenodd;clip-rule:evenodd;fill:#FFFFFF;}
	.st6{fill-rule:evenodd;clip-rule:evenodd;fill:#FF0000;}
	.st7{fill:#F89F21;}
	.st8{fill:#28387D;}
	.st9{fill:#088C45;}
	.st10{fill:#F37A21;}
	.st11{fill-rule:evenodd;clip-rule:evenodd;fill:#E60005;}
	.st12{fill:#F1890B;}
	.st13{fill:url(#SVGID_1_);}
	.st14{fill:#000105;}
	.st15{fill:#231F20;}
	.st16{fill:#EF3E42;}
	.st17{fill:none;}
	.st18{fill:#DE4447;}
	.st19{fill:#EC1C24;}
	.st20{fill:#2A557C;}
	.st21{fill:#0071BB;}
	.st22{fill:#009DA4;}
	.st23{fill:#FFFFFF;}
	.st24{fill:#F05C61;}
	.st25{fill-rule:evenodd;clip-rule:evenodd;fill:#0054A5;}
	.st26{fill-rule:evenodd;clip-rule:evenodd;fill:#231F20;}
	.st27{fill:#00A7E0;}
	.st28{fill:#F25022;}
	.st29{fill:#80BA01;}
	.st30{fill:#777777;}
	.st31{fill:#02A4EF;}
	.st32{fill:#FFB902;}
	.st33{fill:#FF0000;}
	.st34{fill-rule:evenodd;clip-rule:evenodd;}
	.st35{fill:#ED2423;stroke:#ED2423;stroke-width:0.2728;stroke-miterlimit:1.0913;}
	.st36{fill:url(#path3858_00000121255598159295929860000006379176745041959595_);}
	.st37{fill:url(#path3852_00000048501365733615373360000003162326898625936557_);}
	
		.st38{fill:url(#path3824_00000155827859713130608150000004538229022054481038_);stroke:url(#path3824_00000130621537426961689670000014789918711264625303_);stroke-width:0.238;stroke-miterlimit:1.0913;}
	
		.st39{fill:url(#path3826_00000023254612950496692830000015565342717253717391_);stroke:url(#path3826_00000001631007191025277860000013869784948492568461_);stroke-width:0.1995;stroke-miterlimit:1.0913;}
	.st40{fill:url(#path3856_00000164498792493168952900000000580839792791659935_);}
	.st41{fill:url(#path3828_00000168074839919798943190000006453222383046448030_);}
	
		.st42{fill:url(#path3830_00000163765307579861970570000002152923675019981241_);stroke:#FEC20F;stroke-width:0.4678;stroke-miterlimit:1.0913;}
	
		.st43{fill:url(#path3842_00000178182733365571887510000016604937511520397244_);stroke:#FEC20F;stroke-width:0.5207;stroke-miterlimit:1.0913;}
	
		.st44{fill:url(#path3844_00000121975040001024925460000012061552576331524516_);stroke:#FEC20F;stroke-width:0.3517;stroke-miterlimit:1.0913;}
	
		.st45{fill:url(#path3832_00000065054835069165147780000001588100910837568952_);stroke:#FEC20F;stroke-width:0.8185;stroke-miterlimit:1.0913;}
	.st46{fill:url(#path3854_00000103239651868324294740000000797715046385003709_);}
	
		.st47{fill:url(#path3834_00000063601977024617025670000017856846056371301535_);stroke:#FEC20F;stroke-width:0.3213;stroke-miterlimit:1.0913;}
	
		.st48{fill:url(#path3836_00000094589149298783076710000007373080871583835052_);stroke:#FEC20F;stroke-width:0.3201;stroke-miterlimit:1.0913;}
	
		.st49{fill:url(#path3838_00000009558015785267720500000006546828059024197253_);stroke:#FEC20F;stroke-width:0.2504;stroke-miterlimit:1.0913;}
	
		.st50{fill:url(#path3840_00000125568512711141836530000018087135344164935610_);stroke:#FEC20F;stroke-width:0.159;stroke-miterlimit:1.0913;}
	
		.st51{fill:url(#path3846_00000175310332698908421700000018123544757427478161_);stroke:#FEC20F;stroke-width:0.2541;stroke-miterlimit:1.0913;}
	.st52{fill:#FB000C;stroke:#FEC20F;stroke-width:0.2207;stroke-miterlimit:1.0913;}
	.st53{fill:url(#path3850_00000117642496086239646370000000241424202532963734_);}
	.st54{fill:url(#path3860_00000099650411741197519760000003307299940565359276_);}
	.st55{fill:none;stroke:#FFFFFB;stroke-width:0.5;stroke-miterlimit:1.0913;}
	.st56{fill:#191919;}
	.st57{fill:#D1AA67;stroke:#D1AA67;stroke-width:2.0247;stroke-linecap:round;stroke-linejoin:round;stroke-miterlimit:22.9256;}
	
		.st58{fill-rule:evenodd;clip-rule:evenodd;fill:#FFFFFF;stroke:#FFFFFF;stroke-width:1.3498;stroke-linecap:round;stroke-linejoin:round;stroke-miterlimit:22.9256;}
	.st59{fill-rule:evenodd;clip-rule:evenodd;fill:#EC1C24;}
	.st60{fill:url(#SVGID_00000098205149890052655150000007987175449946368681_);}
	.st61{fill-rule:evenodd;clip-rule:evenodd;fill:#1D1D1B;}
	.st62{fill-rule:evenodd;clip-rule:evenodd;fill:#E20613;}
</style>
<g>
	<path class="st17" d="M465.29,0H219.76l244.07,0.07C464.32,0.03,464.81,0,465.29,0z"/>
	<path class="st17" d="M0,643.56v46.39h51.95C22.77,689.51,2.46,670.15,0,643.56z"/>
	<path class="st18" d="M760.7,0.14L654.34,0.1l105.74,0.07C760.29,0.17,760.49,0.14,760.7,0.14z"/>
	<path class="st19" d="M246.99,623.25L372.8,66.73c8.29-36.4,54.38-65.91,91.02-66.66L219.76,0c-36.84,0-84.08,29.85-92.5,66.73
		L1.44,623.25c-0.77,3.4-1.19,6.72-1.44,9.98v10.32c2.46,26.59,22.77,45.95,51.95,46.39H297.5
		C261.25,689.4,238.67,659.73,246.99,623.25z"/>
	<path class="st20" d="M654.34,0.1L465.29,0c-0.48,0-0.97,0.03-1.46,0.07L654.34,0.1z"/>
	<path class="st21" d="M543.98,623.25L669.76,66.73c8.29-36.13,53.79-65.44,90.33-66.56L654.34,0.1L463.82,0.07
		c-36.64,0.75-82.74,30.26-91.02,66.66L246.99,623.25c-8.32,36.47,14.26,66.15,50.51,66.69h297.01
		C558.24,689.4,535.7,659.73,543.98,623.25z"/>
	<path class="st22" d="M1026.72,0.2L760.76,0.14c-0.03,0-0.07,0-0.07,0c-0.21,0-0.41,0.03-0.61,0.03
		c-36.54,1.12-82.04,30.43-90.33,66.56L543.98,623.25c-8.29,36.47,14.26,66.15,50.53,66.69h35.96h164.76h78.68
		c35.72-1.77,70.43-30.73,78.58-66.46l125.78-556.53C1086.69,30.12,1063.6,0.2,1026.72,0.2z"/>
	<path class="st23" d="M468.97,405.59h4.62c4.25,0,7.1-1.42,8.44-4.24l12-17.96h32.14l-6.71,11.81H558l-4.89,18.1h-45.86
		c-5.28,7.95-11.78,11.68-19.6,11.24h-23.89L468.97,405.59 M463.69,431.53h84.43l-5.38,19.66h-33.96l-5.18,18.98h33.04l-5.38,19.66
		h-33.04l-7.67,28.05c-1.9,4.69,0.6,6.8,7.46,6.32h26.93l-4.99,18.27h-51.7c-9.8,0-13.16-5.6-10.09-16.84l9.81-35.79h-21.12
		l5.37-19.66h21.12l5.18-18.98h-20.19L463.69,431.53z M598.45,383.25l-1.33,11.51c0,0,15.92-11.96,30.39-11.96h53.45l-20.44,73.99
		c-1.7,8.46-8.96,12.67-21.8,12.67h-60.58l-14.19,51.96c-0.82,2.78,0.34,4.21,3.4,4.21h11.92l-4.38,16.13h-30.31
		c-11.63,0-16.47-3.5-14.55-10.53l40.1-147.99H598.45z M643.71,404.16h-47.71l-5.71,19.97c0,0,7.95-5.74,21.22-5.94
		c13.24-0.21,28.35,0,28.35,0L643.71,404.16z M626.43,450.48c3.53,0.48,5.5-0.92,5.74-4.21l2.92-10.53h-47.78l-4.01,14.74H626.43z
		 M594.2,474.39h27.54l-0.51,11.92h7.34c3.7,0,5.54-1.19,5.54-3.53l2.17-7.71h22.89l-3.06,11.24c-2.58,9.37-9.44,14.26-20.58,14.74
		h-14.67l-0.07,20.37c-0.27,3.26,2.68,4.93,8.76,4.93h13.79l-4.45,16.13h-33.07c-9.27,0.44-13.82-3.98-13.72-13.34L594.2,474.39z"/>
	<path class="st23" d="M711.26,406.4l6.38-22.48h32.29l-1.39,8.25c0,0,16.5-8.25,28.39-8.25c11.89,0,39.93,0,39.93,0l-6.35,22.48
		h-6.28l-30.12,106.01h6.28l-5.97,21.05h-6.28l-2.61,9.13h-31.28l2.61-9.13h-61.7l6.01-21.05h6.18L717.5,406.4H711.26 M746.1,406.4
		l-8.22,28.69c0,0,14.06-5.4,26.18-6.92c2.68-10.02,6.18-21.77,6.18-21.77H746.1z M734.07,448.54l-8.25,30.05
		c0,0,15.58-7.67,26.28-8.32c3.09-11.61,6.18-21.73,6.18-21.73H734.07z M740.12,512.42l6.18-21.8h-24.11l-6.22,21.8H740.12z
		 M818.22,382.53h30.36l1.29,11.2c-0.2,2.85,1.49,4.21,5.1,4.21h5.36l-5.43,18.98h-22.31c-8.52,0.44-12.9-2.82-13.31-9.85
		L818.22,382.53z M809.32,423.25h98.34l-5.77,20.38h-31.31l-5.37,18.94h31.28l-5.81,20.34h-34.84l-7.88,11.92h17.05l3.94,23.87
		c0.47,2.38,2.58,3.53,6.18,3.53h5.3l-5.57,19.66h-18.74c-9.71,0.48-14.74-2.78-15.15-9.81l-4.52-21.8l-15.52,23.19
		c-3.67,6.55-9.31,9.61-16.91,9.13H775.4l5.57-19.66h8.93c3.67,0,6.72-1.63,9.47-4.92l24.28-35.11h-31.31l5.8-20.34h33.96l5.4-18.94
		h-33.99L809.32,423.25z"/>
	<path class="st23" d="M260.47,284.66c-3.73,18.3-12.39,32.36-25.82,42.35c-13.31,9.81-30.48,14.74-51.5,14.74
		c-19.78,0-34.28-5.03-43.53-15.11c-6.42-7.17-9.61-16.27-9.61-27.27c0-4.55,0.54-9.44,1.63-14.7l22.4-107.98h33.82l-22.09,106.76
		c-0.68,2.96-0.95,5.71-0.92,8.18c-0.04,5.47,1.32,9.95,4.07,13.45c4.01,5.2,10.51,7.78,19.56,7.78c10.41,0,18.98-2.55,25.64-7.67
		c6.66-5.09,11-12.33,12.95-21.73l22.16-106.76h33.65L260.47,284.66"/>
	<path class="st23" d="M291.63,242.15h23.89l-2.73,13.92l3.43-3.97c7.74-8.29,17.15-12.39,28.25-12.39c10.05,0,17.3,2.92,21.85,8.79
		c4.48,5.88,5.7,13.99,3.58,24.42l-13.16,65.67h-24.55l11.89-59.53c1.22-6.15,0.88-10.73-1-13.69c-1.86-2.95-5.43-4.41-10.58-4.41
		c-6.32,0-11.63,1.97-15.96,5.87c-4.35,3.94-7.22,9.41-8.63,16.37l-10.95,55.38h-24.6L291.63,242.15"/>
	<path class="st23" d="M565.58,242.15h23.91l-2.71,13.92l3.39-3.97c7.75-8.29,17.19-12.39,28.26-12.39
		c10.05,0,17.32,2.92,21.83,8.79c4.45,5.88,5.74,13.99,3.57,24.42l-13.11,65.67h-24.58l11.89-59.53c1.22-6.15,0.88-10.73-0.99-13.69
		c-1.94-2.95-5.43-4.41-10.56-4.41c-6.32,0-11.61,1.97-16,5.87c-4.35,3.94-7.23,9.41-8.59,16.37l-11,55.38h-24.57L565.58,242.15"/>
	<path class="st23" d="M402.51,242.18H429l-20.75,96.37h-26.44L402.51,242.18 M410.85,207.07h26.72l-4.99,23.39h-26.72
		L410.85,207.07z"/>
	<path class="st23" d="M452.45,331.22c-6.93-6.62-10.43-15.55-10.46-26.89c0-1.94,0.12-4.14,0.37-6.55
		c0.25-2.45,0.58-4.82,1.04-7.03c3.14-15.65,9.83-28.08,20.14-37.25c10.29-9.2,22.7-13.82,37.23-13.82c11.9,0,21.34,3.33,28.25,9.98
		c6.91,6.69,10.38,15.72,10.38,27.2c0,1.97-0.15,4.24-0.41,6.69c-0.31,2.48-0.68,4.86-1.1,7.2c-3.07,15.42-9.74,27.71-20.05,36.71
		c-10.31,9.07-22.68,13.58-37.12,13.58C468.77,341.03,459.36,337.77,452.45,331.22 M502.93,312.14c4.67-5.06,8.01-12.74,10.05-22.96
		c0.31-1.59,0.58-3.26,0.75-4.92c0.17-1.63,0.24-3.16,0.24-4.55c0-5.94-1.51-10.56-4.55-13.82c-3.02-3.3-7.32-4.92-12.87-4.92
		c-7.34,0-13.31,2.58-18,7.74c-4.72,5.16-8.07,12.97-10.17,23.36c-0.29,1.59-0.52,3.19-0.75,4.75c-0.17,1.59-0.22,3.09-0.19,4.45
		c0,5.91,1.51,10.46,4.55,13.68c3.02,3.23,7.3,4.82,12.92,4.82C492.28,319.78,498.26,317.23,502.93,312.14"/>
	<path class="st23" d="M683.75,182.39h69.41c13.34,0,23.66,3.02,30.76,8.96c7.06,6.01,10.6,14.64,10.6,25.88v0.34
		c0,2.14-0.14,4.55-0.34,7.17c-0.34,2.58-0.78,5.2-1.36,7.91c-3.06,14.87-10.15,26.83-21.12,35.89c-11,9.03-24.04,13.58-39.05,13.58
		h-37.22l-11.51,56.47h-32.23L683.75,182.39 M701.1,254.95h30.87c8.05,0,14.43-1.87,19.09-5.57c4.62-3.73,7.67-9.44,9.37-17.18
		c0.27-1.43,0.44-2.72,0.65-3.91c0.1-1.12,0.24-2.24,0.24-3.33c0-5.53-1.97-9.54-5.91-12.06c-3.94-2.55-10.12-3.77-18.68-3.77
		h-26.22L701.1,254.95z"/>
	<path class="st23" d="M938.77,357.23c-10.19,21.66-19.89,34.29-25.6,40.17c-5.71,5.81-17.01,19.32-44.25,18.3l2.34-16.53
		c22.92-7.06,35.31-38.88,42.38-52.97l-8.42-103.77l17.73-0.24h14.87l1.6,65.1l27.88-65.1h28.22L938.77,357.23"/>
	<path class="st23" d="M859.85,250.03l-11.21,7.71c-11.72-9.17-22.41-14.84-43.06-5.26c-28.12,13.04-51.62,113.05,25.81,80.11
		l4.41,5.23l30.46,0.78l20-90.87L859.85,250.03 M842.53,299.71c-4.89,14.43-15.82,23.97-24.38,21.26
		c-8.56-2.65-11.61-16.57-6.66-31.04c4.89-14.47,15.89-23.98,24.38-21.26C844.43,271.32,847.53,285.24,842.53,299.71"/>
</g>
</svg>
