<?xml version="1.0" encoding="utf-8"?>
<!-- Generator: Adobe Illustrator 26.0.3, SVG Export Plug-In . SVG Version: 6.00 Build 0)  -->
<svg version="1.1" id="Layer_1" xmlns="http://www.w3.org/2000/svg" xmlns:xlink="http://www.w3.org/1999/xlink" x="0px" y="0px"
	 viewBox="0 0 1080 388.62" style="enable-background:new 0 0 1080 388.62;" xml:space="preserve">
<style type="text/css">
	.st0{fill-rule:evenodd;clip-rule:evenodd;fill:#0078A9;}
	.st1{fill:#52237F;}
	.st2{fill-rule:evenodd;clip-rule:evenodd;fill:#F5A800;}
	.st3{fill-rule:evenodd;clip-rule:evenodd;fill:#0033A1;}
	.st4{fill-rule:evenodd;clip-rule:evenodd;fill:#E1251B;}
	.st5{fill-rule:evenodd;clip-rule:evenodd;fill:#FFFFFF;}
	.st6{fill-rule:evenodd;clip-rule:evenodd;fill:#FF0000;}
	.st7{fill:#F89F21;}
	.st8{fill:#28387D;}
	.st9{fill:#088C45;}
	.st10{fill:#F37A21;}
	.st11{fill-rule:evenodd;clip-rule:evenodd;fill:#E60005;}
	.st12{fill:#F1890B;}
	.st13{fill:url(#SVGID_1_);}
	.st14{fill:#000105;}
	.st15{fill:#231F20;}
	.st16{fill:#EF3E42;}
	.st17{fill:none;}
	.st18{fill:#DE4447;}
	.st19{fill:#EC1C24;}
	.st20{fill:#2A557C;}
	.st21{fill:#0071BB;}
	.st22{fill:#009DA4;}
	.st23{fill:#FFFFFF;}
	.st24{fill:#F05C61;}
	.st25{fill-rule:evenodd;clip-rule:evenodd;fill:#0054A5;}
	.st26{fill-rule:evenodd;clip-rule:evenodd;fill:#231F20;}
	.st27{fill:#00A7E0;}
	.st28{fill:#F25022;}
	.st29{fill:#80BA01;}
	.st30{fill:#777777;}
	.st31{fill:#02A4EF;}
	.st32{fill:#FFB902;}
	.st33{fill:#FF0000;}
	.st34{fill-rule:evenodd;clip-rule:evenodd;}
	.st35{fill:#ED2423;stroke:#ED2423;stroke-width:0.2728;stroke-miterlimit:1.0913;}
	.st36{fill:url(#path3858_00000149384274454791123350000011194166069678250919_);}
	.st37{fill:url(#path3852_00000108989357543331098740000011633961564356565393_);}
	
		.st38{fill:url(#path3824_00000005243408074110441190000013664866178321368760_);stroke:url(#path3824_00000152222159929285213360000017299056189041150351_);stroke-width:0.238;stroke-miterlimit:1.0913;}
	
		.st39{fill:url(#path3826_00000097482268876528969400000009635577706222217140_);stroke:url(#path3826_00000092431266503860846420000008720643098505164203_);stroke-width:0.1995;stroke-miterlimit:1.0913;}
	.st40{fill:url(#path3856_00000075146967288109428630000015015473151160859826_);}
	.st41{fill:url(#path3828_00000150099712779929059070000001843863814498429339_);}
	
		.st42{fill:url(#path3830_00000008113533211266204280000007118882849931260813_);stroke:#FEC20F;stroke-width:0.4678;stroke-miterlimit:1.0913;}
	
		.st43{fill:url(#path3842_00000011031532469087015610000002911765408621631678_);stroke:#FEC20F;stroke-width:0.5207;stroke-miterlimit:1.0913;}
	
		.st44{fill:url(#path3844_00000128481013862895885330000006197599420864009353_);stroke:#FEC20F;stroke-width:0.3517;stroke-miterlimit:1.0913;}
	
		.st45{fill:url(#path3832_00000087377907426118856790000013917729656555149701_);stroke:#FEC20F;stroke-width:0.8185;stroke-miterlimit:1.0913;}
	.st46{fill:url(#path3854_00000034057728928701533650000007733173118296059269_);}
	
		.st47{fill:url(#path3834_00000172428494581188733360000011298202835886737793_);stroke:#FEC20F;stroke-width:0.3213;stroke-miterlimit:1.0913;}
	
		.st48{fill:url(#path3836_00000103245713852965876150000015734688817972792218_);stroke:#FEC20F;stroke-width:0.3201;stroke-miterlimit:1.0913;}
	
		.st49{fill:url(#path3838_00000075144872862509157570000000799596422426897324_);stroke:#FEC20F;stroke-width:0.2504;stroke-miterlimit:1.0913;}
	
		.st50{fill:url(#path3840_00000079480750090627121520000001858104976386674588_);stroke:#FEC20F;stroke-width:0.159;stroke-miterlimit:1.0913;}
	
		.st51{fill:url(#path3846_00000139258455479145918700000016187287863010748850_);stroke:#FEC20F;stroke-width:0.2541;stroke-miterlimit:1.0913;}
	.st52{fill:#FB000C;stroke:#FEC20F;stroke-width:0.2207;stroke-miterlimit:1.0913;}
	.st53{fill:url(#path3850_00000070798143684207569130000003779690840579463086_);}
	.st54{fill:url(#path3860_00000183961070095205254590000007427962698037309873_);}
	.st55{fill:none;stroke:#FFFFFB;stroke-width:0.5;stroke-miterlimit:1.0913;}
	.st56{fill:#191919;}
	.st57{fill:#D1AA67;stroke:#D1AA67;stroke-width:2.0247;stroke-linecap:round;stroke-linejoin:round;stroke-miterlimit:22.9256;}
	
		.st58{fill-rule:evenodd;clip-rule:evenodd;fill:#FFFFFF;stroke:#FFFFFF;stroke-width:1.3498;stroke-linecap:round;stroke-linejoin:round;stroke-miterlimit:22.9256;}
	.st59{fill-rule:evenodd;clip-rule:evenodd;fill:#EC1C24;}
	.st60{fill:url(#SVGID_00000025418424820355274650000018181216587078187425_);}
	.st61{fill-rule:evenodd;clip-rule:evenodd;fill:#1D1D1B;}
	.st62{fill-rule:evenodd;clip-rule:evenodd;fill:#E20613;}
</style>
<g id="XMLID_1_">
	<path id="XMLID_4_" class="st1" d="M332.79,94.35c-1.08,0-2.38,0-3.68,0H227.99c4.12,3,6.01,13.53,6.01,28.68v262.32h46.83
		c18.19,0,28.17-8.77,28.17-31.72v-61.27c9,1.95,14.91,3,23.57,3c0.22,0,0.43,0,0.43,0v0.4c57,0,103.18-45.6,103.18-101.89
		C436.18,134.75,390.82,94.35,332.79,94.35z M332.79,220.35c0,0,0,0-0.22,0c-16.46,0-29.23-12.05-29.23-28.28
		c0-16.67,12.77-28.72,29.23-28.72c0.22,0,0.43,0,0.43,0v-0.02c18,0.21,29.34,12.05,29.34,28.73
		C362.34,208.29,349.68,220.35,332.79,220.35z"/>
	<path id="XMLID_7_" class="st1" d="M201,94.35h-94.04c-1.3,0-2.6,0-3.68,0C45.25,94.35,0,134.02,0,193.13
		c0,57.59,45.9,99.22,103.28,99.22c0.87,0,1.95,0,2.82,0h101.11c-3.9-6-6.21-15.59-6.21-28.58V94.35z M103.28,220.35
		c-0.21,0-0.21,0-0.21,0c-16.68,0-29.23-12.05-29.23-28.28c0-16.67,12.56-28.72,29.23-28.72c0,0,0,0,0.21,0
		c16.89,0,29.45,12.04,29.45,28.72C132.73,208.3,120.17,220.35,103.28,220.35z"/>
	<path id="XMLID_10_" class="st1" d="M976.72,91.35c0,0,0,0-0.22,0c-57.38,0-102.85,43.97-102.85,101.78
		c0,57.16,45.47,102.22,102.85,102.22c0.22,0,0.22,0,0.22,0c57.81,0,103.28-45.27,103.28-102.22
		C1080,135.32,1034.53,91.35,976.72,91.35z M976.72,220.35c0,0,0,0-0.22,0c-16.46,0-29.23-12.05-29.23-28.28
		c0-16.67,12.77-28.72,29.23-28.72c0.22,0,0.22,0,0.22,0c16.89,0,29.45,12.04,29.45,28.72
		C1006.17,208.3,993.61,220.35,976.72,220.35z"/>
	<path id="XMLID_23_" class="st1" d="M550.83,91.35h-0.22c-57.16,0-102.85,43.97-102.85,101.78c0,57.16,45.69,102.22,102.85,102.22
		h0.22c57.81,0,103.06-45.27,103.06-102.22C653.89,135.32,608.64,91.35,550.83,91.35z M550.83,220.35h-0.22
		c-16.46,0-29.01-12.05-29.01-28.28c0-16.67,12.56-28.72,29.01-28.72H552v-0.02c15,0.21,28.86,12.05,28.86,28.73
		C580.86,208.29,567.71,220.35,550.83,220.35z"/>
	<path id="XMLID_24_" class="st1" d="M858,1.35h-81v260.47c0,22.95,11.13,30.53,29.32,30.53h54.35c-4.11-6-2.67-15.59-2.67-28.58
		V1.35z"/>
	<path id="XMLID_25_" class="st1" d="M753,1.35h-81v260.47c0,22.95,10.47,30.53,28.66,30.53H755c-4.11-6-2-15.59-2-28.58V1.35z"/>
</g>
</svg>
