<?xml version="1.0" encoding="utf-8"?>
<!-- Generator: Adobe Illustrator 26.0.3, SVG Export Plug-In . SVG Version: 6.00 Build 0)  -->
<svg version="1.1" id="Layer_1" xmlns="http://www.w3.org/2000/svg" xmlns:xlink="http://www.w3.org/1999/xlink" x="0px" y="0px"
	 viewBox="0 0 1080 184.04" style="enable-background:new 0 0 1080 184.04;" xml:space="preserve">
<style type="text/css">
	.st0{fill-rule:evenodd;clip-rule:evenodd;fill:#0078A9;}
	.st1{fill:#52237F;}
	.st2{fill-rule:evenodd;clip-rule:evenodd;fill:#F5A800;}
	.st3{fill-rule:evenodd;clip-rule:evenodd;fill:#0033A1;}
	.st4{fill-rule:evenodd;clip-rule:evenodd;fill:#E1251B;}
	.st5{fill-rule:evenodd;clip-rule:evenodd;fill:#FFFFFF;}
	.st6{fill-rule:evenodd;clip-rule:evenodd;fill:#FF0000;}
	.st7{fill:#F89F21;}
	.st8{fill:#28387D;}
	.st9{fill:#088C45;}
	.st10{fill:#F37A21;}
	.st11{fill-rule:evenodd;clip-rule:evenodd;fill:#E60005;}
	.st12{fill:#F1890B;}
	.st13{fill:url(#SVGID_1_);}
	.st14{fill:#000105;}
	.st15{fill:#231F20;}
	.st16{fill:#EF3E42;}
	.st17{fill:none;}
	.st18{fill:#DE4447;}
	.st19{fill:#EC1C24;}
	.st20{fill:#2A557C;}
	.st21{fill:#0071BB;}
	.st22{fill:#009DA4;}
	.st23{fill:#FFFFFF;}
	.st24{fill:#F05C61;}
	.st25{fill-rule:evenodd;clip-rule:evenodd;fill:#0054A5;}
	.st26{fill-rule:evenodd;clip-rule:evenodd;fill:#231F20;}
	.st27{fill:#00A7E0;}
	.st28{fill:#F25022;}
	.st29{fill:#80BA01;}
	.st30{fill:#777777;}
	.st31{fill:#02A4EF;}
	.st32{fill:#FFB902;}
	.st33{fill:#FF0000;}
	.st34{fill-rule:evenodd;clip-rule:evenodd;}
	.st35{fill:#ED2423;stroke:#ED2423;stroke-width:0.2728;stroke-miterlimit:1.0913;}
	.st36{fill:url(#path3858_00000002379440403083334400000004527562861324942242_);}
	.st37{fill:url(#path3852_00000044864881996656736550000001118922264995044016_);}
	
		.st38{fill:url(#path3824_00000172425625773037024510000002334482052553756862_);stroke:url(#path3824_00000041977412443320091650000012259438566522643855_);stroke-width:0.238;stroke-miterlimit:1.0913;}
	
		.st39{fill:url(#path3826_00000153686921417768029760000006591620519787661722_);stroke:url(#path3826_00000183227178698242143440000011830890276814322087_);stroke-width:0.1995;stroke-miterlimit:1.0913;}
	.st40{fill:url(#path3856_00000068637781747456138470000018018931812002715010_);}
	.st41{fill:url(#path3828_00000137091780385578728020000001398102784105830301_);}
	
		.st42{fill:url(#path3830_00000026858270169993225620000007631654906871120801_);stroke:#FEC20F;stroke-width:0.4678;stroke-miterlimit:1.0913;}
	
		.st43{fill:url(#path3842_00000115487798284424440380000002329506462494624396_);stroke:#FEC20F;stroke-width:0.5207;stroke-miterlimit:1.0913;}
	
		.st44{fill:url(#path3844_00000138559732509159959890000009808641672355838901_);stroke:#FEC20F;stroke-width:0.3517;stroke-miterlimit:1.0913;}
	
		.st45{fill:url(#path3832_00000123423035408149624510000013697997801971097228_);stroke:#FEC20F;stroke-width:0.8185;stroke-miterlimit:1.0913;}
	.st46{fill:url(#path3854_00000074431249021423765060000000965292146963989163_);}
	
		.st47{fill:url(#path3834_00000126313120348630429620000001503329160040162717_);stroke:#FEC20F;stroke-width:0.3213;stroke-miterlimit:1.0913;}
	
		.st48{fill:url(#path3836_00000028302429420978143480000014760783271771874186_);stroke:#FEC20F;stroke-width:0.3201;stroke-miterlimit:1.0913;}
	
		.st49{fill:url(#path3838_00000054250880325098872960000002338314415031600525_);stroke:#FEC20F;stroke-width:0.2504;stroke-miterlimit:1.0913;}
	
		.st50{fill:url(#path3840_00000057844417655576008810000002455432299980939196_);stroke:#FEC20F;stroke-width:0.159;stroke-miterlimit:1.0913;}
	
		.st51{fill:url(#path3846_00000034080376060336045150000006528402329690644407_);stroke:#FEC20F;stroke-width:0.2541;stroke-miterlimit:1.0913;}
	.st52{fill:#FB000C;stroke:#FEC20F;stroke-width:0.2207;stroke-miterlimit:1.0913;}
	.st53{fill:url(#path3850_00000096045582268475450760000005609947875062416514_);}
	.st54{fill:url(#path3860_00000008849579087641388510000016252749375770260864_);}
	.st55{fill:none;stroke:#FFFFFB;stroke-width:0.5;stroke-miterlimit:1.0913;}
	.st56{fill:#191919;}
	.st57{fill:#D1AA67;stroke:#D1AA67;stroke-width:2.0247;stroke-linecap:round;stroke-linejoin:round;stroke-miterlimit:22.9256;}
	
		.st58{fill-rule:evenodd;clip-rule:evenodd;fill:#FFFFFF;stroke:#FFFFFF;stroke-width:1.3498;stroke-linecap:round;stroke-linejoin:round;stroke-miterlimit:22.9256;}
	.st59{fill-rule:evenodd;clip-rule:evenodd;fill:#EC1C24;}
	.st60{fill:url(#SVGID_00000131348505176413325210000004064173429829050280_);}
	.st61{fill-rule:evenodd;clip-rule:evenodd;fill:#1D1D1B;}
	.st62{fill-rule:evenodd;clip-rule:evenodd;fill:#E20613;}
</style>
<g>
	<path class="st7" d="M541.21,49.64h4.84V30.27h-15.74c-20.58,0-31.48,10.9-31.48,32.69v2.42h-12.11v19.37h12.11v69.01h29.06V84.75
		h16.95V65.38h-16.95v-2.42C527.89,54.48,532.73,49.64,541.21,49.64z"/>
	<path class="st7" d="M561.79,65.38h-12.11v19.37h12.11v42.37c0,18.16,8.48,26.64,25.43,26.64h21.79v-20.58h-6.06l-9.68-1.21
		c-1.21-2.42-2.42-6.05-2.42-12.11V84.75h16.96V65.38h-16.96V37.53h-29.06V65.38z"/>
	<path class="st7" d="M644.13,30.27h-29.06v123.5h29.06v-50.85c0-12.11,4.84-18.16,14.52-18.16c8.48,0,12.11,6.05,12.11,18.16v50.85
		h29.06v-50.85c0-12.11-1.21-20.58-3.63-25.43c-6.06-9.68-14.54-14.53-27.85-14.53c-12.11,0-19.37,3.63-24.21,12.11V30.27z"/>
	<path class="st7" d="M754.3,81.12c8.47,0,12.1,2.42,12.1,8.47c0,3.64-2.41,6.06-8.47,7.27l-25.43,4.84
		c-16.94,4.85-25.43,14.53-25.43,27.85c0,8.47,2.44,14.53,9.7,20.58c6.05,4.85,14.52,7.26,24.21,7.26c9.69,0,19.37-3.63,29.06-10.89
		l1.21,7.26h26.63l-2.41-12.11V95.65c0-23.01-13.31-33.9-41.17-33.9c-27.84,0-42.38,10.89-42.38,31.48h26.64
		C738.56,85.96,743.4,81.12,754.3,81.12z M749.45,116.23l18.16-4.84v7.26c0,12.11-6.05,18.16-20.57,18.16
		c-7.26,0-12.11-2.42-12.11-8.48C734.93,122.29,739.78,118.66,749.45,116.23z"/>
	<path class="st7" d="M831.79,65.38h-26.64v88.39h29.05v-50.85c0-12.11,4.84-18.16,14.54-18.16c8.47,0,13.32,6.05,13.32,18.16v50.85
		h29.06v-50.85c0-10.9-2.44-19.37-4.85-25.43c-6.06-9.68-14.54-14.53-27.86-14.53c-9.67,0-19.37,3.63-25.42,12.11L831.79,65.38z"/>
	<path class="st7" d="M929.86,88.39c0-4.85,3.64-7.26,10.9-7.26c8.46,0,12.1,3.63,13.31,12.11h27.86l-4.85-15.74
		c-4.84-10.9-16.95-15.74-35.11-15.74c-29.06,0-42.38,9.68-42.38,30.27c0,13.32,9.7,21.79,30.27,26.64h8.48
		c10.89,2.42,16.94,6.05,16.94,10.9c0,4.84-4.84,7.27-14.52,7.27c-9.7,0-15.75-3.64-15.75-10.9v-1.21h-27.83
		c0,21.79,14.52,32.69,46,32.69c26.65,0,41.17-9.68,41.17-30.27c0-14.53-10.9-24.21-31.48-27.84l-9.69-2.42
		C934.71,95.65,929.86,93.23,929.86,88.39z"/>
	<path class="st7" d="M1036.41,81.12c8.47,0,12.11,2.42,12.11,8.47c0,3.64-2.44,6.06-8.49,7.27l-25.42,4.84
		c-16.95,4.85-25.42,14.53-25.42,27.85c0,8.47,2.41,14.53,9.69,20.58c6.05,4.85,14.53,7.26,24.21,7.26
		c9.68,0,19.38-3.63,29.05-10.89l1.22,7.26H1080l-2.42-12.11V95.65c0-23.01-13.33-33.9-41.16-33.9c-26.65,0-41.17,10.89-42.37,31.48
		h26.63C1020.67,85.96,1025.52,81.12,1036.41,81.12z M1031.57,116.23l18.17-4.84v7.26c0,12.11-6.05,18.16-20.59,18.16
		c-7.27,0-12.1-2.42-12.1-8.48C1017.04,122.29,1021.87,118.66,1031.57,116.23z"/>
	<path class="st7" d="M157.4,26.64C140.45,8.48,118.65,0,93.23,0C67.8,0,46.01,8.48,26.64,26.64C8.48,44.8,0,66.59,0,92.02
		c0,26.64,8.48,47.22,26.64,65.38c18.16,18.16,39.95,26.64,65.38,26.64s47.22-8.48,65.38-26.64c18.16-18.16,26.64-38.74,26.64-65.38
		C184.04,66.59,175.56,44.8,157.4,26.64z M90.81,8.48c24.22,0,43.59,8.47,60.54,24.21c15.74,16.95,24.21,36.33,24.21,59.33
		c0,23-8.48,42.38-24.21,59.33c-16.95,15.74-36.32,24.21-59.33,24.21c-23,0-42.38-8.47-59.32-24.21
		C16.95,134.39,8.48,115.02,8.48,92.02c0-23,8.47-42.38,24.22-59.33C49.64,16.95,69.02,8.48,90.81,8.48z"/>
	<path class="st7" d="M30.27,71.43l-1.21,4.85l-13.32-3.64l-1.21,4.84c9.68,2.42,21.79,8.48,37.53,16.96
		c27.85,16.95,56.91,30.27,87.18,37.53l8.48-7.26h-6.05c-18.16,0-32.69-6.05-43.59-18.16c12.11-6.06,25.43-9.69,41.17-9.69
		l9.68,1.21l3.64-4.84h-10.89l-25.43,1.21l1.21-3.64h37.53l3.63-4.84h-38.75l1.21-2.42h39.95l2.42-3.63L123.5,78.7l1.21-3.63
		l41.17,1.21l3.63-3.64l-32.69-2.42l-32.69,2.42c-4.84,14.53-14.53,21.8-29.05,21.8c-6.06,0-13.32-2.42-21.8-7.27l-3.63-2.42
		l1.21-1.21l19.37,7.26l1.21-2.42L30.27,71.43z"/>
	<path class="st7" d="M337.8,30.27h-30.27v123.5h82.34v-24.21H337.8V30.27z"/>
	<path class="st7" d="M480.67,65.38h-29.06v50.85c0,12.11-4.84,18.16-14.53,18.16c-8.48,0-12.11-6.05-12.11-18.16V65.38h-29.06
		v53.28c0,9.68,1.21,18.16,4.84,23c4.84,9.69,13.32,14.53,27.84,14.53c9.69,0,18.16-3.63,25.43-10.89v8.48h26.64V65.38z"/>
</g>
</svg>
