<?xml version="1.0" encoding="utf-8"?>
<!-- Generator: Adobe Illustrator 26.0.3, SVG Export Plug-In . SVG Version: 6.00 Build 0)  -->
<svg version="1.1" id="Layer_1" xmlns="http://www.w3.org/2000/svg" xmlns:xlink="http://www.w3.org/1999/xlink" x="0px" y="0px"
	 viewBox="0 0 1080 1080" style="enable-background:new 0 0 1080 1080;" xml:space="preserve">
<style type="text/css">
	.st0{fill-rule:evenodd;clip-rule:evenodd;fill:#0078A9;}
	.st1{fill:#52237F;}
	.st2{fill-rule:evenodd;clip-rule:evenodd;fill:#F5A800;}
	.st3{fill-rule:evenodd;clip-rule:evenodd;fill:#0033A1;}
	.st4{fill-rule:evenodd;clip-rule:evenodd;fill:#E1251B;}
	.st5{fill-rule:evenodd;clip-rule:evenodd;fill:#FFFFFF;}
	.st6{fill-rule:evenodd;clip-rule:evenodd;fill:#FF0000;}
	.st7{fill:#F89F21;}
	.st8{fill:#28387D;}
	.st9{fill:#088C45;}
	.st10{fill:#F37A21;}
	.st11{fill-rule:evenodd;clip-rule:evenodd;fill:#E60005;}
	.st12{fill:#F1890B;}
	.st13{fill:url(#SVGID_1_);}
	.st14{fill:#000105;}
	.st15{fill:#231F20;}
	.st16{fill:#EF3E42;}
	.st17{fill:none;}
	.st18{fill:#DE4447;}
	.st19{fill:#EC1C24;}
	.st20{fill:#2A557C;}
	.st21{fill:#0071BB;}
	.st22{fill:#009DA4;}
	.st23{fill:#FFFFFF;}
	.st24{fill:#F05C61;}
	.st25{fill-rule:evenodd;clip-rule:evenodd;fill:#0054A5;}
	.st26{fill-rule:evenodd;clip-rule:evenodd;fill:#231F20;}
	.st27{fill:#00A7E0;}
	.st28{fill:#F25022;}
	.st29{fill:#80BA01;}
	.st30{fill:#777777;}
	.st31{fill:#02A4EF;}
	.st32{fill:#FFB902;}
	.st33{fill:#FF0000;}
	.st34{fill-rule:evenodd;clip-rule:evenodd;}
	.st35{fill:#ED2423;stroke:#ED2423;stroke-width:0.2728;stroke-miterlimit:1.0913;}
	.st36{fill:url(#path3858_00000183930304004359357480000015791127152863578025_);}
	.st37{fill:url(#path3852_00000130625846415929568840000006013188872892710272_);}
	
		.st38{fill:url(#path3824_00000155108887767342009540000003205987679433313939_);stroke:url(#path3824_00000134965476286514580830000017317508470305842048_);stroke-width:0.238;stroke-miterlimit:1.0913;}
	
		.st39{fill:url(#path3826_00000114065536600775664900000004660232529225482163_);stroke:url(#path3826_00000152977681815676265350000001347452838564786345_);stroke-width:0.1995;stroke-miterlimit:1.0913;}
	.st40{fill:url(#path3856_00000176752542162083844750000010928438940888019338_);}
	.st41{fill:url(#path3828_00000062181327462952384740000010933066682750673812_);}
	
		.st42{fill:url(#path3830_00000080925583832152978590000015062123659893159823_);stroke:#FEC20F;stroke-width:0.4678;stroke-miterlimit:1.0913;}
	
		.st43{fill:url(#path3842_00000060031558887091417710000017123522861131046840_);stroke:#FEC20F;stroke-width:0.5207;stroke-miterlimit:1.0913;}
	
		.st44{fill:url(#path3844_00000137824848577848190180000018174961995725983934_);stroke:#FEC20F;stroke-width:0.3517;stroke-miterlimit:1.0913;}
	
		.st45{fill:url(#path3832_00000150066853963464993790000003451956618210036878_);stroke:#FEC20F;stroke-width:0.8185;stroke-miterlimit:1.0913;}
	.st46{fill:url(#path3854_00000061449534086894644510000001777058806826775973_);}
	
		.st47{fill:url(#path3834_00000012458085629568156080000017407058144093677750_);stroke:#FEC20F;stroke-width:0.3213;stroke-miterlimit:1.0913;}
	
		.st48{fill:url(#path3836_00000142877355981596987480000016395997538342632598_);stroke:#FEC20F;stroke-width:0.3201;stroke-miterlimit:1.0913;}
	
		.st49{fill:url(#path3838_00000067944721745889560370000000602781188552529592_);stroke:#FEC20F;stroke-width:0.2504;stroke-miterlimit:1.0913;}
	
		.st50{fill:url(#path3840_00000154427392462950981330000004534480755945314198_);stroke:#FEC20F;stroke-width:0.159;stroke-miterlimit:1.0913;}
	
		.st51{fill:url(#path3846_00000167373716023915011090000017792012524754214574_);stroke:#FEC20F;stroke-width:0.2541;stroke-miterlimit:1.0913;}
	.st52{fill:#FB000C;stroke:#FEC20F;stroke-width:0.2207;stroke-miterlimit:1.0913;}
	.st53{fill:url(#path3850_00000148661109421973488770000002188590172470679986_);}
	.st54{fill:url(#path3860_00000054224471212976760480000012972739928631869078_);}
	.st55{fill:none;stroke:#FFFFFB;stroke-width:0.5;stroke-miterlimit:1.0913;}
	.st56{fill:#191919;}
	.st57{fill:#D1AA67;stroke:#D1AA67;stroke-width:2.0247;stroke-linecap:round;stroke-linejoin:round;stroke-miterlimit:22.9256;}
	
		.st58{fill-rule:evenodd;clip-rule:evenodd;fill:#FFFFFF;stroke:#FFFFFF;stroke-width:1.3498;stroke-linecap:round;stroke-linejoin:round;stroke-miterlimit:22.9256;}
	.st59{fill-rule:evenodd;clip-rule:evenodd;fill:#EC1C24;}
	.st60{fill:url(#SVGID_00000010290098284431826100000006389762511670190473_);}
	.st61{fill-rule:evenodd;clip-rule:evenodd;fill:#1D1D1B;}
	.st62{fill-rule:evenodd;clip-rule:evenodd;fill:#E20613;}
</style>
<g>
	<path class="st0" d="M1080,699.17c0,26.98-17.09,39.57-47.66,39.57h-58.45v-26.98h58.45c5.4,0,9.89-0.9,11.69-2.7
		c1.8-1.8,3.6-4.5,3.6-8.09c0-3.6-1.8-7.19-3.6-8.99c-1.8-1.8-5.4-2.7-10.79-2.7c-27.88-0.9-62.95,0.9-62.95-38.67
		c0-17.99,11.69-37.77,43.16-37.77h60.25v26.98h-55.75c-5.4,0-8.99,0-11.69,1.8c-2.7,2.7-4.5,5.4-4.5,9.89c0,4.5,2.7,7.19,6.29,8.99
		c3.6,0.9,7.2,1.8,11.69,1.8h16.19c17.08,0,27.88,3.6,35.07,9.89C1076.4,678.48,1080,686.58,1080,699.17L1080,699.17L1080,699.17z
		 M953.2,672.19c-7.19-6.29-17.98-9.89-35.07-9.89h-16.19c-4.5,0-8.09-0.9-11.69-1.8c-3.6-1.8-6.3-4.5-6.3-8.99
		c0-4.5,0.9-7.19,4.5-9.89c2.7-1.8,6.3-1.8,11.69-1.8h55.75v-26.98h-60.25c-32.37,0-43.16,19.78-43.16,37.77
		c0,39.57,35.07,37.77,62.95,38.67c5.4,0,8.99,0.9,10.79,2.7c1.8,1.8,3.6,5.4,3.6,8.99c0,3.6-1.8,6.3-3.6,8.09
		c-2.7,1.8-6.3,2.7-11.69,2.7h-58.45v26.98h58.45c30.58,0,47.66-12.59,47.66-39.57C962.2,686.58,958.6,678.48,953.2,672.19
		L953.2,672.19L953.2,672.19z M838.1,712.66h-71.04v-25.18h69.24V662.3h-69.24v-23.38h71.04v-26.08H737.39v125.9H838.1V712.66
		L838.1,712.66z M705.01,619.13c-9.89-5.4-21.58-6.3-36.87-6.3H598.9v125.9h30.57v-45.86h32.37c10.79,0,17.09,0.9,21.58,5.4
		c5.4,6.3,5.4,17.09,5.4,25.18v15.29h29.67v-24.28c0-11.69-0.9-17.08-4.5-23.38c-2.7-3.6-8.09-8.09-15.29-10.79
		c8.09-2.7,21.58-13.49,21.58-33.27C720.3,632.62,714.91,624.53,705.01,619.13L705.01,619.13L705.01,619.13z M534.16,612.84h-96.22
		l-38.67,41.37l-36.87-41.37H241v125.9h119.6l38.67-41.37l36.87,41.37h58.45v-42.27h37.77c26.08,0,52.16-7.19,52.16-42.27
		C584.51,620.03,557.54,612.84,534.16,612.84L534.16,612.84L534.16,612.84z M680.73,665c-4.5,1.8-8.99,1.8-14.39,1.8l-36.87,0.9
		v-28.78h36.87c5.4,0,10.79,0,14.39,2.7c3.6,1.8,6.29,5.4,6.29,10.79C687.03,657.8,684.33,662.3,680.73,665L680.73,665L680.73,665z
		 M534.16,671.29h-39.57v-32.37h39.57c10.79,0,17.98,4.5,17.98,15.29C552.14,665,544.95,671.29,534.16,671.29L534.16,671.29
		L534.16,671.29z M418.15,675.79l46.76-49.46v101.62L418.15,675.79L418.15,675.79z M345.31,712.66h-74.64v-25.18h66.55V662.3h-66.55
		v-23.38h75.54l33.27,36.87L345.31,712.66L345.31,712.66z M996.37,522.02H953.2l-56.65-94.42v94.42H835.4l-11.69-27.88h-62.95
		l-11.69,27.88H714c-14.39,0-33.27-3.6-44.06-14.39c-9.89-10.79-15.29-25.18-15.29-47.66c0-18.88,2.7-35.97,16.18-49.46
		c8.99-9.89,25.18-14.39,45.86-14.39h28.78v26.98H716.7c-10.79,0-17.09,1.8-23.38,7.19c-5.4,5.4-8.09,15.29-8.09,28.78
		s2.7,23.38,8.09,29.67c4.5,4.5,12.59,6.3,20.68,6.3h13.49l43.16-98.92h44.96l50.36,118.7v-118.7h46.76l53.06,87.23v-87.23h30.57
		V522.02L996.37,522.02z M639.37,396.12h-30.57v125.9h30.57V396.12L639.37,396.12z M575.52,401.52c-9.89-5.4-20.68-5.4-35.97-5.4
		h-69.24v125.9h29.68v-45.86h32.37c10.79,0,17.98,0.9,22.48,5.4c5.4,6.3,4.5,17.09,4.5,24.28v16.19h30.57v-25.18
		c0-10.79-0.9-16.19-5.4-22.48c-2.7-3.6-8.09-8.09-14.39-10.79c8.09-3.6,21.58-13.49,21.58-33.27
		C591.71,415.9,585.41,407.81,575.52,401.52L575.52,401.52L575.52,401.52z M448.73,495.94h-70.14v-25.18h69.24v-26.08h-69.24V422.2
		h70.14v-26.08H348.01v125.9h100.72V495.94L448.73,495.94z M325.53,396.12h-49.46l-36.87,85.43l-39.57-85.43h-48.56v118.7
		l-51.26-118.7H54.85L0.9,522.02h32.37l11.69-27.88h62.95l11.69,27.88h61.15V423.1l44.06,98.92h26.08l44.06-98.92v98.92h30.57
		V396.12L325.53,396.12z M812.92,467.16l-20.68-49.46l-20.68,49.46H812.92L812.92,467.16z M552.14,447.38
		c-4.5,2.7-8.99,2.7-15.29,2.7h-36.87V422.2h36.87c5.4,0,11.69,0,15.29,1.8c3.6,2.7,5.4,6.3,5.4,11.69
		C557.54,441.08,555.74,445.58,552.14,447.38L552.14,447.38L552.14,447.38z M55.75,467.16l20.68-49.46l20.68,49.46H55.75
		L55.75,467.16z M1072.81,1.35H0v453.22l36.87-83.63h78.23l10.79,20.68v-20.68h91.72l20.68,44.96l19.78-44.96h292.26
		c13.49,0,25.18,2.7,34.17,9.89v-9.89h80.03v9.89c13.49-7.19,30.57-9.89,50.36-9.89h116l10.79,20.68v-20.68h85.43l12.59,20.68
		v-20.68h83.63v176.25h-84.53l-16.19-26.98v26.98H817.42l-11.69-28.78h-26.08l-11.69,28.78h-54.85c-21.58,0-37.77-5.4-48.56-10.79
		v10.79H534.16v-40.47c0-5.4-0.9-6.3-4.5-6.3h-4.5v46.76H273.37v-22.48l-8.99,22.48h-53.06l-8.99-21.58v21.58H100.72l-10.79-28.78
		H63.85l-11.69,28.78H0v531.46h1072.81V755.82c-11.69,5.4-27.88,8.09-44.06,8.09h-78.24v-10.79c-8.99,7.2-25.18,10.79-40.47,10.79
		H663.65v-40.47c0-5.4-0.9-5.4-5.4-5.4h-4.5v45.86h-80.93v-47.66c-13.49,6.3-28.78,6.3-42.26,6.3h-8.99v41.37h-98.92l-23.38-26.98
		l-26.08,26.98H214.02V587.66h161.86l23.38,26.98l25.18-26.98h108.81c12.59,0,33.27,1.8,42.26,10.79v-10.79h97.12
		c9.89,0,28.78,1.8,41.37,10.79v-10.79h146.58v10.79c8.09-7.19,23.38-10.79,36.87-10.79h81.83v10.79
		c8.99-6.29,21.58-10.79,37.77-10.79h55.75V1.35L1072.81,1.35z"/>
</g>
</svg>
