<?xml version="1.0" encoding="utf-8"?>
<!-- Generator: Adobe Illustrator 26.0.3, SVG Export Plug-In . SVG Version: 6.00 Build 0)  -->
<svg version="1.1" id="Layer_1" xmlns="http://www.w3.org/2000/svg" xmlns:xlink="http://www.w3.org/1999/xlink" x="0px" y="0px"
	 viewBox="0 0 1080 293.7" style="enable-background:new 0 0 1080 293.7;" xml:space="preserve">
<style type="text/css">
	.st0{fill-rule:evenodd;clip-rule:evenodd;fill:#0078A9;}
	.st1{fill:#52237F;}
	.st2{fill-rule:evenodd;clip-rule:evenodd;fill:#F5A800;}
	.st3{fill-rule:evenodd;clip-rule:evenodd;fill:#0033A1;}
	.st4{fill-rule:evenodd;clip-rule:evenodd;fill:#E1251B;}
	.st5{fill-rule:evenodd;clip-rule:evenodd;fill:#FFFFFF;}
	.st6{fill-rule:evenodd;clip-rule:evenodd;fill:#FF0000;}
	.st7{fill:#F89F21;}
	.st8{fill:#28387D;}
	.st9{fill:#088C45;}
	.st10{fill:#F37A21;}
	.st11{fill-rule:evenodd;clip-rule:evenodd;fill:#E60005;}
	.st12{fill:#F1890B;}
	.st13{fill:url(#SVGID_1_);}
	.st14{fill:#000105;}
	.st15{fill:#231F20;}
	.st16{fill:#EF3E42;}
	.st17{fill:none;}
	.st18{fill:#DE4447;}
	.st19{fill:#EC1C24;}
	.st20{fill:#2A557C;}
	.st21{fill:#0071BB;}
	.st22{fill:#009DA4;}
	.st23{fill:#FFFFFF;}
	.st24{fill:#F05C61;}
	.st25{fill-rule:evenodd;clip-rule:evenodd;fill:#0054A5;}
	.st26{fill-rule:evenodd;clip-rule:evenodd;fill:#231F20;}
	.st27{fill:#00A7E0;}
	.st28{fill:#F25022;}
	.st29{fill:#80BA01;}
	.st30{fill:#777777;}
	.st31{fill:#02A4EF;}
	.st32{fill:#FFB902;}
	.st33{fill:#FF0000;}
	.st34{fill-rule:evenodd;clip-rule:evenodd;}
	.st35{fill:#ED2423;stroke:#ED2423;stroke-width:0.2728;stroke-miterlimit:1.0913;}
	.st36{fill:url(#path3858_00000004536507428729268560000014315912137454799241_);}
	.st37{fill:url(#path3852_00000127727220128728328560000018400882053157768081_);}
	
		.st38{fill:url(#path3824_00000166665415513838048700000008533674949893727623_);stroke:url(#path3824_00000078757261029714676570000003192341534259982465_);stroke-width:0.238;stroke-miterlimit:1.0913;}
	
		.st39{fill:url(#path3826_00000017494262183839211890000006919440697208794806_);stroke:url(#path3826_00000101073333596895477320000000540527046004746395_);stroke-width:0.1995;stroke-miterlimit:1.0913;}
	.st40{fill:url(#path3856_00000006688756955650192400000017366719384825087148_);}
	.st41{fill:url(#path3828_00000123401621654586721280000016328807465498702235_);}
	
		.st42{fill:url(#path3830_00000135659305332212539990000007999732664947730366_);stroke:#FEC20F;stroke-width:0.4678;stroke-miterlimit:1.0913;}
	
		.st43{fill:url(#path3842_00000100365596921907250570000005164528225394466949_);stroke:#FEC20F;stroke-width:0.5207;stroke-miterlimit:1.0913;}
	
		.st44{fill:url(#path3844_00000181783566518750616600000010849693194753406615_);stroke:#FEC20F;stroke-width:0.3517;stroke-miterlimit:1.0913;}
	
		.st45{fill:url(#path3832_00000040561595329079437430000017518853335741509275_);stroke:#FEC20F;stroke-width:0.8185;stroke-miterlimit:1.0913;}
	.st46{fill:url(#path3854_00000041288873347137377430000015773539768556122764_);}
	
		.st47{fill:url(#path3834_00000075147451724217211100000006411392365066855574_);stroke:#FEC20F;stroke-width:0.3213;stroke-miterlimit:1.0913;}
	
		.st48{fill:url(#path3836_00000173855948665034328030000007274347996614633399_);stroke:#FEC20F;stroke-width:0.3201;stroke-miterlimit:1.0913;}
	
		.st49{fill:url(#path3838_00000005266979280982237730000005643075687114525371_);stroke:#FEC20F;stroke-width:0.2504;stroke-miterlimit:1.0913;}
	
		.st50{fill:url(#path3840_00000108271518430799613190000018026889912819473822_);stroke:#FEC20F;stroke-width:0.159;stroke-miterlimit:1.0913;}
	
		.st51{fill:url(#path3846_00000047025815042113059660000003147400152280954507_);stroke:#FEC20F;stroke-width:0.2541;stroke-miterlimit:1.0913;}
	.st52{fill:#FB000C;stroke:#FEC20F;stroke-width:0.2207;stroke-miterlimit:1.0913;}
	.st53{fill:url(#path3850_00000163051715407895949340000004462716735673435814_);}
	.st54{fill:url(#path3860_00000026842520733863741390000015660335148658435774_);}
	.st55{fill:none;stroke:#FFFFFB;stroke-width:0.5;stroke-miterlimit:1.0913;}
	.st56{fill:#191919;}
	.st57{fill:#D1AA67;stroke:#D1AA67;stroke-width:2.0247;stroke-linecap:round;stroke-linejoin:round;stroke-miterlimit:22.9256;}
	
		.st58{fill-rule:evenodd;clip-rule:evenodd;fill:#FFFFFF;stroke:#FFFFFF;stroke-width:1.3498;stroke-linecap:round;stroke-linejoin:round;stroke-miterlimit:22.9256;}
	.st59{fill-rule:evenodd;clip-rule:evenodd;fill:#EC1C24;}
	.st60{font-family:'TTHoves-DemiBold';}
	.st61{font-size:49.1833px;}
	.st62{fill:url(#SVGID_00000083797629954520691890000007037314918711461530_);}
	.st63{fill-rule:evenodd;clip-rule:evenodd;fill:#1D1D1B;}
	.st64{fill-rule:evenodd;clip-rule:evenodd;fill:#E20613;}
</style>
<g>
	<g>
		<path d="M656.42,153.73c-2.06-5.62-4.03-11.25-6.18-16.78c-3.56-9.56-7.22-19.12-10.78-28.77c-2.06-5.62-1.87-5.72-7.78-5.72
			c-1.03,0-2.06,0.19-3,0c-2.62-0.47-3.56,1.03-4.31,3.09c-1.97,5.62-4.03,11.15-6.09,16.77c-3.37,9.18-6.75,18.27-10.12,27.46
			c-0.38,0.84-0.38,1.97-1.41,2.16c-1.31,0.28-1.59-1.03-2.06-1.78c-3.65-5.53-6.37-11.62-11.25-16.31
			c-0.94-0.94-0.19-1.22,0.66-1.59c2.53-1.12,5.06-2.16,6.65-4.69c3.09-4.87,3.56-10.12,1.5-15.56c-2.44-6.37-7.4-8.9-13.87-9
			c-7.87-0.09-15.84,0-23.9-0.09c-1.78,0-2.44,0.56-2.44,2.44c0.09,7.87,0.09,15.93,0.09,23.9c-0.09,0-0.09,0-0.09,0
			c0,8.06,0.09,16.02,0,24.18c-0.09,2.25,0.75,3,2.91,2.81c1.87-0.09,3.75-0.09,5.62,0c2.06,0.19,2.81-0.75,2.72-2.81
			c-0.09-5.53,0.09-11.06,0-16.59c-0.09-1.69,0.38-2.25,2.25-2.34c3.94-0.19,6.37,1.78,8.34,4.97c3,4.87,6.56,9.37,9.09,14.53
			c0.66,1.22,1.69,2.25,3.37,2.25h19.87c1.31,0,1.97-0.38,2.34-1.78c0.75-2.62,1.87-5.15,2.72-7.87c0.56-1.69,1.41-2.53,3.28-2.44
			c4.69,0.09,9.37,0.09,14.06,0c1.41,0,2.16,0.38,2.62,1.69c0.84,2.53,1.87,5.06,2.72,7.5c0.66,1.97,1.78,3.09,4.03,3
			c2.16-0.19,4.4-0.19,6.47,0C656.61,156.44,656.99,155.32,656.42,153.73z M591.85,120.08c-0.38,2.16-1.5,3.75-3.94,4.22
			c-4.22,0.94-8.43,0.75-12.74,0.84c-1.31,0-1.97-0.47-1.87-1.87v-8.25c-0.09-1.69,0.66-2.25,2.25-2.16
			c1.78,0.19,3.66,0.09,5.9,0.09c2.34,0.28,5.25-0.66,7.97,0.84C591.39,114.93,592.42,116.99,591.85,120.08z M634.59,134.42h-3.47
			c-5.44,0-5.44,0-3.75-4.97c0.84-3,1.87-6.09,2.91-9.09c0.09-0.56,0-1.5,0.84-1.59c1.03,0,0.84,0.84,1.03,1.5
			c1.41,3.75,2.81,7.68,4.22,11.43C637.02,133.58,636.74,134.52,634.59,134.42z"/>
		<path d="M478.29,123.63c-2.39,5.65-3.61,11.45-4.95,17.23c-1.08,4.62-2.11,9.25-3.12,13.88c-0.25,1.16-1.12,1.45-2.04,1.48
			c-2.43,0.08-4.87,0.05-7.3,0.01c-1.11-0.02-1.93-0.57-2.19-1.7c-1.38-6-2.71-12.02-4.12-18.01c-1.03-4.36-2.15-8.69-3.26-13.11
			c-0.72,1.1-0.55,2.22-0.55,3.3c-0.02,8.81-0.1,17.61,0.02,26.42c0.04,2.51-0.9,3.2-3.24,3.16c-8.56-0.16-7.28,1.1-7.32-7.33
			c-0.06-14.34,0.03-28.68-0.06-43.02c-0.02-2.34,0.72-3.12,3.03-3.02c3.6,0.15,7.22,0.1,10.82,0.02c1.66-0.04,2.36,0.35,2.76,2.24
			c1.22,5.77,2.82,11.46,4.3,17.18c0.83,3.21,1.7,6.4,2.55,9.61c0.15,0.55,0.11,1.26,0.89,1.32c0.8,0.06,0.92-0.64,1.03-1.19
			c1.79-9.14,4.75-17.99,6.6-27.11c0.3-1.49,0.97-2.02,2.3-2.02c4.2-0.01,8.39,0.04,12.59,0c1.47-0.01,1.81,0.71,1.81,2.04
			c-0.03,16.35-0.04,32.71,0,49.06c0,1.74-0.65,2.42-2.39,2.33c-1.93-0.1-3.87-0.13-5.79,0c-1.91,0.13-2.43-0.66-2.41-2.49
			c0.07-8.89,0.03-17.78,0.03-26.67C478.29,126.03,478.29,124.83,478.29,123.63z"/>
		<path d="M671.39,122.45c-0.07,1.38-0.19,2.75-0.19,4.13c-0.02,8.97-0.08,17.95,0.02,26.92c0.02,2.13-0.74,2.93-2.77,2.78
			c-0.75-0.06-1.51-0.04-2.26-0.02c-6.3,0.19-5.64-0.06-5.64-5.52c0.01-15.09,0.04-30.19-0.02-45.28c-0.01-1.86,0.56-2.56,2.42-2.52
			c3.86,0.08,7.72,0.08,11.58,0.01c1.77-0.03,2.38,0.7,2.79,2.42c2.29,9.75,4.74,19.46,7.15,29.19c0.03,0.12,0.23,0.19,0.64,0.51
			c1.2-2.92,1.76-5.92,2.47-8.85c1.77-7.3,3.5-14.61,5.2-21.92c0.25-1.09,0.94-1.3,1.82-1.3c4.36-0.02,8.73,0,13.09-0.01
			c1.94,0,1.74,1.36,1.74,2.63c-0.01,12.16-0.01,24.32-0.01,36.48c0,3.86-0.05,7.72,0.02,11.57c0.04,1.97-0.84,2.73-2.73,2.66
			c-1.68-0.06-3.36-0.1-5.03-0.01c-2.14,0.11-2.96-0.72-2.94-2.94c0.09-8.72,0.04-17.44,0.02-26.16c0-1.39,0.08-2.81-0.49-4.58
			c-1.53,6.35-2.96,12.32-4.4,18.29c-1.07,4.45-2.14,8.89-3.21,13.34c-0.34,1.41-1.15,2.12-2.68,2.06
			c-2.01-0.08-4.03-0.09-6.04-0.03c-1.53,0.05-2.37-0.67-2.7-2.07c-1.41-5.92-2.81-11.83-4.19-17.75
			c-1.09-4.67-2.15-9.34-3.23-14.01C671.67,122.44,671.53,122.44,671.39,122.45z"/>
		<path d="M773.57,128.99c-1.41-0.94-1.5-1.59-0.28-3c3-3.94,4.87-8.25,3-13.31c-1.97-5.25-5.06-9-10.97-9.56
			c-8.53-0.84-17.15-0.47-25.68-0.66c-2.25,0-2.81,0.84-2.72,2.91c0.09,8.06,0,16.03,0,23.99c0,7.97,0.09,16.12,0,24.18
			c-0.09,2.06,0.37,3,2.72,2.91c7.97-0.19,15.84-0.19,23.71-0.19c2.25,0,4.5-0.47,6.56-1.13c5.34-1.97,8.15-6.28,9-11.53
			C779.85,137.89,778.81,132.55,773.57,128.99z M747.89,115.3c0-1.59,0.66-2.53,2.44-2.44c3.47,0,7.03-0.09,10.59,0.09
			c3,0.09,4.59,1.78,4.59,4.59c0.09,3.47-1.41,5.34-4.4,5.53c-1.97,0.09-3.94,0-5.81,0v0.09h-5.34c-1.41,0-2.16-0.56-2.06-2.16
			C747.98,119.15,747.98,117.27,747.89,115.3z M761.85,145.86c-1.97,0.09-3.94,0-5.81,0h-5.53c-1.69,0.09-2.53-0.56-2.53-2.16
			c-0.09-2.62-0.09-5.25,0-7.78c0-1.78,0.75-2.62,2.62-2.53c3.28,0.19,6.56-0.19,9.84,0.19c4.22,0.38,7.31,2.34,7.03,6.37
			C767.29,143.33,765.32,145.67,761.85,145.86z"/>
		<path d="M1036.62,154.57c-4.31-6.75-7.4-14.34-13.31-20.15c-0.84-0.84-1.22-1.5,0.47-2.06c2.16-0.94,4.4-2.06,5.9-4.03
			c3.94-5.34,4.4-11.34,1.87-17.34c-2.44-5.9-7.31-8.25-13.4-8.43c-8.06-0.09-16.31,0-24.37-0.09c-1.97,0-2.81,0.75-2.72,2.72
			c0.66,8.62,0.09,17.15,0.28,23.52c0,9.75,0.09,17.34-0.09,25.02c0,2.16,0.66,2.81,2.72,2.72c2.06-0.19,4.22-0.19,6.28,0
			c2.25,0.09,3-0.56,2.91-2.81c-0.09-5.53,0-10.96,0-16.4c0-1.87,0.66-2.62,2.53-2.53c2.91,0.19,5.25,1.31,6.75,3.94
			c3.47,5.44,7.03,10.78,10.59,16.12c0.66,1.12,1.31,1.69,2.53,1.59c3.37,0,6.75,0,10.12,0.09
			C1037.37,156.44,1037.28,155.51,1036.62,154.57z M1016.47,124.49c-3.84,0.75-7.68,0.47-11.53,0.66c-1.5,0.09-2.34-0.47-2.25-2.16
			c0.09-2.72,0.09-5.34,0-8.06c0-1.59,0.66-2.06,2.16-1.97h10.78c3.28,0.09,5.34,2.06,5.62,5.15
			C1021.44,122.05,1020.13,123.74,1016.47,124.49z"/>
		<path d="M945.62,129.36c0-8.05,0.06-16.1-0.04-24.15c-0.03-2.11,0.65-2.74,2.75-2.73c10.91,0.09,21.82,0.1,32.73,0.01
			c2.13-0.02,2.87,0.67,2.71,2.74c-0.14,1.75-0.15,3.53-0.01,5.28c0.18,2.18-0.59,2.94-2.84,2.9c-6.96-0.12-13.93,0.03-20.9-0.07
			c-2.07-0.03-2.73,0.63-2.72,2.72c0.03,6.75-0.05,6.75,6.74,6.74c4.95,0,9.9,0.07,14.85-0.05c2.2-0.05,3.38,0.47,3.06,2.94
			c-0.16,1.24-0.01,2.51-0.04,3.77c-0.07,4.39,0.77,3.91-4.07,3.94c-5.96,0.04-11.92,0.07-17.87-0.03
			c-1.91-0.03-2.77,0.51-2.68,2.53c0.12,2.43,0.08,4.86,0.01,7.29c-0.05,1.73,0.64,2.36,2.37,2.35c7.3-0.05,14.6,0.06,21.9-0.04
			c2.42-0.03,3.39,0.77,3.16,3.22c-0.16,1.75-0.13,3.52-0.02,5.28c0.11,1.76-0.61,2.38-2.34,2.38c-11.58-0.04-23.16-0.05-34.74,0.02
			c-2.12,0.01-2-1.27-2-2.63c-0.01-8.14,0-16.27,0-24.41C945.63,129.36,945.63,129.36,945.62,129.36z"/>
		<path d="M1056.78,157.33c-3.26-0.15-8.97-1.1-13.3-5.73c-3.22-3.45-4.46-7.76-5.05-12.31c-0.13-1.02,0.27-1.59,1.31-1.74
			c1.16-0.17,2.31-0.47,3.47-0.56c1.75-0.14,3.62-0.55,5.25-0.12c1.84,0.48,1.45,2.76,2.13,4.2c2.59,5.46,10.63,7.51,15.36,3.68
			c2.6-2.11,3.62-6.71-0.98-8.39c-4.15-1.51-8.42-2.7-12.63-4.05c-5.8-1.88-10.25-5.13-11.91-11.4
			c-2.25-8.48,3.61-17.31,12.27-18.61c5.57-0.84,11-0.79,16.34,1.15c4.86,1.76,9.89,9.36,9.44,14.29c-0.08,0.85-0.61,1.33-1.41,1.55
			c-2.96,0.79-6,0.52-9,0.55c-1.23,0.01-1.34-1.12-1.59-1.96c-1.53-5.26-10.32-7.59-14.22-3.75c-1.44,1.42-1.19,3.66,0.59,4.98
			c2.07,1.54,4.6,1.96,7,2.61c3.47,0.94,6.81,2.17,10.16,3.46c8.53,3.28,12.41,13.89,8.38,22.13
			C1075.15,153.92,1068.82,157.34,1056.78,157.33z"/>
		<path d="M515.76,157.34c-11.36-0.13-17.22-4.64-20.22-13.7c-0.47-1.42-0.71-2.92-1.01-4.39c-0.27-1.28,0.6-1.61,1.59-1.76
			c1.49-0.23,2.98-0.44,4.48-0.62c4.44-0.51,4.44-0.5,6.04,3.69c2.3,6.01,11.25,8.14,16,3.8c2.9-2.64,2.49-6.45-1.13-7.86
			c-4.81-1.88-9.77-3.34-14.66-5.01c-6.38-2.18-9.82-6.88-10.45-13.37c-0.56-5.69,2.11-10.36,6.66-13.51
			c4.44-3.08,9.8-3.24,15.03-2.75c4.07,0.38,8.07,1.02,11.31,4.09c3.21,3.04,4.86,6.68,5.31,10.97c0.19,1.79-0.75,2.64-2.46,2.73
			c-1.09,0.06-2.19-0.01-3.27,0.14c-3.36,0.48-6.13,0.19-6.77-4.01c-0.18-1.16-1.36-1.82-2.39-2.43c-2.48-1.48-8.86-1.12-11.04,0.66
			c-1.71,1.39-1.61,3.5,0.26,4.83c2.37,1.68,5.17,2.42,7.9,3.08c3.84,0.93,7.52,2.26,11.07,3.91c7.46,3.46,9.2,11.77,7.59,18.62
			C533.54,153.2,526.65,157.26,515.76,157.34z"/>
		<path d="M936.16,114.46c-3.09-7.5-9-11.9-17.52-11.9c-6.47,0-12.93,0.09-19.4-0.09c-2.44,0-3,0.84-3,3.19
			c0.19,7.78,0.09,15.65,0.09,23.43v24.65c0,1.5,0.09,2.72,2.16,2.72c7.12-0.19,14.24,0.09,21.18-0.28
			c7.31-0.38,13.12-4.03,16.12-10.78C940.38,135.27,940.38,124.68,936.16,114.46z M926.13,139.2c-1.31,4.4-3.84,6.56-9,6.65
			c-2.44,0.09-4.87,0-7.22,0.09c-1.87,0-2.44-0.66-2.34-2.34c0.09-4.78,0-9.37,0-14.06c0-4.69,0.09-9.37,0-14.15
			c0-1.69,0.56-2.53,2.44-2.44c2.34,0.09,4.69-0.09,7.03,0c4.97,0.19,8.9,3.37,9.65,8.81C927.45,127.58,927.82,133.48,926.13,139.2z
			"/>
		<path d="M785.96,124.81c0-7.8,0.06-13.75-0.03-19.7c-0.03-1.97,0.61-2.74,2.61-2.61c2,0.13,4.03,0.15,6.04,0
			c2.28-0.17,3.07,0.6,3.04,2.98c-0.11,10.65-0.02,21.3-0.03,31.94c0,3.19,0.77,5.99,3.79,7.63c3.4,1.84,6.85,1.8,10.31,0.11
			c2.35-1.15,2.86-3.24,3.1-5.61c0.65-6.53,0.31-13.06,0.38-19.59c0.05-5.03,0.05-10.06-0.02-15.09c-0.02-1.72,0.55-2.44,2.34-2.36
			c2.34,0.11,4.7,0.07,7.05,0.01c1.61-0.04,2.3,0.69,2.3,2.25c-0.03,11.57,0.12,23.15-0.17,34.71c-0.12,4.95-1.42,9.68-5.41,13.31
			c-2.95,2.69-6.56,3.83-10.2,4.34c-5.41,0.76-10.9,0.45-15.95-2.09c-5.81-2.92-8.28-8.03-8.77-14.22
			C785.88,134.88,785.9,128.92,785.96,124.81z"/>
		<path d="M435.82,153.82c-1.22-3.37-2.44-6.65-3.75-10.03c-4.87-12.93-9.75-25.87-14.53-38.89c-0.66-1.59-1.41-1.97-2.81-1.97
			c-2.53,0.09-5.15,0.09-7.78,0c-1.31,0-1.97,0.28-2.44,1.78c-2.53,7.03-5.06,13.87-7.59,20.8c-3.56,9.56-7.12,19.12-10.68,28.77
			c-0.56,1.41-0.09,2.25,1.5,2.16c1.5-0.09,2.91-0.09,4.31-0.09c5.06,0,5.06,0,6.93-4.78c0.37-0.75,0.66-1.69,0.84-2.53
			c1.41-4.69,1.5-4.69,6.47-4.59h8.34c5.53,0,5.53,0,7.4,4.97c0.19,0.38,0.19,0.75,0.38,1.22c1.69,5.72,1.69,5.72,7.78,5.72
			c1.22,0,2.44-0.09,3.75,0.09C436.01,156.54,436.48,155.6,435.82,153.82z M414.64,134.33c-2.44-0.09-4.87-0.09-7.31,0
			c-1.41,0-1.87-0.75-1.5-1.97c1.41-4.22,3-8.34,4.5-12.56c0.09-0.28,0.28-0.66,0.66-1.31c1.78,5.06,3.47,9.56,5.06,13.96
			C416.51,133.77,416.05,134.33,414.64,134.33z"/>
		<path d="M351.5,102.53c5.67-0.02,5.72-0.03,7.4,5.05c2.85,8.63,5.64,17.28,8.45,25.92c0.13,0.4,0.17,0.85,0.39,1.19
			c0.44,0.66,0.21,1.99,1.22,1.97c1.17-0.02,1.34-1.25,1.64-2.21c3.15-10.12,6.33-20.24,9.45-30.37c0.33-1.06,0.82-1.56,1.92-1.55
			c2.85,0.02,5.7,0.02,8.55,0.01c1.79-0.01,2.07,0.8,1.52,2.38c-2.12,6.13-4.17,12.28-6.23,18.43
			c-3.44,10.28-6.92,20.55-10.27,30.86c-0.51,1.56-1.2,2.21-2.8,2.18c-2.77-0.07-5.53-0.04-8.3,0c-1.17,0.02-1.76-0.4-2.15-1.58
			c-4.11-12.53-8.27-25.04-12.46-37.55c-1.38-4.11-2.81-8.2-4.33-12.25c-0.7-1.86-0.08-2.5,1.73-2.48
			C348.65,102.55,350.08,102.53,351.5,102.53z"/>
		<path d="M854.65,129.61c0-7.88,0.09-15.77-0.05-23.65c-0.04-2.41,0.81-3.13,3.06-2.95c1.83,0.15,3.7,0.16,5.53,0
			c2.35-0.2,3.2,0.51,3.17,3.04c-0.14,12.16-0.07,24.32-0.07,36.48c0,3.29,0.01,3.3,3.31,3.29c6.21,0,12.42,0.04,18.63-0.04
			c1.93-0.03,2.81,0.58,2.56,2.6c-0.31,2.55,1.14,5.81-0.62,7.49c-1.62,1.55-4.81,0.45-7.31,0.46c-8.48,0.06-16.95-0.05-25.43,0.07
			c-2.26,0.03-2.86-0.75-2.83-2.91C854.72,145.54,854.65,137.58,854.65,129.61z"/>
		<path d="M835.02,129.59c0-8.13,0.06-16.26-0.04-24.4c-0.02-2.1,0.65-2.85,2.75-2.69c2.08,0.17,4.2,0.14,6.29,0
			c2.07-0.14,2.74,0.58,2.73,2.69c-0.09,12.66-0.04,25.32-0.04,37.98c0,3.68-0.06,7.37,0.04,11.05c0.04,1.68-0.63,2.22-2.22,2.16
			c-2.26-0.08-4.54-0.14-6.79,0.01c-2.04,0.13-2.78-0.52-2.75-2.66C835.09,145.69,835.02,137.64,835.02,129.59z"/>
		<path d="M553.85,129.45c0,8.04-0.06,16.08,0.04,24.12c0.03,2.16-0.58,3.05-2.85,2.83c-1.91-0.18-3.87-0.17-5.78,0.01
			c-2.2,0.21-2.66-0.72-2.65-2.73c0.06-14.83,0.02-29.65,0.03-44.48c0-6.45,0.03-6.47,6.4-6.42c5.63,0.04,4.76-0.62,4.78,4.8
			C553.86,114.87,553.84,122.16,553.85,129.45C553.84,129.45,553.84,129.45,553.85,129.45z"/>
	</g>
	<text transform="matrix(1 0 0 1 345.2077 211.7093)" class="st60 st61">Passion • People • Performance</text>
	<g>
		
			<radialGradient id="SVGID_1_" cx="135.3038" cy="56.4366" r="135.3038" fx="39.5195" fy="24.7899" gradientTransform="matrix(1 0 0 1.0783 0 85.0417)" gradientUnits="userSpaceOnUse">
			<stop  offset="0.334" style="stop-color:#52C4F0"/>
			<stop  offset="1" style="stop-color:#2A58A3"/>
		</radialGradient>
		<ellipse class="st13" cx="135.3" cy="145.9" rx="135.3" ry="145.9"/>
		<path class="st23" d="M25.89,55.23L99.2,264.08c0,0,9.26,17.77,31.85,18.14c12.83-2.15,31.85,0,39.62-33.7l68.88-199.78
			l-9.81-10.74h-81.65c0,0,31.48,13.89,24.44,42.21c-7.04,28.33-38.02,147.07-38.02,147.07L72.05,14.5
			C72.05,14.5,40.7,33.51,25.89,55.23z"/>
	</g>
</g>
</svg>
