<?xml version="1.0" encoding="utf-8"?>
<!-- Generator: Adobe Illustrator 26.0.3, SVG Export Plug-In . SVG Version: 6.00 Build 0)  -->
<svg version="1.1" id="Layer_1" xmlns="http://www.w3.org/2000/svg" xmlns:xlink="http://www.w3.org/1999/xlink" x="0px" y="0px"
	 viewBox="0 0 1080 342.21" style="enable-background:new 0 0 1080 342.21;" xml:space="preserve">
<style type="text/css">
	.st0{fill-rule:evenodd;clip-rule:evenodd;fill:#0078A9;}
	.st1{fill:#52237F;}
	.st2{fill-rule:evenodd;clip-rule:evenodd;fill:#F5A800;}
	.st3{fill-rule:evenodd;clip-rule:evenodd;fill:#0033A1;}
	.st4{fill-rule:evenodd;clip-rule:evenodd;fill:#E1251B;}
	.st5{fill-rule:evenodd;clip-rule:evenodd;fill:#FFFFFF;}
	.st6{fill-rule:evenodd;clip-rule:evenodd;fill:#FF0000;}
	.st7{fill:#F89F21;}
	.st8{fill:#28387D;}
	.st9{fill:#088C45;}
	.st10{fill:#F37A21;}
	.st11{fill-rule:evenodd;clip-rule:evenodd;fill:#E60005;}
	.st12{fill:#F1890B;}
	.st13{fill:url(#SVGID_1_);}
	.st14{fill:#000105;}
	.st15{fill:#231F20;}
	.st16{fill:#EF3E42;}
	.st17{fill:none;}
	.st18{fill:#DE4447;}
	.st19{fill:#EC1C24;}
	.st20{fill:#2A557C;}
	.st21{fill:#0071BB;}
	.st22{fill:#009DA4;}
	.st23{fill:#FFFFFF;}
	.st24{fill:#F05C61;}
	.st25{fill-rule:evenodd;clip-rule:evenodd;fill:#0054A5;}
	.st26{fill-rule:evenodd;clip-rule:evenodd;fill:#231F20;}
	.st27{fill:#00A7E0;}
	.st28{fill:#F25022;}
	.st29{fill:#80BA01;}
	.st30{fill:#777777;}
	.st31{fill:#02A4EF;}
	.st32{fill:#FFB902;}
	.st33{fill:#FF0000;}
	.st34{fill-rule:evenodd;clip-rule:evenodd;}
	.st35{fill:#ED2423;stroke:#ED2423;stroke-width:0.2728;stroke-miterlimit:1.0913;}
	.st36{fill:url(#path3858_00000176040494749154287120000009790950361496925610_);}
	.st37{fill:url(#path3852_00000103950107963828732910000002603320910485686914_);}
	
		.st38{fill:url(#path3824_00000016781812114988071700000000731395784697303957_);stroke:url(#path3824_00000050635464139797289040000017692271994668167842_);stroke-width:0.238;stroke-miterlimit:1.0913;}
	
		.st39{fill:url(#path3826_00000048481846644909884030000010854525078429564291_);stroke:url(#path3826_00000049915111697894051050000007337076930090489498_);stroke-width:0.1995;stroke-miterlimit:1.0913;}
	.st40{fill:url(#path3856_00000021801544750701259450000004270566882739945143_);}
	.st41{fill:url(#path3828_00000015318559572024604440000013621393298687939262_);}
	
		.st42{fill:url(#path3830_00000062180352312778203540000007025378009590441139_);stroke:#FEC20F;stroke-width:0.4678;stroke-miterlimit:1.0913;}
	
		.st43{fill:url(#path3842_00000110434067741692227210000012871994263833754799_);stroke:#FEC20F;stroke-width:0.5207;stroke-miterlimit:1.0913;}
	
		.st44{fill:url(#path3844_00000082327555529235419790000009733043838307650702_);stroke:#FEC20F;stroke-width:0.3517;stroke-miterlimit:1.0913;}
	
		.st45{fill:url(#path3832_00000065766969733945114950000013781554366521553848_);stroke:#FEC20F;stroke-width:0.8185;stroke-miterlimit:1.0913;}
	.st46{fill:url(#path3854_00000060734138512889468980000012444543793201029534_);}
	
		.st47{fill:url(#path3834_00000039105665478839401130000001119668737754707374_);stroke:#FEC20F;stroke-width:0.3213;stroke-miterlimit:1.0913;}
	
		.st48{fill:url(#path3836_00000178911988137555969540000015537337143083560345_);stroke:#FEC20F;stroke-width:0.3201;stroke-miterlimit:1.0913;}
	
		.st49{fill:url(#path3838_00000011028774840486603650000010537739121388911026_);stroke:#FEC20F;stroke-width:0.2504;stroke-miterlimit:1.0913;}
	
		.st50{fill:url(#path3840_00000041992260758129242900000015883991714201142670_);stroke:#FEC20F;stroke-width:0.159;stroke-miterlimit:1.0913;}
	
		.st51{fill:url(#path3846_00000023243527689959789540000012227418758985563539_);stroke:#FEC20F;stroke-width:0.2541;stroke-miterlimit:1.0913;}
	.st52{fill:#FB000C;stroke:#FEC20F;stroke-width:0.2207;stroke-miterlimit:1.0913;}
	.st53{fill:url(#path3850_00000181804179697047525530000014552426588762138286_);}
	.st54{fill:url(#path3860_00000117642632825213329280000008793847772230555041_);}
	.st55{fill:none;stroke:#FFFFFB;stroke-width:0.5;stroke-miterlimit:1.0913;}
	.st56{fill:#191919;}
	.st57{fill:#D1AA67;stroke:#D1AA67;stroke-width:2.0247;stroke-linecap:round;stroke-linejoin:round;stroke-miterlimit:22.9256;}
	
		.st58{fill-rule:evenodd;clip-rule:evenodd;fill:#FFFFFF;stroke:#FFFFFF;stroke-width:1.3498;stroke-linecap:round;stroke-linejoin:round;stroke-miterlimit:22.9256;}
	.st59{fill-rule:evenodd;clip-rule:evenodd;fill:#EC1C24;}
	.st60{fill:url(#SVGID_00000048463133594375612330000002505900319489209769_);}
	.st61{fill-rule:evenodd;clip-rule:evenodd;fill:#1D1D1B;}
	.st62{fill-rule:evenodd;clip-rule:evenodd;fill:#E20613;}
</style>
<g>
	<path class="st57" d="M31.58,3.61h87.72v15.18c-12.09,2.06-18.69,8.62-18.27,20.89l44.32,83.14l36.67-81.83
		c3.53-15.25-5.5-20.86-21.33-21.34V4.75h64.81v15.76c-10.47,3.83-16.07,13.08-20.9,22.58l-63.09,150.52h-17.9L47.29,31.18
		L31.95,20.93L31.58,3.61L31.58,3.61z M275.92,4.98h92.79v14.9c-12.35,0.92-20.54,5.5-22.58,15.4v124.99
		c1.55,11.18,9.74,16.54,21.6,18.76v15.38H276.4v-14.89c8.62,0.45,16.36-2.09,21.15-14.44V31.42c-3.55-8.41-11.71-11.28-21.63-12.03
		V4.98L275.92,4.98z M561.5,56.92h18.74l-3.36-41.84c-68.8-28.56-151.52-16.09-169.97,64.57c-18.97,82.87,79.81,142.79,174.76,96.5
		v-48.59h-19.7c-3.06,45.35-41.91,56.66-71.17,43.27c-47.48-21.74-46.83-132.16,4.22-152.62C519.16,8.53,549.03,17.39,561.5,56.92
		L561.5,56.92z M784.77,56.92h18.76l-3.38-41.84C731.36-13.49,648.63-1.01,630.19,79.65c-18.96,82.87,79.79,142.79,174.78,96.5
		v-48.59h-19.72c-3.04,45.35-41.91,56.66-71.15,43.27c-47.5-21.74-46.85-132.16,4.21-152.62C742.42,8.53,772.29,17.39,784.77,56.92
		L784.77,56.92z M951.72-6.11c53.42,0,96.74,45,96.74,100.5c0,55.5-43.32,100.51-96.74,100.51s-96.75-45.01-96.75-100.51
		C854.97,38.89,898.3-6.11,951.72-6.11L951.72-6.11z M951.72,10.56c26.72,0,48.37,37.54,48.37,83.83c0,46.3-21.66,83.83-48.37,83.83
		c-26.73,0-48.38-37.53-48.38-83.83C903.34,48.1,924.99,10.56,951.72,10.56L951.72,10.56z"/>
	<path class="st58" d="M31.58,3.61h87.72v15.18c-12.09,2.06-18.69,8.62-18.27,20.89l44.32,83.14l36.67-81.83
		c3.53-15.25-5.5-20.86-21.33-21.34V4.75h64.81v15.76c-10.47,3.83-16.07,13.08-20.9,22.58l-63.09,150.52h-17.9L47.29,31.18
		L31.95,20.93L31.58,3.61L31.58,3.61z M275.92,4.98h92.79v14.9c-12.35,0.92-20.54,5.5-22.58,15.4v124.99
		c1.55,11.18,9.74,16.54,21.6,18.76v15.38H276.4v-14.89c8.62,0.45,16.36-2.09,21.15-14.44V31.42c-3.55-8.41-11.71-11.28-21.63-12.03
		V4.98L275.92,4.98z M561.5,56.92h18.74l-3.36-41.84c-68.8-28.56-151.52-16.09-169.97,64.57c-18.97,82.87,79.81,142.79,174.76,96.5
		v-48.59h-19.7c-3.06,45.35-41.91,56.66-71.17,43.27c-47.48-21.74-46.83-132.16,4.22-152.62C519.16,8.53,549.03,17.39,561.5,56.92
		L561.5,56.92z M784.77,56.92h18.76l-3.38-41.84C731.36-13.49,648.63-1.01,630.19,79.65c-18.96,82.87,79.79,142.79,174.78,96.5
		v-48.59h-19.72c-3.04,45.35-41.91,56.66-71.15,43.27c-47.5-21.74-46.85-132.16,4.21-152.62C742.42,8.53,772.29,17.39,784.77,56.92
		L784.77,56.92z M951.72-6.11c53.42,0,96.74,45,96.74,100.5c0,55.5-43.32,100.51-96.74,100.51s-96.75-45.01-96.75-100.51
		C854.97,38.89,898.3-6.11,951.72-6.11L951.72-6.11z M951.72,10.56c26.72,0,48.37,37.54,48.37,83.83c0,46.3-21.66,83.83-48.37,83.83
		c-26.73,0-48.38-37.53-48.38-83.83C903.34,48.1,924.99,10.56,951.72,10.56L951.72,10.56z"/>
	<path class="st59" d="M31.58,3.61h87.72v15.18c-12.09,2.06-18.69,8.62-18.27,20.89l44.32,83.14l36.67-81.83
		c3.53-15.25-5.5-20.86-21.33-21.34V4.75h64.81v15.76c-10.47,3.83-16.07,13.08-20.9,22.58l-63.09,150.52h-17.9L47.29,31.18
		L31.95,20.93L31.58,3.61L31.58,3.61z M275.92,4.98h92.79v14.9c-12.35,0.92-20.54,5.5-22.58,15.4v124.99
		c1.55,11.18,9.74,16.54,21.6,18.76v15.38H276.4v-14.89c8.62,0.45,16.36-2.09,21.15-14.44V31.42c-3.55-8.41-11.71-11.28-21.63-12.03
		V4.98L275.92,4.98z M561.5,56.92h18.74l-3.36-41.84c-68.8-28.56-151.52-16.09-169.97,64.57c-18.97,82.87,79.81,142.79,174.76,96.5
		v-48.59h-19.7c-3.06,45.35-41.91,56.66-71.17,43.27c-47.48-21.74-46.83-132.16,4.22-152.62C519.16,8.53,549.03,17.39,561.5,56.92
		L561.5,56.92z M784.77,56.92h18.76l-3.38-41.84C731.36-13.49,648.63-1.01,630.19,79.65c-18.96,82.87,79.79,142.79,174.78,96.5
		v-48.59h-19.72c-3.04,45.35-41.91,56.66-71.15,43.27c-47.5-21.74-46.85-132.16,4.21-152.62C742.42,8.53,772.29,17.39,784.77,56.92
		L784.77,56.92z M951.72-6.11c53.42,0,96.74,45,96.74,100.5c0,55.5-43.32,100.51-96.74,100.51s-96.75-45.01-96.75-100.51
		C854.97,38.89,898.3-6.11,951.72-6.11L951.72-6.11z M951.72,10.56c26.72,0,48.37,37.54,48.37,83.83c0,46.3-21.66,83.83-48.37,83.83
		c-26.73,0-48.38-37.53-48.38-83.83C903.34,48.1,924.99,10.56,951.72,10.56L951.72,10.56z"/>
	<path class="st19" d="M0,342.21v-2.76c4.48-0.34,7.29-1.34,8.49-3.05c1.21-1.7,1.81-5.61,1.81-11.66v-43.61
		c0-6.03-0.59-9.93-1.81-11.63c-1.2-1.74-4.01-2.73-8.49-3.03v-2.77h16.4h16.44v2.77c-4.46,0.3-7.29,1.29-8.49,3.03
		c-1.2,1.7-1.81,5.6-1.81,11.66v46.92c0,4.25,0.47,6.83,1.39,7.76c0.94,0.92,3.5,1.39,7.74,1.39h8.44c6.5,0,11.59-1.13,15.31-3.42
		c3.76-2.29,6.99-6.21,9.69-11.72h3.01l-3.1,10.02l-3.14,10.09l0,0h-39.3l0,0H0L0,342.21z M100.71,328.94l27.7-67.11h1.31h1.37
		L159.62,331c1.42,3.47,2.73,5.68,3.89,6.68c1.15,0.97,3.13,1.56,5.97,1.77v2.76h-14.46h-14.45v-2.76c3.38,0,5.54-0.67,6.44-1.99
		c0.92-1.3,0.72-3.47-0.49-6.52l-6.28-15.33l0,0h-28.32l0,0l-4.9,12.17c-1.59,3.96-1.93,6.83-0.9,8.61c1.04,1.81,3.51,2.8,7.53,3.06
		v2.76h-11.73H90.12v-2.76c2.85-0.45,4.87-1.33,6.12-2.56C97.44,335.69,98.92,333.04,100.71,328.94L100.71,328.94z M126.11,281.04
		L114,310.64l0,0h24.27l0,0l-12.14-29.6H126.11L126.11,281.04z M203.22,324.74v-43.61c0-6.03-0.58-9.93-1.79-11.63
		c-1.19-1.74-4.04-2.73-8.49-3.03v-2.77h16.4l0,0h14.06c10.21,0,17.98,1.76,23.31,5.32c5.31,3.56,8,8.76,8,15.63
		c0,6.4-2.81,11.5-8.49,15.27c-1.06,0.75-2.32,1.43-3.65,2.01l0,0c2.36,0.9,4.54,1.9,6.45,3.19c6.4,4.01,9.63,9.21,9.63,15.54
		c0,7.77-2.72,13.27-8.11,16.58c-5.36,3.29-14.44,4.96-27.1,4.96h-14.04l0,0h-16.43v-2.76c4.45-0.34,7.3-1.34,8.49-3.06
		C202.65,334.7,203.22,330.8,203.22,324.74L203.22,324.74z M215.51,275.35v24.18l0,0h8.89c5.7,0,10.19-1.38,13.53-4.13
		c3.32-2.78,4.97-6.56,4.97-11.3c0-4.77-1.65-8.52-4.97-11.31c-3.34-2.75-7.84-4.15-13.53-4.15h-2.22c-2.77,0-4.56,0.43-5.47,1.33
		C215.89,270.78,215.51,272.59,215.51,275.35L215.51,275.35z M215.51,304.97v25.66c0,2.83,0.37,4.61,1.16,5.44
		c0.81,0.75,2.59,1.17,5.41,1.17h1.33c7.31,0,12.72-1.32,16.23-3.95c3.49-2.59,5.22-6.66,5.22-12.15c0-5.31-1.73-9.33-5.22-12.04
		c-3.5-2.76-8.62-4.12-15.33-4.12H215.51L215.51,304.97z M324.03,343.84c-11.02,0-20.03-3.81-27.08-11.47
		c-7.02-7.63-10.56-17.44-10.56-29.43c0-12.01,3.54-21.82,10.56-29.45c7.06-7.61,16.06-11.41,27.08-11.41
		c11.06,0,20.11,3.8,27.12,11.41c7.04,7.62,10.53,17.44,10.53,29.45c0,11.99-3.49,21.8-10.53,29.43
		C344.15,340.03,335.1,343.84,324.03,343.84L324.03,343.84z M324.03,338.87c7.37,0,13.2-3.22,17.47-9.66
		c4.27-6.44,6.43-15.21,6.43-26.27c0-11.04-2.16-19.81-6.43-26.21c-4.27-6.46-10.1-9.67-17.47-9.67c-7.33,0-13.14,3.21-17.42,9.67
		c-4.3,6.41-6.44,15.17-6.44,26.21c0,11.06,2.13,19.82,6.44,26.27C310.89,335.64,316.7,338.87,324.03,338.87L324.03,338.87z
		 M398.03,324.74v-43.61c0-6.03-0.6-9.93-1.77-11.63c-1.26-1.74-4.05-2.73-8.54-3.03v-2.77h16.43l0,0h13.8
		c10.33,0,18.2,1.79,23.58,5.42c5.39,3.67,8.08,9.01,8.08,15.97c0,6.72-2.8,11.96-8.39,15.74c-3.12,2.02-6.82,3.55-11.2,4.56l0,0
		l19.64,25.63c2.75,3.45,4.81,5.66,6.31,6.66c1.48,0.97,3.65,1.56,6.48,1.77v2.76h-6.36h-13.29l-27-35.74l0,0h-5.48l0,0v22.47
		c0,4.3,0.58,7.06,1.77,8.25c1.22,1.24,4.06,1.96,8.5,2.26v2.76H404.2h-16.48v-2.76c4.48-0.34,7.28-1.34,8.54-3.06
		C397.42,334.7,398.03,330.8,398.03,324.74L398.03,324.74z M410.3,301.76L410.3,301.76h7.62c5.88,0,10.32-1.5,13.35-4.48
		c3.06-2.95,4.59-7.31,4.59-13.05c0-4.78-1.61-8.57-4.82-11.36c-3.24-2.82-7.6-4.22-13.12-4.22H417c-2.77,0-4.6,0.43-5.44,1.29
		c-0.83,0.84-1.26,2.66-1.26,5.45V301.76L410.3,301.76z M493.65,328.94l27.74-67.11h1.28h1.34L552.53,331
		c1.43,3.47,2.77,5.68,3.89,6.68c1.22,0.97,3.19,1.56,6.02,1.77v2.76h-14.46h-14.46v-2.76c3.4,0,5.53-0.67,6.43-1.99
		c0.91-1.3,0.75-3.47-0.5-6.52l-6.29-15.33l0,0h-28.28l0,0l-4.91,12.17c-1.63,3.96-1.93,6.83-0.9,8.61c1.03,1.81,3.51,2.8,7.49,3.06
		v2.76h-11.71h-11.78v-2.76c2.82-0.45,4.86-1.33,6.08-2.56C490.38,335.69,491.89,333.04,493.65,328.94L493.65,328.94z
		 M519.07,281.04l-12.11,29.6l0,0h24.22l0,0l-12.09-29.6H519.07L519.07,281.04z M613.66,324.71v-56.06l0,0h-8.71
		c-4.83,0-8.43,1.18-10.71,3.48c-2.3,2.32-3.85,6.34-4.64,12.03h-2.89l0.43-10.22l0.48-10.24l0,0h32.12l0,0h32.19l0,0l0.45,10.18
		l0.47,10.28h-2.88c-0.81-5.69-2.36-9.71-4.67-12.03c-2.27-2.3-5.88-3.48-10.7-3.48h-8.71l0,0v56.06c0,6.09,0.68,9.99,2.01,11.69
		c1.34,1.71,4.55,2.71,9.56,3.05v2.76h-17.65h-17.72v-2.76c5.01-0.34,8.22-1.34,9.57-3.06C612.98,334.7,613.66,330.8,613.66,324.71
		L613.66,324.71z M716.99,343.84c-11.03,0-20.07-3.81-27.08-11.47c-7.05-7.63-10.56-17.44-10.56-29.43
		c0-12.01,3.52-21.82,10.56-29.45c7.01-7.61,16.05-11.41,27.08-11.41c11.05,0,20.07,3.8,27.12,11.41
		c6.99,7.62,10.52,17.44,10.52,29.45c0,11.99-3.53,21.8-10.52,29.43C737.06,340.03,728.04,343.84,716.99,343.84L716.99,343.84z
		 M716.99,338.87c7.35,0,13.19-3.22,17.46-9.66c4.28-6.44,6.39-15.21,6.39-26.27c0-11.04-2.11-19.81-6.39-26.21
		c-4.27-6.46-10.12-9.67-17.46-9.67c-7.34,0-13.14,3.21-17.42,9.67c-4.29,6.41-6.48,15.17-6.48,26.21c0,11.06,2.19,19.82,6.48,26.27
		C703.85,335.64,709.65,338.87,716.99,338.87L716.99,338.87z M790.98,324.74v-43.61c0-6.03-0.6-9.93-1.82-11.63
		c-1.19-1.74-4-2.73-8.49-3.03v-2.77h16.42l0,0h13.8c10.33,0,18.2,1.79,23.59,5.42c5.37,3.67,8.08,9.01,8.08,15.97
		c0,6.72-2.79,11.96-8.43,15.74c-3.07,2.02-6.82,3.55-11.18,4.56l0,0l19.66,25.63c2.7,3.45,4.8,5.66,6.3,6.66
		c1.49,0.97,3.62,1.56,6.43,1.77v2.76h-6.33h-13.3l-26.99-35.74l0,0h-5.51l0,0v22.47c0,4.3,0.59,7.06,1.81,8.25
		c1.19,1.24,4.02,1.96,8.47,2.26v2.76h-16.36h-16.48v-2.76c4.5-0.34,7.3-1.34,8.49-3.06C790.38,334.7,790.98,330.8,790.98,324.74
		L790.98,324.74z M803.22,301.76L803.22,301.76h7.63c5.86,0,10.31-1.5,13.37-4.48c3.05-2.95,4.54-7.31,4.54-13.05
		c0-4.78-1.57-8.57-4.82-11.36c-3.21-2.82-7.59-4.22-13.1-4.22h-0.93c-2.77,0-4.56,0.43-5.42,1.29c-0.86,0.84-1.28,2.66-1.28,5.45
		V301.76L803.22,301.76z M887.31,324.74v-43.61c0-6.08-0.58-10-1.79-11.7c-1.21-1.72-4.03-2.72-8.49-2.97v-2.77h16.4h16.45v2.77
		c-4.46,0.25-7.3,1.24-8.53,2.97c-1.19,1.7-1.78,5.62-1.78,11.7v43.61c0,6.11,0.59,10,1.78,11.73c1.24,1.71,4.08,2.68,8.53,2.98
		v2.76h-16.4h-16.45v-2.76c4.45-0.3,7.28-1.3,8.49-2.99C886.74,334.74,887.31,330.86,887.31,324.74L887.31,324.74z M934.97,342.21
		v-2.76c4.46-0.3,7.28-1.27,8.49-2.98c1.22-1.73,1.8-5.61,1.8-11.73v-43.61c0-6.08-0.57-10-1.8-11.7c-1.2-1.72-4.02-2.72-8.49-2.97
		v-2.77h22.58l0,0h38.72l0,0l0.32,8.57l0.36,8.65h-2.77c-0.66-4.5-2.03-7.67-4.14-9.5c-2.16-1.85-5.53-2.78-10.13-2.78h-15.68
		c-2.76,0-4.58,0.43-5.43,1.29c-0.85,0.84-1.26,2.65-1.26,5.43v23.93l0,0h17.35c4.6,0,7.89-0.81,9.78-2.43
		c1.87-1.66,2.81-4.44,2.81-8.47h2.76v13.34v13.38h-2.76c0-4.02-0.94-6.81-2.81-8.43c-1.9-1.62-5.18-2.42-9.78-2.42h-17.35l0,0
		v26.34c0,2.83,0.37,4.61,1.18,5.44c0.79,0.75,2.59,1.17,5.4,1.17h12.07c5.83,0,10.52-1.13,14.02-3.42c3.48-2.29,6.6-6.21,9.3-11.72
		h3.02l-3.11,10.02l-3.14,10.09l0,0h-38.72l0,0H934.97L934.97,342.21z M1075.25,287.18c-1.31-6.02-3.89-10.89-7.73-14.58
		c-3.84-3.69-8.2-5.54-13.08-5.54c-3.38,0-6.08,1.08-8.1,3.31c-2.01,2.18-3,5.2-3,8.94c0,2.77,1.13,5.41,3.33,7.97
		c2.2,2.49,5.75,5.09,10.68,7.9c8.55,4.89,14.46,9.27,17.75,13.09c3.28,3.84,4.9,8.34,4.9,13.44c0,6.81-2.34,12.18-6.96,16.16
		c-4.67,3.98-10.94,5.97-18.87,5.97c-4.34,0-8.53-1.09-12.62-3.24c-1.67-0.95-3.11-1.22-4.25-0.95c-1.14,0.36-2.03,1.27-2.63,2.8
		l-0.41,1.01h-2.82l0,0l-3.23-25.55l0,0h2.77c1.77,6.17,4.83,11.18,9.13,15.09c4.3,3.91,8.96,5.86,13.97,5.86
		c4.38,0,7.87-1.3,10.43-3.88c2.54-2.59,3.82-6.07,3.82-10.5c0-2.8-1.38-5.62-4.13-8.47c-2.71-2.74-7.16-5.92-13.29-9.4
		c-6.65-3.77-11.53-7.59-14.8-11.38c-3.18-3.81-4.81-7.74-4.81-11.73c0-6.29,1.97-11.47,5.9-15.44c3.92-3.99,8.96-5.98,15.16-5.98
		c4.54,0.04,8.94,1.12,13.17,3.19c1.25,0.66,2.48,0.82,3.78,0.44c1.23-0.31,2.15-1.04,2.72-2.12l0.77-1.51h2.81l0,0l2.42,25.1l0,0
		H1075.25L1075.25,287.18z"/>
</g>
</svg>
