<?xml version="1.0" encoding="utf-8"?>
<!-- Generator: Adobe Illustrator 26.0.3, SVG Export Plug-In . SVG Version: 6.00 Build 0)  -->
<svg version="1.1" id="Layer_1" xmlns="http://www.w3.org/2000/svg" xmlns:xlink="http://www.w3.org/1999/xlink" x="0px" y="0px"
	 viewBox="0 0 1080 308.5" style="enable-background:new 0 0 1080 308.5;" xml:space="preserve">
<style type="text/css">
	.st0{fill-rule:evenodd;clip-rule:evenodd;fill:#0078A9;}
	.st1{fill:#52237F;}
	.st2{fill-rule:evenodd;clip-rule:evenodd;fill:#F5A800;}
	.st3{fill-rule:evenodd;clip-rule:evenodd;fill:#0033A1;}
	.st4{fill-rule:evenodd;clip-rule:evenodd;fill:#E1251B;}
	.st5{fill-rule:evenodd;clip-rule:evenodd;fill:#FFFFFF;}
	.st6{fill-rule:evenodd;clip-rule:evenodd;fill:#FF0000;}
	.st7{fill:#F89F21;}
	.st8{fill:#28387D;}
	.st9{fill:#088C45;}
	.st10{fill:#F37A21;}
	.st11{fill-rule:evenodd;clip-rule:evenodd;fill:#E60005;}
	.st12{fill:#F1890B;}
	.st13{fill:url(#SVGID_1_);}
	.st14{fill:#000105;}
	.st15{fill:#231F20;}
	.st16{fill:#EF3E42;}
	.st17{fill:none;}
	.st18{fill:#DE4447;}
	.st19{fill:#EC1C24;}
	.st20{fill:#2A557C;}
	.st21{fill:#0071BB;}
	.st22{fill:#009DA4;}
	.st23{fill:#FFFFFF;}
	.st24{fill:#F05C61;}
	.st25{fill-rule:evenodd;clip-rule:evenodd;fill:#0054A5;}
	.st26{fill-rule:evenodd;clip-rule:evenodd;fill:#231F20;}
	.st27{fill:#00A7E0;}
	.st28{fill:#F25022;}
	.st29{fill:#80BA01;}
	.st30{fill:#777777;}
	.st31{fill:#02A4EF;}
	.st32{fill:#FFB902;}
	.st33{fill:#FF0000;}
	.st34{fill-rule:evenodd;clip-rule:evenodd;}
	.st35{fill:#ED2423;stroke:#ED2423;stroke-width:0.2728;stroke-miterlimit:1.0913;}
	.st36{fill:url(#path3858_00000070814616977812880000000016212775301833761694_);}
	.st37{fill:url(#path3852_00000155835401538476765930000008609127028696258237_);}
	
		.st38{fill:url(#path3824_00000001655084402712404590000004030723375728491960_);stroke:url(#path3824_00000002349430522614758880000001945909418440073093_);stroke-width:0.238;stroke-miterlimit:1.0913;}
	
		.st39{fill:url(#path3826_00000156557703962790159800000017476858264281077400_);stroke:url(#path3826_00000057150487097467382480000010900867443009908657_);stroke-width:0.1995;stroke-miterlimit:1.0913;}
	.st40{fill:url(#path3856_00000149369768967873638440000018042075666693402283_);}
	.st41{fill:url(#path3828_00000048487271062054485030000003895355479161408183_);}
	
		.st42{fill:url(#path3830_00000027605150877259728940000009411516657065387392_);stroke:#FEC20F;stroke-width:0.4678;stroke-miterlimit:1.0913;}
	
		.st43{fill:url(#path3842_00000025407933776300091730000015948861946875857793_);stroke:#FEC20F;stroke-width:0.5207;stroke-miterlimit:1.0913;}
	
		.st44{fill:url(#path3844_00000075153120528441855460000012825340993244627584_);stroke:#FEC20F;stroke-width:0.3517;stroke-miterlimit:1.0913;}
	
		.st45{fill:url(#path3832_00000137102608971102919680000018034508016706735014_);stroke:#FEC20F;stroke-width:0.8185;stroke-miterlimit:1.0913;}
	.st46{fill:url(#path3854_00000168822604660713225690000002839599700882377390_);}
	
		.st47{fill:url(#path3834_00000034778977931401809100000005049286558807659677_);stroke:#FEC20F;stroke-width:0.3213;stroke-miterlimit:1.0913;}
	
		.st48{fill:url(#path3836_00000142884549205944189470000016893160557779892898_);stroke:#FEC20F;stroke-width:0.3201;stroke-miterlimit:1.0913;}
	
		.st49{fill:url(#path3838_00000146481298113999296020000005300860899146955174_);stroke:#FEC20F;stroke-width:0.2504;stroke-miterlimit:1.0913;}
	
		.st50{fill:url(#path3840_00000154397633851158684030000004859289898320879291_);stroke:#FEC20F;stroke-width:0.159;stroke-miterlimit:1.0913;}
	
		.st51{fill:url(#path3846_00000086677867202920997360000005335696144697145242_);stroke:#FEC20F;stroke-width:0.2541;stroke-miterlimit:1.0913;}
	.st52{fill:#FB000C;stroke:#FEC20F;stroke-width:0.2207;stroke-miterlimit:1.0913;}
	.st53{fill:url(#path3850_00000035510658962335215220000007723387015223238073_);}
	.st54{fill:url(#path3860_00000105392979078389096770000014445627227434057369_);}
	.st55{fill:none;stroke:#FFFFFB;stroke-width:0.5;stroke-miterlimit:1.0913;}
	.st56{fill:#191919;}
	.st57{fill:#D1AA67;stroke:#D1AA67;stroke-width:2.0247;stroke-linecap:round;stroke-linejoin:round;stroke-miterlimit:22.9256;}
	
		.st58{fill-rule:evenodd;clip-rule:evenodd;fill:#FFFFFF;stroke:#FFFFFF;stroke-width:1.3498;stroke-linecap:round;stroke-linejoin:round;stroke-miterlimit:22.9256;}
	.st59{fill-rule:evenodd;clip-rule:evenodd;fill:#EC1C24;}
	.st60{fill:url(#SVGID_00000111166819793378294390000017298514181393661851_);}
	.st61{fill-rule:evenodd;clip-rule:evenodd;fill:#1D1D1B;}
	.st62{fill-rule:evenodd;clip-rule:evenodd;fill:#E20613;}
</style>
<g>
	<path class="st14" d="M68.28,148.47V2.3h36.89V60h79.03V2.3h39.05v146.18h-38.54V84.29h-79.55v64.18H68.28z"/>
	<path class="st14" d="M292.19,148.47H255.3V2.3h36.89V148.47z"/>
	<path class="st14" d="M306.39,2.3h158.27v24.29h-59.04v121.89h-38.54V26.59h-60.69V2.3z"/>
	<path class="st14" d="M431.78,148.47L499.45,2.3h47.73l68.37,146.18h-42.09l-13.49-30.98h-72.51l-12.36,30.98H431.78z M551.51,93.2
		l-27.32-65.66L496.18,93.2H551.51z"/>
	<path class="st14" d="M794.89,148.47L794.9,2.3h38.53V60h79.03V2.3h37.42l-0.01,146.18h-36.89l0.01-64.18h-79.55l-0.01,64.18
		H794.89z"/>
	<path class="st14" d="M1018.79,148.47H981.9L981.91,2.3h36.88V148.47z"/>
	<path class="st14" d="M733.82,51.33c0.24-15.39-8.94-29.8-39.63-29.94c-39.74-0.18-43.34,35.01-43.47,54
		c-0.31,40.79,17.15,52.91,45.66,53.45c27.96,0.53,37.69-17.29,37.44-32.68h41.12c-1.81,36.64-26.74,54.9-78.57,55.36
		c-61.9,0.54-88.47-33.41-88.45-76.13c0-42.72,26.01-77.64,86.8-77.77c43.05-0.1,76.75,17.07,78.56,53.71H733.82z"/>
	<path class="st14" d="M35.2,280.52H15.16c0,0,0-66.88,0-71.49c0-4.61,1.62-11.24-11.24-11.24H0v-5.23c0,0,27.87-1.25,35.41-3.66
		L35.2,280.52z"/>
	<path class="st14" d="M797.96,281.09h-18.62c0,0,0-66.88,0-71.49c0-4.6,1.62-13.23-11.24-13.23h-3.92v-5.24
		c0,0,33.29,0.06,40.96,0.06l45.14,67.54v-67.36h18.61v89.93h-22.91l-48.07-70.46L797.96,281.09z"/>
	<path class="st14" d="M597.96,281.11h-17.47c0,0,0-69.1,0-73.7c0-3.22,1.56-11.24-7.39-11.24h-3.92v-6.01
		c0,0,21.28-1.15,28.82-3.56v43.23c0,0,7.71-13.5,24.04-13.5c16.33,0,19.78,12.35,19.78,20.41c0,8.06,0,44.38,0,44.38h-16.54v-44.69
		c0,0-0.94-8.16-9.94-8.16c-9,0-17.16,9.21-17.16,16.64C598.17,252.32,597.96,281.11,597.96,281.11z"/>
	<path class="st14" d="M55.36,225.66l-0.64-4.7c0,0,25.47-3.3,28.48-4.18v13.23c0,0,8.91-13.23,24.57-13.23
		c15.66,0,19.17,12.69,19.17,16.74c0,4.05,0,47.78,0,47.78h-17.41c0,0,0-44.41,0-46.7c0-2.3-2.15-7.29-8.91-7.29
		c-6.75,0-16.88,11.61-16.88,16.88c0,5.26,0,36.98,0,36.98H65.78c0,0,0-44.54,0-48.46C65.78,228.8,66.56,225.66,55.36,225.66z"/>
	<path class="st14" d="M191.06,232.54v-14c0,0-12.42-2.02-19.57-2.02c-7.15,0-23.76,3.25-23.76,18.63
		c0,20.11,32.94,20.38,32.94,32.13c0,9.98-18.63,10.26-30.91,1.35c-0.77-0.56-2.03,0-2.03,0v12.55c0,0,10.05,2.08,20.04,2.08
		c9.99,0,28.15-3.3,28.15-19.5c0-19.45-33.75-24.03-33.75-32.94C162.17,221.38,182.01,223.5,191.06,232.54z"/>
	<path class="st14" d="M216.84,233.8c0-3.92-0.76-7.7-11.96-7.7v-5.49c0,0,26.08-2.42,28.48-3.9v8.31h2.65c0,0,3.51-8.11,16.73-8.11
		c13.23,0,27,7.71,27,32c0,24.3-10.93,33.88-27,33.88c-16.06,0-17.01-6.48-17.01-6.48h-2.69v32.19h-16.07L216.84,233.8z
		 M233.84,251.8c0,17.38,7.12,22.19,13.61,22.19c6.49,0,14.13-4.19,14.13-25.54c0-21.35-10.57-22.29-14.23-22.29
		C240.12,226.16,233.84,234.43,233.84,251.8z"/>
	<path class="st14" d="M303.76,232.8c0-3.92-0.42-7.05-11.62-7.05l0.09-4.7c0,0,25.48-3.3,28.48-4.18v13.24v50.91h-16.93
		L303.76,232.8z"/>
	<path class="st15" d="M323.01,198.95c0,5.09-4.73,9.21-10.57,9.21c-5.83,0-10.57-4.12-10.57-9.21c0-5.09,4.74-9.21,10.57-9.21
		C318.28,189.74,323.01,193.86,323.01,198.95z"/>
	<path class="st14" d="M349.9,281.01l-0.14-47.39c0-3.92-0.75-7.69-11.96-7.69v-5.49c0,0,26.07-2.42,28.48-3.9v11.51h1.63
		c0,0,5.34-11.51,17.27-11.51c5.23,0.05,8.58,0.53,8.58,0.53v15.9c0,0-4.71-2.72-9-2.72c-4.29,0-17.58,4.4-17.58,15.07
		c0,10.68,0,35.8,0,35.8L349.9,281.01z"/>
	<path class="st14" d="M949.02,217.68v5.49c0,0,8.22-0.18,11.43,3.03c3.2,3.2,16.59,21.11,16.59,21.11l-17.72,20.73h19.6l7.63-7.63
		l16.88,21.58h20.35l-48.25-64.11L949.02,217.68z"/>
	<path class="st14" d="M446.2,236.63h-25.64c0,0,1.05-13.14,13.14-13.14C445.78,223.49,446.2,236.63,446.2,236.63z M433.33,216.11
		c-10.89,0-32.13,1.68-32.13,31.61c0,29.93,23.03,36.11,38.31,36.11s21.87-4.19,21.87-4.19v-9.42c0,0-6.59,3.66-15.18,3.66
		c-24.6,0-25.96-29.72-25.96-29.72h42.91C463.16,218.62,444.21,216.11,433.33,216.11z"/>
	<path class="st14" d="M703.25,236.63h-25.64c0,0,1.05-13.14,13.13-13.14C702.83,223.49,703.25,236.63,703.25,236.63z
		 M690.38,216.11c-10.88,0-32.13,1.68-32.13,31.61c0,29.93,23.03,36.11,38.31,36.11c15.28,0,21.87-4.19,21.87-4.19v-9.42
		c0,0-6.59,3.66-15.18,3.66c-24.59,0-25.95-29.72-25.95-29.72h42.91C720.2,218.62,701.26,216.11,690.38,216.11z"/>
	<path class="st14" d="M930.16,236.63h-25.65c0,0,1.05-13.14,13.14-13.14S930.16,236.63,930.16,236.63z M917.28,216.11
		c-10.88,0-32.13,1.68-32.13,31.61c0,29.93,23.02,36.11,38.3,36.11c15.28,0,21.87-4.19,21.87-4.19v-9.42c0,0-6.59,3.66-15.18,3.66
		c-24.6,0-25.96-29.72-25.96-29.72h42.91C947.11,218.62,928.17,216.11,917.28,216.11z"/>
	<path class="st14" d="M512.87,225.43v-7.54h11.93v-19.47h17.16v19.36h19.47v7.64h-19.36c0,0,0,40.08,0,43.12
		c0,4.5,5.44,5.76,17.27,5.76c0,1.46,0,7.53,0,7.53s-3.87,1.67-12.77,1.67c-8.9,0-22.61-1.15-22.61-13.4c0-12.25,0-44.69,0-44.69
		H512.87z"/>
	<path class="st14" d="M1031.44,225.43v-7.54h11.93v-19.47h17.16v19.36H1080v7.64h-19.36c0,0,0,40.08,0,43.12
		c0,4.5,5.44,5.76,17.27,5.76c0,1.46,0,7.53,0,7.53s-3.87,1.67-12.77,1.67s-22.61-1.15-22.61-13.4c0-12.25,0-44.69,0-44.69H1031.44z
		"/>
	<polygon class="st15" points="991.93,238.08 1007.02,217.89 1026.05,217.89 1008.33,238.08 	"/>
	<polygon class="st16" points="1046.44,171.84 1066.32,171.84 1043.37,198.42 1023.62,198.42 	"/>
</g>
</svg>
