<?xml version="1.0" encoding="utf-8"?>
<!-- Generator: Adobe Illustrator 26.0.3, SVG Export Plug-In . SVG Version: 6.00 Build 0)  -->
<svg version="1.1" id="Layer_1" xmlns="http://www.w3.org/2000/svg" xmlns:xlink="http://www.w3.org/1999/xlink" x="0px" y="0px"
	 viewBox="0 0 822.16 1080" style="enable-background:new 0 0 822.16 1080;" xml:space="preserve">
<style type="text/css">
	.st0{fill-rule:evenodd;clip-rule:evenodd;fill:#0078A9;}
	.st1{fill:#52237F;}
	.st2{fill-rule:evenodd;clip-rule:evenodd;fill:#F5A800;}
	.st3{fill-rule:evenodd;clip-rule:evenodd;fill:#0033A1;}
	.st4{fill-rule:evenodd;clip-rule:evenodd;fill:#E1251B;}
	.st5{fill-rule:evenodd;clip-rule:evenodd;fill:#FFFFFF;}
	.st6{fill-rule:evenodd;clip-rule:evenodd;fill:#FF0000;}
	.st7{fill:#F89F21;}
	.st8{fill:#28387D;}
	.st9{fill:#088C45;}
	.st10{fill:#F37A21;}
	.st11{fill-rule:evenodd;clip-rule:evenodd;fill:#E60005;}
	.st12{fill:#F1890B;}
	.st13{fill:url(#SVGID_1_);}
	.st14{fill:#000105;}
	.st15{fill:#231F20;}
	.st16{fill:#EF3E42;}
	.st17{fill:none;}
	.st18{fill:#DE4447;}
	.st19{fill:#EC1C24;}
	.st20{fill:#2A557C;}
	.st21{fill:#0071BB;}
	.st22{fill:#009DA4;}
	.st23{fill:#FFFFFF;}
	.st24{fill:#F05C61;}
	.st25{fill-rule:evenodd;clip-rule:evenodd;fill:#0054A5;}
	.st26{fill-rule:evenodd;clip-rule:evenodd;fill:#231F20;}
	.st27{fill:#00A7E0;}
	.st28{fill:#F25022;}
	.st29{fill:#80BA01;}
	.st30{fill:#777777;}
	.st31{fill:#02A4EF;}
	.st32{fill:#FFB902;}
	.st33{fill:#FF0000;}
	.st34{fill-rule:evenodd;clip-rule:evenodd;}
	.st35{fill:#ED2423;stroke:#ED2423;stroke-width:0.2728;stroke-miterlimit:1.0913;}
	.st36{fill:url(#path3858_00000083061457775944202870000015649251837338993337_);}
	.st37{fill:url(#path3852_00000039129550201212329240000016581048999774986642_);}
	
		.st38{fill:url(#path3824_00000170264503860007401700000014754880510479282606_);stroke:url(#path3824_00000084530062753464244840000017132424085404849342_);stroke-width:0.238;stroke-miterlimit:1.0913;}
	
		.st39{fill:url(#path3826_00000130626178527107772940000005215468015595275409_);stroke:url(#path3826_00000075861389348349393830000006638161750457127612_);stroke-width:0.1995;stroke-miterlimit:1.0913;}
	.st40{fill:url(#path3856_00000000935349349556143970000005166362124671773839_);}
	.st41{fill:url(#path3828_00000049941583887088572740000004462000810006359725_);}
	
		.st42{fill:url(#path3830_00000093868339773595410940000010190814076149242780_);stroke:#FEC20F;stroke-width:0.4678;stroke-miterlimit:1.0913;}
	
		.st43{fill:url(#path3842_00000134215634851999218870000004755013375505332362_);stroke:#FEC20F;stroke-width:0.5207;stroke-miterlimit:1.0913;}
	
		.st44{fill:url(#path3844_00000078733531272460413530000007396523939885060226_);stroke:#FEC20F;stroke-width:0.3517;stroke-miterlimit:1.0913;}
	
		.st45{fill:url(#path3832_00000031209153662343330470000013148686251152293513_);stroke:#FEC20F;stroke-width:0.8185;stroke-miterlimit:1.0913;}
	.st46{fill:url(#path3854_00000016070955926733307860000012256889379693615788_);}
	
		.st47{fill:url(#path3834_00000173845918357656083320000015966560567017307837_);stroke:#FEC20F;stroke-width:0.3213;stroke-miterlimit:1.0913;}
	
		.st48{fill:url(#path3836_00000090978668676955997050000013804689458299952282_);stroke:#FEC20F;stroke-width:0.3201;stroke-miterlimit:1.0913;}
	
		.st49{fill:url(#path3838_00000076599286991934005310000008024527784324224959_);stroke:#FEC20F;stroke-width:0.2504;stroke-miterlimit:1.0913;}
	
		.st50{fill:url(#path3840_00000166654296646986884880000003918372411660937884_);stroke:#FEC20F;stroke-width:0.159;stroke-miterlimit:1.0913;}
	
		.st51{fill:url(#path3846_00000155142895188413674410000002696327449522256300_);stroke:#FEC20F;stroke-width:0.2541;stroke-miterlimit:1.0913;}
	.st52{fill:#FB000C;stroke:#FEC20F;stroke-width:0.2207;stroke-miterlimit:1.0913;}
	.st53{fill:url(#path3850_00000178906628106806363020000013205046246507892413_);}
	.st54{fill:url(#path3860_00000163065923201750442790000003763383146081522099_);}
	.st55{fill:none;stroke:#FFFFFB;stroke-width:0.5;stroke-miterlimit:1.0913;}
	.st56{fill:#191919;}
	.st57{fill:#D1AA67;stroke:#D1AA67;stroke-width:2.0247;stroke-linecap:round;stroke-linejoin:round;stroke-miterlimit:22.9256;}
	
		.st58{fill-rule:evenodd;clip-rule:evenodd;fill:#FFFFFF;stroke:#FFFFFF;stroke-width:1.3498;stroke-linecap:round;stroke-linejoin:round;stroke-miterlimit:22.9256;}
	.st59{fill-rule:evenodd;clip-rule:evenodd;fill:#EC1C24;}
	.st60{fill:url(#SVGID_00000007426442650247109740000001054456697789340062_);}
	.st61{fill-rule:evenodd;clip-rule:evenodd;fill:#1D1D1B;}
	.st62{fill-rule:evenodd;clip-rule:evenodd;fill:#E20613;}
</style>
<g>
	<path class="st12" d="M202.34,55.17c-1.06-1.12-2.12-2.25-3.19-3.37c2.23-1.55,3.97-0.97,5.36,1.21
		C203.8,53.72,203.07,54.44,202.34,55.17z"/>
	<g>
		<g>
			<radialGradient id="SVGID_1_" cx="411.1222" cy="403.186" r="408.3578" gradientUnits="userSpaceOnUse">
				<stop  offset="0" style="stop-color:#FAB61E"/>
				<stop  offset="0.2901" style="stop-color:#FAB31E"/>
				<stop  offset="0.4883" style="stop-color:#F8AA1D"/>
				<stop  offset="0.6592" style="stop-color:#F59B1B"/>
				<stop  offset="0.8145" style="stop-color:#F28519"/>
				<stop  offset="0.958" style="stop-color:#ED6A17"/>
				<stop  offset="1" style="stop-color:#EB6016"/>
			</radialGradient>
			<path class="st13" d="M496.75,566.23c-0.41-16.36,17.91-28.95,32.48-22.41c6.35,2.85,10.34,2.33,15.49-2.39
				c5.37-4.94,5.05-9.31,2.63-15.33c-5.64-13.95,6.51-31.82,21.32-31.55c6.57,0.14,11.56,0.14,15.22-7.41
				c3.66-7.54,0.65-11.5-3.64-16.5c-9.01-10.53-3.04-31.66,10.17-35.68c6.62-1.98,10.93-4.29,11.42-12.45
				c0.43-7.08-1.84-10.36-7.76-13.59c-13.46-7.33-15.11-28.65-3.17-38.01c4.78-3.74,9.01-6.32,6.76-14.05
				c-2.12-7.19-5.56-10.26-12.81-11.4c-14.92-2.39-23.44-21.87-15.33-34.65c3.36-5.32,5.43-9.47,1.06-15.74
				c-4.07-5.86-8.47-6.86-14.84-5.97c-16.58,2.36-30.93-12.83-26.64-28.87c1.79-6.59,0.14-9.98-4.86-13.51
				c-4.77-3.34-8.6-4.97-14.57-1.47c-15.52,9.12-33.32,0.84-36.03-16.85c-1.11-7.11-4.67-9.63-10.69-11.69
				c-6.57-2.22-9.82,0.9-13.62,5.4c-10.61,12.56-30.52,10.53-38.55-4.15c-3.31-5.97-6.92-8.14-13.84-7.65
				c-6.67,0.46-9.23,3.58-11.34,9.25c-5.97,16.03-25.58,20.81-38.2,9.06c-4.77-4.42-8.55-5.1-14.27-2.39
				c-5.51,2.6-8.08,5.53-8.06,12.15c0.05,17.64-17.34,29.55-33.24,22.68c-6.02-2.6-9.9-2.06-14.22,2.52
				c-3.93,4.18-6.24,7.6-3.8,14.08c6.43,17.12-4.67,32.67-23.09,32.72c-6.38,0.03-9.58,2.31-12.43,7.84
				c-2.93,5.7-2.39,9.47,1.71,14.41c11.48,13.81,6.02,32.67-11.07,38.58c-6,2.06-8.55,4.94-8.87,11.4c-0.3,6.05,0.76,9.77,6.46,13.1
				c15.79,9.22,17.17,28.76,2.5,40.02c-6.16,4.72-5.15,9.12-4.02,14.95c1.17,5.97,4.56,7.84,10.17,8.74
				c17.26,2.71,25.67,21.57,16.12,36.57c-3.53,5.51-2.74,9.14,0.22,14.52c4.96,9.03,11.88,5.75,17.55,4.8
				c13.73-1.03,27.81,16.12,24.01,28.62c-2.03,6.73-1.03,10.8,4.86,14.76c4.94,3.31,8.44,4.8,14.35,1.25
				c15.36-9.31,33.29-0.9,36.06,16.85c1.11,7.05,4.59,9.82,10.77,11.83c6.48,2.12,9.85-0.76,13.62-5.34
				c10.5-12.78,30.79-10.93,38.36,3.74c3.07,6,6.21,8.63,13.32,8.3c7.46-0.3,9.9-4.02,12.02-10.15
				c5.16-14.92,25.94-19.81,37.82-8.95c4.23,3.85,7.49,6.7,13.97,3.26C494.17,576.32,496.94,573.37,496.75,566.23z M410.75,557.52
				c-84.81-0.24-154.43-69.86-154.18-154.1c0.27-86.71,69.45-156,155.41-155.65c84.95,0.35,154.18,70.84,153.48,156.19
				C564.77,488.86,495.28,557.79,410.75,557.52z M104.09,454.26c24.52,11.06,52.79,3.43,69.01-17.71
				c13.83-18.02,12.22-22.46-9.32-28.47c-25.56-7.13-51.58-10.87-78.82-10.64c1.36-4.85,3.24-4.83,4.94-5.07
				c26.69-3.72,53.35-7.71,80.09-10.99c9.97-1.22,12.35-3.85,6.57-13.11c-15.68-25.14-52.76-36.46-84.19-17.19
				C62.13,369.63,35.19,393.85,0,404.86c29.85,3.08,54.01,17.39,77.47,33.56C85.96,444.28,94.73,450.04,104.09,454.26z
				 M297.06,612.98c-16.82,17.07-32.85,34.6-45.61,54.96c-1.9,3.03-4.01,7.26-8.09,4.59c-4.03-2.63,0.75-5.5,1.71-7.98
				c8.64-22.19,17.38-44.35,26.63-66.29c3.01-7.13,1.99-9.14-5.98-9.36c-30.62-0.83-56.73,23-59.05,54.98
				c-0.98,13.5,0.23,26.98,1.43,40.46c2.23,24.97,5.09,50.02-1.01,76.16c6.64-7.02,12.98-14.34,19.97-20.99
				c18.89-17.97,43.21-27.06,65.6-39.24c30.87-16.81,41.25-55.26,22.46-84.67C309.94,607.47,305.72,604.18,297.06,612.98z
				 M522.55,193.96c17.35-16.57,33.28-34.25,46.62-54.23c1.77-2.65,2.5-7.04,7.69-6.1c0.79,3.2,0.24,6.11-1.01,9.15
				c-8.38,20.39-16.74,40.79-24.79,61.31c-1.51,3.85-6.63,8.03-2.55,12.08c3.18,3.16,8.56,1.58,13.03,1.05
				c33.28-3.91,53.1-31.17,53.49-61.8c0.46-35.9-8.27-71.8-0.3-108.41c-18.47,24.03-43.4,37.9-69.67,50.11
				c-8.53,3.96-16.9,8.63-24.55,14.08c-25.71,18.33-31,56.22-12.45,81.78C513.27,200.16,516.55,199.7,522.55,193.96z M222.81,540.69
				c-0.79-8.7-2.92-14.05-13.91-10.83c-19.81,5.81-39.55,11.6-58.18,20.66c-5.08,2.47-10.18,5.56-18.01,2.41
				c22.93-18.46,45.08-36.28,67.38-54.23c-35.29-26.6-78.42-12.28-96.41,31.27c-11.7,28.32-25.03,55.72-44.39,79.77c0,0,0,0,0,0
				c-1.17,1.05-2.35,2.1-3.52,3.15c2.31,1.75,3.87,1,4.9-1.48c19.36-6.09,38.96-11.45,59.46-9.25c16.64,1.79,33.29,1.64,49.84,0.74
				C200.14,601.26,225.52,570.64,222.81,540.69z M433.04,629.71c-7.2-3.17-11.01-2.89-13.57,6.02
				c-6.24,21.72-11.11,43.6-12.97,66.13c-0.36,4.4,1.47,9.98-6.72,11.7c-3.59-25.36-7.49-50.16-10.42-75.07
				c-1.13-9.63-4.12-9.98-11.59-5.56c-25.85,15.3-35.69,49.39-21.17,78.18c16.89,33.49,44.79,60.64,56.52,97.65
				c3.33-10.68,4.45-20.68,8.38-30.49c9.46-23.67,25.15-43.47,37.75-65.16C476.59,683.26,464.45,643.55,433.04,629.71z
				 M639.73,428.86c-2.19,5.75,4.06,11.38,7.99,16.23c5.45,6.73,12.22,11.84,20.16,15.51c22.9,10.58,43.87,4.97,63.91-7.6
				c29.21-18.32,56.08-40.81,90.45-50.53c-23.88-1.83-42.39-8.35-66.67-24.57c-12.34-8.25-24.05-17.48-37.5-24
				c-29.08-14.09-63.64-2.05-78.2,26.61c-4.47,8.8-2.73,12.84,6.53,15.46c24.27,6.84,48.64,12.86,74.01,13.73
				c3.88,0.13,9.23-1.64,10.43,5.38c-25.38,3.34-50.3,6.54-75.21,9.95C650.07,425.78,641.77,423.49,639.73,428.86z M211.97,118.76
				c-0.6,15.31-1.25,30.68-0.55,45.97c1.47,31.84,34.41,57.74,64.82,52.14c7.26-1.34,9.8-3.16,7.69-11.38
				c-5.71-22.29-12.28-44.18-22.74-64.75c-1.77-3.48-4.94-6.65-2.05-11.05c5.86-0.69,7.4,4.42,10.01,7.72
				c13.45,16.93,26.97,33.83,39.91,51.15c4.75,6.36,7.14,6.49,10.97-0.54c8.39-15.41,10.81-31.22,5.5-48.14
				c-6.98-22.24-24.69-33.45-44.01-42.67C254.72,84.42,227.62,72.22,204.52,53c-0.73,0.72-1.45,1.45-2.18,2.17
				C211.13,75.52,212.83,96.9,211.97,118.76z M598.33,269.16c0.65,7.02,2.73,10.07,9.95,7.93c12.04-3.56,24.32-6.41,36.09-10.7
				c14.94-5.44,29.47-12.02,44.92-18.42c-0.87,6.94-5.48,9.18-9.15,12.07c-18.04,14.19-36.16,28.28-54.22,42.45
				c-3.38,2.65-8.42,4.39-1.44,9.57c22.03,16.34,57.93,10.93,75.22-10.78c25.88-32.5,34.2-75.13,63.15-106.14
				c-27.34,11.66-55.06,11.24-83.01,9.06c-8.07-0.63-16.21-1.37-24.26-0.98C619.15,205,595,233.23,598.33,269.16z M742.86,577.82
				c-17.45-18.65-24.75-43.38-38.09-64.55c-18.69-29.67-53.68-38.17-82.85-19.51c-9.19,5.88-10,9.98-2.04,17.92
				c17.6,17.57,36.02,33.96,57.25,47.01c2.67,1.64,6.58,3.15,4.94,6.86c-2.25,5.07-5.2,0.34-7.57-0.58
				c-20.81-8.08-41.52-16.4-62.32-24.49c-4.89-1.9-10.93-7.51-14.63-4.3c-4.65,4.04-1.61,11.79-1.11,17.96
				c0.07,0.87,0.61,1.69,0.84,2.56c8.8,33.32,32.82,48.72,73.64,45.59c30.49-2.34,60.86-6.68,92.62-3.94
				C756.63,591.52,749.49,584.91,742.86,577.82z M83.49,232.27c13.54,17.75,20.46,38.97,31.99,57.72
				c15.91,25.88,44.91,35.93,72.35,24.93c22.65-9.08,23.36-12.47,6.31-29.61c-18.13-18.22-38.09-34.21-61.44-47.96
				c7.83-2.98,12.64,0.37,17.44,2.26c21.31,8.41,42.7,16.71,63.62,26.03c10.21,4.55,11.75,0.63,11.27-8.16
				c-1.63-30.33-23.29-54.37-53.53-56.06c-38.14-2.13-76.3,4.72-114.54,1.14c-0.16-0.02-0.39,0.66-0.87,1.51
				C67.19,211.48,75.41,221.67,83.49,232.27z M609.58,695.19c0.53-15.3,1.19-30.61,1.04-45.91c-0.32-32.12-16.37-53.95-45.16-61.25
				c-9.08-2.3-20.24-4.97-27.22,1.32c-6.44,5.81,1.75,14.92,2.29,22.72c0.06,0.85,0.75,1.65,0.95,2.51
				c5.32,22.75,16.81,43.16,23.46,66.36c-1.57-1.5-3.34-2.84-4.69-4.52c-15.74-19.68-31.87-39.07-46.9-59.28
				c-6.44-8.66-9.48-7.22-13.51,1.14c-7.83,16.23-9.09,32.63-2.51,49.61c9.44,24.39,31.54,33.33,52.65,43.32
				c24.73,11.71,49.9,22.57,70.67,41.94C613.88,734.17,608.88,715.23,609.58,695.19z M387.27,174.43
				c8.63,4.28,12.66,2.87,14.86-6.83c5.66-25.04,13.59-49.63,13.23-75.73c-0.04-2.62-1.96-6.44,2.8-7.87
				c4.85,3.83,4.17,9.63,4.86,14.7c3.03,22.28,6.23,44.55,8.38,66.92c0.97,10.06,3.73,11.36,12.2,6.39
				c24.38-14.3,35.19-47.37,23.84-73.07c-6.19-14.02-14.54-26.67-23.27-39.08c-13.68-19.47-25.29-40.08-35.51-62.25
				c-3.62,23.77-13.7,44.14-26.63,63.39c-6.53,9.72-13.17,19.39-19.21,29.42C344.63,120.61,356.09,158.99,387.27,174.43z
				 M525.7,465.82c8.46-0.79,9.96-4.04,5.48-11.18c-5.53-8.79-3.01-17.12,6.51-21c8.74-3.55,8.98-6.4,1.68-12.72
				c-7.35-6.38-7.68-14.41,1.3-20.78c7.16-5.1,6.95-9.03-0.98-13.54c-8.74-4.99-10.8-12.4-3.66-20.46
				c6.62-7.52,4.23-10.34-4.69-11.96c-8.22-1.49-13.32-11.94-9.2-18.94c5.16-8.71,2.2-11.15-6.67-11.1
				c-10.04,0.08-16.55-7-14.3-16.25c2.17-8.87-1.19-10.77-8.87-8.55c-10.23,2.98-17.93-1.68-18.48-11.83
				c-0.46-8.27-3.64-10.26-10.83-5.78c-9.28,5.78-16.55,3.36-21.22-7.16c-2.98-6.81-6.38-8.06-11.67-2.12
				c-7.81,8.71-15.14,9.41-22.44-1.14c-3.88-5.56-8.25-6.13-12.1,1.11c-4.83,9.03-13.86,10.91-21.05,4.42
				c-6.46-5.81-9.71-4.96-11.78,3.53c-2.55,10.5-10.42,14.35-19.94,9.85c-8.33-3.96-10.36-0.14-10.23,7.03
				c0.49,10.31-6.35,16.77-15.84,14.65c-8.28-1.82-11.23,0.79-8.87,8.84c3.2,11.04-0.65,17.01-12.45,18.91
				c-6.86,1.11-9.66,3.72-4.94,10.8c6.32,9.5,3.42,16.79-8,21.68c-6.27,2.69-7.6,6.43-2.12,10.77c10.12,8.03,10.26,15.27-0.14,23.17
				c-5.53,4.21-5.89,8.3,1.3,12.1c8.82,4.67,10.8,14.22,4.42,21.11c-7.05,7.6-3.85,10.17,4.42,12.18
				c10.17,2.5,13.59,9.36,9.22,18.88c-3.96,8.71-1.87,11.29,7.54,10.74c9.69-0.57,15.22,7,13.43,17.04
				c-1.49,8.27,1.33,10.85,9.39,7.79c9.44-3.58,17.55,1.71,18.21,12.07c0.49,7.49,3.28,9.96,10.2,6.05
				c10.55-5.94,16.82-3.96,21.79,7.11c3.12,7,6.95,7.68,11.77,1.74c7.33-9.01,14.68-8.03,21.68,0.19c4.88,5.75,8.65,7.24,13-0.76
				c4.61-8.52,13.86-10.07,21.19-3.34c6.46,5.89,9.22,3.26,11.23-3.39c3.5-11.5,9.66-14.62,20.7-10.2c7.05,2.82,10.12,0.84,9.63-7
				c-0.68-10.88,5.94-16.9,16.12-14.73c8.76,1.87,10.74-1.6,8.33-9.33C510.64,474.2,515.2,466.8,525.7,465.82z M468.56,328.32
				c9.71,0.87,15.14,6.86,16.5,15.65c0.19,9.69-8.38,18.61-17.17,17.93c-9.88-0.76-15.49-6.95-16.52-16.47
				C450.44,337.17,460.1,327.56,468.56,328.32z M412.05,304.53c9.58,0.92,14.65,7.22,15.44,16.77c0.73,8.95-8.44,17.34-17.61,16.36
				c-10.07-1.09-15.17-7.54-15.33-17.31C394.39,311.45,402.55,304.26,412.05,304.53z M329.03,418.8
				c-9.22-0.49-14.95-6.16-16.2-15.65c-1.17-8.9,7.27-17.23,16.52-17.34c9.47-0.11,17.36,7.65,17.15,16.82
				C346.31,410.88,338.31,418.64,329.03,418.8z M369.42,460.48c-0.43,10.12-7.41,16.14-16.98,17.82
				c-6.67,1.17-16.71-10.55-16.03-18.39c0.95-10.5,7.11-16.06,19.51-16.44C363.92,445.07,369.83,450.76,369.42,460.48z
				 M352.82,361.48c-9.5-1.19-16.03-7.14-15.95-16.85c0.08-9.58,6.35-15.79,16.01-16.77c8.46-0.87,17.74,8.52,17.69,16.74
				C370.54,352.85,360.93,362.51,352.82,361.48z M409.66,500.66c-9.85-0.81-15.33-6.89-15.98-16.55
				c-0.6-8.98,8.25-17.58,17.15-16.74c9.71,0.9,15.11,6.7,15.93,14.84C426.81,493.06,418.69,501.42,409.66,500.66z M410.53,443.03
				c-21.65-0.27-39.34-18.1-39.56-39.8c-0.24-22.03,18.1-40.97,39.8-41.13c21.7-0.19,40.29,18.64,40.21,40.7
				C450.93,425.15,432.64,443.33,410.53,443.03z M466.8,477.3c-9.55-1.36-15.36-7.35-15.84-17.15c-0.41-8.63,9.22-17.58,17.77-16.55
				c9.71,1.22,14.98,7.3,15.9,16.25C484.35,469.48,475.21,478.52,466.8,477.3z M491.76,419.26c-9.77-0.08-16.01-5.83-16.58-16.03
				c-0.54-9.58,7.49-17.34,17.07-16.88c10.47,0.52,14.76,7.19,16.03,16.28C507.22,413.08,501.77,419.35,491.76,419.26z"/>
		</g>
	</g>
	<g>
		<path d="M66.93,987.29H55.34l-6.32-15.32H22.03l-6.32,15.32H4.04l25.37-60.78h12.24L66.93,987.29z M43.83,959.81l-8.27-20.02
			l-8.35,20.02H43.83z"/>
		<path d="M132.24,987.29h-14.99L85,941.01v46.28H73.82v-60.78h14.42l32.9,46.19v-46.19h11.1V987.29z"/>
		<path d="M179.54,930.56c4.67,2.7,8.37,6.39,11.1,11.07c2.73,4.67,4.1,9.76,4.1,15.27c0,5.52-1.37,10.59-4.1,15.24
			c-2.73,4.65-6.43,8.33-11.1,11.07c-4.67,2.73-9.74,4.09-15.2,4.09h-19.69v-60.78h19.69C169.8,926.51,174.86,927.86,179.54,930.56z
			 M173.82,973.59c2.97-1.73,5.34-4.07,7.09-7.01c1.76-2.94,2.63-6.17,2.63-9.69c0-3.51-0.88-6.74-2.63-9.68
			c-1.75-2.94-4.12-5.28-7.09-7.01c-2.97-1.73-6.19-2.59-9.64-2.59h-8.43v38.58h8.43C167.63,976.19,170.85,975.32,173.82,973.59z"/>
		<path d="M252.84,987.29H241.9v-25.77h-28.28v25.77h-11.02v-60.78h11.02v24.15h28.28v-24.15h10.94V987.29z"/>
		<path d="M301.38,987.29L287.28,968h-11.19v19.29h-10.61v-60.78h27.72c3.45,0,6.62,0.86,9.48,2.59s5.15,4.15,6.85,7.25
			c1.7,3.1,2.55,6.6,2.55,10.49c-0.22,3.24-0.89,6.11-2.02,8.59s-2.58,4.58-4.34,6.28c-1.76,1.7-3.85,3.2-6.28,4.5l15.48,21.07
			H301.38z M296.48,955.52c1.43-0.86,2.57-2.03,3.4-3.48c0.84-1.46,1.25-3.05,1.25-4.78c0-1.67-0.42-3.24-1.25-4.7
			c-0.84-1.45-1.97-2.61-3.4-3.44s-3.01-1.25-4.74-1.25h-15.64v18.96h15.64C293.47,956.81,295.05,956.38,296.48,955.52z"/>
		<path d="M384.93,987.29h-11.59l-6.32-15.32h-26.99l-6.32,15.32h-11.67l25.37-60.78h12.24L384.93,987.29z M361.83,959.81
			l-8.27-20.02l-8.35,20.02H361.83z"/>
		<path d="M451.27,929.26c3.16,1.84,5.66,4.35,7.5,7.54c1.83,3.18,2.76,6.64,2.76,10.37c0,3.78-0.92,7.25-2.76,10.41
			c-1.84,3.16-4.34,5.69-7.5,7.58s-6.63,2.84-10.41,2.84H425.7v19.29h-11.02v-60.78h26.18C444.63,926.51,448.1,927.42,451.27,929.26
			z M445.84,955.44c1.43-0.86,2.57-2.04,3.4-3.53c0.84-1.48,1.25-3.06,1.25-4.74c0-1.68-0.42-3.23-1.25-4.66s-1.97-2.57-3.4-3.4
			s-2.98-1.25-4.66-1.25H425.7v18.88h15.48C442.85,956.73,444.4,956.3,445.84,955.44z"/>
		<path d="M506.18,987.29L492.07,968h-11.19v19.29h-10.61v-60.78h27.72c3.45,0,6.62,0.86,9.48,2.59s5.15,4.15,6.85,7.25
			c1.7,3.1,2.55,6.6,2.55,10.49c-0.22,3.24-0.89,6.11-2.02,8.59s-2.58,4.58-4.34,6.28c-1.76,1.7-3.85,3.2-6.28,4.5l15.48,21.07
			H506.18z M501.27,955.52c1.43-0.86,2.57-2.03,3.4-3.48c0.84-1.46,1.25-3.05,1.25-4.78c0-1.67-0.42-3.24-1.25-4.7
			c-0.84-1.45-1.97-2.61-3.4-3.44s-3.01-1.25-4.74-1.25h-15.64v18.96h15.64C498.26,956.81,499.84,956.38,501.27,955.52z"/>
		<path d="M589.72,987.29h-11.59l-6.32-15.32h-26.99l-6.32,15.32h-11.67l25.37-60.78h12.24L589.72,987.29z M566.63,959.81
			l-8.27-20.02l-8.35,20.02H566.63z"/>
		<path d="M631.74,930.56c4.67,2.7,8.37,6.39,11.1,11.07c2.73,4.67,4.1,9.76,4.1,15.27c0,5.52-1.37,10.59-4.1,15.24
			c-2.73,4.65-6.43,8.33-11.1,11.07c-4.67,2.73-9.74,4.09-15.2,4.09h-19.69v-60.78h19.69C622.01,926.51,627.07,927.86,631.74,930.56
			z M626.03,973.59c2.97-1.73,5.34-4.07,7.09-7.01c1.76-2.94,2.63-6.17,2.63-9.69c0-3.51-0.88-6.74-2.63-9.68
			c-1.75-2.94-4.12-5.28-7.09-7.01c-2.97-1.73-6.19-2.59-9.64-2.59h-8.43v38.58h8.43C619.84,976.19,623.06,975.32,626.03,973.59z"/>
		<path d="M696.21,937.37h-31.53v13.21h28.85v10.94h-28.85v14.91h31.53v10.86h-42.39v-60.78h42.39V937.37z"/>
		<path d="M741.48,940.61c-0.62-0.54-1.5-1.11-2.63-1.7c-3.68-2.06-7.84-2.78-12.48-2.19c-1.62,0.27-2.97,0.73-4.05,1.37
			c-1.08,0.65-1.84,1.65-2.27,3c-0.38,0.65-0.48,1.52-0.29,2.63c0.19,1.11,0.58,2.1,1.17,2.96c0.7,0.81,1.54,1.48,2.51,2.03
			c0.43,0.32,1.01,0.62,1.74,0.89c0.73,0.27,1.63,0.54,2.72,0.81l4.05,0.97c4.92,1.03,8.73,2.14,11.43,3.32
			c2.7,1.19,4.81,2.51,6.32,3.98c1.89,1.73,3.25,4.17,4.09,7.33s0.66,6.5-0.53,10.01c-0.7,1.52-1.85,3.15-3.44,4.9
			c-1.59,1.76-3.36,3.23-5.31,4.42c-1.56,0.7-3.13,1.32-4.7,1.86c-1.57,0.54-2.97,0.86-4.22,0.97c-3.35,0.59-6.64,0.61-9.89,0.04
			s-6.48-1.69-9.73-3.36c-2.92-1.62-5.33-3.6-7.25-5.92c-1.92-2.33-3.17-4.3-3.77-5.92l10.61-4.05c0.38,0.81,1.01,1.73,1.91,2.76
			c0.89,1.03,2.15,2.02,3.77,3c2.32,1.24,4.43,2.02,6.32,2.31c1.89,0.3,4.03,0.26,6.4-0.12c1.03-0.11,2.76-0.7,5.19-1.78
			c0.76-0.44,1.41-0.95,1.98-1.54s1.04-1.21,1.42-1.86c0.43-1.3,0.57-2.29,0.41-2.96c-0.17-0.68-0.49-1.2-0.97-1.58
			c-0.81-0.86-2.04-1.63-3.69-2.31s-4.55-1.39-8.71-2.15l-4.38-1.13c-1.84-0.49-3.36-0.96-4.58-1.42c-1.22-0.46-2.39-1.09-3.53-1.9
			c-1.08-0.7-2.07-1.44-2.96-2.23c-0.89-0.78-1.55-1.39-1.99-1.82c-1.67-2.11-2.82-4.85-3.44-8.23c-0.62-3.38-0.42-6.36,0.61-8.96
			c1.19-3.29,3.23-5.94,6.12-7.94c2.89-2,5.96-3.24,9.2-3.73c2.97-0.38,6.17-0.34,9.61,0.12c3.43,0.46,6.71,1.55,9.85,3.28
			c3.78,1.95,6.64,4.46,8.59,7.54l-9.56,6.32C742.65,941.82,742.09,941.15,741.48,940.61z"/>
		<path d="M814.62,987.29h-10.94v-25.77h-28.28v25.77h-11.02v-60.78h11.02v24.15h28.28v-24.15h10.94V987.29z"/>
	</g>
	<g>
		<path d="M163.73,1039.12v40.36h-4.02v-40.36H163.73z"/>
		<path d="M190.28,1057.23c-1.31-1.27-3.09-1.9-5.37-1.9c-1.56,0-2.99,0.35-4.28,1.04c-1.28,0.69-2.29,1.6-3.02,2.74
			c-0.73,1.14-1.09,2.34-1.09,3.6v16.77h-4.08v-28.45h4.08v4.86c0.64-1.12,1.36-2.03,2.18-2.74c0.82-0.71,1.76-1.24,2.82-1.59
			c1.07-0.36,2.25-0.53,3.55-0.53c2.2,0,4.15,0.46,5.84,1.37s3.02,2.19,3.97,3.83c0.95,1.64,1.43,3.49,1.43,5.54v17.72h-4.08v-17.33
			C192.23,1060.14,191.58,1058.5,190.28,1057.23z"/>
		<path d="M229.01,1079.48h-4.03v-5.65c-1.15,2.05-2.59,3.58-4.33,4.59c-1.74,1-3.55,1.51-5.45,1.51c-2.46,0-4.74-0.66-6.82-1.98
			c-2.08-1.32-3.73-3.09-4.95-5.31c-1.21-2.22-1.82-4.62-1.82-7.18c0-2.57,0.61-4.97,1.82-7.18c1.21-2.22,2.86-3.99,4.95-5.31
			c2.08-1.32,4.36-1.99,6.82-1.99c1.27,0,2.49,0.22,3.69,0.64c1.19,0.43,2.32,1.1,3.38,2.02c1.06,0.91,1.96,2.06,2.71,3.44V1038
			h4.03V1079.48z M220.15,1074.56c1.47-0.93,2.65-2.2,3.52-3.8c0.88-1.6,1.31-3.37,1.31-5.31c0-1.94-0.44-3.71-1.31-5.31
			c-0.88-1.6-2.05-2.87-3.52-3.8c-1.47-0.93-3.06-1.4-4.78-1.4s-3.31,0.46-4.78,1.4c-1.47,0.93-2.65,2.2-3.52,3.8
			c-0.88,1.6-1.32,3.37-1.32,5.31c0,1.94,0.44,3.71,1.32,5.31c0.87,1.6,2.04,2.87,3.52,3.8c1.47,0.93,3.07,1.4,4.78,1.4
			S218.68,1075.49,220.15,1074.56z"/>
		<path d="M241.59,1038.39v4.59h-4.58v-4.59H241.59z M241.37,1051.03v28.45h-4.02v-28.45H241.37z"/>
		<path d="M275.24,1079.48h-4.03v-5.59c-0.85,1.41-1.8,2.57-2.85,3.44c-1.04,0.88-2.14,1.52-3.27,1.93
			c-1.14,0.41-2.29,0.61-3.44,0.61c-2.46,0-4.73-0.66-6.79-1.98c-2.07-1.32-3.71-3.08-4.92-5.28c-1.21-2.2-1.82-4.57-1.82-7.1
			c0-2.57,0.61-4.94,1.82-7.13c1.21-2.18,2.85-3.92,4.92-5.22c2.07-1.31,4.33-1.96,6.79-1.96c1.75,0,3.47,0.49,5.17,1.45
			s3.16,2.44,4.39,4.42v-6.04h4.03V1079.48z M266.41,1074.48c1.45-0.92,2.62-2.15,3.49-3.72c0.88-1.57,1.31-3.32,1.31-5.26
			c0-1.94-0.44-3.69-1.31-5.25c-0.88-1.56-2.04-2.8-3.49-3.72c-1.45-0.91-3.02-1.37-4.69-1.37c-1.68,0-3.24,0.46-4.7,1.37
			c-1.45,0.92-2.62,2.16-3.49,3.75s-1.31,3.33-1.31,5.22c0,1.9,0.44,3.64,1.31,5.23c0.88,1.58,2.04,2.83,3.49,3.75
			c1.45,0.91,3.02,1.37,4.7,1.37C263.39,1075.85,264.96,1075.39,266.41,1074.48z"/>
		<path d="M285.75,1045.66h-2.9l1.73-9.16h4.36L285.75,1045.66z"/>
		<path d="M312.13,1056.06c-0.9-0.6-1.86-0.99-2.88-1.17c-1.03-0.18-2.1-0.26-3.21-0.22c-0.93,0.11-1.75,0.33-2.46,0.64
			c-0.71,0.32-1.27,0.83-1.68,1.54c-0.34,0.7-0.46,1.31-0.37,1.82c0.1,0.5,0.34,0.98,0.76,1.43l0.34,0.39
			c0.48,0.41,0.89,0.69,1.23,0.84l0.28,0.22c0.74,0.49,1.49,0.84,2.23,1.07l1.96,0.56c2.31,0.64,4.09,1.27,5.34,1.9
			c1.25,0.64,2.17,1.31,2.77,2.02c0.78,0.85,1.33,1.95,1.65,3.29c0.32,1.35,0.1,2.78-0.64,4.31c-0.45,0.82-1.02,1.52-1.71,2.1
			c-0.69,0.58-1.46,1.07-2.32,1.48c-1.53,0.71-2.93,1.08-4.19,1.12c-1.53,0.15-2.98,0.06-4.36-0.27c-1.38-0.34-2.78-0.93-4.19-1.79
			c-1.16-0.74-2.07-1.57-2.74-2.49c-0.67-0.91-1.19-1.76-1.56-2.54l-0.06-0.11l3.69-1.79l0.06,0.11c0.37,0.71,0.74,1.32,1.12,1.84
			c0.37,0.52,0.91,1.03,1.62,1.51c1.12,0.67,2.13,1.11,3.02,1.32c0.89,0.21,1.94,0.27,3.13,0.19c0.86-0.07,1.75-0.34,2.69-0.78
			c0.63-0.3,1.1-0.57,1.4-0.81s0.54-0.57,0.73-0.98c0.18-0.41,0.32-0.82,0.39-1.23c0-0.56-0.24-1.15-0.73-1.79
			c-0.41-0.45-1.05-0.88-1.93-1.28c-0.88-0.41-2.3-0.88-4.27-1.4l-1.96-0.56c-1.49-0.48-2.7-1.06-3.63-1.74
			c-1.04-0.59-1.81-1.23-2.29-1.9c-0.86-0.93-1.44-2.1-1.76-3.49c-0.32-1.4-0.1-2.88,0.65-4.44c0.82-1.45,1.94-2.5,3.35-3.16
			c1.41-0.65,2.8-1.04,4.14-1.15c1.38-0.11,2.84-0.02,4.36,0.27c1.52,0.3,2.96,0.9,4.3,1.79c1.38,0.89,2.51,2.05,3.41,3.47
			l-3.47,2.12C313.64,1057.36,312.91,1056.62,312.13,1056.06z"/>
		<path d="M361.35,1046.86c-0.5-0.58-1.13-1.15-1.87-1.71c-2.35-1.71-5.18-2.46-8.49-2.23c-1.41,0.15-2.67,0.48-3.77,0.98
			c-1.1,0.5-1.98,1.37-2.65,2.59c-0.53,1.27-0.71,2.41-0.56,3.41c0.15,1,0.54,1.92,1.17,2.74c0.64,0.71,1.41,1.41,2.35,2.13
			c0.67,0.45,1.29,0.83,1.87,1.15c0.58,0.32,1.2,0.58,1.87,0.81l2.62,0.89c3.06,0.93,5.38,1.86,6.99,2.77
			c1.6,0.92,2.81,1.84,3.63,2.77c0.97,1.23,1.64,2.76,2.02,4.59c0.37,1.83,0.09,3.72-0.84,5.7c-0.6,1.12-1.34,2.07-2.23,2.85
			c-0.89,0.78-1.88,1.45-2.96,2.01c-0.89,0.41-1.84,0.77-2.82,1.09c-0.99,0.32-1.87,0.5-2.65,0.53c-2.02,0.19-3.94,0.02-5.79-0.5
			c-1.84-0.52-3.66-1.41-5.45-2.68c-1.56-1.12-2.82-2.41-3.77-3.86c-0.95-1.45-1.58-2.68-1.87-3.69l4.03-1.23
			c0.19,0.74,0.61,1.63,1.28,2.65c0.68,1.03,1.6,1.95,2.8,2.77c1.45,1.01,2.84,1.7,4.14,2.07c1.3,0.37,2.77,0.49,4.41,0.34
			c1.08-0.07,2.35-0.46,3.8-1.17c0.82-0.41,1.49-0.85,2.01-1.31c0.52-0.47,0.99-1.05,1.4-1.76c0.52-1.15,0.68-2.21,0.48-3.16
			c-0.21-0.95-0.61-1.8-1.2-2.54c-0.52-0.64-1.41-1.29-2.68-1.99c-1.27-0.69-3.28-1.46-6.04-2.32l-2.63-0.89
			c-0.85-0.26-1.66-0.6-2.4-1.03c-0.74-0.43-1.53-0.92-2.35-1.48c-0.71-0.48-1.33-0.99-1.87-1.51c-0.54-0.52-0.96-0.95-1.25-1.29
			c-1.05-1.27-1.75-2.83-2.1-4.69c-0.36-1.87-0.05-3.84,0.92-5.93c1.04-2.01,2.47-3.47,4.3-4.36s3.65-1.41,5.48-1.56
			c1.87-0.11,3.77,0.05,5.73,0.48c1.95,0.43,3.81,1.28,5.56,2.54c1.86,1.37,3.32,3.04,4.36,4.97l-3.58,2.02
			C362.31,1048.08,361.85,1047.44,361.35,1046.86z"/>
		<path d="M380.22,1073.28c1.3,1.27,3.09,1.9,5.36,1.9c1.72,0,3.21-0.34,4.47-1.01c1.27-0.67,2.23-1.56,2.9-2.68
			c0.68-1.12,1.01-2.33,1.01-3.64v-17.05h4.08v28.67h-4.08v-4.81c-0.71,1.23-1.44,2.19-2.21,2.88c-0.77,0.69-1.65,1.19-2.66,1.48
			c-1,0.3-2.23,0.45-3.69,0.45c-2.16,0-4.1-0.46-5.81-1.37s-3.05-2.18-4-3.8c-0.95-1.62-1.42-3.45-1.42-5.5v-17.77h4.08v17.33
			C378.26,1070.37,378.91,1072.01,380.22,1073.28z"/>
		<path d="M423.37,1057.23c-1.31-1.27-3.09-1.9-5.37-1.9c-1.56,0-2.99,0.35-4.28,1.04c-1.28,0.69-2.29,1.6-3.02,2.74
			c-0.73,1.14-1.09,2.34-1.09,3.6v16.77h-4.08v-28.45h4.08v4.86c0.64-1.12,1.36-2.03,2.18-2.74c0.82-0.71,1.76-1.24,2.82-1.59
			c1.07-0.36,2.25-0.53,3.55-0.53c2.2,0,4.15,0.46,5.84,1.37s3.02,2.19,3.97,3.83c0.95,1.64,1.43,3.49,1.43,5.54v17.72h-4.08v-17.33
			C425.32,1060.14,424.67,1058.5,423.37,1057.23z"/>
		<path d="M444.52,1051.42c1.8-1.08,3.69-1.62,5.67-1.62v4.14c-1.64,0-3.2,0.53-4.7,1.59c-1.49,1.07-2.67,2.39-3.55,3.97
			c-0.88,1.59-1.32,3.14-1.32,4.67v15.32h-4.02v-29.68h4.02v5.98C441.42,1053.95,442.71,1052.5,444.52,1051.42z"/>
		<path d="M460.82,1038.39v4.59h-4.58v-4.59H460.82z M460.59,1051.03v28.45h-4.02v-28.45H460.59z"/>
		<path d="M483.01,1056.06c-0.9-0.6-1.86-0.99-2.88-1.17c-1.03-0.18-2.1-0.26-3.21-0.22c-0.93,0.11-1.75,0.33-2.46,0.64
			c-0.71,0.32-1.27,0.83-1.68,1.54c-0.34,0.7-0.46,1.31-0.37,1.82c0.1,0.5,0.34,0.98,0.76,1.43l0.34,0.39
			c0.48,0.41,0.89,0.69,1.23,0.84l0.28,0.22c0.74,0.49,1.49,0.84,2.23,1.07l1.96,0.56c2.31,0.64,4.09,1.27,5.34,1.9
			c1.25,0.64,2.17,1.31,2.77,2.02c0.78,0.85,1.33,1.95,1.65,3.29c0.32,1.35,0.1,2.78-0.64,4.31c-0.45,0.82-1.02,1.52-1.71,2.1
			c-0.69,0.58-1.46,1.07-2.32,1.48c-1.53,0.71-2.93,1.08-4.19,1.12c-1.53,0.15-2.98,0.06-4.36-0.27c-1.38-0.34-2.78-0.93-4.19-1.79
			c-1.16-0.74-2.07-1.57-2.74-2.49c-0.67-0.91-1.19-1.76-1.56-2.54l-0.06-0.11l3.69-1.79l0.06,0.11c0.37,0.71,0.74,1.32,1.12,1.84
			c0.37,0.52,0.91,1.03,1.62,1.51c1.12,0.67,2.13,1.11,3.02,1.32c0.89,0.21,1.94,0.27,3.13,0.19c0.86-0.07,1.75-0.34,2.69-0.78
			c0.63-0.3,1.1-0.57,1.4-0.81s0.54-0.57,0.73-0.98c0.18-0.41,0.32-0.82,0.39-1.23c0-0.56-0.24-1.15-0.73-1.79
			c-0.41-0.45-1.05-0.88-1.93-1.28c-0.88-0.41-2.3-0.88-4.27-1.4l-1.96-0.56c-1.49-0.48-2.7-1.06-3.63-1.74
			c-1.04-0.59-1.81-1.23-2.29-1.9c-0.86-0.93-1.44-2.1-1.76-3.49c-0.32-1.4-0.1-2.88,0.65-4.44c0.82-1.45,1.94-2.5,3.35-3.16
			c1.41-0.65,2.8-1.04,4.14-1.15c1.38-0.11,2.84-0.02,4.36,0.27c1.52,0.3,2.96,0.9,4.3,1.79c1.38,0.89,2.51,2.05,3.41,3.47
			l-3.47,2.12C484.52,1057.36,483.79,1056.62,483.01,1056.06z"/>
		<path d="M520.46,1062.66c0.18,1.45,0.21,2.8,0.06,4.02h-22.3c0.19,1.72,0.73,3.27,1.65,4.64c0.91,1.38,2.05,2.46,3.41,3.24
			c1.36,0.78,2.84,1.17,4.44,1.17c1.79,0,3.36-0.41,4.73-1.23c1.36-0.82,2.43-1.8,3.21-2.96l3.41,1.74
			c-1.08,1.79-2.61,3.3-4.58,4.53c-1.98,1.23-4.25,1.84-6.82,1.84c-2.5,0-4.77-0.65-6.82-1.95c-2.05-1.31-3.66-3.06-4.83-5.26
			c-1.17-2.19-1.76-4.58-1.76-7.15c0-2.57,0.59-4.95,1.76-7.15c1.17-2.2,2.78-3.95,4.83-5.25c2.04-1.31,4.32-1.96,6.82-1.96
			c2.39,0,4.43,0.56,6.12,1.68s2.97,2.26,3.83,3.44c0.86,1.17,1.4,2.04,1.62,2.6C519.87,1059.86,520.27,1061.2,520.46,1062.66z
			 M514.81,1058.74c-0.85-1.23-1.91-2.19-3.16-2.88c-1.25-0.69-2.58-1.04-4-1.04c-1.45,0-2.83,0.35-4.14,1.04
			c-1.31,0.69-2.41,1.64-3.33,2.85c-0.91,1.21-1.52,2.58-1.82,4.11h18.23C516.27,1061.33,515.67,1059.97,514.81,1058.74z"/>
		<path d="M563.98,1046.86c-0.5-0.58-1.13-1.15-1.87-1.71c-2.35-1.71-5.18-2.46-8.49-2.23c-1.41,0.15-2.67,0.48-3.77,0.98
			c-1.1,0.5-1.98,1.37-2.65,2.59c-0.53,1.27-0.71,2.41-0.56,3.41c0.15,1,0.54,1.92,1.17,2.74c0.64,0.71,1.41,1.41,2.35,2.13
			c0.67,0.45,1.29,0.83,1.87,1.15c0.58,0.32,1.2,0.58,1.87,0.81l2.62,0.89c3.06,0.93,5.38,1.86,6.99,2.77
			c1.6,0.92,2.81,1.84,3.63,2.77c0.97,1.23,1.64,2.76,2.02,4.59s0.09,3.72-0.84,5.7c-0.6,1.12-1.34,2.07-2.23,2.85
			c-0.89,0.78-1.88,1.45-2.96,2.01c-0.89,0.41-1.84,0.77-2.82,1.09c-0.99,0.32-1.87,0.5-2.65,0.53c-2.02,0.19-3.94,0.02-5.79-0.5
			c-1.84-0.52-3.66-1.41-5.45-2.68c-1.56-1.12-2.82-2.41-3.77-3.86c-0.95-1.45-1.58-2.68-1.87-3.69l4.03-1.23
			c0.19,0.74,0.61,1.63,1.28,2.65c0.68,1.03,1.6,1.95,2.8,2.77c1.45,1.01,2.84,1.7,4.14,2.07c1.3,0.37,2.77,0.49,4.41,0.34
			c1.08-0.07,2.35-0.46,3.8-1.17c0.82-0.41,1.49-0.85,2.01-1.31c0.52-0.47,0.99-1.05,1.4-1.76c0.52-1.15,0.68-2.21,0.48-3.16
			c-0.21-0.95-0.61-1.8-1.2-2.54c-0.52-0.64-1.41-1.29-2.68-1.99c-1.27-0.69-3.28-1.46-6.04-2.32l-2.63-0.89
			c-0.85-0.26-1.66-0.6-2.4-1.03c-0.74-0.43-1.53-0.92-2.35-1.48c-0.71-0.48-1.33-0.99-1.87-1.51c-0.54-0.52-0.96-0.95-1.25-1.29
			c-1.05-1.27-1.75-2.83-2.1-4.69c-0.36-1.87-0.05-3.84,0.92-5.93c1.04-2.01,2.47-3.47,4.3-4.36s3.65-1.41,5.48-1.56
			c1.87-0.11,3.77,0.05,5.73,0.48c1.95,0.43,3.81,1.28,5.56,2.54c1.86,1.37,3.32,3.04,4.36,4.97l-3.58,2.02
			C564.94,1048.08,564.48,1047.44,563.98,1046.86z"/>
		<path d="M574.4,1050.8h15.31v3.85H574.4V1050.8z M589.47,1078.84c-0.88,0.36-1.8,0.53-2.77,0.53c-1.37,0-2.65-0.34-3.83-1.03
			s-2.11-1.61-2.8-2.77c-0.69-1.16-1.03-2.42-1.03-3.8v-29.73h4.08v29.73c0,1.12,0.31,1.99,0.92,2.6s1.5,0.92,2.65,0.92
			c0.49,0,0.9-0.06,1.23-0.19c0.34-0.13,0.67-0.34,1.01-0.64l0.06-0.06l2.8,3.02C591.11,1078.01,590.34,1078.48,589.47,1078.84z"/>
		<path d="M622.86,1079.48h-4.03v-5.59c-0.85,1.41-1.8,2.57-2.85,3.44c-1.04,0.88-2.14,1.52-3.27,1.93
			c-1.14,0.41-2.29,0.61-3.44,0.61c-2.46,0-4.73-0.66-6.79-1.98s-3.71-3.08-4.92-5.28c-1.21-2.2-1.82-4.57-1.82-7.1
			c0-2.57,0.61-4.94,1.82-7.13c1.21-2.18,2.85-3.92,4.92-5.22c2.07-1.31,4.33-1.96,6.79-1.96c1.75,0,3.47,0.49,5.17,1.45
			s3.16,2.44,4.39,4.42v-6.04h4.03V1079.48z M614.03,1074.48c1.45-0.92,2.62-2.15,3.49-3.72c0.88-1.57,1.31-3.32,1.31-5.26
			c0-1.94-0.44-3.69-1.31-5.25c-0.88-1.56-2.04-2.8-3.49-3.72c-1.45-0.91-3.02-1.37-4.69-1.37c-1.68,0-3.24,0.46-4.7,1.37
			c-1.45,0.92-2.62,2.16-3.49,3.75c-0.88,1.59-1.31,3.33-1.31,5.22c0,1.9,0.44,3.64,1.31,5.23c0.88,1.58,2.04,2.83,3.49,3.75
			c1.45,0.91,3.02,1.37,4.7,1.37C611.01,1075.85,612.58,1075.39,614.03,1074.48z"/>
		<path d="M628.57,1050.8h15.31v3.85h-15.31V1050.8z M643.63,1078.84c-0.88,0.36-1.8,0.53-2.77,0.53c-1.37,0-2.65-0.34-3.83-1.03
			s-2.11-1.61-2.8-2.77c-0.69-1.16-1.03-2.42-1.03-3.8v-29.73h4.08v29.73c0,1.12,0.31,1.99,0.92,2.6s1.5,0.92,2.65,0.92
			c0.49,0,0.9-0.06,1.23-0.19c0.34-0.13,0.67-0.34,1.01-0.64l0.06-0.06l2.8,3.02C645.27,1078.01,644.5,1078.48,643.63,1078.84z"/>
		<path d="M676.13,1062.66c0.18,1.45,0.21,2.8,0.06,4.02h-22.3c0.19,1.72,0.73,3.27,1.65,4.64c0.91,1.38,2.05,2.46,3.41,3.24
			c1.36,0.78,2.84,1.17,4.44,1.17c1.79,0,3.36-0.41,4.73-1.23c1.36-0.82,2.43-1.8,3.21-2.96l3.41,1.74
			c-1.08,1.79-2.61,3.3-4.58,4.53c-1.98,1.23-4.25,1.84-6.82,1.84c-2.5,0-4.77-0.65-6.82-1.95c-2.05-1.31-3.66-3.06-4.83-5.26
			c-1.17-2.19-1.76-4.58-1.76-7.15c0-2.57,0.59-4.95,1.76-7.15c1.17-2.2,2.78-3.95,4.83-5.25c2.04-1.31,4.32-1.96,6.82-1.96
			c2.39,0,4.43,0.56,6.12,1.68s2.97,2.26,3.83,3.44c0.86,1.17,1.4,2.04,1.62,2.6C675.54,1059.86,675.94,1061.2,676.13,1062.66z
			 M670.48,1058.74c-0.85-1.23-1.91-2.19-3.16-2.88s-2.58-1.04-4-1.04c-1.45,0-2.83,0.35-4.14,1.04c-1.31,0.69-2.41,1.64-3.33,2.85
			c-0.91,1.21-1.52,2.58-1.82,4.11h18.23C671.94,1061.33,671.34,1059.97,670.48,1058.74z"/>
	</g>
</g>
</svg>
