<?xml version="1.0" encoding="utf-8"?>
<!-- Generator: Adobe Illustrator 26.0.3, SVG Export Plug-In . SVG Version: 6.00 Build 0)  -->
<svg version="1.1" id="Layer_1" xmlns="http://www.w3.org/2000/svg" xmlns:xlink="http://www.w3.org/1999/xlink" x="0px" y="0px"
	 viewBox="0 0 1060 1080" style="enable-background:new 0 0 1060 1080;" xml:space="preserve">
<style type="text/css">
	.st0{fill-rule:evenodd;clip-rule:evenodd;fill:#0078A9;}
	.st1{fill:#52237F;}
	.st2{fill-rule:evenodd;clip-rule:evenodd;fill:#F5A800;}
	.st3{fill-rule:evenodd;clip-rule:evenodd;fill:#0033A1;}
	.st4{fill-rule:evenodd;clip-rule:evenodd;fill:#E1251B;}
	.st5{fill-rule:evenodd;clip-rule:evenodd;fill:#FFFFFF;}
	.st6{fill-rule:evenodd;clip-rule:evenodd;fill:#FF0000;}
	.st7{fill:#F89F21;}
	.st8{fill:#28387D;}
	.st9{fill:#088C45;}
	.st10{fill:#F37A21;}
	.st11{fill-rule:evenodd;clip-rule:evenodd;fill:#E60005;}
	.st12{fill:#F1890B;}
	.st13{fill:url(#SVGID_1_);}
	.st14{fill:#000105;}
	.st15{fill:#231F20;}
	.st16{fill:#EF3E42;}
	.st17{fill:none;}
	.st18{fill:#DE4447;}
	.st19{fill:#EC1C24;}
	.st20{fill:#2A557C;}
	.st21{fill:#0071BB;}
	.st22{fill:#009DA4;}
	.st23{fill:#FFFFFF;}
	.st24{fill:#F05C61;}
	.st25{fill-rule:evenodd;clip-rule:evenodd;fill:#0054A5;}
	.st26{fill-rule:evenodd;clip-rule:evenodd;fill:#231F20;}
	.st27{fill:#00A7E0;}
	.st28{fill:#F25022;}
	.st29{fill:#80BA01;}
	.st30{fill:#777777;}
	.st31{fill:#02A4EF;}
	.st32{fill:#FFB902;}
	.st33{fill:#FF0000;}
	.st34{fill-rule:evenodd;clip-rule:evenodd;}
	.st35{fill:#ED2423;stroke:#ED2423;stroke-width:0.2728;stroke-miterlimit:1.0913;}
	.st36{fill:url(#path3858_00000158741842299754266160000005873658735155633558_);}
	.st37{fill:url(#path3852_00000034087624658782177620000009418120488203680901_);}
	
		.st38{fill:url(#path3824_00000183216167095861141380000013636437935532361637_);stroke:url(#path3824_00000122690542498288210700000015375316056053989024_);stroke-width:0.238;stroke-miterlimit:1.0913;}
	
		.st39{fill:url(#path3826_00000153665190905473644270000014826737997831339147_);stroke:url(#path3826_00000091720549005424036560000002298985276524107952_);stroke-width:0.1995;stroke-miterlimit:1.0913;}
	.st40{fill:url(#path3856_00000106867499303978256820000010670838553844618673_);}
	.st41{fill:url(#path3828_00000020361618522956447000000001467968305254893962_);}
	
		.st42{fill:url(#path3830_00000162331337417317282540000000591408511694859690_);stroke:#FEC20F;stroke-width:0.4678;stroke-miterlimit:1.0913;}
	
		.st43{fill:url(#path3842_00000157310315266436782700000016697674271907815857_);stroke:#FEC20F;stroke-width:0.5207;stroke-miterlimit:1.0913;}
	
		.st44{fill:url(#path3844_00000163039358947576625710000010399845426729023144_);stroke:#FEC20F;stroke-width:0.3517;stroke-miterlimit:1.0913;}
	
		.st45{fill:url(#path3832_00000137112363155729201270000013951909352518343562_);stroke:#FEC20F;stroke-width:0.8185;stroke-miterlimit:1.0913;}
	.st46{fill:url(#path3854_00000147920742616728183670000006005458540069624722_);}
	
		.st47{fill:url(#path3834_00000116927482084349186380000005585709437045583529_);stroke:#FEC20F;stroke-width:0.3213;stroke-miterlimit:1.0913;}
	
		.st48{fill:url(#path3836_00000173128384790204407570000000544542761890058937_);stroke:#FEC20F;stroke-width:0.3201;stroke-miterlimit:1.0913;}
	
		.st49{fill:url(#path3838_00000026157848130364623140000016785833021319654313_);stroke:#FEC20F;stroke-width:0.2504;stroke-miterlimit:1.0913;}
	
		.st50{fill:url(#path3840_00000060030249061693519830000013881898357219311791_);stroke:#FEC20F;stroke-width:0.159;stroke-miterlimit:1.0913;}
	
		.st51{fill:url(#path3846_00000037683984917463949730000008190897895566515385_);stroke:#FEC20F;stroke-width:0.2541;stroke-miterlimit:1.0913;}
	.st52{fill:#FB000C;stroke:#FEC20F;stroke-width:0.2207;stroke-miterlimit:1.0913;}
	.st53{fill:url(#path3850_00000040577174257824108610000007302387559868205236_);}
	.st54{fill:url(#path3860_00000179618055026542414950000003170437229264107949_);}
	.st55{fill:none;stroke:#FFFFFB;stroke-width:0.5;stroke-miterlimit:1.0913;}
	.st56{fill:#191919;}
	.st57{fill:#D1AA67;stroke:#D1AA67;stroke-width:2.0247;stroke-linecap:round;stroke-linejoin:round;stroke-miterlimit:22.9256;}
	
		.st58{fill-rule:evenodd;clip-rule:evenodd;fill:#FFFFFF;stroke:#FFFFFF;stroke-width:1.3498;stroke-linecap:round;stroke-linejoin:round;stroke-miterlimit:22.9256;}
	.st59{fill-rule:evenodd;clip-rule:evenodd;fill:#EC1C24;}
	.st60{fill:url(#SVGID_00000077313258567641636900000014122329553113723044_);}
	.st61{fill-rule:evenodd;clip-rule:evenodd;fill:#1D1D1B;}
	.st62{fill-rule:evenodd;clip-rule:evenodd;fill:#E20613;}
</style>
<g>
	<path class="st2" d="M809.25,149.68c2.56-6.21-2.59-12.33-2.59-12.33s-40.39-68.64-183.22-83.9c-76.48-8.18-180.6,7.33-253.6,46.65
		C237.61,171.37,217.81,288.7,217.81,288.7c-0.76,2.87-2,11.68,0.97,15.39c3.03,3.79,7.44,3.72,12.88,1.91
		c46.69-15.76,185.79-61.91,273.56-85.21c124.92-33.12,227.55-53.3,293.42-64.51C803.28,155.49,807.5,153.97,809.25,149.68
		L809.25,149.68z M327.96,846.2c-3.01,7.01,3.89,13.94,3.89,13.94c29.62,37.15,161.12,84.31,303.85,49.77
		c218-52.76,264.07-206.91,269.27-228.72c1.06-4.41,1.93-11.58-2.2-15.85c-3.48-3.59-8.38-3.64-15.18-2.04
		C736.18,698.9,484.25,775.83,338.99,838.01C332.74,840.7,329.91,841.71,327.96,846.2L327.96,846.2z"/>
	<path class="st3" d="M951.92,702.81c-74.76,167.94-218.21,284.81-406.21,287.48c-136.89,1.93-257.72-44.98-344.97-126.73
		l-52.77,22.56l0.07-81.72c-57.48-77.57-90.81-175.66-90.81-287.09c0-285.43,218.58-510.42,523.5-510.42
		c49.78,0,94.71,7.75,128.68,15.45c-52.27-16.74-104.2-25.8-162-25.8C220.22-3.46,0.01,261.88,0,535.47
		c0,298.21,233.92,547.99,540.93,547.99c293.24,0,451.48-206.74,502.07-331.13L951.92,702.81L951.92,702.81z"/>
	<path class="st4" d="M876,643.88c43.05-4.91,72.78-22.2,89.15-38.24c14.89-14.64,18.36-34.75,18.38-49.74
		c0.6-21.96,0-91.38,0-91.38l-113.85,24.65c0,0,0,8.56-0.07,26.6c0.21,17.57,8.71,27.15,27.13,23.79c5.79-0.96,14.71-3.8,14.71-3.8
		l0.14,21.72c-0.08-0.59,1.69,12.14-27.02,17.82c-37.55,5.91-54.61-17.2-55.06-58.01c0.74-43.81,25.48-69.04,55.49-75.94
		c33.75-7.72,52.91,0.31,64.15,2.01c37.69,5.65,48.38-50.88,14.09-64.17c-25.38-10.2-58.28-12.05-89.64-5.81
		c-41.88,8.38-124.27,43.41-124.47,157.34C749.33,621.23,816.07,650.71,876,643.88L876,643.88z M815.32,368.93l0.07-175.47
		c0,0,51.26-9.05,64.48-10.78c36.71-4.67,61.36,15.72,60.86,44.67c-0.21,25.42-16.19,40.78-29.78,49.99c0,0,24.95,28.14,31.65,35.59
		c9.01,10.01,8.59,27.19-4.69,35.6c-13.1,8.24-26.03,3.92-33.55-4.37l-41.27-48.37c0,0,0.16,29.72,0.12,42.73
		c-0.14,12.91-7.6,22.37-21.02,25.14L815.32,368.93L815.32,368.93z M863.03,268.68c0.04-0.03,28.48-10.85,28.14-33.64
		c-0.28-19.28-19.28-15.76-28.21-13.78L863.03,268.68L863.03,268.68z M787.13,374.24c10.75-2.35,17.44-9.91,17.44-23.01
		c0-11.87,0.06-20.86,0.06-20.86l-58.37,12.76l0.12-34.35c0,0,28.61-6.05,36.56-7.78c9.97-2.16,15.2-7.64,15.2-19.03
		c0-10.66-0.07-19.87-0.07-19.87l-51.7,10.97l-0.01-27.21c0,0,26.88-5.59,41.35-8.66c11.3-2.34,15.02-10.09,15.02-20.72
		c0-6.92,0.12-20.64,0.12-20.64c-25.8,4.54-74.84,14.4-105.41,21.35l-0.39,177.73C697.05,394.91,755.15,381.19,787.13,374.24
		L787.13,374.24z M505.86,740.88c0,0,34.92-12.02,37.97-13.07c28.09-9.67,38.31-26.37,38.18-55.29
		c-0.36-31.36-0.41-92.53-0.41-92.53l81.25,93.58c13.2,13.62,29.77,14.8,44.86,10.34c15.68-4.57,28.71-18.87,29.1-39.07
		c0.13-67.59-0.07-232.57-0.07-232.57s-20.96,4.45-38.39,9.36c-20.06,5.71-35.47,18.51-35.47,52.24c0,11.94-0.05,80.47-0.05,80.47
		s-45.71-57.28-75.63-87.21c-15.99-15.97-42.44-6.42-42.44-6.42l-38.98,11.77L505.86,740.88L505.86,740.88z M481.25,478.57
		c0,0-24.47,7.17-44.36,14.33c-25.88,9.36-40.76,24.31-40.76,63.46c0,35.92-0.08,223-0.08,223s22.65-7.74,43.79-15.68
		c30-11.31,41.33-26.78,41.33-58.3C481.16,678.29,481.25,478.57,481.25,478.57L481.25,478.57z M359.84,531.58
		c-22.47-10.17-41.73,1.2-49.92,13.8l-69.03,117.37l-0.12-94.66l-81.36,33.74l-0.25,267.66l57.3-24.04c0,0,11.27-3.21,18.05-13.88
		c6.24-9.8,6.01-26.31,6.01-26.31l0.08-84.83l64.06,67.97c14.07,14.61,39.9,22.05,62.71,3.68c20.64-16.66,17.44-45.04,5.93-57.75
		l-58.37-58.76c0,0,51.37-80.94,59.77-94.5C385.84,563.12,380.23,540.85,359.84,531.58L359.84,531.58z M250.7,488.66
		c0.64,37.44-26.32,57.34-61.45,71.92l-71.94,30.56l-0.17-194.94c0,0,45.36-18.51,60.14-23.85c42.04-15.29,66.75,3.12,66.75,31.2
		c0,18.78-8.01,34.67-25.44,48.71C235.75,455.12,250.38,469.2,250.7,488.66L250.7,488.66z M166.82,452.58
		c3.52-1.36,6.12-2.53,9.08-3.98c10.73-5.25,18.38-14.89,18.48-27.49c0.1-14.27-11.68-17.98-27.55-9.77L166.82,452.58l31.88,42.85
		c-0.21-14.74-11.68-22.77-31.49-12.83l-0.06,47.43c0,0,6.42-2.85,11.14-5.04c11.57-5.38,20.66-15.04,20.41-29.57L166.82,452.58
		L166.82,452.58z M387.3,324.17c0-16.41-11.29-20.8-24.95-16.87c-11.05,3.15-23.93,8.19-23.93,8.19l-0.08,121.19
		c-0.13,12.05-1.98,27.15-16.87,30.89c-11.4,2.86-16.8-4.76-16.82-16.74l-0.16-99.2c0-16.53-11.47-21.44-25.07-16.96
		c-15.34,5.13-24.5,8.8-24.5,8.8s0.14,85.86-0.04,120.15c-0.21,40.22,27.54,60.31,69.82,47.83c37.28-11.03,62.2-31.92,62.66-85.49
		L387.3,324.17L387.3,324.17z M449.99,394.44c0,0-0.11,34.08-0.14,47.8c-0.14,12.85-8.94,22.18-20.06,26.44c0,0.38,0-0.43,0,0
		c-9.29,3.19-29.06,9.96-29.06,9.96l0.07-182.96c0,0,40.82-14.2,64.84-19.8c37.3-8.68,63.85,8.28,63.36,38.44
		c-0.25,28.66-16.26,46.12-30.64,58.01l31.62,30.33c9.72,9.43,10.38,26.42-0.54,36.67c-6.48,6.08-23.81,12.39-37.36-1.35
		L449.99,394.44L449.99,394.44z M449.9,367.05c0.06,0,28.88-14.9,28.55-38.56c-0.27-20.17-18.87-15.75-28.54-12.2L449.9,367.05
		L449.9,367.05z M685.51,295.25l-72.65,16.52c0,0-0.08,7.66-0.08,20.24c0.08,9.36,6.7,15.48,16.15,13.5
		c5.99-1.23,10.79-2.31,10.79-2.31l0.1,20.14c0.08,8.01-11.91,13.23-24.34,12.94c-17.45-0.43-27.11-13.99-27.35-39.79
		c0.54-33.89,16.48-53.75,38.2-59.35c10.86-2.77,20.72-1.38,28.36-0.42c18.77,3.05,29.52-6,29.91-21.48
		c0.41-16.59-14.33-26.82-45.87-25.73c-68.41,2.37-103.39,51.53-103.39,110.19c0,60.09,39.27,86.63,87.16,77.98
		c27.07-5.5,40.54-14.27,49.87-22.43c9.31-8.22,13.16-20.44,13.18-30.89L685.51,295.25L685.51,295.25z"/>
	<path class="st5" d="M399.22,98.73C319.08,134.17,264.97,218.35,262,253.97c-1.16,14.18,17.62,16.22,19.38,1.2
		C298.3,190.12,350.06,128.82,399.22,98.73L399.22,98.73z"/>
	<path class="st5" d="M664.8,159.16c43.21-10.59,66.94-12.2,67.37-31.51c0.76-32.32-91.47-69.79-175.95-63.02
		c86.06,5.75,137.69,38.9,137.98,61.97C694.35,141.24,681.7,154.09,664.8,159.16L664.8,159.16z"/>
	<path class="st5" d="M691.57,873.85c64.88-25.52,127.19-74.2,161.68-147.21c9.95-21.11-18.83-31.89-26.94-7.1
		C806.12,771.44,764.64,832.32,691.57,873.85L691.57,873.85z"/>
	<path class="st4" d="M949.46,642.21v7.6h17.8v36.7h12.09v-36.7h17.14v-7.6H949.46L949.46,642.21z M1037.44,686.51l10.49-35.87
		v35.87H1060v-44.31h-17.63l-10.96,34.01l-10.96-34.01h-17.63v44.31h12.07v-35.87l10.49,35.87H1037.44L1037.44,686.51z"/>
</g>
</svg>
