<?xml version="1.0" encoding="utf-8"?>
<!-- Generator: Adobe Illustrator 26.0.3, SVG Export Plug-In . SVG Version: 6.00 Build 0)  -->
<svg version="1.1" id="Layer_1" xmlns="http://www.w3.org/2000/svg" xmlns:xlink="http://www.w3.org/1999/xlink" x="0px" y="0px"
	 viewBox="0 0 985.96 1080" style="enable-background:new 0 0 985.96 1080;" xml:space="preserve">
<style type="text/css">
	.st0{fill-rule:evenodd;clip-rule:evenodd;fill:#0078A9;}
	.st1{fill:#52237F;}
	.st2{fill-rule:evenodd;clip-rule:evenodd;fill:#F5A800;}
	.st3{fill-rule:evenodd;clip-rule:evenodd;fill:#0033A1;}
	.st4{fill-rule:evenodd;clip-rule:evenodd;fill:#E1251B;}
	.st5{fill-rule:evenodd;clip-rule:evenodd;fill:#FFFFFF;}
	.st6{fill-rule:evenodd;clip-rule:evenodd;fill:#FF0000;}
	.st7{fill:#F89F21;}
	.st8{fill:#28387D;}
	.st9{fill:#088C45;}
	.st10{fill:#F37A21;}
	.st11{fill-rule:evenodd;clip-rule:evenodd;fill:#E60005;}
	.st12{fill:#F1890B;}
	.st13{fill:url(#SVGID_1_);}
	.st14{fill:#000105;}
	.st15{fill:#231F20;}
	.st16{fill:#EF3E42;}
	.st17{fill:none;}
	.st18{fill:#DE4447;}
	.st19{fill:#EC1C24;}
	.st20{fill:#2A557C;}
	.st21{fill:#0071BB;}
	.st22{fill:#009DA4;}
	.st23{fill:#FFFFFF;}
	.st24{fill:#F05C61;}
	.st25{fill-rule:evenodd;clip-rule:evenodd;fill:#0054A5;}
	.st26{fill-rule:evenodd;clip-rule:evenodd;fill:#231F20;}
	.st27{fill:#00A7E0;}
	.st28{fill:#F25022;}
	.st29{fill:#80BA01;}
	.st30{fill:#777777;}
	.st31{fill:#02A4EF;}
	.st32{fill:#FFB902;}
	.st33{fill:#FF0000;}
	.st34{fill-rule:evenodd;clip-rule:evenodd;}
	.st35{fill:#ED2423;stroke:#ED2423;stroke-width:0.2728;stroke-miterlimit:1.0913;}
	.st36{fill:url(#path3858_00000090278294988553823350000017647880511231686535_);}
	.st37{fill:url(#path3852_00000057120631816010190610000009547051660299321507_);}
	
		.st38{fill:url(#path3824_00000070829827679616240130000004339712058156377523_);stroke:url(#path3824_00000137123952441993364930000005636227704212435888_);stroke-width:0.238;stroke-miterlimit:1.0913;}
	
		.st39{fill:url(#path3826_00000039117373682382557230000013310176275936881290_);stroke:url(#path3826_00000072971202129768396380000007450567657219252149_);stroke-width:0.1995;stroke-miterlimit:1.0913;}
	.st40{fill:url(#path3856_00000150064868220418309460000013147361657803710081_);}
	.st41{fill:url(#path3828_00000115499928604984008670000013338091350939023030_);}
	
		.st42{fill:url(#path3830_00000040542090284010394730000004268096210532253086_);stroke:#FEC20F;stroke-width:0.4678;stroke-miterlimit:1.0913;}
	
		.st43{fill:url(#path3842_00000057844489303668037490000003614392812092900777_);stroke:#FEC20F;stroke-width:0.5207;stroke-miterlimit:1.0913;}
	
		.st44{fill:url(#path3844_00000075869796579839999580000014494334872854480822_);stroke:#FEC20F;stroke-width:0.3517;stroke-miterlimit:1.0913;}
	
		.st45{fill:url(#path3832_00000113315526734374027220000016770197571832578446_);stroke:#FEC20F;stroke-width:0.8185;stroke-miterlimit:1.0913;}
	.st46{fill:url(#path3854_00000119118229000418424710000012059788059184633515_);}
	
		.st47{fill:url(#path3834_00000083053835575743582300000016250272987515680157_);stroke:#FEC20F;stroke-width:0.3213;stroke-miterlimit:1.0913;}
	
		.st48{fill:url(#path3836_00000077295514371430334420000009134033722832716725_);stroke:#FEC20F;stroke-width:0.3201;stroke-miterlimit:1.0913;}
	
		.st49{fill:url(#path3838_00000084512743717279546940000003233927227960831118_);stroke:#FEC20F;stroke-width:0.2504;stroke-miterlimit:1.0913;}
	
		.st50{fill:url(#path3840_00000031912827478192193900000014925350709169596090_);stroke:#FEC20F;stroke-width:0.159;stroke-miterlimit:1.0913;}
	
		.st51{fill:url(#path3846_00000046303297935933729900000016075653167365712550_);stroke:#FEC20F;stroke-width:0.2541;stroke-miterlimit:1.0913;}
	.st52{fill:#FB000C;stroke:#FEC20F;stroke-width:0.2207;stroke-miterlimit:1.0913;}
	.st53{fill:url(#path3850_00000137116048132622960860000016711192359906303165_);}
	.st54{fill:url(#path3860_00000114790681701022846840000003447445988355531964_);}
	.st55{fill:none;stroke:#FFFFFB;stroke-width:0.5;stroke-miterlimit:1.0913;}
	.st56{fill:#191919;}
	.st57{fill:#D1AA67;stroke:#D1AA67;stroke-width:2.0247;stroke-linecap:round;stroke-linejoin:round;stroke-miterlimit:22.9256;}
	
		.st58{fill-rule:evenodd;clip-rule:evenodd;fill:#FFFFFF;stroke:#FFFFFF;stroke-width:1.3498;stroke-linecap:round;stroke-linejoin:round;stroke-miterlimit:22.9256;}
	.st59{fill-rule:evenodd;clip-rule:evenodd;fill:#EC1C24;}
	.st60{fill:url(#SVGID_00000000208592447091244400000013340218703636572811_);}
	.st61{fill-rule:evenodd;clip-rule:evenodd;fill:#1D1D1B;}
	.st62{fill-rule:evenodd;clip-rule:evenodd;fill:#E20613;}
</style>
<g>
	<path class="st5" d="M926.75,1000.09v14.74h44.39c0,26.33-26.33,46.1-52.66,46.1c-14.83,0-29.56-8.18-41.16-19.77
		c-11.5-9.88-16.45-24.71-16.45-41.07c0-32.98,26.33-60.93,59.31-60.93c21.39,0,37.83,9.8,49.33,27.95l11.59-11.59
		c-14.92-19.68-34.6-31.27-60.93-31.27c-41.25,0-75.75,34.6-75.75,75.84c0,41.07,34.51,75.66,74.05,75.66
		c21.39,0,41.16-9.89,54.37-24.71c6.74-7.64,10.96-15.73,13.12-24.35v-26.6H926.75z M102.08,0.92V781.1h783.51V0.92H102.08z
		 M831.22,53.58v431.25L400.07,53.58H831.22z M767.06,995.06l67.49-67.49h-21.39l-62.54,62.54v-62.54h-16.44v144.86h16.44v-62.55
		l4.94-3.32l59.31,65.87h23L767.06,995.06z M571.25,919.4l-67.58,153.04h16.45l18.15-41.16h62.54l16.45,41.16h18.15L571.25,919.4z
		 M544.83,1016.45l24.71-59.22l24.71,59.22H544.83z M459.28,927.57v144.86h16.45V927.57H459.28z M400.07,944.11
		c-16.53-14.92-34.6-16.54-55.98-16.54h-27.95v144.86h27.95c21.39,0,39.45-3.33,57.6-18.06c14.74-14.83,23-32.98,23-54.28
		C424.69,978.61,416.42,958.85,400.07,944.11z M390.09,1042.78c-13.12,13.21-27.95,14.83-46.01,14.83h-11.59V942.4h11.59
		c18.06,0,32.89,1.71,46.01,13.12c11.59,11.59,18.15,28.04,18.15,44.57C408.24,1016.45,401.68,1031.27,390.09,1042.78z
		 M274.89,942.4v-14.83h-75.66v144.86h75.66v-14.83h-60.84v-57.51h57.6v-14.92h-57.6V942.4H274.89z M136.59,919.4l-54.28,121.76
		L29.65,919.4L0,1072.43h16.53l19.68-98.76l46.1,105.41l47.81-105.41l18.06,98.76h18.06L136.59,919.4z"/>
	<path class="st25" d="M102.08,0.92V781.1h783.51V0.92H102.08z M831.22,53.58v431.25L400.07,53.58H831.22z"/>
	<path class="st5" d="M270.39,649.18c-5.3-6.74-13.57-11.32-25.16-12.94c13.21-6.56,18.15-18.06,18.15-32.89
		c0-29.65-19.77-39.54-46.1-39.54h-59.22v154.74h62.54c29.56,0,57.6-9.89,57.6-42.77C278.21,665,275.7,655.92,270.39,649.18z
		 M199.22,593.47h3.23c9.98,0,23.1,1.62,23.1,16.45c0,13.12-11.5,14.83-21.39,14.83h-4.94V593.47z M204.17,688.9h-4.94v-34.6h3.23
		c14.83,0,34.6-1.62,34.6,16.53C237.06,688.9,215.67,688.9,204.17,688.9z"/>
	<path class="st5" d="M383.53,563.81h-44.39l-60.93,154.74h44.48l9.79-26.33h55.98l9.88,26.33h44.39L383.53,563.81z M344.08,660.95
		l16.45-49.33l16.45,49.33H344.08z"/>
	<path class="st5" d="M579.43,563.83v87.24c0,19.75,0,39.51-16.46,54.32c-11.52,13.17-32.92,18.11-51.03,18.11
		c-18.1,0-39.5-4.94-51.02-18.11c-16.46-14.81-16.46-34.56-16.46-54.32v-87.24h39.5v82.3c0,19.75,1.65,41.16,27.98,41.16
		c26.34,0,27.98-21.4,27.98-41.16v-82.3H579.43L579.43,563.83z"/>
	<polygon class="st5" points="645.27,596.75 645.27,623.09 689.71,623.09 689.71,657.65 645.27,657.65 645.27,685.63 693,685.63 
		693,718.55 604.12,718.55 604.12,563.83 693,563.83 693,596.75 645.27,596.75 	"/>
	<path class="st5" d="M796.72,656.01c23-4.94,34.51-23.01,34.51-44.39c0-34.6-23-47.81-54.28-47.81h-60.93v154.74h41.16v-59.22
		l37.83,59.22h51.04L796.72,656.01z M760.5,633.01h-3.32v-39.54h3.32c13.12,0,28.04,3.23,28.04,19.77
		C788.54,631.3,773.62,633.01,760.5,633.01z"/>
	<polygon class="st26" points="166.27,1072.43 148.18,1072.43 130.08,973.71 82.34,1079.05 36.23,973.71 16.51,1072.43 
		0.03,1072.43 29.68,919.36 82.34,1041.17 136.63,919.36 	"/>
	<polygon class="st26" points="214.01,942.38 214.01,985.2 271.61,985.2 271.61,1000.05 214.01,1000.05 214.01,1057.64 
		274.92,1057.64 274.92,1072.43 199.23,1072.43 199.23,927.6 274.92,927.6 274.92,942.38 	"/>
	<path class="st26" d="M400.07,944.11c-16.53-14.92-34.6-16.54-55.98-16.54h-27.95v144.86h27.95c21.39,0,39.45-3.33,57.6-18.06
		c14.74-14.83,23-32.98,23-54.28C424.69,978.61,416.42,958.85,400.07,944.11z M390.09,1042.78c-13.12,13.21-27.95,14.83-46.01,14.83
		h-11.59V942.4h11.59c18.06,0,32.89,1.71,46.01,13.12c11.59,11.59,18.15,28.04,18.15,44.57
		C408.24,1016.45,401.68,1031.27,390.09,1042.78z"/>
	<rect x="459.26" y="927.6" class="st26" width="16.48" height="144.84"/>
	<path class="st26" d="M571.25,919.4l-67.58,153.04h16.45l18.15-41.16h62.54l16.45,41.16h18.15L571.25,919.4z M544.83,1016.45
		l24.71-59.22l24.71,59.22H544.83z"/>
	<polygon class="st26" points="837.86,1072.43 814.83,1072.43 755.54,1006.6 750.62,1009.91 750.62,1072.43 734.14,1072.43 
		734.14,927.6 750.62,927.6 750.62,990.12 813.14,927.6 834.55,927.6 767.09,995.05 	"/>
	<path class="st26" d="M986,1000.05v26.6c-2.23,8.71-6.41,16.75-13.17,24.38c-13.17,14.86-32.95,24.71-54.36,24.71
		c-39.5,0-74.07-34.57-74.07-75.7c0-41.19,34.57-75.76,75.76-75.76c26.33,0,46.05,11.55,60.91,31.26l-11.55,11.55
		c-11.55-18.1-27.95-27.96-49.36-27.96c-32.95,0-59.29,27.96-59.29,60.91c0,16.41,4.93,31.27,16.48,41.12
		c11.55,11.55,26.33,19.78,41.12,19.78c26.33,0,52.67-19.78,52.67-46.12h-44.43v-14.79H986z"/>
</g>
</svg>
