<?xml version="1.0" encoding="utf-8"?>
<!-- Generator: Adobe Illustrator 26.0.3, SVG Export Plug-In . SVG Version: 6.00 Build 0)  -->
<svg version="1.1" id="Layer_1" xmlns="http://www.w3.org/2000/svg" xmlns:xlink="http://www.w3.org/1999/xlink" x="0px" y="0px"
	 viewBox="0 0 1080 212.43" style="enable-background:new 0 0 1080 212.43;" xml:space="preserve">
<style type="text/css">
	.st0{fill-rule:evenodd;clip-rule:evenodd;fill:#0078A9;}
	.st1{fill:#52237F;}
	.st2{fill-rule:evenodd;clip-rule:evenodd;fill:#F5A800;}
	.st3{fill-rule:evenodd;clip-rule:evenodd;fill:#0033A1;}
	.st4{fill-rule:evenodd;clip-rule:evenodd;fill:#E1251B;}
	.st5{fill-rule:evenodd;clip-rule:evenodd;fill:#FFFFFF;}
	.st6{fill-rule:evenodd;clip-rule:evenodd;fill:#FF0000;}
	.st7{fill:#F89F21;}
	.st8{fill:#28387D;}
	.st9{fill:#088C45;}
	.st10{fill:#F37A21;}
	.st11{fill-rule:evenodd;clip-rule:evenodd;fill:#E60005;}
	.st12{fill:#F1890B;}
	.st13{fill:url(#SVGID_1_);}
	.st14{fill:#000105;}
	.st15{fill:#231F20;}
	.st16{fill:#EF3E42;}
	.st17{fill:none;}
	.st18{fill:#DE4447;}
	.st19{fill:#EC1C24;}
	.st20{fill:#2A557C;}
	.st21{fill:#0071BB;}
	.st22{fill:#009DA4;}
	.st23{fill:#FFFFFF;}
	.st24{fill:#F05C61;}
	.st25{fill-rule:evenodd;clip-rule:evenodd;fill:#0054A5;}
	.st26{fill-rule:evenodd;clip-rule:evenodd;fill:#231F20;}
	.st27{fill:#00A7E0;}
	.st28{fill:#F25022;}
	.st29{fill:#80BA01;}
	.st30{fill:#777777;}
	.st31{fill:#02A4EF;}
	.st32{fill:#FFB902;}
	.st33{fill:#FF0000;}
	.st34{fill-rule:evenodd;clip-rule:evenodd;}
	.st35{fill:#ED2423;stroke:#ED2423;stroke-width:0.2728;stroke-miterlimit:1.0913;}
	.st36{fill:url(#path3858_00000162324920943392291300000011090826755558356655_);}
	.st37{fill:url(#path3852_00000140011872721055709900000016858620890656308879_);}
	
		.st38{fill:url(#path3824_00000168828094460924370080000015058593765670444205_);stroke:url(#path3824_00000069369166800834803160000009993367085225065869_);stroke-width:0.238;stroke-miterlimit:1.0913;}
	
		.st39{fill:url(#path3826_00000106845655596044663950000011068742190178069419_);stroke:url(#path3826_00000086664009996966611510000000070535801304798379_);stroke-width:0.1995;stroke-miterlimit:1.0913;}
	.st40{fill:url(#path3856_00000091724429620825782940000007832947377067057058_);}
	.st41{fill:url(#path3828_00000119089105455616235800000009067462125682333108_);}
	
		.st42{fill:url(#path3830_00000160902605412276353270000017895053750456804497_);stroke:#FEC20F;stroke-width:0.4678;stroke-miterlimit:1.0913;}
	
		.st43{fill:url(#path3842_00000104684968478343354330000009787356353705993639_);stroke:#FEC20F;stroke-width:0.5207;stroke-miterlimit:1.0913;}
	
		.st44{fill:url(#path3844_00000056392989887720675070000000130062122017137298_);stroke:#FEC20F;stroke-width:0.3517;stroke-miterlimit:1.0913;}
	
		.st45{fill:url(#path3832_00000054250609872340410470000015616642392824099721_);stroke:#FEC20F;stroke-width:0.8185;stroke-miterlimit:1.0913;}
	.st46{fill:url(#path3854_00000017504361854446754910000014140914814340360861_);}
	
		.st47{fill:url(#path3834_00000000940628329553805530000010930204265488434863_);stroke:#FEC20F;stroke-width:0.3213;stroke-miterlimit:1.0913;}
	
		.st48{fill:url(#path3836_00000003090802508111133440000006135780082666791837_);stroke:#FEC20F;stroke-width:0.3201;stroke-miterlimit:1.0913;}
	
		.st49{fill:url(#path3838_00000119116798135206082380000007850075122614994076_);stroke:#FEC20F;stroke-width:0.2504;stroke-miterlimit:1.0913;}
	
		.st50{fill:url(#path3840_00000139972601943956893190000001860633980894703537_);stroke:#FEC20F;stroke-width:0.159;stroke-miterlimit:1.0913;}
	
		.st51{fill:url(#path3846_00000163046113538802640050000013434467081131708826_);stroke:#FEC20F;stroke-width:0.2541;stroke-miterlimit:1.0913;}
	.st52{fill:#FB000C;stroke:#FEC20F;stroke-width:0.2207;stroke-miterlimit:1.0913;}
	.st53{fill:url(#path3850_00000054956159251185037580000017979073178983975356_);}
	.st54{fill:url(#path3860_00000010303833323395336360000009198536410291246738_);}
	.st55{fill:none;stroke:#FFFFFB;stroke-width:0.5;stroke-miterlimit:1.0913;}
	.st56{fill:#191919;}
	.st57{fill:#D1AA67;stroke:#D1AA67;stroke-width:2.0247;stroke-linecap:round;stroke-linejoin:round;stroke-miterlimit:22.9256;}
	
		.st58{fill-rule:evenodd;clip-rule:evenodd;fill:#FFFFFF;stroke:#FFFFFF;stroke-width:1.3498;stroke-linecap:round;stroke-linejoin:round;stroke-miterlimit:22.9256;}
	.st59{fill-rule:evenodd;clip-rule:evenodd;fill:#EC1C24;}
	.st60{fill:url(#SVGID_00000029011222072285051950000011316854756280661164_);}
	.st61{fill-rule:evenodd;clip-rule:evenodd;fill:#1D1D1B;}
	.st62{fill-rule:evenodd;clip-rule:evenodd;fill:#E20613;}
</style>
<g>
	<path class="st8" d="M822,191.04c-1.67,5.95-5.02,10.97-10.42,15.07c-5.21,4.09-10.79,6.14-16.74,6.14H583.71
		c-5.95,0-10.23-2.05-13.21-6.14c-2.98-4.09-3.53-9.11-1.86-15.07l47.06-169.65c1.67-5.95,5.02-10.97,10.23-15.07
		c5.21-4.09,10.6-6.14,16.56-6.14h211.31c6.14,0,10.6,2.05,13.58,6.14c2.98,4.09,3.53,9.11,1.67,15.25l-5.58,20.09H652.17
		l-35.71,129.09h211.13L822,191.04z M946.81,0.37h-42.23l-58.59,211.68h42.23L946.81,0.37z M308.97,0h-42.23l-38.51,138.77
		L58.78,0.37L0,212.8h42.23L80.36,74.96l169.46,138.21L308.97,0z M584.09,6.14C581.11,2.05,576.64,0,570.51,0H338.73L327.2,41.48
		h210.94l-12.28,44.27H315.11l-35.16,126.12h42.23l23.44-84.64h189.73c5.95,0,11.53-2.05,16.74-6.14
		c5.21-4.09,8.74-9.11,10.42-15.07l23.44-84.82C587.62,15.25,586.88,10.23,584.09,6.14"/>
	<polygon class="st9" points="1026.61,0.19 1080,106.4 967.83,212.43 	"/>
	<polygon class="st10" points="989.22,0.19 1042.43,106.4 930.26,212.43 	"/>
</g>
</svg>
