<?xml version="1.0" encoding="utf-8"?>
<!-- Generator: Adobe Illustrator 26.0.3, SVG Export Plug-In . SVG Version: 6.00 Build 0)  -->
<svg version="1.1" id="Layer_1" xmlns="http://www.w3.org/2000/svg" xmlns:xlink="http://www.w3.org/1999/xlink" x="0px" y="0px"
	 viewBox="0 0 1080 772.1" style="enable-background:new 0 0 1080 772.1;" xml:space="preserve">
<style type="text/css">
	.st0{fill:#191919;}
	.st1{fill:url(#SVGID_1_);}
	.st2{fill:url(#SVGID_00000084521668386803175010000003904609761573966010_);}
	.st3{fill:url(#SVGID_00000019654891028144012230000004837557924737248438_);}
	.st4{fill:url(#SVGID_00000124124640109133870230000009935337178783849611_);}
	.st5{fill:url(#SVGID_00000150798682914564118990000009191322373826024835_);}
	.st6{fill:url(#SVGID_00000135662496810001109710000007483364105750098365_);}
	.st7{fill:url(#SVGID_00000076604951450560829950000007765046450380006023_);}
	.st8{fill:#CE310D;}
	.st9{fill:#81C995;}
	.st10{fill:#34A853;}
	.st11{fill:#5BB974;}
	.st12{fill:#1E8E3E;}
	.st13{fill:#FFFC01;}
	.st14{fill:#050505;}
	.st15{fill:#FFFFFF;}
	.st16{fill:#4285F4;}
	.st17{fill:#FBBC05;}
	.st18{fill:#EA4335;}
	.st19{fill:#CB1F27;}
	.st20{fill:#0A66C2;}
	.st21{fill:#1D9BF0;}
	.st22{fill:#1877F2;}
	.st23{fill:#FE0000;}
	.st24{fill:url(#SVGID_00000167395844892769398610000005671476092992767637_);}
	.st25{fill:url(#SVGID_00000024697801526788312410000013309747573781820349_);}
	.st26{fill:#1D1D1B;}
	.st27{fill:#231F20;}
	.st28{fill:#7CCCED;}
	.st29{fill:#0492D2;}
	.st30{fill:#4CAFDF;}
	.st31{fill:#F18421;}
	.st32{fill:#154A99;}
	.st33{clip-path:url(#SVGID_00000111873731076539456140000010139027745944116393_);fill:#154A99;}
	.st34{clip-path:url(#SVGID_00000147187171474401364610000000877216085814854540_);fill:#154A99;}
	.st35{fill:url(#SVGID_00000163789209446031617760000007594773898315724980_);}
	.st36{fill:url(#SVGID_00000049208936427031757200000012762645130809286276_);}
</style>
<g>
	<path class="st0" d="M539.51,77.47c161.46,0,322.93,0.01,484.39-0.03c8.02,0,16.35,0.93,24.01-0.83
		c20.4-4.69,32.55-17.87,31.81-39.27c-0.7-20.13-12.71-32.46-32.3-36.43c-6.97-1.41-14.4-0.7-21.63-0.7
		C702.06,0.19,378.33,0.2,54.6,0.22c-7.22,0-14.65-0.77-21.64,0.6C12.28,4.89-0.12,17.8,0,39.09C0.13,60.4,12.78,73.07,33.47,76.92
		c7.01,1.31,14.42,0.53,21.64,0.54C216.58,77.48,378.04,77.47,539.51,77.47z"/>
	<linearGradient id="SVGID_1_" gradientUnits="userSpaceOnUse" x1="154.0466" y1="386.1442" x2="1079.7351" y2="386.1442">
		<stop  offset="0" style="stop-color:#FF0000"/>
		<stop  offset="0.8069" style="stop-color:#D4145A"/>
		<stop  offset="1" style="stop-color:#ED1E79"/>
	</linearGradient>
	<path class="st1" d="M616.9,424.77c135.74,0,271.48,0.01,407.22-0.03c8.02,0,16.34,0.89,24.01-0.86
		c19.31-4.4,31.38-16.81,31.6-37.06c0.23-21.34-11.87-34.36-32.52-38.64c-6.96-1.44-14.4-0.67-21.62-0.67
		c-272.28-0.02-544.57-0.02-816.85-0.01c-6.42,0-12.91-0.4-19.26,0.31c-20.87,2.36-35.67,18.79-35.42,38.78
		c0.24,20.01,15.19,35.79,36.36,37.9c6.37,0.64,12.84,0.26,19.26,0.26C345.42,424.78,481.16,424.77,616.9,424.77z"/>
	<path class="st0" d="M793.18,772.07c79.48,0,158.95,0.08,238.43-0.04c30.43-0.05,48.07-14.16,48.39-38.12
		c0.32-24.22-17.26-39.04-47.37-39.06c-161.36-0.11-322.72-0.11-484.08,0c-29.84,0.02-47.63,15.16-47.2,39.27
		c0.43,23.94,18.01,37.87,48.59,37.91C631.02,772.15,712.1,772.07,793.18,772.07z"/>
</g>
</svg>
