<?xml version="1.0" encoding="utf-8"?>
<!-- Generator: Adobe Illustrator 26.0.3, SVG Export Plug-In . SVG Version: 6.00 Build 0)  -->
<svg version="1.1" id="Layer_1" xmlns="http://www.w3.org/2000/svg" xmlns:xlink="http://www.w3.org/1999/xlink" x="0px" y="0px"
	 viewBox="0 0 633.66 1080" style="enable-background:new 0 0 633.66 1080;" xml:space="preserve">
<style type="text/css">
	.st0{fill:#191919;}
	.st1{fill:url(#SVGID_1_);}
	.st2{fill:url(#SVGID_00000176010988558772535500000013863103012135233168_);}
	.st3{fill:url(#SVGID_00000132794722726684833520000004932800357664878982_);}
	.st4{fill:url(#SVGID_00000047741697025154762670000003617292732305889687_);}
	.st5{fill:url(#SVGID_00000003789250048871776820000017032587246691611068_);}
	.st6{fill:url(#SVGID_00000118377296984762162380000010854167879753283515_);}
	.st7{fill:url(#SVGID_00000177450020890351933560000015365838858964675209_);}
	.st8{fill:#CE310D;}
	.st9{fill:#81C995;}
	.st10{fill:#34A853;}
	.st11{fill:#5BB974;}
	.st12{fill:#1E8E3E;}
	.st13{fill:#FFFC01;}
	.st14{fill:#050505;}
	.st15{fill:#FFFFFF;}
	.st16{fill:#4285F4;}
	.st17{fill:#FBBC05;}
	.st18{fill:#EA4335;}
	.st19{fill:#CB1F27;}
	.st20{fill:#0A66C2;}
	.st21{fill:#1D9BF0;}
	.st22{fill:#1877F2;}
	.st23{fill:#FE0000;}
	.st24{fill:url(#SVGID_00000099661903552419049770000000748644624112985228_);}
	.st25{fill:url(#SVGID_00000080190859747197646070000007619565460997034631_);}
	.st26{fill:#1D1D1B;}
	.st27{fill:#231F20;}
	.st28{fill:#7CCCED;}
	.st29{fill:#0492D2;}
	.st30{fill:#4CAFDF;}
	.st31{fill:#F18421;}
	.st32{fill:#154A99;}
	.st33{clip-path:url(#SVGID_00000086683078637377384650000013296967368290154126_);fill:#154A99;}
	.st34{clip-path:url(#SVGID_00000094583907933402678950000009512198940393261463_);fill:#154A99;}
	.st35{fill:url(#SVGID_00000035492075624419430200000001638068284596083882_);}
	.st36{fill:url(#SVGID_00000005257080572404294700000009050431151006896531_);}
</style>
<g>
	<g>
		
			<linearGradient id="SVGID_1_" gradientUnits="userSpaceOnUse" x1="5705.2207" y1="8989.8037" x2="6782.9224" y2="8989.8037" gradientTransform="matrix(-3.267949e-07 1 -1 -3.267949e-07 9306.6338 -5705.2178)">
			<stop  offset="0" style="stop-color:#FF0000"/>
			<stop  offset="0.8069" style="stop-color:#D4145A"/>
			<stop  offset="1" style="stop-color:#ED1E79"/>
		</linearGradient>
		<path class="st1" d="M207.75,540.15c11.27,8.05,18.34,11.75,23.73,17.13c124.7,124.45,249.22,249.07,373.75,373.69
			c38.56,38.58,37.12,66.14,0.38,106.32c-52.58,57.5-83.62,49.93-132.03,0.7C326.91,888.86,178.25,741.72,30.38,593.78
			c-40.6-40.61-40.52-68.33,0.29-109.16c151.84-151.9,303.68-303.8,455.55-455.68c39.36-39.36,66.47-37.78,107.73-0.13
			c53.95,49.24,50.54,81.79,0.4,130.71C472.28,278.63,352.72,400.3,232.03,520.82C226.6,526.24,219.99,530.48,207.75,540.15z"/>
	</g>
</g>
</svg>
