<?xml version="1.0" encoding="utf-8"?>
<!-- Generator: Adobe Illustrator 26.0.3, SVG Export Plug-In . SVG Version: 6.00 Build 0)  -->
<svg version="1.1" id="Layer_1" xmlns="http://www.w3.org/2000/svg" xmlns:xlink="http://www.w3.org/1999/xlink" x="0px" y="0px"
	 viewBox="0 0 1080 145.39" style="enable-background:new 0 0 1080 145.39;" xml:space="preserve">
<style type="text/css">
	.st0{fill:#191919;}
	.st1{fill:url(#SVGID_1_);}
	.st2{fill:url(#SVGID_00000172432774796750825280000010254762215476904617_);}
	.st3{fill:url(#SVGID_00000100366424446834182220000006151479606996468150_);}
	.st4{fill:url(#SVGID_00000054959806626119431860000009790063480689881729_);}
	.st5{fill:url(#SVGID_00000078016083147493561420000003934744844697757103_);}
	.st6{fill:url(#SVGID_00000174576813252706035060000017944971644149621637_);}
	.st7{fill:url(#SVGID_00000050621532993461455870000016068992941823024800_);}
	.st8{fill:#CE310D;}
	.st9{fill:#81C995;}
	.st10{fill:#34A853;}
	.st11{fill:#5BB974;}
	.st12{fill:#1E8E3E;}
	.st13{fill:#FFFC01;}
	.st14{fill:#050505;}
	.st15{fill:#FFFFFF;}
	.st16{fill:#4285F4;}
	.st17{fill:#FBBC05;}
	.st18{fill:#EA4335;}
	.st19{fill:#CB1F27;}
	.st20{fill:#0A66C2;}
	.st21{fill:#1D9BF0;}
	.st22{fill:#1877F2;}
	.st23{fill:#FE0000;}
	.st24{fill:url(#SVGID_00000172425090866530406380000016226272224465464503_);}
	.st25{fill:url(#SVGID_00000062904391721669094010000009197144800633899937_);}
	.st26{fill:#1D1D1B;}
	.st27{fill:#231F20;}
	.st28{fill:#7CCCED;}
	.st29{fill:#0492D2;}
	.st30{fill:#4CAFDF;}
	.st31{fill:#F18421;}
	.st32{fill:#154A99;}
	.st33{clip-path:url(#SVGID_00000171703899019133139200000002196687902703280282_);fill:#154A99;}
	.st34{clip-path:url(#SVGID_00000066474430785666946890000012796099027732886942_);fill:#154A99;}
	.st35{fill:url(#SVGID_00000093875842543045306450000011591496990736428990_);}
	.st36{fill:url(#SVGID_00000091708110902911605460000014747437847364694440_);}
</style>
<g>
	<path class="st0" d="M134.12,60.81c0,8.26-1.56,16.01-4.68,23.26c-3.12,7.25-7.4,13.59-12.84,19.03s-11.78,9.72-19.03,12.84
		c-7.25,3.12-15.01,4.68-23.26,4.68H12.08v23.26H0V1h74.31c8.25,0,16.01,1.56,23.26,4.68c7.25,3.12,13.59,7.4,19.03,12.84
		s9.71,11.78,12.84,19.03C132.56,44.8,134.12,52.55,134.12,60.81z M12.08,108.53h62.23c6.64,0,12.88-1.25,18.73-3.78
		c5.84-2.51,10.88-5.94,15.11-10.27c4.23-4.33,7.6-9.36,10.12-15.1c2.51-5.74,3.78-11.93,3.78-18.58c0-6.65-1.26-12.84-3.78-18.58
		c-2.52-5.74-5.89-10.77-10.12-15.1c-4.23-4.33-9.27-7.75-15.11-10.27c-5.84-2.51-12.08-3.78-18.73-3.78H12.08V108.53z"/>
	<path class="st0" d="M193.32,6.13C200.57,2.71,208.53,1,217.19,1c10.87,0,20.84,2.82,29.91,8.46l-6.34,10.27
		c-6.85-4.43-14.71-6.64-23.56-6.64c-5.84,0-11.33,1.01-16.46,3.02c-5.14,2.02-9.62,4.83-13.44,8.46
		c-3.83,3.62-6.85,7.81-9.06,12.53c-2.22,4.74-3.33,9.82-3.33,15.25v91.53h-12.08V10.06h12.08v9.97
		C179.93,14.19,186.07,9.56,193.32,6.13z"/>
	<path class="st0" d="M314.15,1c9.46,0,18.37,1.92,26.73,5.74c8.35,3.83,15.6,8.96,21.75,15.4c6.14,6.45,11.03,14.1,14.65,22.96
		c3.62,8.86,5.44,18.23,5.44,28.09c0,10.07-1.81,19.48-5.44,28.25c-3.63,8.76-8.51,16.36-14.65,22.81
		c-6.14,6.45-13.39,11.58-21.75,15.41c-8.36,3.83-17.27,5.74-26.73,5.74c-9.47,0-18.38-1.91-26.73-5.74
		c-8.36-3.83-15.61-8.96-21.75-15.41c-6.14-6.44-11.03-14.05-14.65-22.81c-3.63-8.76-5.44-18.17-5.44-28.25
		c0-9.86,1.81-19.23,5.44-28.09c3.62-8.86,8.5-16.51,14.65-22.96c6.14-6.44,13.39-11.58,21.75-15.4C295.77,2.91,304.68,1,314.15,1z
		 M314.15,133.31c7.86,0,15.2-1.56,22.05-4.68c6.85-3.12,12.84-7.4,17.97-12.84c5.14-5.44,9.16-11.83,12.08-19.18
		c2.91-7.35,4.38-15.15,4.38-23.41c0-8.26-1.46-16.05-4.38-23.41c-2.92-7.35-6.95-13.74-12.08-19.18
		c-5.14-5.44-11.13-9.71-17.97-12.84c-6.85-3.12-14.2-4.68-22.05-4.68c-7.85,0-15.2,1.56-22.05,4.68
		c-6.85,3.12-12.84,7.4-17.97,12.84c-5.13,5.44-9.17,11.83-12.08,19.18c-2.92,7.36-4.38,15.16-4.38,23.41
		c0,8.26,1.46,16.06,4.38,23.41c2.91,7.35,6.95,13.75,12.08,19.18c5.14,5.44,11.13,9.72,17.97,12.84
		C298.95,131.75,306.3,133.31,314.15,133.31z"/>
	<path class="st0" d="M407.29,10.06h57.09v93.34c0,5.84-1.06,11.28-3.17,16.31c-2.11,5.03-4.98,9.46-8.61,13.29
		c-3.62,3.83-7.85,6.85-12.69,9.06c-4.83,2.21-9.97,3.32-15.41,3.32c-11.68,0-21.45-4.43-29.3-13.29l9.06-8.15
		c5.23,6.24,11.98,9.36,20.24,9.36c3.83,0,7.45-0.81,10.88-2.42c3.42-1.62,6.39-3.78,8.91-6.5c2.51-2.72,4.48-5.89,5.89-9.51
		c1.41-3.63,2.11-7.45,2.11-11.48V22.14h-45.01V10.06z"/>
	<path class="st0" d="M564.66,1c9.06,0,17.57,1.92,25.53,5.74c7.95,3.83,14.9,8.96,20.84,15.4c5.94,6.45,10.62,14.1,14.05,22.96
		c3.42,8.86,5.14,18.23,5.14,28.09H508.17c0,8.26,1.46,16.06,4.38,23.41c2.91,7.35,6.95,13.75,12.08,19.18
		c5.14,5.44,11.13,9.72,17.97,12.84c6.85,3.12,14.2,4.68,22.05,4.68c7.86,0,15.35-1.66,22.5-4.98c7.15-3.33,13.34-7.9,18.58-13.75
		l8.76,8.16c-6.45,7.05-13.95,12.59-22.5,16.61c-8.56,4.03-17.67,6.04-27.34,6.04c-9.47,0-18.38-1.91-26.73-5.74
		c-8.36-3.83-15.61-8.96-21.75-15.41c-6.14-6.44-11.03-14.05-14.65-22.81c-3.63-8.76-5.44-18.17-5.44-28.25
		c0-9.86,1.81-19.23,5.44-28.09c3.62-8.86,8.5-16.51,14.65-22.96c6.14-6.44,13.39-11.58,21.75-15.4C546.28,2.91,555.19,1,564.66,1z
		 M564.66,13.08c-6.85,0-13.34,1.21-19.48,3.62c-6.14,2.42-11.63,5.79-16.46,10.12c-4.83,4.34-8.96,9.42-12.39,15.25
		c-3.43,5.84-5.74,12.19-6.95,19.03h107.84c-1.21-6.85-3.43-13.19-6.65-19.03c-3.22-5.84-7.15-10.92-11.78-15.25
		c-4.64-4.33-9.87-7.7-15.71-10.12C577.25,14.29,571.1,13.08,564.66,13.08z"/>
	<path class="st0" d="M719.92,13.08c-7.85,0-15.2,1.56-22.05,4.68c-6.85,3.12-12.84,7.4-17.97,12.84
		c-5.13,5.44-9.17,11.83-12.08,19.18c-2.92,7.36-4.38,15.16-4.38,23.41c0,8.26,1.46,16.06,4.38,23.41
		c2.91,7.35,6.95,13.75,12.08,19.18c5.14,5.44,11.13,9.72,17.97,12.84c6.85,3.12,14.2,4.68,22.05,4.68c7.86,0,15.35-1.66,22.5-4.98
		c7.15-3.33,13.34-7.9,18.58-13.75l8.76,8.16c-6.45,7.05-13.95,12.59-22.5,16.61c-8.56,4.03-17.67,6.04-27.34,6.04
		c-9.47,0-18.38-1.91-26.73-5.74c-8.36-3.83-15.61-8.96-21.75-15.41c-6.14-6.44-11.03-14.05-14.65-22.81
		c-3.63-8.76-5.44-18.17-5.44-28.25c0-9.86,1.81-19.23,5.44-28.09c3.62-8.86,8.5-16.51,14.65-22.96
		c6.14-6.44,13.39-11.58,21.75-15.4C701.55,2.91,710.46,1,719.92,1c9.67,0,18.78,1.96,27.34,5.89c8.56,3.93,16.06,9.52,22.5,16.77
		l-8.76,8.16c-5.24-5.84-11.43-10.42-18.58-13.75C735.28,14.74,727.78,13.08,719.92,13.08z"/>
	<path class="st0" d="M827.16,23.5h30.21v12.08h-30.21v108.3h-12.08V22.14l0,0V10.06l0,0V1h12.08V23.5z"/>
	<g>
		<linearGradient id="SVGID_1_" gradientUnits="userSpaceOnUse" x1="949.136" y1="137.396" x2="1100.1599" y2="-50.4646">
			<stop  offset="0" style="stop-color:#FF0000"/>
			<stop  offset="0.3827" style="stop-color:#D4145A"/>
			<stop  offset="0.6504" style="stop-color:#ED1E79"/>
			<stop  offset="1" style="stop-color:#0000FF"/>
		</linearGradient>
		<path class="st1" d="M1080,71.95c0,9.99-1.46,19.62-4.4,28.86c-2.98,9.27-8.08,17.41-15.32,24.36
			c-7.15,6.98-15.36,11.85-24.65,14.59c-9.33,2.78-18.93,4.14-28.79,4.14h-49.21v-51.2h8.24v42.96h40.97
			c8.77,0,17.31-1.19,25.71-3.61c8.34-2.38,15.65-6.65,21.97-12.84c6.42-6.15,10.92-13.37,13.47-21.68
			c2.52-8.27,3.81-16.81,3.81-25.58c0-8.77-1.29-17.31-3.81-25.58c-2.55-8.31-7.05-15.52-13.47-21.71
			c-6.32-6.15-13.63-10.42-21.97-12.84c-8.41-2.38-16.94-3.57-25.71-3.57h-49.21V0h49.21c9.86,0,19.46,1.36,28.79,4.1
			c9.3,2.75,17.51,7.58,24.65,14.59c7.25,6.98,12.34,15.16,15.32,24.46C1078.54,52.49,1080,62.05,1080,71.95z"/>
	</g>
</g>
</svg>
