<?xml version="1.0" encoding="utf-8"?>
<!-- Generator: Adobe Illustrator 26.0.3, SVG Export Plug-In . SVG Version: 6.00 Build 0)  -->
<svg version="1.1" id="Layer_1" xmlns="http://www.w3.org/2000/svg" xmlns:xlink="http://www.w3.org/1999/xlink" x="0px" y="0px"
	 viewBox="0 0 633.66 1080" style="enable-background:new 0 0 633.66 1080;" xml:space="preserve">
<style type="text/css">
	.st0{fill:#191919;}
	.st1{fill:url(#SVGID_1_);}
	.st2{fill:url(#SVGID_00000100358516537351586710000018422981370381226943_);}
	.st3{fill:url(#SVGID_00000084493041288316041630000001688239977740615055_);}
	.st4{fill:url(#SVGID_00000145031999757281185230000006615942558697876405_);}
	.st5{fill:url(#SVGID_00000034794051560040728980000016473910641797119656_);}
	.st6{fill:url(#SVGID_00000080202479102703744720000011383148739433765256_);}
	.st7{fill:url(#SVGID_00000000193465851395259750000007006759126074630556_);}
	.st8{fill:#CE310D;}
	.st9{fill:#81C995;}
	.st10{fill:#34A853;}
	.st11{fill:#5BB974;}
	.st12{fill:#1E8E3E;}
	.st13{fill:#FFFC01;}
	.st14{fill:#050505;}
	.st15{fill:#FFFFFF;}
	.st16{fill:#4285F4;}
	.st17{fill:#FBBC05;}
	.st18{fill:#EA4335;}
	.st19{fill:#CB1F27;}
	.st20{fill:#0A66C2;}
	.st21{fill:#1D9BF0;}
	.st22{fill:#1877F2;}
	.st23{fill:#FE0000;}
	.st24{fill:url(#SVGID_00000069376065023681966100000002732229025313557922_);}
	.st25{fill:url(#SVGID_00000162333927020064838580000005097717714649735849_);}
	.st26{fill:#1D1D1B;}
	.st27{fill:#231F20;}
	.st28{fill:#7CCCED;}
	.st29{fill:#0492D2;}
	.st30{fill:#4CAFDF;}
	.st31{fill:#F18421;}
	.st32{fill:#154A99;}
	.st33{clip-path:url(#SVGID_00000101073956242286450800000005325600526070345600_);fill:#154A99;}
	.st34{clip-path:url(#SVGID_00000152221877494868563300000010649453255391598006_);fill:#154A99;}
	.st35{fill:url(#SVGID_00000018940404970367423430000015854449916824079744_);}
	.st36{fill:url(#SVGID_00000137094632658448239890000007170934080027348921_);}
</style>
<g>
	<g>
		
			<linearGradient id="SVGID_1_" gradientUnits="userSpaceOnUse" x1="4999.2705" y1="9030.5205" x2="6076.9727" y2="9030.5205" gradientTransform="matrix(3.267949e-07 -1 1 3.267949e-07 -8713.6943 6076.9697)">
			<stop  offset="0" style="stop-color:#FF0000"/>
			<stop  offset="0.8069" style="stop-color:#D4145A"/>
			<stop  offset="1" style="stop-color:#ED1E79"/>
		</linearGradient>
		<path class="st1" d="M425.91,537.55c-11.27-8.05-18.34-11.75-23.73-17.13C277.49,395.97,152.96,271.35,28.43,146.73
			C-10.13,108.15-8.7,80.59,28.05,40.41c52.58-57.5,83.62-49.93,132.03-0.7c146.66,149.12,295.32,296.27,443.19,444.21
			c40.6,40.61,40.52,68.33-0.29,109.16c-151.84,151.9-303.68,303.8-455.55,455.68c-39.36,39.36-66.47,37.78-107.73,0.13
			c-53.95-49.24-50.54-81.79-0.4-130.71c122.07-119.1,241.63-240.77,362.32-361.29C407.06,551.46,413.66,547.23,425.91,537.55z"/>
	</g>
</g>
</svg>
