<?xml version="1.0" encoding="utf-8"?>
<!-- Generator: Adobe Illustrator 26.0.3, SVG Export Plug-In . SVG Version: 6.00 Build 0)  -->
<svg version="1.1" id="Layer_1" xmlns="http://www.w3.org/2000/svg" xmlns:xlink="http://www.w3.org/1999/xlink" x="0px" y="0px"
	 viewBox="0 0 1134.67 789.33" style="enable-background:new 0 0 1134.67 789.33;" xml:space="preserve">
<style type="text/css">
	.st0{fill:#CE310D;}
	.st1{fill:#81C995;}
	.st2{fill:#34A853;}
	.st3{fill:#5BB974;}
	.st4{fill:#1E8E3E;}
	.st5{fill:#FFFC01;}
	.st6{fill:#050505;}
	.st7{fill:#FFFFFF;}
	.st8{fill:#4285F4;}
	.st9{fill:#FBBC05;}
	.st10{fill:#EA4335;}
	.st11{fill:#CB1F27;}
	.st12{fill:#0A66C2;}
	.st13{fill:#1D9BF0;}
	.st14{fill:#1877F2;}
	.st15{fill:#4384F4;}
	.st16{fill:#FBBB03;}
	.st17{fill:#34A753;}
	.st18{fill:#E7C32E;}
	.st19{fill:#FE0000;}
	.st20{fill:url(#SVGID_1_);}
	.st21{fill:url(#SVGID_00000085932992809651371020000007140779856080666295_);}
	.st22{fill:#1D1D1B;}
	.st23{fill:#231F20;}
	.st24{fill:#7CCCED;}
	.st25{fill:#0492D2;}
	.st26{fill:#4CAFDF;}
	.st27{fill:#F18421;}
	.st28{fill:#154A99;}
	.st29{clip-path:url(#SVGID_00000065056656205055236350000003963711213579873458_);fill:#154A99;}
	.st30{clip-path:url(#SVGID_00000178189235613448259440000002093295725260917906_);fill:#154A99;}
</style>
<g>
	<g>
		<g>
			<path class="st0" d="M281.41,460.52c2.91,0,5.58,0,8.25,0c1.19,10.87-8.41,23.07-19.11,24.81c-10.81,1.75-18.68-2.84-25.06-10.98
				c-1.14-1.46-2.28-2.93-3.21-4.53c-0.78-1.34-1.66-1.46-3.04-1.11c-29.14,7.43-57.78-12.03-61.92-42.05
				c-3.32-24.06,9.23-46.72,30.8-55.61c28.44-11.73,61.01,5.75,67.26,36.34c3.94,19.27-1.15,36-15.29,49.84
				c-0.22,0.22-0.45,0.43-0.65,0.65c-0.1,0.11-0.15,0.26-0.34,0.59c2.71,4.14,5.51,8.28,10.68,9.88c5.35,1.66,9.51-0.6,11.14-5.97
				C281.1,461.81,281.23,461.22,281.41,460.52z M236.31,459.71c-1.98-3.23-3.87-6.3-5.73-9.38c-1.9-3.15-4.4-5.35-7.36-6.43
				c-1-0.37-3.54-1.3-6.65-0.59c-1.55,0.35-2.71,0.99-3.45,1.47c-1.28-2.38-2.55-4.76-3.83-7.14c5.3-3.78,11.14-5.6,17.5-5.99
				c10.34-0.64,17.81,4.17,23.4,12.65c0.4-0.61,0.6-0.85,0.72-1.12c0.35-0.77,0.7-1.54,1.01-2.33c4.21-10.92,5.14-22.14,2.93-33.62
				c-1.91-9.92-5.76-18.85-13.49-25.7c-8.18-7.25-18.75-7.75-27.6-1.38c-4.41,3.18-7.7,7.34-10.12,12.15
				c-7.28,14.49-8.05,29.56-3.43,44.93c2.54,8.44,6.85,15.88,14.35,20.95C221.35,462.76,228.52,463.44,236.31,459.71z"/>
		</g>
	</g>
</g>
<g>
	<path class="st1" d="M727.62,79.21c10.47-6.36,24.11-3.02,30.46,7.45c6.36,10.47,3.02,24.11-7.45,30.46
		c-0.28,0.17-0.56,0.33-0.84,0.49l-115.54,66.53c-10.47,6.36-24.11,3.02-30.47-7.45s-3.02-24.11,7.45-30.47
		c0.28-0.17,0.56-0.33,0.84-0.49L727.62,79.21z"/>
	<path class="st2" d="M644.61,31.76c0.05-12.22-9.82-22.18-22.04-22.23c-1.57-0.01-3.14,0.15-4.68,0.48
		c-10.35,2.54-17.59,11.89-17.45,22.56v132.14l44.12,0.8L644.61,31.76z"/>
	<path class="st3" d="M728.12,117.69c10.68,5.53,23.82,1.99,30.27-8.16c6.2-10.44,2.77-23.93-7.67-30.13
		c-0.08-0.04-0.15-0.09-0.24-0.14L634.19,12.6c-10.35-6.25-23.83-2.93-30.09,7.42c-0.15,0.26-0.31,0.52-0.46,0.79
		c-6.14,10.52-2.6,24.03,7.91,30.18c0.07,0.04,0.15,0.08,0.22,0.12L728.12,117.69z"/>
	<path class="st1" d="M749.73,117.84l-105.16,58.74v-50.46l83.44-46.53c11.06-6.13,25-2.13,31.13,8.94c0.57,1.03,1.06,2.1,1.46,3.2
		C763.74,101.92,759.17,112.89,749.73,117.84z"/>
	<circle class="st4" cx="622.55" cy="165.82" r="22.06"/>
</g>
<g>
	<path class="st5" d="M60.95,406.79H30.54c-13.53,0-24.5-10.97-24.5-24.5v-30.41c0-13.53,10.97-24.5,24.5-24.5h30.41
		c13.53,0,24.5,10.97,24.5,24.5v30.41C85.46,395.82,74.49,406.79,60.95,406.79z"/>
	<g>
		<g>
			<path class="st6" d="M78.19,382.11c-0.18-1.79-1.34-2.85-2.95-3.47c-0.63-0.24-1.27-0.45-1.91-0.66c-3.46-1.1-5.74-3.4-7.09-6.74
				c-0.35-0.87-0.39-1.37,0.66-1.65c0.73-0.19,1.42-0.54,2.11-0.85c2.69-1.23,3.97-3.89,3.18-6.55c-0.77-2.61-3.07-3.94-6.09-3.39
				c-0.79,0.14-0.82-0.13-0.84-0.73c-0.04-1.48-0.09-2.96-0.18-4.43c-0.61-9.79-9.36-17.82-19.37-17.8
				c-10.02,0.02-18.68,8.04-19.28,17.88c-0.1,1.72-0.17,3.44-0.25,5.2c-0.25-0.04-0.41-0.06-0.58-0.09
				c-2.97-0.58-5.39,0.66-6.22,3.2c-0.88,2.68,0.39,5.45,3.09,6.7c0.8,0.37,1.62,0.72,2.46,1c0.63,0.22,0.74,0.52,0.51,1.12
				c-1.23,3.24-3.26,5.69-6.61,6.9c-1.03,0.37-2.1,0.67-3.08,1.14c-2.77,1.33-3.29,4.54-1.13,6.74c0.57,0.58,1.25,1,1.99,1.33
				c1.2,0.55,2.47,0.87,3.76,1.08c0.74,0.12,1.05,0.41,1.23,1.14c0.75,2.99,2.69,4.53,5.74,4.14c3.85-0.49,7.27,0.21,10.42,2.49
				c0.78,0.56,1.7,0.94,2.58,1.33c3.59,1.6,7.21,1.62,10.8,0.02c1.31-0.58,2.64-1.19,3.8-2.01c2.42-1.71,5.06-2.23,7.93-1.87
				c0.38,0.05,0.76,0.06,1.14,0.08c3.22,0.22,5.12-1.11,5.94-4.24c0.18-0.68,0.48-0.93,1.17-1.05c1.7-0.3,3.4-0.69,4.87-1.67
				C77.5,385.37,78.38,383.97,78.19,382.11z M72.85,384.03c-1.55,0.42-3.12,0.74-4.69,1.07c-0.72,0.15-1.28,0.43-1.33,1.27
				c-0.25,4.01-1.04,3.64-4.39,3.42c-0.13-0.01-0.25-0.02-0.38-0.03c-2.84-0.36-5.43,0.3-7.86,1.81c-1.83,1.13-3.68,2.25-5.76,2.89
				c-2.43,0.75-4.78,0.44-7.02-0.65c-1.48-0.72-2.93-1.51-4.33-2.37c-2.29-1.41-4.74-1.96-7.39-1.7c-0.59,0.06-1.18,0.1-1.77,0.13
				c-2.52,0.14-2.99-0.19-3.15-2.75c-0.09-1.36-0.61-1.93-1.93-2.13c-1.62-0.25-3.26-0.52-4.79-1.17c-0.54-0.23-1.19-0.47-1.22-1.15
				c-0.04-0.81,0.76-0.83,1.27-0.99c3.45-1.04,6.46-2.69,8.55-5.75c1.22-1.8,2.07-3.77,2.64-5.86c0.36-1.35-0.09-2.29-1.4-2.86
				c-1.28-0.56-2.57-1.07-3.87-1.58c-0.76-0.3-1.29-0.78-1.41-1.63c-0.17-1.24,0.63-2.06,1.88-1.84c0.83,0.14,1.64,0.4,2.47,0.56
				c1.52,0.29,2.44-0.4,2.63-1.94c0.33-2.6,0.02-5.24,0.39-7.85c1.1-7.68,7.98-13.66,15.76-13.64c7.79,0.02,14.69,6.01,15.77,13.65
				c0.35,2.48,0.09,4.98,0.35,7.47c0.21,2.05,1.05,2.68,3.04,2.22c0.58-0.13,1.16-0.24,1.73-0.39c0.97-0.26,1.84-0.15,2.17,0.91
				c0.34,1.06-0.07,1.93-1.11,2.39c-1.16,0.51-2.34,0.96-3.51,1.44c-2.06,0.84-2.42,1.63-1.8,3.72c1.62,5.45,4.95,9.22,10.53,10.84
				c0.66,0.19,1.75,0.17,1.72,1.15C74.62,383.61,73.6,383.83,72.85,384.03z"/>
		</g>
	</g>
	<g>
		<g>
			<path class="st7" d="M72.85,384.03c-1.55,0.42-3.12,0.74-4.69,1.07c-0.72,0.15-1.28,0.43-1.33,1.27
				c-0.25,4.01-1.04,3.64-4.39,3.42c-0.13-0.01-0.25-0.02-0.38-0.03c-2.84-0.36-5.43,0.3-7.86,1.81c-1.83,1.13-3.68,2.25-5.76,2.89
				c-2.43,0.75-4.78,0.44-7.02-0.65c-1.48-0.72-2.93-1.51-4.33-2.37c-2.29-1.41-4.74-1.96-7.39-1.7c-0.59,0.06-1.18,0.1-1.77,0.13
				c-2.52,0.14-2.99-0.19-3.15-2.75c-0.09-1.36-0.61-1.93-1.93-2.13c-1.62-0.25-3.26-0.52-4.79-1.17c-0.54-0.23-1.19-0.47-1.22-1.15
				c-0.04-0.81,0.76-0.83,1.27-0.99c3.45-1.04,6.46-2.69,8.55-5.75c1.22-1.8,2.07-3.77,2.64-5.86c0.36-1.35-0.09-2.29-1.4-2.86
				c-1.28-0.56-2.57-1.07-3.87-1.58c-0.76-0.3-1.29-0.78-1.41-1.63c-0.17-1.24,0.63-2.06,1.88-1.84c0.83,0.14,1.64,0.4,2.47,0.56
				c1.52,0.29,2.44-0.4,2.63-1.94c0.33-2.6,0.02-5.24,0.39-7.85c1.1-7.68,7.98-13.66,15.76-13.64c7.79,0.02,14.69,6.01,15.77,13.65
				c0.35,2.48,0.09,4.98,0.35,7.47c0.21,2.05,1.05,2.68,3.04,2.22c0.58-0.13,1.16-0.24,1.73-0.39c0.97-0.26,1.84-0.15,2.17,0.91
				c0.34,1.06-0.07,1.93-1.11,2.39c-1.16,0.51-2.34,0.96-3.51,1.44c-2.06,0.84-2.42,1.63-1.8,3.72c1.62,5.45,4.95,9.22,10.53,10.84
				c0.66,0.19,1.75,0.17,1.72,1.15C74.62,383.61,73.6,383.83,72.85,384.03z"/>
		</g>
	</g>
</g>
<g transform="matrix(1, 0, 0, 1, 27.009001, -39.238998)">
	<path class="st8" d="M504.78,349.55c0-6.16-0.55-12-1.48-17.69h-88.06v35.15h50.42c-2.26,11.53-8.88,21.27-18.7,27.9v23.38h30.08
		C494.65,401.99,504.78,377.99,504.78,349.55z"/>
	<path class="st2" d="M415.24,440.96c25.25,0,46.37-8.42,61.8-22.68l-30.08-23.38c-8.42,5.61-19.09,9.04-31.72,9.04
		c-24.39,0-45.04-16.44-52.44-38.65h-31.01v24.08C347.13,419.92,378.7,440.96,415.24,440.96z"/>
	<path class="st9" d="M362.8,365.29c-1.95-5.61-2.96-11.61-2.96-17.85s1.09-12.23,2.96-17.85v-24.08h-31.01
		c-6.39,12.62-10.05,26.81-10.05,41.92s3.66,29.3,10.05,41.92L362.8,365.29z"/>
	<path class="st10" d="M415.24,290.95c13.79,0,26.11,4.75,35.85,14.03l26.65-26.65c-16.13-15.12-37.25-24.39-62.5-24.39
		c-36.55,0-68.11,21.04-83.46,51.59l31.01,24.08C370.2,307.39,390.85,290.95,415.24,290.95z"/>
</g>
<g>
	<path class="st11" d="M606.77,377.97c0,19.89,11.96,36.97,29.07,44.48c-0.14-3.39-0.02-7.46,0.85-11.15
		c0.93-3.94,6.25-26.46,6.25-26.46s-1.55-3.1-1.55-7.68c0-7.2,4.17-12.57,9.37-12.57c4.42,0,6.55,3.32,6.55,7.29
		c0,4.44-2.83,11.08-4.29,17.24c-1.22,5.15,2.58,9.35,7.67,9.35c9.2,0,15.4-11.82,15.4-25.82c0-10.64-7.17-18.61-20.21-18.61
		c-14.73,0-23.91,10.99-23.91,23.26c0,4.23,1.25,7.22,3.2,9.53c0.9,1.06,1.02,1.49,0.7,2.71c-0.23,0.89-0.77,3.04-0.99,3.9
		c-0.32,1.23-1.32,1.67-2.43,1.22c-6.79-2.77-9.95-10.2-9.95-18.55c0-13.8,11.64-30.34,34.71-30.34c18.54,0,30.75,13.42,30.75,27.82
		c0,19.05-10.59,33.29-26.21,33.29c-5.24,0-10.18-2.83-11.87-6.05c0,0-2.82,11.19-3.42,13.35c-1.03,3.74-3.05,7.49-4.89,10.4
		c4.37,1.29,8.98,1.99,13.76,1.99c26.82,0,48.57-21.74,48.57-48.57c0-26.82-21.75-48.57-48.57-48.57
		C628.52,329.4,606.77,351.15,606.77,377.97z"/>
</g>
<g>
	<g>
		<path class="st12" d="M451.83,603.63l23.98,0l0-72.16h-23.98V603.63z M463.99,496.69c-8.2,0-13.57,5.39-13.57,12.47
			c0,6.92,5.21,12.46,13.25,12.46h0.16c8.36,0,13.57-5.54,13.57-12.46C477.24,502.07,472.19,496.69,463.99,496.69z M534.69,529.78
			c-12.72,0-18.43,6.99-21.61,11.91l0-10.22h-23.98c0.31,6.77,0,72.16,0,72.16h23.98v-40.3c0-2.16,0.15-4.31,0.79-5.85
			c1.73-4.31,5.68-8.77,12.31-8.77c8.68,0,12.15,6.62,12.15,16.32v38.6h23.98l0-41.37C562.3,540.09,550.47,529.78,534.69,529.78z"/>
	</g>
</g>
<path class="st13" d="M1115.13,363.58c0.03,0.73,0.05,1.46,0.05,2.2c0,22.51-17.13,48.46-48.46,48.46h0h0
	c-9.62,0-18.57-2.82-26.11-7.65c1.33,0.16,2.69,0.24,4.06,0.24c7.98,0,15.32-2.72,21.15-7.29c-7.46-0.14-13.74-5.06-15.91-11.83
	c1.04,0.2,2.11,0.31,3.2,0.31c1.55,0,3.06-0.21,4.49-0.6c-7.79-1.56-13.66-8.45-13.66-16.7c0-0.08,0-0.15,0-0.22
	c2.3,1.28,4.92,2.04,7.71,2.13c-4.57-3.05-7.58-8.27-7.58-14.18c0-3.12,0.84-6.04,2.31-8.56c8.4,10.31,20.95,17.08,35.11,17.8
	c-0.29-1.25-0.44-2.55-0.44-3.88c0-9.4,7.63-17.03,17.03-17.03c4.9,0,9.32,2.07,12.43,5.38c3.88-0.77,7.52-2.18,10.82-4.13
	c-1.27,3.98-3.97,7.31-7.49,9.42c3.45-0.41,6.73-1.33,9.78-2.68C1121.35,358.18,1118.46,361.18,1115.13,363.58z"/>
<path class="st14" d="M1028.55,623.22v-58.07h15.44l10.29-25.73l-25.73,0v-20.59c0-5.68,4.61-5.15,10.29-5.15h10.29v-25.73h-20.59
	c-8.53,0-16.25,3.45-21.83,9.04c-5.59,5.59-9.04,13.31-9.04,21.83v20.59h-20.59v25.73h20.59l0,58.07H1028.55z"/>
<g>
	<g>
		<path class="st15" d="M836.19,186.14c0.49-0.92,0.97-1.84,1.47-2.76c4.85-8.91,12.39-13.81,22.48-13.99
			c10.04-0.18,17.82,4.36,22.88,13.08c12.39,21.34,24.68,42.74,37.01,64.12c4.9,8.51,9.88,16.97,14.68,25.53
			c9.26,16.52-2.21,37.29-21.09,38.16c-10.42,0.48-18.51-3.9-23.77-12.86c-9.72-16.55-19.21-33.22-28.8-49.84
			c-0.13-0.23-0.3-0.43-0.45-0.65c-1.31-1.15-1.92-2.77-2.75-4.22c-6.72-11.67-13.58-23.27-20.14-35.03
			C833.88,200.83,833.33,193.55,836.19,186.14z"/>
		<path class="st16" d="M836.19,186.14c-0.11,1.83-0.88,3.51-1.12,5.33c-0.79,6.01,0.32,11.62,3.34,16.86
			c6.71,11.62,13.41,23.25,20.11,34.88c0.71,1.23,1.38,2.49,2.08,3.73c-3.44,5.93-6.9,11.85-10.33,17.78
			c-5.5,9.53-10.99,19.06-16.49,28.59c-0.22,0.38-0.49,0.74-0.74,1.11c-0.35-0.68-0.01-1.31,0.18-1.93
			c2.13-6.9,1.61-13.61-1.84-19.95c-4.03-7.4-10.32-11.84-18.67-13.08c-8.64-1.28-15.98,1.53-22.15,7.6
			c-0.28,0.28-0.51,0.63-0.95,0.7c-0.23-0.04-0.42-0.12-0.34-0.42c3.7-6.46,7.39-12.93,11.11-19.39
			c11.61-20.14,23.22-40.27,34.84-60.4C835.5,187.05,835.66,186.46,836.19,186.14z"/>
		<path class="st17" d="M789.53,267.63c4.41-4.8,9.77-7.77,16.3-8.65c11.67-1.59,23.39,5.51,27.41,16.7
			c2.05,5.7,2.11,11.43,0.24,17.18c-0.16,0.51-0.29,1.03-0.43,1.55c-2.95,6.17-7.25,10.98-13.61,13.8
			c-16.42,7.28-35.16-4.23-36.12-22.17c-0.34-6.28,1.55-11.85,4.98-17c0.1-0.15,0.16-0.32,0.23-0.48
			C788.8,268.18,789.17,267.91,789.53,267.63z"/>
		<path class="st18" d="M789.53,267.63c-0.23,0.42-0.48,0.82-1.01,0.92c0.19-0.44,0.38-0.88,0.75-1.22
			C789.36,267.43,789.44,267.53,789.53,267.63z"/>
	</g>
</g>
<g>
	<g>
		<g>
			<path class="st19" d="M819.64,464.95c19.48,0.33,37.88,0.36,56.21,2.08c4.16,0.39,8.39,1.06,12.36,2.3
				c5.99,1.87,10.09,6.17,12.31,12.02c2.32,6.14,2.76,12.68,3.3,19.15c0.93,11.11,1.41,22.24,0.86,33.38
				c-0.38,7.66-0.93,15.32-1.67,22.95c-0.42,4.36-1.05,8.75-2.99,12.77c-3.37,6.97-9,10.98-16.6,12.11
				c-14.81,2.21-29.74,2.43-44.67,2.68c-10.2,0.17-20.41,0.38-30.6,0.12c-14.55-0.37-29.09-1.02-43.62-1.83
				c-4.21-0.23-8.48-1.02-12.52-2.23c-6.07-1.83-10.19-6.15-12.5-12.02c-2.14-5.46-2.62-11.29-3.14-17.06
				c-1.02-11.33-1.62-22.7-1.1-34.08c0.38-8.27,0.98-16.54,1.79-24.77c0.46-4.68,1.17-9.39,3.54-13.62
				c3.49-6.22,8.81-9.8,15.8-10.89c12.89-2,25.91-2.27,38.91-2.61C803.78,465.19,812.25,465.09,819.64,464.95z M802.71,550.16
				c0.71-0.36,1.2-0.58,1.67-0.84c2.02-1.16,4.03-2.36,6.06-3.51c11.86-6.74,23.71-13.49,35.58-20.21c1-0.57,1.02-0.92-0.01-1.48
				c-2.67-1.45-5.3-2.96-7.93-4.46c-10.38-5.93-20.76-11.87-31.15-17.8c-1.32-0.75-2.65-1.48-4.22-2.35
				C802.71,516.5,802.71,533.19,802.71,550.16z"/>
		</g>
	</g>
</g>
<g>
	
		<radialGradient id="SVGID_1_" cx="1004.4704" cy="525.0914" r="123.8498" gradientTransform="matrix(1 0 0 -1 0 696)" gradientUnits="userSpaceOnUse">
		<stop  offset="0.09" style="stop-color:#FA8F21"/>
		<stop  offset="0.78" style="stop-color:#D82D7E"/>
	</radialGradient>
	<path class="st20" d="M1023.49,123.02c0-8.73,7.08-15.81,15.81-15.81s15.81,7.08,15.81,15.81s-7.08,15.81-15.81,15.81
		S1023.49,131.75,1023.49,123.02L1023.49,123.02 M1014.94,123.02c0,13.45,10.91,24.36,24.36,24.36c13.45,0,24.36-10.91,24.36-24.36
		c0-13.45-10.9-24.36-24.36-24.36C1025.85,98.66,1014.95,109.57,1014.94,123.02C1014.95,123.02,1014.95,123.02,1014.94,123.02
		 M1058.93,97.7c0,3.14,2.55,5.69,5.69,5.69c3.14,0,5.69-2.55,5.69-5.69c0-3.14-2.55-5.69-5.69-5.69l0,0
		C1061.48,92.01,1058.94,94.55,1058.93,97.7 M1020.14,161.64c-3.01-0.03-5.99-0.59-8.81-1.63c-2.06-0.76-3.92-1.97-5.46-3.55
		c-1.58-1.53-2.79-3.39-3.55-5.45c-1.05-2.82-1.6-5.8-1.64-8.81c-0.23-5-0.28-6.5-0.28-19.17s0.05-14.17,0.28-19.17
		c0.04-3.01,0.59-5.99,1.63-8.81c0.76-2.06,1.97-3.92,3.55-5.46c1.53-1.58,3.39-2.79,5.46-3.55c2.82-1.05,5.8-1.6,8.81-1.63
		c5-0.23,6.5-0.28,19.16-0.28c12.66,0,14.17,0.05,19.17,0.28c3.01,0.04,5.99,0.59,8.81,1.63c2.06,0.76,3.93,1.97,5.46,3.55
		c1.58,1.53,2.79,3.4,3.55,5.46c1.05,2.82,1.6,5.8,1.63,8.81c0.23,5,0.28,6.5,0.28,19.17s-0.05,14.17-0.28,19.17
		c-0.04,3.01-0.59,5.99-1.63,8.81c-1.6,4.14-4.87,7.41-9.01,9c-2.82,1.05-5.8,1.6-8.81,1.63c-5,0.23-6.5,0.28-19.17,0.28
		C1026.64,161.91,1025.14,161.87,1020.14,161.64 M1019.75,75.87c-3.94,0.08-7.83,0.82-11.51,2.2c-3.17,1.19-6.03,3.06-8.4,5.47
		c-2.42,2.37-4.28,5.24-5.47,8.4c-1.38,3.69-2.13,7.58-2.2,11.52c-0.23,5.06-0.29,6.67-0.29,19.56c0,12.88,0.05,14.5,0.29,19.56
		c0.08,3.94,0.82,7.83,2.2,11.51c1.19,3.17,3.06,6.04,5.47,8.4c2.37,2.41,5.24,4.28,8.4,5.47c3.69,1.38,7.58,2.13,11.51,2.2
		c5.06,0.23,6.67,0.29,19.56,0.29c12.88,0,14.5-0.05,19.56-0.29c3.94-0.08,7.83-0.82,11.51-2.2c6.37-2.46,11.41-7.5,13.88-13.88
		c1.38-3.69,2.13-7.58,2.2-11.51c0.23-5.06,0.28-6.67,0.28-19.56c0-12.88-0.05-14.5-0.28-19.56c-0.08-3.94-0.82-7.83-2.2-11.51
		c-1.19-3.16-3.06-6.03-5.47-8.4c-2.37-2.41-5.23-4.28-8.4-5.47c-3.69-1.38-7.58-2.13-11.52-2.2c-5.06-0.23-6.67-0.29-19.56-0.29
		S1024.8,75.64,1019.75,75.87"/>
	
		<radialGradient id="SVGID_00000126297523618943959100000012132303493821836696_" cx="1049.4053" cy="520.8414" r="97.6105" gradientTransform="matrix(1 0 0 -1 0 696)" gradientUnits="userSpaceOnUse">
		<stop  offset="0.64" style="stop-color:#8C3AAA;stop-opacity:0"/>
		<stop  offset="1" style="stop-color:#8C3AAA"/>
	</radialGradient>
	<path style="fill:url(#SVGID_00000126297523618943959100000012132303493821836696_);" d="M1023.49,123.02
		c0-8.73,7.08-15.81,15.81-15.81s15.81,7.08,15.81,15.81s-7.08,15.81-15.81,15.81S1023.49,131.75,1023.49,123.02L1023.49,123.02
		 M1014.94,123.02c0,13.45,10.91,24.36,24.36,24.36c13.45,0,24.36-10.91,24.36-24.36c0-13.45-10.9-24.36-24.36-24.36
		C1025.85,98.66,1014.95,109.57,1014.94,123.02C1014.95,123.02,1014.95,123.02,1014.94,123.02 M1058.93,97.7
		c0,3.14,2.55,5.69,5.69,5.69c3.14,0,5.69-2.55,5.69-5.69c0-3.14-2.55-5.69-5.69-5.69l0,0C1061.48,92.01,1058.94,94.55,1058.93,97.7
		 M1020.14,161.64c-3.01-0.03-5.99-0.59-8.81-1.63c-2.06-0.76-3.92-1.97-5.46-3.55c-1.58-1.53-2.79-3.39-3.55-5.45
		c-1.05-2.82-1.6-5.8-1.64-8.81c-0.23-5-0.28-6.5-0.28-19.17s0.05-14.17,0.28-19.17c0.04-3.01,0.59-5.99,1.63-8.81
		c0.76-2.06,1.97-3.92,3.55-5.46c1.53-1.58,3.39-2.79,5.46-3.55c2.82-1.05,5.8-1.6,8.81-1.63c5-0.23,6.5-0.28,19.16-0.28
		c12.66,0,14.17,0.05,19.17,0.28c3.01,0.04,5.99,0.59,8.81,1.63c2.06,0.76,3.93,1.97,5.46,3.55c1.58,1.53,2.79,3.4,3.55,5.46
		c1.05,2.82,1.6,5.8,1.63,8.81c0.23,5,0.28,6.5,0.28,19.17s-0.05,14.17-0.28,19.17c-0.04,3.01-0.59,5.99-1.63,8.81
		c-1.6,4.14-4.87,7.41-9.01,9c-2.82,1.05-5.8,1.6-8.81,1.63c-5,0.23-6.5,0.28-19.17,0.28
		C1026.64,161.91,1025.14,161.87,1020.14,161.64 M1019.75,75.87c-3.94,0.08-7.83,0.82-11.51,2.2c-3.17,1.19-6.03,3.06-8.4,5.47
		c-2.42,2.37-4.28,5.24-5.47,8.4c-1.38,3.69-2.13,7.58-2.2,11.52c-0.23,5.06-0.29,6.67-0.29,19.56c0,12.88,0.05,14.5,0.29,19.56
		c0.08,3.94,0.82,7.83,2.2,11.51c1.19,3.17,3.06,6.04,5.47,8.4c2.37,2.41,5.24,4.28,8.4,5.47c3.69,1.38,7.58,2.13,11.51,2.2
		c5.06,0.23,6.67,0.29,19.56,0.29c12.88,0,14.5-0.05,19.56-0.29c3.94-0.08,7.83-0.82,11.51-2.2c6.37-2.46,11.41-7.5,13.88-13.88
		c1.38-3.69,2.13-7.58,2.2-11.51c0.23-5.06,0.28-6.67,0.28-19.56c0-12.88-0.05-14.5-0.28-19.56c-0.08-3.94-0.82-7.83-2.2-11.51
		c-1.19-3.16-3.06-6.03-5.47-8.4c-2.37-2.41-5.23-4.28-8.4-5.47c-3.69-1.38-7.58-2.13-11.52-2.2c-5.06-0.23-6.67-0.29-19.56-0.29
		S1024.8,75.64,1019.75,75.87"/>
</g>
<g>
	<path class="st22" d="M128.65,717.14c-0.47-0.33-1.25,0.18-1.26,0.19c-0.41,0.24-2.55,1.41-7.19,2.36
		c-4.63,0.8-9.89,1.34-9.89,1.34c-2.49,0.19-4.89,0.43-7.21,0.71c0.34-1.52,0.47-3.22-0.27-4.19c-0.8-1.05-1.57-1.58-2.27-1.58
		c-0.47,0-1.14,0.25-1.58,1.43c-0.59,1.59-1.57,3.3-3.07,5.34c-18.04,2.92-28.95,8.11-29.05,12.81c-0.12,5.86,9.64,9.77,9.64,9.77
		c0.41,0.14,0.54,0.08,0.6-0.03c0.14-0.28-0.24-0.58-0.24-0.58c-5.49-4.27-5.12-7.32-5.12-7.32c0.29-3.6,8.92-5.86,18.67-7.21
		c-2.12,3.14-4.07,6.37-5.86,9.71c-5.26,9.86-7.78,18.39-7.5,25.37c0,0.35,0.27,8.56,3.59,10.74c0.36,0.24,0.77,0.39,1.2,0.42l0,0
		c0.31,0.01,0.61-0.12,0.83-0.35c0.37-0.39,0.51-1.08,0.44-2.12c-0.02-0.3-0.05-0.62-0.08-0.99c-0.33-3.79-0.94-10.84,4.63-21.67
		c3.16-6.13,6.51-12.03,9.21-16.74c1.16-2.03,2.2-3.86,3.07-5.42c7.57-0.65,14.4-0.84,17.12-0.79c7.31,0.12,12.06-7.78,11.94-10.22
		C128.96,717.65,128.87,717.3,128.65,717.14z"/>
	<path class="st22" d="M203.62,764.3c-0.03-1.3-0.41-2.56-1.1-3.67c-0.72-1.11-2.31-3.18-5.16-5.28c-4.17-3.08-4.56-6.22-3.98-7.7
		s2.25-3.59,0.13-4.75c-2.12-1.16-5.82,2.71-5.96,6.38c-0.15,2.08-0.71,4.11-1.65,5.97c-1.51,2.81-7.53,13.46-11.32,12.29
		c0,0-1.85-0.83-0.64-4.56c1.16-3.59,12.19-28.62,3.27-32.78c0,0-5.39-2.05-6.67,0.96c0,0,4.36-0.51,1.35,12.26
		c0,0-14.69-1.41-21.37,14.44c0,0-5.13,9.69-9.3,9.82c0,0-1.67-0.32-0.77-5.19c0,0,1.99-9.69,5.52-16.17c0,0-10.97-9.63-24.64,5.13
		c0,0-3.27,3.08-4.88,10.14c0,0-6.1,7.12-12.7,5.71c0,0-5.78-0.58-2.83-11.04c0,0,16.68,1.09,16.36-8.15c0,0-0.26-6.03-8.98-4.68
		c0,0-9.65,0.93-15.2,12.77c-0.39,0.92-2.76,6.78-1.73,10.21c0.65,2.22,2.82,7.07,9.42,6.87c8.55-0.26,14.11-6.16,15.23-7.78
		c0,0,0.09,7.53,6.16,7.87c0,0,5.09,0.16,9.33-8.15l0,0c0,0,0.17-0.35,0.31-0.32c0.11,0.03,0.17,0.13,0.16,0.24l0,0
		c-0.17,1.41-0.74,8.62,5.51,8.31c0,0,5.48,0.86,11.64-9.58c0,0-0.26,9.84,5.99,9.49c0,0,5.68,0.17,9.77-8.41l0,0
		c0,0,0.14-0.25,0.29-0.17l0,0c0.1,0.09,0.14,0.22,0.1,0.34c-0.28,1.4-1.26,8.14,5.19,8.25l0,0c0,0,1.62,0.09,2.57-0.25l0,0
		c2.68-0.78,8.4-4.12,14.75-18.1c0.04-0.1,0.39-0.96,0.53-0.96c0.08,0,0.13,0.08,0.19,0.24l0,0c0,0,1.65,3.77,3.99,6.62
		c0,0,0.35,0.4,0.52,0.58l0,0c2.15,2.58,3.07,4.51,0.13,5.73c-0.54,0.18-5.93,1.89-6.41-0.81c0,0-2.91,0.96-3.51,2.9
		c-0.27,0.89-0.27,2.54,1.14,3.3c0.08,0.05,0.15,0.1,0.24,0.14l0.05,0.02c0.47,0.22,0.96,0.37,1.47,0.46
		c1.72,0.36,4.95,0.56,9.82-0.96c0.43-0.12,0.83-0.26,1.21-0.4l0.13-0.05l0,0c3.13-1.18,4.87-2.83,5.66-4.55l0,0
		c0.53-1.03,0.63-2.32,0.65-2.79l0,0c0-0.04,0-0.08,0-0.12v-0.08H203.62z M107.98,746.29c3.79-1.6,3.27,1.03,3.27,1.03
		c-0.38,5.58-9.18,6.42-9.18,6.42S104.19,747.9,107.98,746.29z M132.17,759.13c-2.83,8.28-5.84,6.93-5.84,6.93
		c-4.24-1.92,0.32-11.16,0.32-11.16c5.77-10.85,11.43-9.05,11.43-9.05C136.73,747.64,134.99,750.86,132.17,759.13L132.17,759.13z
		 M159.89,766.12c-5.08-0.68-0.58-10.4-0.58-10.4c5.58-11.29,11.81-9.94,11.81-9.94C165.34,765.22,159.89,766.12,159.89,766.12
		L159.89,766.12z"/>
</g>
<g transform="matrix(2.63997 0 0 2.63997 1449.13 412.089)">
	<g>
		<path class="st23" d="M-417.2,111.13h-2.66c-1.86,0-3.34,0.5-4.4,1.49c-1.07,1-1.61,2.45-1.61,4.31v7.81h3.08v-8.08
			c0-0.87,0.25-1.52,0.78-2c0.53-0.48,1.25-0.72,2.16-0.72h2.66c0.9,0,1.63,0.24,2.16,0.72c0.52,0.47,0.78,1.14,0.78,2v8.08h3.08
			v-7.81c0-1.86-0.54-3.31-1.61-4.31C-413.85,111.63-415.33,111.13-417.2,111.13"/>
		<path class="st23" d="M-388.46,111.13h-2.66c-1.86,0-3.34,0.5-4.4,1.49c-0.03,0.02-0.05,0.05-0.07,0.08
			c-0.03-0.03-0.05-0.05-0.07-0.08c-1.06-0.99-2.54-1.49-4.4-1.49h-2.66c-1.86,0-3.34,0.5-4.4,1.49c-1.07,1-1.61,2.45-1.61,4.31
			v7.81h3.08v-8.08c0-0.87,0.26-1.52,0.78-2c0.53-0.48,1.25-0.72,2.16-0.72h2.66c0.9,0,1.63,0.24,2.16,0.72
			c0.52,0.47,0.78,1.14,0.78,2v8.08h3.08v-8.08c0-0.87,0.26-1.52,0.78-2c0.53-0.48,1.25-0.72,2.16-0.72h2.66
			c0.9,0,1.63,0.24,2.16,0.72c0.52,0.47,0.78,1.14,0.78,2v8.08h3.08v-7.81c0-1.86-0.54-3.31-1.61-4.31
			C-385.12,111.63-386.6,111.13-388.46,111.13"/>
		<path class="st23" d="M-345.41,117.41c0.23-0.26,0.39-0.59,0.5-0.97c0.11-0.4,0.16-0.96,0.16-1.69c0-1.37-0.47-2.37-1.42-2.96
			c-0.72-0.44-1.78-0.66-3.13-0.66h-9.8v13.6h10.61c1.48,0,2.58-0.33,3.3-0.97c0.73-0.66,1.09-1.74,1.09-3.22
			C-344.1,119.03-344.54,117.98-345.41,117.41 M-349.27,116.21h-6.75v-2.25h6.73c1.29,0,1.47,0.56,1.47,1.16
			C-347.82,115.68-347.99,116.21-349.27,116.21 M-356.02,119.05h7.16c1.49,0,1.69,0.68,1.69,1.34c0,1.06-0.46,1.49-1.59,1.49h-7.25
			V119.05z"/>
		<path class="st23" d="M-341.71,111.14h3.13v13.59h-3.13V111.14z"/>
	</g>
	<path class="st24" d="M-380.39,115.81c0.01-0.01,0.01-0.02,0.02-0.03l0.04-0.06c0.04-0.06,0.08-0.11,0.12-0.16
		c0.02-0.02,0.03-0.03,0.03-0.05l0.02-0.02c0.08-0.09,0.16-0.18,0.27-0.29l0.03-0.03c0.05-0.05,0.11-0.1,0.17-0.15
		c0.03-0.03,0.06-0.05,0.09-0.08l0.02-0.01c0.17-0.13,0.35-0.25,0.55-0.36l0.06-0.04c0.14-0.08,0.28-0.15,0.43-0.21l0.02-0.01
		c0.07-0.03,0.15-0.06,0.22-0.09c0.03-0.01,0.07-0.02,0.1-0.04c0.13-0.05,0.27-0.09,0.42-0.14c0.04-0.01,0.09-0.03,0.14-0.04
		c0.02,0,0.04-0.01,0.06-0.02c0.03-0.01,0.06-0.02,0.09-0.03c0.25-0.07,0.48-0.12,0.7-0.16l0,0c0.1-0.02,0.2-0.04,0.3-0.05
		c0,0,0,0,0.01,0c0.01,0,0.02,0,0.03,0c0.01,0,0.03,0,0.04-0.01l0.01,0c0.08-0.01,0.16-0.02,0.24-0.03l0.02,0v0
		c0.08-0.01,0.15-0.02,0.21-0.02c0.01,0,0.03,0,0.04,0l0.02,0c0.01,0,0.01,0,0.02,0c0.01,0,0.02,0,0.03,0l0,0
		c0.05,0,0.09-0.01,0.12-0.01c0.01,0,0.01,0,0.02,0c0.02,0,0.05,0,0.06,0l0.02,0c0.07-0.01,0.15-0.01,0.22-0.01h9.14
		c0.72,0,1.36,0.34,1.77,0.87l-0.03-0.17c-0.01-0.07-0.03-0.13-0.05-0.2l-0.02-0.07c-0.02-0.07-0.04-0.14-0.06-0.21l-0.05-0.16
		c-0.03-0.09-0.07-0.19-0.1-0.28c0,0,0-0.01,0-0.01c-0.39-0.95-1.14-1.89-2.61-2.19c-0.02,0-0.05-0.01-0.07-0.01
		c-0.06-0.01-0.13-0.02-0.19-0.03c-0.01,0-0.02,0-0.02,0c-0.06-0.01-0.13-0.01-0.19-0.02c-0.05-0.01-0.1-0.01-0.15-0.01
		c-0.03,0-0.07-0.01-0.1-0.01l-0.02,0c-0.09,0-0.18-0.01-0.28-0.01h-6.78C-378.01,111.1-380.31,113.2-380.39,115.81"/>
	<path class="st25" d="M-364.06,120.54c-0.01,0.03-0.01,0.07-0.02,0.1c0,0,0,0.01,0,0.01c-0.01,0.03-0.02,0.07-0.03,0.11
		c0,0,0,0.01,0,0.01c-0.01,0.04-0.02,0.07-0.03,0.11c0,0,0,0.01,0,0.01c-0.01,0.04-0.03,0.08-0.04,0.13c0,0,0,0,0,0.01
		c-0.1,0.27-0.25,0.59-0.46,0.92c0,0,0,0.01-0.01,0.01c-0.03,0.05-0.07,0.1-0.11,0.16c0,0-0.01,0.01-0.01,0.01
		c-0.04,0.05-0.08,0.11-0.12,0.16c0,0,0,0,0,0c-0.13,0.17-0.28,0.34-0.45,0.51c0,0,0,0,0,0c-0.05,0.05-0.11,0.11-0.17,0.16
		c-0.01,0.01-0.02,0.02-0.03,0.03c-0.05,0.05-0.1,0.09-0.15,0.13c-0.01,0.01-0.03,0.03-0.05,0.04c-0.05,0.04-0.1,0.08-0.16,0.12
		c-0.02,0.01-0.03,0.03-0.05,0.04c-0.06,0.04-0.11,0.08-0.17,0.13c-0.02,0.01-0.03,0.02-0.05,0.03c-0.07,0.05-0.14,0.1-0.22,0.14
		c-0.01,0-0.01,0.01-0.02,0.01c-0.16,0.1-0.34,0.2-0.52,0.3c-0.02,0.01-0.05,0.02-0.07,0.04c-0.07,0.03-0.14,0.07-0.21,0.1
		c-0.03,0.02-0.07,0.03-0.1,0.05c-0.07,0.03-0.13,0.06-0.2,0.09c-0.04,0.02-0.07,0.03-0.11,0.05c-0.07,0.03-0.14,0.06-0.21,0.08
		c-0.04,0.01-0.08,0.03-0.12,0.05c-0.07,0.03-0.15,0.06-0.23,0.08c-0.04,0.01-0.08,0.03-0.12,0.04c-0.09,0.03-0.18,0.06-0.28,0.09
		c-0.03,0.01-0.05,0.02-0.08,0.03c-0.12,0.04-0.24,0.07-0.37,0.1h2.07c3.18,0,5.76-2.18,5.76-4.85v-3.94c0-2.52-2.3-4.59-5.22-4.83
		c0,0,0,0,0.01,0l0.03,0.01c0.07,0.03,0.12,0.06,0.18,0.09l0.05,0.03c0.06,0.03,0.12,0.07,0.17,0.1l0.04,0.02
		c0.06,0.04,0.11,0.07,0.15,0.1c0.01,0.01,0.03,0.02,0.04,0.03c0.05,0.04,0.1,0.08,0.15,0.11l0.05,0.04
		c0.04,0.04,0.09,0.07,0.13,0.11c0.01,0.01,0.02,0.02,0.04,0.04c0.04,0.04,0.07,0.07,0.11,0.11c0.01,0.01,0.03,0.03,0.04,0.04
		c0.04,0.05,0.08,0.09,0.12,0.14c0.01,0.01,0.03,0.03,0.04,0.05c0.03,0.03,0.05,0.07,0.08,0.1c0.01,0.01,0.02,0.03,0.04,0.05
		c0.03,0.04,0.07,0.09,0.1,0.13l0.04,0.06c0.02,0.04,0.05,0.07,0.07,0.11l0.04,0.06c0.03,0.04,0.05,0.08,0.07,0.12l0.03,0.07
		c0.02,0.05,0.05,0.09,0.07,0.13l0.07,0.16c0.01,0.03,0.02,0.04,0.03,0.06c0.02,0.04,0.04,0.09,0.05,0.13l0.02,0.06
		c0.01,0.04,0.03,0.08,0.04,0.11c0,0.01,0.01,0.03,0.02,0.05c0.01,0.03,0.02,0.07,0.03,0.1l0.03,0.09c0.01,0.05,0.03,0.09,0.04,0.14
		l0.04,0.16c0,0.01,0.01,0.03,0.01,0.05c0.01,0.04,0.02,0.09,0.03,0.13l0.01,0.03l0.05,0.29c0,0.01,0,0.02,0,0.03
		c0.01,0.09,0.03,0.18,0.03,0.27l0,0.02c0.01,0.07,0.02,0.16,0.02,0.24c0.01,0.07,0.01,0.15,0.01,0.24l0.01,0.54v4.08
		C-363.99,120.16-364.01,120.35-364.06,120.54C-364.06,120.53-364.06,120.53-364.06,120.54"/>
	<path class="st26" d="M-379.62,115.45c-0.1,0.1-0.18,0.18-0.24,0.26c-0.01,0.01-0.01,0.02-0.03,0.03l-0.03,0.04
		c-0.04,0.05-0.07,0.09-0.1,0.14l-0.04,0.06c-0.03,0.05-0.06,0.1-0.09,0.14l-0.02,0.03c-0.03,0.05-0.05,0.1-0.07,0.14
		c-0.03,0.06-0.05,0.1-0.06,0.15c-0.02,0.05-0.03,0.09-0.04,0.12l0,0.02c-0.01,0.03-0.02,0.05-0.02,0.07l0,0.02
		c0,0.01-0.01,0.03-0.01,0.04l0,0.02l0,3.16c0,2.67,2.32,4.85,5.18,4.85h4.28c3.43-0.46,5.07-1.73,5.86-2.84
		c-0.34,0.2-0.74,0.32-1.15,0.32h-9.14c-1.23,0-2.24-1-2.24-2.24v-4.1c0-0.67,0.29-1.28,0.77-1.69l-0.56,0.13
		c-0.03,0.01-0.05,0.01-0.07,0.02c-0.02,0.01-0.05,0.01-0.07,0.02c-0.04,0.01-0.08,0.02-0.13,0.04c-0.14,0.04-0.27,0.08-0.4,0.13
		c-0.03,0.01-0.06,0.02-0.09,0.03c-0.07,0.03-0.15,0.06-0.21,0.09l-0.02,0.01c-0.14,0.06-0.26,0.12-0.39,0.19l-0.05,0.03
		c-0.19,0.11-0.35,0.22-0.5,0.33l-0.03,0.02c-0.08,0.07-0.16,0.13-0.23,0.2L-379.62,115.45z"/>
	<path class="st23" d="M-431.49,111.13h3.14v13.63h-3.14V111.13z"/>
</g>
<g>
	<g>
		<path class="st27" d="M727.47,715.51c0-1.51,0.43-2.61,1.3-3.29c0.86-0.67,2.08-1.01,3.65-1.01c0.97,0,1.86,0.12,2.68,0.36
			c0.81,0.25,1.35,0.42,1.62,0.53v21.33c0,3.68,0.86,6.48,2.59,8.4c1.73,1.92,4.38,2.88,7.95,2.88c3.57,0,6.22-0.96,7.95-2.88
			c1.73-1.92,2.6-4.72,2.6-8.4v-17.92c0-1.51,0.43-2.61,1.3-3.29c0.86-0.67,2.05-1.01,3.57-1.01c1.03,0,1.95,0.12,2.76,0.36
			c0.81,0.25,1.35,0.42,1.62,0.53v23.36c0,2.76-0.47,5.23-1.42,7.42c-0.95,2.19-2.3,4.04-4.05,5.55c-1.76,1.52-3.85,2.67-6.29,3.45
			c-2.43,0.78-5.11,1.17-8.03,1.17c-2.92,0-5.6-0.39-8.03-1.17c-2.44-0.78-4.52-1.93-6.25-3.45c-1.73-1.51-3.08-3.36-4.05-5.55
			c-0.97-2.19-1.46-4.66-1.46-7.42V715.51z"/>
		<path class="st27" d="M774.34,703.99c0-1.51,0.43-2.61,1.3-3.29c0.86-0.67,2.05-1.01,3.57-1.01c0.97,0,1.88,0.12,2.72,0.37
			c0.84,0.24,1.39,0.42,1.66,0.53v10.62h11.76c1.78,0,3.04,0.36,3.77,1.09c0.73,0.73,1.09,1.8,1.09,3.2c0,0.92-0.13,1.77-0.4,2.55
			c-0.27,0.79-0.49,1.34-0.65,1.66h-15.57v18.09c0,1.41,0.19,2.56,0.57,3.45c0.38,0.89,0.9,1.61,1.58,2.15
			c0.68,0.54,1.46,0.92,2.35,1.14c0.89,0.21,1.83,0.32,2.8,0.32c1.57,0,3.03-0.24,4.38-0.73c1.35-0.49,2.33-0.94,2.92-1.38
			l3.73,6.16c-0.43,0.32-1.04,0.73-1.83,1.22c-0.78,0.49-1.74,0.95-2.88,1.38c-1.13,0.43-2.41,0.8-3.81,1.1
			c-1.41,0.3-2.95,0.44-4.62,0.44c-4.76,0-8.35-1.23-10.79-3.69c-2.44-2.46-3.65-5.69-3.65-9.69V703.99z"/>
		<path class="st27" d="M805.73,696.45c0-1.46,0.43-2.54,1.3-3.25c0.86-0.7,2.08-1.05,3.65-1.05c0.98,0,1.87,0.12,2.68,0.37
			c0.81,0.25,1.35,0.42,1.62,0.53v23.27c1.35-1.73,3.22-3.2,5.59-4.42c2.38-1.22,5.11-1.83,8.19-1.83c2.97,0,5.72,0.53,8.23,1.58
			c2.51,1.05,4.7,2.54,6.57,4.46c1.87,1.92,3.33,4.19,4.38,6.81c1.06,2.62,1.58,5.5,1.58,8.64c0,3.08-0.54,5.95-1.62,8.6
			c-1.08,2.65-2.6,4.92-4.54,6.81c-1.95,1.89-4.26,3.38-6.94,4.46c-2.68,1.08-5.61,1.62-8.8,1.62c-3.19,0-6.12-0.49-8.8-1.46
			c-2.68-0.97-4.99-2.43-6.93-4.38c-1.95-1.95-3.46-4.38-4.54-7.3c-1.09-2.92-1.62-6.35-1.62-10.3V696.45z M827.46,744.71
			c1.84,0,3.53-0.34,5.07-1.01c1.54-0.68,2.86-1.59,3.97-2.76c1.11-1.16,1.96-2.54,2.56-4.14c0.59-1.59,0.89-3.33,0.89-5.23
			c0-1.89-0.3-3.65-0.89-5.27c-0.59-1.62-1.45-3.01-2.56-4.17c-1.11-1.16-2.43-2.08-3.97-2.76c-1.54-0.68-3.24-1.02-5.07-1.02
			c-1.89,0-3.61,0.34-5.15,1.02c-1.54,0.68-2.85,1.61-3.93,2.8c-1.08,1.19-1.93,2.6-2.56,4.22c-0.62,1.62-0.93,3.36-0.93,5.19
			c0,1.95,0.31,3.73,0.93,5.35c0.62,1.62,1.49,3,2.6,4.14c1.11,1.14,2.43,2.03,3.98,2.68C823.94,744.38,825.63,744.71,827.46,744.71
			"/>
		<path class="st27" d="M854.96,725.73c0-4.97,1.53-8.83,4.58-11.56c3.05-2.73,7.28-4.1,12.69-4.1c3.41,0,6.18,0.47,8.32,1.42
			c2.13,0.95,3.2,2.39,3.2,4.34c0,0.92-0.26,1.81-0.77,2.67c-0.52,0.87-0.93,1.41-1.26,1.62c-0.92-0.43-2.06-0.84-3.41-1.22
			c-1.35-0.38-2.89-0.57-4.62-0.57c-6.32,0-9.49,3.35-9.49,10.06v23.52h-9.25V725.73z"/>
		<path class="st27" d="M923.73,751.76c-0.54,0.11-1.39,0.23-2.55,0.37c-1.16,0.13-2.53,0.27-4.1,0.4
			c-1.57,0.14-3.33,0.26-5.27,0.37c-1.95,0.1-3.97,0.16-6.08,0.16c-4.22,0-7.67-0.37-10.34-1.1c-2.68-0.73-4.78-1.7-6.32-2.92
			c-1.54-1.22-2.59-2.62-3.16-4.22c-0.57-1.59-0.85-3.23-0.85-4.9c0-2.22,0.34-4.16,1.01-5.84c0.67-1.68,1.78-3.08,3.32-4.22
			c1.54-1.14,3.55-1.99,6.04-2.56c2.49-0.57,5.52-0.85,9.08-0.85c2.05,0,4,0.07,5.84,0.2c1.84,0.14,3.22,0.26,4.14,0.37
			c0-1.89-0.31-3.46-0.93-4.7c-0.63-1.24-1.48-2.22-2.56-2.92c-1.08-0.7-2.38-1.19-3.89-1.46c-1.51-0.27-3.19-0.41-5.03-0.41
			c-3.08,0-5.56,0.35-7.42,1.05c-1.86,0.7-3.09,1.3-3.69,1.78c-0.32-0.27-0.77-0.78-1.34-1.54c-0.57-0.76-0.85-1.67-0.85-2.76
			c0-0.76,0.2-1.5,0.61-2.23c0.41-0.73,1.12-1.38,2.15-1.95c1.03-0.57,2.41-1.01,4.13-1.34c1.73-0.32,3.92-0.49,6.57-0.49
			c3.19,0,6.1,0.31,8.72,0.93c2.62,0.62,4.88,1.61,6.77,2.96c1.89,1.35,3.37,3.14,4.42,5.35c1.06,2.22,1.58,4.89,1.58,8.03V751.76z
			 M914.57,733.76c-0.54-0.11-1.55-0.27-3.04-0.49c-1.49-0.21-3.72-0.33-6.69-0.33c-3.68,0-6.35,0.56-8.03,1.66
			c-1.68,1.11-2.52,2.85-2.52,5.23c0,0.98,0.17,1.87,0.53,2.68c0.35,0.81,0.96,1.5,1.82,2.07c0.87,0.57,2.04,1,3.53,1.3
			c1.49,0.3,3.34,0.45,5.56,0.45c2.48,0,4.46-0.09,5.92-0.29c1.46-0.19,2.43-0.34,2.92-0.44V733.76z"/>
		<path class="st27" d="M936.63,692.96c1.57,0,2.89,0.54,3.97,1.62c1.08,1.08,1.62,2.41,1.62,3.97s-0.54,2.89-1.62,3.97
			c-1.08,1.09-2.41,1.62-3.97,1.62s-2.89-0.54-3.98-1.62c-1.08-1.08-1.62-2.41-1.62-3.97s0.54-2.89,1.62-3.97
			C933.73,693.5,935.06,692.96,936.63,692.96 M932,715.51c0-1.51,0.43-2.61,1.3-3.29c0.87-0.67,2.08-1.01,3.65-1.01
			c0.97,0,1.87,0.12,2.68,0.36c0.81,0.25,1.35,0.42,1.62,0.53v39.82H932V715.51z"/>
		<path class="st27" d="M949.52,727.35c0-2.7,0.5-5.12,1.5-7.26c1-2.14,2.38-3.95,4.14-5.44c1.76-1.49,3.84-2.62,6.25-3.4
			c2.41-0.78,5.04-1.18,7.91-1.18c2.87,0,5.52,0.39,7.95,1.18c2.43,0.78,4.53,1.92,6.29,3.4c1.75,1.49,3.12,3.3,4.1,5.44
			c0.97,2.13,1.46,4.56,1.46,7.26v24.58h-9.25V729.7c0-3.67-0.89-6.47-2.68-8.39c-1.78-1.92-4.41-2.88-7.87-2.88
			c-3.51,0-6.15,0.96-7.91,2.88c-1.76,1.92-2.64,4.72-2.64,8.39v22.22h-9.25V727.35z"/>
		<path class="st27" d="M720.17,712.51c-1.52-3.57-3.61-6.66-6.29-9.28c-2.68-2.62-5.81-4.68-9.41-6.16
			c-3.6-1.49-7.5-2.23-11.72-2.23c-4.22,0-8.12,0.74-11.72,2.23c-3.6,1.49-6.73,3.54-9.41,6.16c-2.68,2.62-4.77,5.72-6.29,9.28
			c-1.51,3.57-2.27,7.44-2.27,11.6c0,4.16,0.76,8.03,2.27,11.6c1.51,3.57,3.61,6.66,6.29,9.29c2.67,2.62,5.81,4.68,9.41,6.16
			c3.6,1.49,7.5,2.23,11.72,2.23c4.22,0,8.12-0.74,11.72-2.23c3.6-1.49,6.73-3.54,9.41-6.16c2.68-2.62,4.77-5.72,6.29-9.29
			c1.51-3.57,2.27-7.43,2.27-11.6C722.44,719.95,721.68,716.08,720.17,712.51 M675.04,721.96c3.31-1.09,7.7-2.48,7.7-2.48
			c9.65-3.07,10.94-6.7,10.94-6.7s2.03,3.63,9.04,6.03c0,0,3.87,1.27,7.47,2.57c0.18,0.36,0.37,0.71,0.53,1.09
			c0.63,1.49,1.06,3.07,1.29,4.72h-4.95c-0.01-0.03-0.02-0.06-0.03-0.09c-0.36-0.85-0.86-1.59-1.5-2.21
			c-0.64-0.63-1.38-1.11-2.24-1.47c-0.86-0.35-1.78-0.53-2.79-0.53c-1,0-1.93,0.18-2.79,0.53c-0.86,0.35-1.6,0.84-2.24,1.47
			c-0.64,0.62-1.13,1.36-1.49,2.21c-0.11,0.27-0.21,0.54-0.29,0.82h-1.87c-0.08-0.28-0.17-0.55-0.29-0.82
			c-0.36-0.85-0.86-1.59-1.49-2.21c-0.64-0.63-1.38-1.11-2.24-1.47c-0.86-0.35-1.78-0.53-2.79-0.53c-1,0-1.94,0.18-2.79,0.53
			c-0.86,0.35-1.6,0.84-2.24,1.47c-0.64,0.62-1.13,1.36-1.49,2.21c-0.01,0.03-0.02,0.06-0.04,0.09h-4.95
			c0.23-1.65,0.66-3.22,1.29-4.72C674.87,722.3,674.96,722.13,675.04,721.96 M704.69,729.86c0,0.59-0.11,1.14-0.32,1.64
			c-0.21,0.5-0.51,0.94-0.89,1.31c-0.38,0.37-0.82,0.66-1.33,0.87c-0.51,0.21-1.06,0.31-1.66,0.31c-0.59,0-1.15-0.1-1.65-0.31
			c-0.51-0.21-0.95-0.5-1.33-0.87c-0.38-0.37-0.67-0.81-0.89-1.31c-0.21-0.5-0.32-1.05-0.32-1.64c0-0.58,0.11-1.13,0.32-1.64
			c0.21-0.5,0.51-0.94,0.89-1.31c0.38-0.37,0.82-0.66,1.33-0.87c0.51-0.21,1.06-0.32,1.65-0.32c0.6,0,1.15,0.1,1.66,0.32
			c0.51,0.21,0.95,0.5,1.33,0.87c0.38,0.37,0.67,0.81,0.89,1.31C704.59,728.72,704.69,729.27,704.69,729.86 M689.21,729.86
			c0,0.59-0.11,1.14-0.32,1.64c-0.21,0.5-0.51,0.94-0.89,1.31c-0.38,0.37-0.82,0.66-1.33,0.87c-0.51,0.21-1.06,0.31-1.65,0.31
			c-0.6,0-1.15-0.1-1.66-0.31c-0.51-0.21-0.95-0.5-1.33-0.87c-0.38-0.37-0.67-0.81-0.89-1.31c-0.21-0.5-0.32-1.05-0.32-1.64
			c0-0.58,0.11-1.13,0.32-1.64c0.21-0.5,0.51-0.94,0.89-1.31c0.38-0.37,0.82-0.66,1.33-0.87c0.51-0.21,1.06-0.32,1.66-0.32
			c0.59,0,1.15,0.1,1.65,0.32c0.51,0.21,0.95,0.5,1.33,0.87c0.38,0.37,0.67,0.81,0.89,1.31
			C689.1,728.72,689.21,729.27,689.21,729.86 M706.6,743.75c-1.75,1.72-3.81,3.06-6.16,4.04c-2.36,0.97-4.92,1.46-7.68,1.46
			s-5.32-0.49-7.68-1.46c-2.36-0.98-4.41-2.32-6.17-4.04c-1.75-1.72-3.13-3.74-4.12-6.08c-0.96-2.26-1.45-4.7-1.48-7.32h4.66
			c0.05,0.81,0.22,1.56,0.52,2.27c0.36,0.85,0.86,1.59,1.49,2.21c0.64,0.62,1.38,1.11,2.24,1.46c0.85,0.36,1.78,0.54,2.79,0.54
			c1,0,1.93-0.18,2.79-0.54c0.86-0.35,1.6-0.84,2.24-1.46c0.64-0.62,1.14-1.36,1.49-2.21c0.24-0.56,0.4-1.15,0.48-1.78h1.49
			c0.08,0.62,0.24,1.22,0.48,1.78c0.36,0.85,0.86,1.59,1.49,2.21c0.64,0.62,1.38,1.11,2.24,1.46c0.86,0.36,1.78,0.54,2.79,0.54
			c1.01,0,1.93-0.18,2.79-0.54c0.86-0.35,1.6-0.84,2.24-1.46c0.64-0.62,1.14-1.36,1.5-2.21c0.3-0.71,0.47-1.46,0.52-2.27h4.65
			c-0.03,2.62-0.52,5.07-1.48,7.32C709.73,740.01,708.35,742.04,706.6,743.75"/>
	</g>
</g>
<g>
	<path class="st28" d="M30.56,582.54l-14.02-0.08l0.07-12.83l43.47,0.25l-0.08,12.83l-14.03-0.08l-0.21,37.23l-15.43-0.09
		L30.56,582.54z M30.56,582.54"/>
	<path class="st28" d="M72.79,603.68c-1.69,0.83-3.59,1.31-5.48,1.72c-3.09,0.69-4.71,1.44-4.72,3.9c-0.01,1.69,1.8,3.38,4.33,3.4
		c3.15,0.02,5.62-1.86,5.85-5.65L72.79,603.68z M86.07,611.96c-0.02,2.73,0.1,5.82,1.63,8.14l-14.16-0.08
		c-0.35-0.98-0.55-2.46-0.47-3.44h-0.14c-2.96,3.35-7.24,4.3-11.73,4.28c-7.01-0.04-12.81-3.44-12.77-11.08
		c0.07-11.5,13.53-11,20.62-12.29c1.9-0.34,3.79-0.89,3.8-3.2c0.02-2.46-2.29-3.38-4.53-3.4c-4.28-0.02-5.13,2.15-5.21,3.69
		l-12.9-0.07c0.48-10.23,10.16-11.86,18.79-11.81c17.39,0.1,17.21,7.32,17.16,14.34L86.07,611.96z M86.07,611.96"/>
	<g>
		<defs>
			<rect id="SVGID_00000000203634524313224000000009788016803539988114_" x="16.54" y="569.62" width="239.6" height="57.51"/>
		</defs>
		<clipPath id="SVGID_00000085229398458248209630000001646521816913723547_">
			<use xlink:href="#SVGID_00000000203634524313224000000009788016803539988114_"  style="overflow:visible;"/>
		</clipPath>
		<path style="clip-path:url(#SVGID_00000085229398458248209630000001646521816913723547_);fill:#154A99;" d="M107.47,593.01
			c-4.98-0.03-6.13,4.66-6.15,8.94c-0.03,4.34,1.07,9.05,6.05,9.08c4.98,0.02,6.13-4.66,6.15-9.01
			C113.54,597.75,112.45,593.04,107.47,593.01 M88.11,570.04l13.88,0.08l-0.1,17.67h0.14c2.12-3.07,5.84-4.88,9.98-4.85
			c12.2,0.07,15.43,10.47,15.38,19.02c-0.05,9.11-5.09,19.25-15.4,19.19c-6.8-0.04-8.89-2.65-10.63-4.97h-0.14l-0.02,4l-13.39-0.08
			L88.11,570.04z M88.11,570.04"/>
		<path style="clip-path:url(#SVGID_00000085229398458248209630000001646521816913723547_);fill:#154A99;" d="M146.88,579.72
			c-5.26-0.03-5.99,5.08-6.02,8.94c-0.02,3.85,0.65,9.05,5.91,9.08c5.26,0.03,5.99-5.15,6.01-9.01
			C152.81,584.87,152.14,579.75,146.88,579.72 M146.71,607.84c-13.67-0.08-19.79-9.16-19.73-19.26c0.06-10.1,6.28-19.03,19.95-18.95
			c13.67,0.08,19.79,9.09,19.73,19.18C166.61,598.91,160.39,607.91,146.71,607.84"/>
	</g>
	<path class="st28" d="M181.33,579.94c-5.26-0.03-5.99,5.08-6.01,8.94c-0.03,3.86,0.64,9.05,5.91,9.08
		c5.25,0.03,5.99-5.15,6.01-9.01C187.26,585.1,186.59,579.97,181.33,579.94 M181.16,608.06c-13.67-0.08-19.79-9.17-19.73-19.26
		c0.06-10.1,6.28-19.03,19.95-18.95c13.67,0.08,19.79,9.09,19.73,19.18C201.06,599.13,194.84,608.14,181.16,608.06"/>
	<g>
		<defs>
			<rect id="SVGID_00000139265293494391331170000009505533038413743780_" x="16.54" y="569.62" width="239.6" height="57.51"/>
		</defs>
		<clipPath id="SVGID_00000101815731158968053970000002403844124744429702_">
			<use xlink:href="#SVGID_00000139265293494391331170000009505533038413743780_"  style="overflow:visible;"/>
		</clipPath>
		<path style="clip-path:url(#SVGID_00000101815731158968053970000002403844124744429702_);fill:#154A99;" d="M202.62,570.73
			l13.88,0.08l-0.29,50.06l-13.88-0.08L202.62,570.73z M202.62,570.73"/>
		<path style="clip-path:url(#SVGID_00000101815731158968053970000002403844124744429702_);fill:#154A99;" d="M241.51,604.68
			c-1.69,0.83-3.58,1.31-5.47,1.72c-3.1,0.69-4.71,1.45-4.72,3.9c-0.01,1.68,1.8,3.38,4.33,3.39c3.16,0.02,5.62-1.86,5.85-5.65
			L241.51,604.68z M254.78,612.95c-0.01,2.74,0.11,5.82,1.64,8.14l-14.17-0.08c-0.34-0.99-0.55-2.46-0.47-3.44l-0.14,0
			c-2.96,3.35-7.24,4.31-11.73,4.28c-7.01-0.04-12.81-3.44-12.77-11.08c0.07-11.5,13.52-11,20.61-12.29c1.9-0.34,3.79-0.89,3.8-3.2
			c0.02-2.46-2.29-3.38-4.54-3.39c-4.28-0.02-5.13,2.14-5.21,3.68l-12.91-0.07c0.48-10.23,10.17-11.86,18.79-11.81
			c17.39,0.1,17.21,7.32,17.17,14.33L254.78,612.95z M254.78,612.95"/>
		<path style="clip-path:url(#SVGID_00000101815731158968053970000002403844124744429702_);fill:#154A99;" d="M132.19,607.59
			c9.86,4.4,20.08,6.36,31.23,6.42c11.71,0.07,20.55-1.77,31.79-6.05l-0.07,12.13c-10.06,4.99-20.93,7.31-31.81,7.25
			c-11.85-0.07-20.39-2.5-31.23-7.62L132.19,607.59z M132.19,607.59"/>
	</g>
</g>
</svg>
